<?xml version="1.0" encoding="utf-8"?>
<!-- Generator: Adobe Illustrator 23.0.1, SVG Export Plug-In . SVG Version: 6.00 Build 0)  -->
<svg version="1.1" id="Warstwa_1" xmlns="http://www.w3.org/2000/svg" xmlns:xlink="http://www.w3.org/1999/xlink" x="0px" y="0px"
	 viewBox="0 0 157.74 157.59" style="enable-background:new 0 0 157.74 157.59;" xml:space="preserve">
<style type="text/css">
	.st0{opacity:0.8;}
	.st1{fill:#F9B03D;stroke:#F9B03D;stroke-width:1.4346;stroke-miterlimit:10;}
	.st2{fill:#F9B03D;stroke:#F9B03D;stroke-width:4.3037;stroke-miterlimit:10;}
</style>
<g class="st0">
	<path class="st1" d="M27.16,78.93c0-5.19,4.21-9.39,9.39-9.39s9.39,4.21,9.39,9.39c0,5.19-4.21,9.39-9.39,9.39
		S27.16,84.11,27.16,78.93"/>
	<g>
		
			<ellipse transform="matrix(0.2034 -0.9791 0.9791 0.2034 -14.2449 139.809)" class="st2" cx="78.8" cy="78.66" rx="26.11" ry="26.11"/>
		<path class="st1" d="M77.38,26.01c5.19-0.14,9.5,3.95,9.65,9.14c0.14,5.19-3.95,9.5-9.14,9.65c-5.19,0.14-9.5-3.95-9.65-9.14
			C68.1,30.47,72.19,26.15,77.38,26.01"/>
		<path class="st1" d="M80.22,131.3c-5.19,0.14-9.5-3.95-9.65-9.14c-0.14-5.19,3.95-9.5,9.14-9.65c5.19-0.14,9.5,3.95,9.65,9.14
			C89.5,126.84,85.4,131.16,80.22,131.3"/>
		<path class="st1" d="M131.44,77.24c0.14,5.19-3.95,9.5-9.14,9.65c-5.19,0.14-9.5-3.95-9.65-9.14c-0.14-5.19,3.95-9.5,9.14-9.65
			C126.98,67.96,131.3,72.05,131.44,77.24"/>
		<circle class="st1" cx="47.39" cy="48.9" r="9.39"/>
		<circle class="st1" cx="110.21" cy="108.42" r="9.39"/>
		<circle class="st1" cx="49.04" cy="110.07" r="9.39"/>
		<circle class="st1" cx="108.56" cy="47.25" r="9.39"/>
		<path class="st1" d="M155.84,92.62c0.74-4.17,1.13-8.46,1.18-12.83l-11.6-3.32c-0.13-3.48-0.52-6.9-1.16-10.22l10.45-6.29
			c-1.03-4.15-2.4-8.16-4.06-12.02l-11.95,1.69c-1.57-3.22-3.41-6.29-5.46-9.19l6.97-9.97c-2.59-3.28-5.44-6.34-8.52-9.16
			l-10.23,6.41c-2.82-2.35-5.83-4.46-9.01-6.32l2.31-11.93c-3.65-1.89-7.45-3.5-11.4-4.81l-6.76,10.03
			c-3.55-0.99-7.23-1.68-10.99-2.06L82.87,0.82c-2.04-0.1-4.1-0.13-6.17-0.07c-2.08,0.06-4.13,0.2-6.16,0.41l-2.09,11.94
			c-3.74,0.58-7.37,1.47-10.86,2.65l-7.29-9.66C46.41,7.6,42.7,9.41,39.16,11.5l2.95,11.79c-3.07,2.03-5.97,4.3-8.65,6.8L22.9,24.24
			c-2.92,2.98-5.6,6.2-8.01,9.61l7.5,9.58c-1.9,3.01-3.56,6.17-4.96,9.47L5.4,51.86c-1.45,3.94-2.6,8.02-3.41,12.22l10.78,5.72
			c-0.46,3.35-0.67,6.78-0.61,10.26L0.75,84c0.28,4.36,0.91,8.63,1.87,12.75l12.17,0.84c0.93,3.2,2.09,6.29,3.46,9.26l-8.83,8.25
			c2.03,3.89,4.38,7.58,7,11.05l11.47-4.18c2.05,2.43,4.27,4.7,6.64,6.8l-4.72,11.15c3.43,2.76,7.1,5.24,10.97,7.4l8.75-8.47
			c2.77,1.35,5.64,2.52,8.6,3.49l0.22,12.13c4.24,1.14,8.62,1.94,13.11,2.36l4.55-11.28c1.52,0.06,3.05,0.07,4.59,0.03
			c1.54-0.04,3.07-0.13,4.58-0.28l5.15,11.02c4.45-0.66,8.79-1.69,12.96-3.07l-0.44-12.12c2.9-1.13,5.71-2.45,8.4-3.95l9.2,7.99
			c3.75-2.36,7.28-5.04,10.56-7.98l-5.32-10.88c2.25-2.23,4.35-4.62,6.26-7.15l11.68,3.56c2.44-3.6,4.58-7.41,6.4-11.41l-9.26-7.76
			c1.21-3.04,2.2-6.19,2.96-9.43L155.84,92.62z M80.4,138.19c-32.88,0.89-60.25-25.05-61.13-57.93s25.04-60.24,57.92-61.13
			s60.24,25.04,61.13,57.92S113.28,137.3,80.4,138.19z"/>
	</g>
</g>
</svg>
