<?xml version="1.0" encoding="utf-8"?>
<!-- Generator: Adobe Illustrator 23.0.1, SVG Export Plug-In . SVG Version: 6.00 Build 0)  -->
<svg version="1.1" id="Warstwa_1" xmlns="http://www.w3.org/2000/svg" xmlns:xlink="http://www.w3.org/1999/xlink" x="0px" y="0px"
	 viewBox="0 0 249.66 249.42" style="enable-background:new 0 0 249.66 249.42;" xml:space="preserve">
<style type="text/css">
	.st0{opacity:0.8;}
	.st1{fill:#F9B03D;stroke:#F9B03D;stroke-width:2.2705;stroke-miterlimit:10;}
	.st2{fill:#F9B03D;stroke:#F9B03D;stroke-width:6.8115;stroke-miterlimit:10;}
</style>
<g class="st0">
	<path class="st1" d="M42.99,124.92c0-8.21,6.66-14.87,14.87-14.87s14.87,6.66,14.87,14.87s-6.66,14.87-14.87,14.87
		S42.99,133.13,42.99,124.92"/>
	<g>
		
			<ellipse transform="matrix(0.2034 -0.9791 0.9791 0.2034 -22.5456 221.2773)" class="st2" cx="124.71" cy="124.49" rx="41.32" ry="41.32"/>
		<path class="st1" d="M122.46,41.17c8.21-0.22,15.04,6.25,15.27,14.46s-6.25,15.04-14.46,15.27S108.22,64.65,108,56.44
			S114.25,41.39,122.46,41.17"/>
		<path class="st1" d="M126.96,207.81c-8.21,0.22-15.04-6.25-15.27-14.46s6.25-15.04,14.46-15.27s15.04,6.25,15.27,14.46
			S135.17,207.59,126.96,207.81"/>
		<path class="st1" d="M208.03,122.24c0.22,8.21-6.25,15.04-14.46,15.27s-15.04-6.25-15.27-14.46c-0.22-8.21,6.25-15.04,14.46-15.27
			S207.81,114.04,208.03,122.24"/>
		<circle class="st1" cx="75" cy="77.39" r="14.87"/>
		<circle class="st1" cx="174.43" cy="171.59" r="14.87"/>
		<circle class="st1" cx="77.61" cy="174.21" r="14.87"/>
		<circle class="st1" cx="171.81" cy="74.78" r="14.87"/>
		<path class="st1" d="M246.65,146.59c1.17-6.6,1.79-13.39,1.86-20.31l-18.37-5.25c-0.21-5.51-0.83-10.91-1.84-16.17l16.54-9.96
			c-1.64-6.57-3.8-12.92-6.43-19.02l-18.92,2.68c-2.49-5.1-5.39-9.96-8.64-14.55l11.03-15.79c-4.1-5.18-8.61-10.03-13.48-14.5
			l-16.19,10.15c-4.46-3.71-9.23-7.06-14.25-10.01l3.65-18.88c-5.77-3-11.79-5.54-18.05-7.61l-10.69,15.88
			c-5.63-1.56-11.44-2.66-17.4-3.26L131.15,1.3c-3.22-0.16-6.48-0.21-9.77-0.12c-3.29,0.09-6.54,0.32-9.75,0.65l-3.31,18.89
			c-5.92,0.92-11.66,2.33-17.2,4.19L79.59,9.63c-6.13,2.4-12.01,5.27-17.61,8.57l4.66,18.65c-4.86,3.21-9.44,6.81-13.69,10.76
			l-16.71-9.26c-4.62,4.72-8.86,9.81-12.68,15.21l11.87,15.17c-3,4.76-5.63,9.77-7.84,14.99L8.55,82.08
			c-2.3,6.24-4.12,12.69-5.4,19.34l17.05,9.05c-0.73,5.3-1.05,10.73-0.96,16.25l-18.06,6.23c0.44,6.9,1.43,13.66,2.95,20.18
			l19.27,1.33c1.47,5.06,3.3,9.96,5.48,14.66l-13.98,13.05c3.21,6.16,6.93,12,11.08,17.48l18.15-6.62
			c3.24,3.84,6.76,7.44,10.51,10.77l-7.47,17.65c5.44,4.37,11.24,8.29,17.37,11.71l13.85-13.41c4.38,2.14,8.92,3.99,13.61,5.52
			l0.34,19.2c6.71,1.81,13.65,3.07,20.75,3.74l7.2-17.85c2.4,0.1,4.82,0.11,7.27,0.05c2.44-0.07,4.86-0.21,7.25-0.44l8.15,17.44
			c7.05-1.05,13.91-2.68,20.51-4.85l-0.69-19.19c4.6-1.78,9.04-3.87,13.29-6.24l14.56,12.64c5.93-3.74,11.52-7.97,16.71-12.63
			l-8.41-17.22c3.57-3.53,6.88-7.31,9.91-11.32l18.48,5.63c3.85-5.7,7.25-11.73,10.12-18.06l-14.66-12.28
			c1.92-4.81,3.49-9.8,4.68-14.93L246.65,146.59z M127.26,218.72c-52.04,1.4-95.35-39.64-96.76-91.68
			C29.1,75,70.13,31.69,122.17,30.28c52.04-1.4,95.35,39.63,96.75,91.67C220.33,173.99,179.29,217.31,127.26,218.72z"/>
	</g>
</g>
<g>
</g>
<g>
</g>
<g>
</g>
<g>
</g>
<g>
</g>
<g>
</g>
</svg>
