<?xml version="1.0" encoding="utf-8"?>
<!-- Generator: Adobe Illustrator 23.0.1, SVG Export Plug-In . SVG Version: 6.00 Build 0)  -->
<svg version="1.1" id="Warstwa_1" xmlns="http://www.w3.org/2000/svg" xmlns:xlink="http://www.w3.org/1999/xlink" x="0px" y="0px"
	 viewBox="0 0 286.52 285.75" style="enable-background:new 0 0 286.52 285.75;" xml:space="preserve">
<style type="text/css">
	.st0{opacity:0.8;}
	.st1{fill:#EB5D2F;stroke:#EB5D2F;stroke-width:2.5524;stroke-miterlimit:10;}
</style>
<g class="st0">
	<path class="st1" d="M282.44,171.94c1.54-7.53,2.47-15.31,2.76-23.24l-20.9-6.59c-0.07-6.33-0.61-12.54-1.61-18.6l19.28-10.91
		c-1.67-7.59-3.96-14.94-6.79-22.02l-21.78,2.49c-2.7-5.93-5.87-11.59-9.46-16.96l13.14-17.77c-4.54-6.07-9.57-11.77-15.02-17.05
		l-18.88,11.14c-5-4.4-10.37-8.39-16.04-11.92l4.77-21.54c-6.52-3.61-13.35-6.72-20.46-9.29L178.7,27.56
		c-6.41-1.97-13.04-3.4-19.85-4.28l-4.39-21.57c-3.69-0.28-7.43-0.44-11.2-0.44c-3.77,0-7.51,0.16-11.2,0.44l-4.39,21.57
		c-6.82,0.88-13.45,2.31-19.85,4.28L95.06,9.67c-7.11,2.56-13.94,5.67-20.46,9.29l4.77,21.54c-5.67,3.53-11.04,7.52-16.04,11.92
		L44.45,41.29C39,46.56,33.97,52.26,29.43,58.34L42.57,76.1c-3.59,5.37-6.76,11.03-9.46,16.96l-21.78-2.49
		c-2.83,7.08-5.12,14.43-6.79,22.02l19.28,10.91c-1,6.06-1.54,12.28-1.61,18.6l-20.9,6.59c0.29,7.93,1.22,15.71,2.76,23.24
		l22.06,2.13c1.53,5.85,3.48,11.52,5.83,16.98l-16.44,14.54c3.5,7.16,7.57,13.98,12.17,20.4l21.02-7.03
		c3.6,4.5,7.52,8.74,11.72,12.68l-9.12,20.01c6.1,5.18,12.64,9.86,19.56,13.97l16.3-14.95c4.96,2.59,10.11,4.85,15.44,6.75
		l-0.2,22.03c7.64,2.29,15.56,3.95,23.68,4.93l8.81-20.25c2.75,0.19,5.53,0.28,8.33,0.28c2.8,0,5.58-0.09,8.33-0.28l8.81,20.25
		c8.12-0.98,16.04-2.64,23.68-4.93l-0.2-22.03c5.33-1.9,10.48-4.16,15.44-6.75l16.3,14.95c6.92-4.11,13.46-8.78,19.56-13.97
		l-9.12-20.01c4.2-3.93,8.12-8.17,11.72-12.68l21.02,7.03c4.6-6.42,8.68-13.24,12.17-20.4l-16.44-14.54
		c2.35-5.46,4.31-11.14,5.83-16.98L282.44,171.94z M146.78,250.92C84.25,252.91,33.17,201.8,35.17,139.27
		C36.99,82.65,83.11,36.54,139.74,34.74c62.53-1.99,113.61,49.11,111.61,111.64C249.53,203.01,203.41,249.12,146.78,250.92z"/>
	<path class="st1" d="M147.46,62.13c-47.95-2.43-87.33,36.96-84.9,84.9c2.08,41.05,35.44,74.41,76.49,76.49
		c47.95,2.43,87.33-36.96,84.9-84.9C221.88,97.57,188.52,64.21,147.46,62.13z M184.37,169.12c-4.07,0.81-8.07,0.67-11.75-0.23
		c-1.02,1.15-2.1,2.24-3.26,3.26c0.38,1.61,0.62,3.27,0.69,4.98c0.62,14.07-10.05,26.53-24.07,27.91
		c-16.04,1.58-29.54-10.97-29.54-26.69c0-2.14,0.24-4.21,0.72-6.2c-1.15-1.02-2.24-2.1-3.26-3.26c-3.66,0.9-7.64,1.04-11.68,0.24
		c-11.69-2.3-20.56-12.41-21.43-24.29c-1.15-15.72,11.26-28.84,26.75-28.84c2.19,0,4.33,0.27,6.37,0.76
		c1.04-1.17,2.16-2.28,3.33-3.33c-0.91-3.66-1.08-7.63-0.32-11.66c2.2-11.71,12.25-20.65,24.12-21.6
		c15.82-1.27,29.04,11.18,29.04,26.73c0,2.25-0.28,4.44-0.8,6.53c1.17,1.05,2.29,2.16,3.33,3.33c2.04-0.5,4.17-0.76,6.37-0.76
		c15.44,0,27.82,13.04,26.76,28.71C204.93,156.63,196.07,166.79,184.37,169.12z"/>
	<line class="st1" x1="143.26" y1="80.08" x2="143.26" y2="205.17"/>
	<line class="st1" x1="80.71" y1="142.83" x2="205.8" y2="142.83"/>
	<line class="st1" x1="169.94" y1="115.59" x2="115.81" y2="169.72"/>
	<line class="st1" x1="115.81" y1="114.78" x2="170.34" y2="169.32"/>
</g>
<g>
</g>
<g>
</g>
<g>
</g>
<g>
</g>
<g>
</g>
<g>
</g>
</svg>
