<?xml version="1.0" encoding="utf-8"?>
<!-- Generator: Adobe Illustrator 23.0.1, SVG Export Plug-In . SVG Version: 6.00 Build 0)  -->
<svg version="1.1" id="Warstwa_1" xmlns="http://www.w3.org/2000/svg" xmlns:xlink="http://www.w3.org/1999/xlink" x="0px" y="0px"
	 viewBox="0 0 153.32 153.79" style="enable-background:new 0 0 153.32 153.79;" xml:space="preserve">
<style type="text/css">
	.st0{opacity:0.8;}
	.st1{fill:#F0812B;stroke:#F0812B;stroke-width:3.2389;stroke-miterlimit:10;}
</style>
<g class="st0">
	<path class="st1" d="M151.26,85.15c0.44-4.05,0.55-8.2,0.32-12.4l-11.35-2.45c-0.35-3.33-0.94-6.59-1.76-9.73l9.64-6.7
		c-1.26-3.92-2.82-7.68-4.66-11.28l-11.37,2.38c-1.71-2.99-3.67-5.82-5.82-8.48l6.06-10.02c-2.7-2.98-5.62-5.74-8.76-8.26l-9.41,6.8
		c-2.85-2.08-5.88-3.91-9.05-5.5l1.46-11.6c-3.62-1.59-7.37-2.89-11.25-3.9l-5.85,10.06c-3.48-0.72-7.04-1.15-10.68-1.28L75.4,1.64
		c-1.96,0.03-3.94,0.13-5.93,0.32s-3.95,0.45-5.89,0.78l-1.25,11.59c-3.55,0.8-6.98,1.88-10.26,3.23l-7.61-8.81
		c-3.62,1.7-7.07,3.68-10.34,5.9l3.57,11.13c-2.82,2.14-5.46,4.51-7.88,7.07l-10.51-4.95c-2.61,3.05-4.98,6.3-7.08,9.73l7.8,8.73
		c-1.63,3.01-3.03,6.15-4.16,9.41L4.26,55.54c-1.15,3.88-1.99,7.86-2.5,11.95l10.71,4.81c-0.23,3.25-0.21,6.55,0.06,9.89l-10.7,4.5
		c0.54,4.17,1.42,8.23,2.6,12.12l11.74,0.04c1.09,3.01,2.4,5.91,3.91,8.67L12.12,116c2.2,3.61,4.68,7,7.42,10.16l10.74-4.74
		c2.12,2.2,4.4,4.24,6.8,6.11l-3.83,11c3.47,2.43,7.15,4.58,11,6.41l7.87-8.69c2.74,1.12,5.57,2.06,8.48,2.8l0.98,11.63
		c4.14,0.83,8.4,1.32,12.73,1.44l3.65-11.11c1.46-0.04,2.93-0.12,4.41-0.26c1.48-0.14,2.94-0.32,4.38-0.56l5.64,10.25
		c4.23-0.92,8.33-2.18,12.25-3.76l-1.19-11.61c2.72-1.26,5.33-2.71,7.81-4.32l9.33,7.09c3.45-2.51,6.67-5.29,9.63-8.33l-5.79-10.11
		c2.02-2.28,3.88-4.71,5.56-7.26l11.43,2.68c2.11-3.61,3.93-7.41,5.42-11.36l-9.38-6.86c0.97-3,1.72-6.09,2.24-9.24L151.26,85.15z
		 M81.72,133.68c-31.51,2.93-59.42-20.24-62.35-51.74S39.6,22.51,71.11,19.58s59.42,20.23,62.35,51.74S113.23,130.75,81.72,133.68z"
		/>
	<path class="st1" d="M72.45,34C48.91,36.19,31.6,57.05,33.79,80.59c2.19,23.54,23.05,40.85,46.59,38.66s40.85-23.05,38.66-46.59
		C116.85,49.12,95.99,31.81,72.45,34z M78.34,97.34C66.9,98.4,56.77,89.99,55.71,78.55c-1.06-11.43,7.34-21.56,18.78-22.63
		c11.44-1.06,21.57,7.34,22.63,18.78C98.18,86.14,89.78,96.27,78.34,97.34z"/>
	<line class="st1" x1="76.41" y1="19.34" x2="76.41" y2="133.92"/>
	<path class="st1" d="M19.14,75.26"/>
	<line class="st1" x1="19.14" y1="76.89" x2="132.35" y2="76.89"/>
	<line class="st1" x1="36.7" y1="116.66" x2="116.75" y2="36.6"/>
	<line class="st1" x1="35.72" y1="36.6" x2="115.77" y2="116.65"/>
</g>
<g>
</g>
<g>
</g>
<g>
</g>
<g>
</g>
<g>
</g>
<g>
</g>
</svg>
