<?xml version="1.0" encoding="utf-8"?>
<!-- Generator: Adobe Illustrator 23.0.1, SVG Export Plug-In . SVG Version: 6.00 Build 0)  -->
<svg version="1.1" id="Warstwa_1" xmlns="http://www.w3.org/2000/svg" xmlns:xlink="http://www.w3.org/1999/xlink" x="0px" y="0px"
	 viewBox="0 0 167.46 167.02" style="enable-background:new 0 0 167.46 167.02;" xml:space="preserve">
<style type="text/css">
	.st0{opacity:0.8;}
	.st1{fill:#F0812B;stroke:#F0812B;stroke-width:1.4918;stroke-miterlimit:10;}
</style>
<g class="st0">
	<path class="st1" d="M165.08,100.5c0.9-4.4,1.44-8.95,1.62-13.58l-12.22-3.85c-0.04-3.7-0.36-7.33-0.94-10.87l11.27-6.38
		c-0.98-4.44-2.31-8.73-3.97-12.87l-12.73,1.45c-1.58-3.46-3.43-6.77-5.53-9.91l7.68-10.38c-2.66-3.55-5.59-6.88-8.78-9.96
		l-11.04,6.51c-2.92-2.57-6.06-4.9-9.37-6.97l2.79-12.59c-3.81-2.11-7.81-3.93-11.96-5.43l-7.46,10.45
		c-3.74-1.15-7.62-1.99-11.6-2.5L90.28,1c-2.16-0.16-4.34-0.26-6.55-0.26S79.34,0.84,77.18,1l-2.56,12.61
		c-3.98,0.51-7.86,1.35-11.6,2.5L55.56,5.65c-4.16,1.5-8.15,3.32-11.96,5.43l2.79,12.59c-3.32,2.07-6.45,4.4-9.37,6.97l-11.04-6.51
		c-3.18,3.08-6.12,6.42-8.78,9.96l7.68,10.38c-2.1,3.14-3.95,6.45-5.53,9.91L6.62,52.94c-1.65,4.14-2.99,8.43-3.97,12.87l11.27,6.38
		c-0.58,3.54-0.9,7.18-0.94,10.87L0.77,86.91c0.17,4.64,0.71,9.18,1.62,13.58l12.89,1.24c0.89,3.42,2.04,6.73,3.41,9.93l-9.61,8.5
		c2.04,4.19,4.43,8.17,7.11,11.92l12.29-4.11c2.1,2.63,4.4,5.11,6.85,7.41L30,147.08c3.56,3.03,7.39,5.76,11.43,8.16l9.53-8.74
		c2.9,1.51,5.91,2.84,9.03,3.95l-0.12,12.88c4.47,1.34,9.09,2.31,13.84,2.88l5.15-11.84c1.61,0.11,3.23,0.16,4.87,0.16
		c1.64,0,3.26-0.05,4.87-0.16l5.15,11.84c4.75-0.57,9.37-1.55,13.84-2.88l-0.12-12.88c3.11-1.11,6.13-2.43,9.02-3.95l9.53,8.74
		c4.05-2.4,7.87-5.13,11.43-8.16l-5.33-11.7c2.45-2.3,4.75-4.78,6.85-7.41l12.29,4.11c2.69-3.75,5.07-7.74,7.11-11.92l-9.61-8.5
		c1.37-3.19,2.52-6.51,3.41-9.93L165.08,100.5z M85.79,146.66c-36.55,1.16-66.41-28.71-65.23-65.26
		c1.06-33.1,28.02-60.05,61.11-61.1c36.55-1.16,66.4,28.7,65.23,65.25C145.84,118.65,118.89,145.61,85.79,146.66z"/>
	<path class="st1" d="M86.19,36.31c-28.02-1.42-51.04,21.6-49.62,49.63c1.22,24,20.71,43.49,44.71,44.71
		c28.02,1.42,51.04-21.6,49.62-49.62C129.68,57.03,110.19,37.53,86.19,36.31z M107.76,98.85c-2.38,0.47-4.72,0.39-6.87-0.13
		c-0.6,0.67-1.23,1.31-1.9,1.9c0.22,0.94,0.36,1.91,0.4,2.91c0.36,8.22-5.88,15.51-14.07,16.31c-9.38,0.92-17.27-6.41-17.27-15.6
		c0-1.25,0.14-2.46,0.42-3.62c-0.67-0.6-1.31-1.23-1.9-1.9c-2.14,0.52-4.46,0.61-6.83,0.14c-6.83-1.34-12.02-7.25-12.53-14.2
		C46.55,75.48,53.8,67.8,62.85,67.8c1.28,0,2.53,0.16,3.72,0.45c0.61-0.69,1.26-1.33,1.95-1.95c-0.53-2.14-0.63-4.46-0.19-6.82
		c1.29-6.84,7.16-12.07,14.1-12.63c9.25-0.74,16.97,6.54,16.97,15.62c0,1.31-0.16,2.6-0.47,3.82c0.69,0.61,1.34,1.26,1.95,1.95
		c1.19-0.29,2.44-0.45,3.72-0.45c9.02,0,16.26,7.62,15.64,16.78C119.78,91.55,114.6,97.49,107.76,98.85z"/>
	<line class="st1" x1="83.73" y1="46.81" x2="83.73" y2="119.92"/>
	<line class="st1" x1="47.18" y1="83.48" x2="120.29" y2="83.48"/>
	<line class="st1" x1="99.33" y1="67.56" x2="67.69" y2="99.2"/>
	<line class="st1" x1="67.69" y1="67.09" x2="99.56" y2="98.96"/>
</g>
<g>
</g>
<g>
</g>
<g>
</g>
<g>
</g>
<g>
</g>
<g>
</g>
</svg>
