<?xml version="1.0" encoding="utf-8"?>
<!-- Generator: Adobe Illustrator 23.0.1, SVG Export Plug-In . SVG Version: 6.00 Build 0)  -->
<svg version="1.1" id="Warstwa_1" xmlns="http://www.w3.org/2000/svg" xmlns:xlink="http://www.w3.org/1999/xlink" x="0px" y="0px"
	 viewBox="0 0 312.81 313.77" style="enable-background:new 0 0 312.81 313.77;" xml:space="preserve">
<style type="text/css">
	.st0{opacity:0.8;}
	.st1{fill:#EB5D2F;stroke:#EB5D2F;stroke-width:6.6083;stroke-miterlimit:10;}
</style>
<g class="st0">
	<path class="st1" d="M308.61,173.74c0.9-8.26,1.13-16.72,0.65-25.29l-23.16-5c-0.7-6.8-1.91-13.44-3.59-19.86l19.66-13.67
		c-2.56-8-5.76-15.68-9.51-23.02l-23.19,4.86c-3.5-6.11-7.48-11.88-11.88-17.3l12.37-20.44c-5.5-6.08-11.48-11.71-17.87-16.85
		l-19.21,13.88c-5.82-4.23-11.99-7.99-18.46-11.22l2.98-23.66c-7.38-3.24-15.05-5.9-22.95-7.95L182.5,28.74
		c-7.09-1.48-14.37-2.36-21.79-2.62l-6.88-22.77c-4,0.07-8.04,0.27-12.1,0.65c-4.06,0.38-8.06,0.92-12.01,1.59l-2.56,23.65
		c-7.25,1.63-14.24,3.84-20.94,6.59L90.7,17.86c-7.39,3.47-14.43,7.5-21.09,12.05l7.29,22.71c-5.75,4.37-11.13,9.2-16.07,14.43
		L39.39,56.95c-5.34,6.22-10.17,12.86-14.45,19.85l15.92,17.81c-3.32,6.14-6.18,12.55-8.49,19.2l-23.69-0.49
		c-2.34,7.91-4.06,16.04-5.1,24.38l21.84,9.81c-0.47,6.62-0.43,13.37,0.13,20.18l-21.84,9.19c1.11,8.51,2.89,16.78,5.3,24.74
		l23.95,0.08c2.23,6.14,4.9,12.05,7.98,17.69l-16.24,17.29c4.48,7.36,9.55,14.29,15.14,20.73l21.92-9.67
		c4.33,4.49,8.97,8.66,13.88,12.47l-7.81,22.45c7.08,4.97,14.59,9.35,22.45,13.07l16.05-17.72c5.59,2.29,11.37,4.21,17.29,5.72
		l1.99,23.73c8.45,1.7,17.14,2.69,25.98,2.93l7.45-22.68c2.98-0.08,5.98-0.25,9-0.53c3.02-0.28,6-0.66,8.94-1.13l11.51,20.91
		c8.64-1.87,17-4.45,24.99-7.68l-2.42-23.69c5.54-2.58,10.87-5.53,15.94-8.81l19.04,14.46c7.04-5.11,13.61-10.8,19.65-16.99
		l-11.81-20.63c4.13-4.65,7.92-9.61,11.34-14.82l23.33,5.46c4.31-7.37,8.01-15.11,11.06-23.17l-19.15-14
		c1.98-6.11,3.52-12.42,4.58-18.86L308.61,173.74z M166.73,272.74c-64.29,5.98-121.23-41.29-127.22-105.57S80.79,45.93,145.08,39.95
		s121.23,41.27,127.21,105.56C278.27,209.8,231.02,266.76,166.73,272.74z"/>
	<path class="st1" d="M147.81,69.38c-48.03,4.47-83.34,47.03-78.88,95.06c4.47,48.03,47.03,83.34,95.06,78.88
		c48.03-4.47,83.34-47.03,78.88-95.06C238.4,100.22,195.84,64.91,147.81,69.38z M159.83,198.59c-23.34,2.17-44.01-14.98-46.18-38.32
		c-2.17-23.32,14.98-44,38.32-46.17c23.34-2.17,44.01,14.98,46.18,38.31C200.32,175.75,183.17,196.42,159.83,198.59z"/>
	<line class="st1" x1="155.9" y1="39.45" x2="155.9" y2="273.24"/>
	<line class="st1" x1="39.05" y1="156.87" x2="270.03" y2="156.87"/>
	<line class="st1" x1="74.88" y1="238.01" x2="238.21" y2="74.68"/>
	<line class="st1" x1="72.87" y1="74.68" x2="236.2" y2="238.01"/>
</g>
</svg>
