<?xml version="1.0" encoding="utf-8"?>
<!-- Generator: Adobe Illustrator 23.0.1, SVG Export Plug-In . SVG Version: 6.00 Build 0)  -->
<svg version="1.1" id="Warstwa_1" xmlns="http://www.w3.org/2000/svg" xmlns:xlink="http://www.w3.org/1999/xlink" x="0px" y="0px"
	 viewBox="0 0 242.34 241.7" style="enable-background:new 0 0 242.34 241.7;" xml:space="preserve">
<style type="text/css">
	.st0{opacity:0.8;}
	.st1{fill:#F49A54;stroke:#F49A54;stroke-width:2.1589;stroke-miterlimit:10;}
</style>
<g class="st0">
	<path class="st1" d="M238.9,145.43c1.3-6.37,2.09-12.95,2.34-19.66l-17.68-5.57c-0.06-5.35-0.52-10.61-1.36-15.74l16.31-9.23
		c-1.42-6.42-3.35-12.63-5.74-18.62l-18.42,2.1c-2.28-5.01-4.97-9.8-8-14.34l11.12-15.03c-3.84-5.14-8.09-9.96-12.7-14.42
		l-15.97,9.42c-4.23-3.72-8.77-7.09-13.57-10.08l4.04-18.22c-5.52-3.06-11.3-5.69-17.31-7.86l-10.79,15.13
		c-5.42-1.66-11.03-2.88-16.79-3.62l-3.71-18.24c-3.12-0.24-6.28-0.37-9.47-0.37c-3.19,0-6.35,0.13-9.47,0.37l-3.71,18.24
		c-5.77,0.74-11.37,1.96-16.79,3.62L80.41,8.18c-6.01,2.17-11.79,4.8-17.31,7.86l4.04,18.22c-4.8,2.99-9.34,6.36-13.57,10.08
		l-15.97-9.42c-4.61,4.46-8.86,9.28-12.7,14.42l11.12,15.03c-3.03,4.54-5.72,9.33-8,14.34l-18.42-2.1
		C7.19,82.6,5.26,88.82,3.84,95.23l16.31,9.23c-0.84,5.13-1.3,10.39-1.36,15.74l-17.68,5.57c0.25,6.71,1.03,13.29,2.34,19.66
		l18.66,1.8c1.29,4.95,2.94,9.74,4.93,14.36l-13.9,12.3c2.96,6.06,6.41,11.82,10.3,17.25l17.78-5.95c3.05,3.81,6.36,7.4,9.91,10.72
		l-7.71,16.93c5.16,4.38,10.69,8.34,16.54,11.81l13.79-12.64c4.19,2.19,8.55,4.1,13.06,5.71l-0.17,18.64
		c6.46,1.93,13.16,3.34,20.03,4.17l7.45-17.13c2.33,0.16,4.68,0.24,7.05,0.24c2.37,0,4.72-0.08,7.05-0.24l7.45,17.13
		c6.87-0.83,13.57-2.24,20.03-4.17l-0.17-18.64c4.51-1.61,8.87-3.52,13.06-5.71l13.79,12.64c5.86-3.47,11.39-7.43,16.54-11.81
		l-7.71-16.93c3.55-3.33,6.87-6.91,9.91-10.72l17.78,5.95c3.89-5.43,7.34-11.19,10.3-17.25l-13.9-12.3
		c1.99-4.62,3.64-9.42,4.93-14.36L238.9,145.43z M124.15,212.24c-52.89,1.68-96.1-41.55-94.4-94.44
		c1.53-47.89,40.55-86.89,88.44-88.42c52.89-1.68,96.1,41.54,94.4,94.43C211.06,171.71,172.05,210.71,124.15,212.24z"/>
	<path class="st1" d="M124.73,52.55c-40.55-2.05-73.87,31.26-71.81,71.81c1.76,34.72,29.98,62.94,64.7,64.7
		c40.55,2.05,73.87-31.26,71.81-71.81C187.67,82.53,159.45,54.31,124.73,52.55z M155.94,143.05c-3.44,0.69-6.83,0.57-9.94-0.19
		c-0.86,0.97-1.78,1.89-2.75,2.75c0.33,1.36,0.52,2.77,0.59,4.21c0.52,11.9-8.5,22.44-20.36,23.61
		c-13.57,1.34-24.99-9.28-24.99-22.57c0-1.81,0.21-3.56,0.61-5.25c-0.97-0.86-1.89-1.78-2.75-2.75c-3.09,0.76-6.46,0.88-9.88,0.21
		c-9.89-1.94-17.39-10.5-18.13-20.55c-0.97-13.29,9.52-24.39,22.62-24.39c1.85,0,3.66,0.22,5.39,0.65c0.88-0.99,1.83-1.93,2.82-2.82
		c-0.77-3.1-0.91-6.45-0.27-9.87c1.86-9.9,10.36-17.46,20.4-18.27c13.38-1.07,24.56,9.46,24.56,22.61c0,1.9-0.23,3.76-0.67,5.53
		c0.99,0.89,1.94,1.83,2.82,2.82c1.72-0.42,3.53-0.65,5.39-0.65c13.06,0,23.53,11.03,22.63,24.28
		C173.33,132.48,165.84,141.08,155.94,143.05z"/>
	<line class="st1" x1="121.17" y1="67.74" x2="121.17" y2="173.54"/>
	<line class="st1" x1="68.27" y1="120.81" x2="174.07" y2="120.81"/>
	<line class="st1" x1="143.74" y1="97.77" x2="97.95" y2="143.55"/>
	<line class="st1" x1="97.95" y1="97.09" x2="144.08" y2="143.21"/>
</g>
<g>
</g>
<g>
</g>
<g>
</g>
<g>
</g>
<g>
</g>
<g>
</g>
</svg>
