<?xml version="1.0" encoding="utf-8"?>
<!-- Generator: Adobe Illustrator 23.0.1, SVG Export Plug-In . SVG Version: 6.00 Build 0)  -->
<svg version="1.1" id="Warstwa_1" xmlns="http://www.w3.org/2000/svg" xmlns:xlink="http://www.w3.org/1999/xlink" x="0px" y="0px"
	 viewBox="0 0 292.68 293.58" style="enable-background:new 0 0 292.68 293.58;" xml:space="preserve">
<style type="text/css">
	.st0{opacity:0.8;}
	.st1{fill:#EB5D2F;stroke:#EB5D2F;stroke-width:6.1831;stroke-miterlimit:10;}
</style>
<g class="st0">
	<path class="st1" d="M288.75,162.56c0.85-7.73,1.05-15.65,0.61-23.66l-21.67-4.68c-0.66-6.36-1.79-12.57-3.36-18.58l18.39-12.79
		c-2.4-7.48-5.39-14.67-8.9-21.54l-21.7,4.54c-3.27-5.72-7-11.12-11.12-16.19l11.57-19.12c-5.15-5.69-10.74-10.96-16.72-15.76
		l-17.97,12.98c-5.44-3.96-11.22-7.47-17.27-10.5l2.79-22.14c-6.91-3.03-14.08-5.52-21.48-7.44l-11.17,19.21
		c-6.63-1.38-13.45-2.2-20.39-2.45l-6.44-21.31c-3.75,0.07-7.52,0.25-11.32,0.61c-3.8,0.35-7.55,0.86-11.24,1.49l-2.4,22.13
		c-6.78,1.52-13.33,3.59-19.59,6.17L84.86,16.71c-6.92,3.25-13.51,7.02-19.74,11.27l6.82,21.24c-5.38,4.09-10.42,8.61-15.03,13.51
		l-20.06-9.44c-4.99,5.82-9.52,12.03-13.52,18.58l14.9,16.66c-3.11,5.74-5.78,11.74-7.94,17.96l-22.16-0.46
		c-2.19,7.4-3.8,15.01-4.78,22.81l20.44,9.18c-0.44,6.19-0.4,12.51,0.12,18.88l-20.43,8.6c1.04,7.96,2.7,15.7,4.96,23.14l22.41,0.07
		c2.09,5.74,4.59,11.28,7.47,16.55l-15.19,16.18c4.19,6.88,8.94,13.37,14.17,19.4l20.51-9.05c4.05,4.2,8.39,8.1,12.99,11.67
		l-7.3,21.01c6.63,4.65,13.65,8.74,21.01,12.23l15.02-16.58c5.23,2.14,10.64,3.94,16.18,5.35l1.86,22.2
		c7.91,1.59,16.04,2.52,24.31,2.75l6.97-21.22c2.79-0.07,5.59-0.24,8.42-0.5c2.82-0.26,5.61-0.62,8.36-1.06l10.77,19.57
		c8.08-1.75,15.9-4.17,23.38-7.18l-2.26-22.17c5.19-2.41,10.17-5.17,14.92-8.24l17.82,13.53c6.59-4.78,12.73-10.11,18.39-15.9
		l-11.05-19.3c3.86-4.35,7.41-8.99,10.61-13.86l21.83,5.11c4.03-6.89,7.5-14.14,10.35-21.68l-17.91-13.1
		c1.86-5.72,3.29-11.62,4.28-17.65L288.75,162.56z M156,255.19c-60.15,5.6-113.43-38.63-119.03-98.78S75.59,42.98,135.74,37.38
		S249.17,76,254.77,136.15S216.15,249.59,156,255.19z"/>
	<path class="st1" d="M138.3,64.91c-44.94,4.18-77.98,44-73.8,88.94c4.18,44.94,44,77.98,88.94,73.8s77.98-44,73.8-88.94
		C223.06,93.77,183.24,60.73,138.3,64.91z M149.55,185.81c-21.83,2.03-41.18-14.02-43.21-35.85c-2.03-21.82,14.02-41.17,35.85-43.2
		c21.83-2.03,41.18,14.02,43.21,35.84C187.43,164.44,171.38,183.78,149.55,185.81z"/>
	<line class="st1" x1="145.87" y1="36.91" x2="145.87" y2="255.66"/>
	<path class="st1" d="M36.53,143.67"/>
	<line class="st1" x1="36.53" y1="146.78" x2="252.65" y2="146.78"/>
	<line class="st1" x1="70.06" y1="222.7" x2="222.88" y2="69.88"/>
	<line class="st1" x1="68.18" y1="69.87" x2="221" y2="222.69"/>
</g>
<g>
</g>
<g>
</g>
<g>
</g>
<g>
</g>
<g>
</g>
<g>
</g>
</svg>
