<?xml version="1.0" encoding="utf-8"?>
<!-- Generator: Adobe Illustrator 23.0.1, SVG Export Plug-In . SVG Version: 6.00 Build 0)  -->
<svg version="1.1" id="Warstwa_1" xmlns="http://www.w3.org/2000/svg" xmlns:xlink="http://www.w3.org/1999/xlink" x="0px" y="0px"
	 viewBox="0 0 147.33 147.65" style="enable-background:new 0 0 147.33 147.65;" xml:space="preserve">
<style type="text/css">
	.st0{opacity:0.8;}
	.st1{fill:#F49A54;stroke:#F49A54;stroke-width:1.5194;stroke-miterlimit:10;}
	.st2{fill:#F49A54;stroke:#F49A54;stroke-width:2.2791;stroke-miterlimit:10;}
</style>
<g class="st0">
	<path class="st1" d="M145.95,83.52c0.52-3.92,0.72-7.95,0.58-12.03l-10.97-2.63c-0.26-3.24-0.77-6.42-1.5-9.49l9.5-6.29
		c-1.13-3.83-2.57-7.52-4.28-11.06l-11.09,2.06c-1.6-2.94-3.43-5.74-5.47-8.36l6.11-9.59c-2.55-2.95-5.34-5.7-8.32-8.21l-9.29,6.4
		c-2.72-2.08-5.62-3.93-8.66-5.54l1.67-11.23c-3.48-1.62-7.1-2.97-10.84-4.03l-5.9,9.64c-3.36-0.78-6.81-1.28-10.34-1.48L74.13,0.76
		c-1.91-0.01-3.83,0.04-5.77,0.18s-3.85,0.35-5.73,0.63L61.15,12.8c-3.47,0.7-6.82,1.67-10.04,2.91l-7.19-8.72
		c-3.56,1.57-6.95,3.41-10.17,5.51l3.23,10.88c-2.78,2.02-5.4,4.26-7.8,6.7l-10.09-5.04c-2.61,2.9-4.98,6.01-7.09,9.29l7.39,8.65
		c-1.65,2.88-3.07,5.9-4.25,9.04L3.86,51.53c-1.2,3.74-2.11,7.59-2.69,11.55l10.29,4.9c-0.29,3.15-0.35,6.36-0.15,9.61L0.82,81.72
		c0.44,4.06,1.19,8.02,2.26,11.83l11.4,0.3c1,2.95,2.2,5.79,3.61,8.51l-7.91,8.05c2.05,3.55,4.39,6.9,6.98,10.03l10.54-4.37
		c2.01,2.18,4.18,4.22,6.47,6.08l-3.96,10.6c3.32,2.44,6.84,4.61,10.54,6.46l7.83-8.26c2.64,1.15,5.37,2.13,8.17,2.91l0.69,11.32
		c4,0.9,8.13,1.46,12.33,1.68l3.79-10.71c1.42,0,2.85-0.06,4.29-0.16c1.44-0.1,2.86-0.25,4.27-0.44l5.25,10.08
		c4.13-0.8,8.14-1.94,11.98-3.38l-0.9-11.3c2.67-1.17,5.23-2.51,7.68-4.02l8.91,7.09c3.41-2.36,6.59-4.99,9.54-7.87l-5.4-9.94
		c2.01-2.17,3.87-4.49,5.56-6.93l11.04,2.85c2.13-3.46,3.98-7.11,5.51-10.91l-8.96-6.87c1.01-2.89,1.81-5.87,2.38-8.93L145.95,83.52
		z M77.36,129.1c-30.66,2.15-57.25-20.96-59.4-51.61s20.95-57.25,51.61-59.4s57.25,20.95,59.4,51.61S108.02,126.95,77.36,129.1z"/>
	<circle class="st2" cx="73.46" cy="73.6" r="25.79"/>
	<g>
		<line class="st1" x1="77.36" y1="129.1" x2="75.27" y2="99.33"/>
		<line class="st1" x1="71.66" y1="47.86" x2="69.56" y2="18.09"/>
		<line class="st1" x1="47.74" y1="75.4" x2="17.96" y2="77.49"/>
		<line class="st1" x1="128.97" y1="69.69" x2="99.19" y2="71.79"/>
		<line class="st1" x1="109.96" y1="31.58" x2="90.38" y2="54.12"/>
		<polyline class="st1" points="36.97,115.6 56.55,93.07 56.55,93.06 		"/>
		<line class="st1" x1="53.99" y1="56.68" x2="31.45" y2="37.1"/>
		<polyline class="st1" points="92.93,90.5 92.93,90.51 115.47,110.09 		"/>
	</g>
</g>
<g>
</g>
<g>
</g>
<g>
</g>
<g>
</g>
<g>
</g>
<g>
</g>
</svg>
