<?xml version="1.0" encoding="utf-8"?>
<!-- Generator: Adobe Illustrator 23.0.1, SVG Export Plug-In . SVG Version: 6.00 Build 0)  -->
<svg version="1.1" id="Warstwa_1" xmlns="http://www.w3.org/2000/svg" xmlns:xlink="http://www.w3.org/1999/xlink" x="0px" y="0px"
	 viewBox="0 0 202.7 203.32" style="enable-background:new 0 0 202.7 203.32;" xml:space="preserve">
<style type="text/css">
	.st0{opacity:0.8;}
	.st1{fill:#F9B03D;stroke:#F9B03D;stroke-width:4.2821;stroke-miterlimit:10;}
</style>
<g class="st0">
	<path class="st1" d="M199.98,112.58c0.59-5.35,0.73-10.84,0.42-16.39l-15-3.24c-0.46-4.41-1.24-8.71-2.33-12.87l12.74-8.86
		c-1.66-5.18-3.73-10.16-6.16-14.92l-15.03,3.15c-2.27-3.96-4.85-7.7-7.7-11.21L174.93,35c-3.56-3.94-7.44-7.59-11.58-10.92
		l-12.45,8.99c-3.77-2.74-7.77-5.18-11.96-7.27l1.93-15.33c-4.78-2.1-9.75-3.82-14.87-5.15l-7.74,13.3
		c-4.59-0.96-9.31-1.53-14.12-1.7L99.68,2.17c-2.59,0.05-5.21,0.18-7.84,0.42s-5.23,0.6-7.78,1.03L82.4,18.95
		c-4.7,1.05-9.23,2.49-13.57,4.27L58.77,11.57c-4.79,2.25-9.35,4.86-13.67,7.81l4.72,14.71c-3.73,2.83-7.21,5.96-10.41,9.35
		L25.52,36.9c-3.46,4.03-6.59,8.33-9.37,12.86l10.32,11.54c-2.15,3.98-4,8.13-5.5,12.44L5.63,73.43C4.11,78.55,3,83.82,2.32,89.22
		l14.15,6.36c-0.3,4.29-0.28,8.66,0.09,13.08l-14.15,5.95c0.72,5.51,1.87,10.87,3.44,16.03l15.52,0.05
		c1.45,3.98,3.18,7.81,5.17,11.46l-10.52,11.21c2.9,4.77,6.19,9.26,9.81,13.44l14.2-6.27c2.8,2.91,5.81,5.61,9,8.08l-5.06,14.55
		c4.59,3.22,9.45,6.06,14.55,8.47l10.4-11.48c3.63,1.49,7.37,2.73,11.21,3.71l1.29,15.38c5.48,1.1,11.11,1.74,16.83,1.9l4.83-14.69
		c1.93-0.05,3.87-0.16,5.83-0.35c1.96-0.18,3.89-0.43,5.79-0.74l7.46,13.55c5.6-1.21,11.01-2.88,16.19-4.97l-1.57-15.35
		c3.59-1.67,7.04-3.58,10.33-5.71l12.34,9.37c4.56-3.31,8.82-7,12.74-11.01l-7.66-13.37c2.67-3.02,5.13-6.23,7.35-9.6l15.12,3.54
		c2.79-4.77,5.19-9.79,7.17-15.01l-12.41-9.07c1.29-3.96,2.28-8.05,2.97-12.22L199.98,112.58z M108.04,176.73
		c-41.66,3.88-78.56-26.75-82.43-68.41s26.74-78.56,68.4-82.43s78.56,26.74,82.43,68.4C180.32,135.95,149.7,172.86,108.04,176.73z"
		/>
	<path class="st1" d="M95.78,44.95c-31.12,2.9-54.01,30.47-51.11,61.6c2.9,31.12,30.47,54.01,61.6,51.11s54.01-30.47,51.11-61.6
		C154.48,64.94,126.9,42.06,95.78,44.95z M103.57,128.68c-15.12,1.41-28.52-9.71-29.92-24.83c-1.41-15.11,9.71-28.51,24.83-29.92
		c15.12-1.41,28.52,9.71,29.92,24.82C129.81,113.88,118.69,127.28,103.57,128.68z"/>
	<line class="st1" x1="101.02" y1="25.56" x2="101.02" y2="177.06"/>
	<path class="st1" d="M25.3,99.5"/>
	<line class="st1" x1="25.3" y1="101.65" x2="174.98" y2="101.65"/>
	<line class="st1" x1="48.52" y1="154.23" x2="154.36" y2="48.39"/>
	<line class="st1" x1="47.22" y1="48.39" x2="153.06" y2="154.23"/>
</g>
<g>
</g>
<g>
</g>
<g>
</g>
<g>
</g>
<g>
</g>
<g>
</g>
</svg>
