<?xml version="1.0" encoding="utf-8"?>
<!-- Generator: Adobe Illustrator 23.0.1, SVG Export Plug-In . SVG Version: 6.00 Build 0)  -->
<svg version="1.1" id="Warstwa_1" xmlns="http://www.w3.org/2000/svg" xmlns:xlink="http://www.w3.org/1999/xlink" x="0px" y="0px"
	 viewBox="0 0 367.45 366.46" style="enable-background:new 0 0 367.45 366.46;" xml:space="preserve">
<style type="text/css">
	.st0{opacity:0.8;}
	.st1{fill:#F0812B;stroke:#F0812B;stroke-width:2.4919;stroke-miterlimit:10;}
</style>
<g class="st0">
	<path class="st1" d="M162.2,247.53"/>
	<path class="st1" d="M162.2,86.76"/>
	<path class="st1" d="M242.59,167.4"/>
	<path class="st1" d="M81.82,167.4"/>
	<path class="st1" d="M126.92,201.97"/>
	<path class="st1" d="M196.49,132.39"/>
	<path class="st1" d="M197.01,201.45"/>
	<path class="st1" d="M126.92,131.35"/>
	<g>
		<path class="st1" d="M334.27,223.34l28.35-2.73c1.98-9.69,3.17-19.68,3.54-29.87l-26.86-8.47c-0.09-8.14-0.8-16.13-2.08-23.91
			l24.79-14.03c-1.11-5-2.42-9.91-3.93-14.73c-1.42-4.6-3.03-9.12-4.81-13.56l-27.98,3.19c-0.64-1.41-1.31-2.82-2.01-4.2
			c-3-6.11-6.4-11.97-10.16-17.59l16.89-22.83c-5.84-7.81-12.3-15.13-19.3-21.92l-24.27,14.32c-6.42-5.65-13.32-10.77-20.62-15.33
			l6.13-27.68c-1.11-0.61-2.22-1.21-3.33-1.79c-7.37-3.89-15.04-7.29-22.97-10.15l-8.01,11.23l-8.38,11.77
			c-8.23-2.53-16.75-4.38-25.52-5.51l-5.64-27.71c-4.74-0.37-9.54-0.57-14.39-0.57s-9.65,0.2-14.4,0.57l-5.64,27.71
			c-8.75,1.12-17.28,2.97-25.52,5.51l-8.38-11.77l-8.01-11.23c-8,2.89-15.71,6.32-23.16,10.25c-1.05,0.56-2.11,1.11-3.15,1.69
			l6.13,27.68C94.32,56.21,87.42,61.34,81,66.99L56.73,52.67c-7,6.79-13.46,14.1-19.3,21.92l16.88,22.83
			c-3.8,5.68-7.23,11.61-10.26,17.79c-0.64,1.32-1.28,2.65-1.89,4l-28-3.19c-1.85,4.64-3.53,9.38-5.01,14.19
			c-1.42,4.63-2.66,9.32-3.71,14.1l24.78,14.03c-1.28,7.79-1.98,15.77-2.06,23.91l-26.87,8.47c0.38,10.19,1.58,20.18,3.56,29.87
			l28.35,2.73c1,3.8,2.12,7.54,3.39,11.23c1.25,3.59,2.62,7.12,4.11,10.59l-21.14,18.69c0.91,1.88,1.86,3.73,2.85,5.56
			c3.81,7.19,8.1,14.08,12.81,20.65l27.01-9.04c4.63,5.79,9.66,11.24,15.06,16.3l-11.71,25.72c7.84,6.66,16.24,12.68,25.15,17.95
			l20.95-19.21c1.32,0.68,2.65,1.35,3.99,2.01c5.14,2.51,10.42,4.74,15.86,6.68l-0.06,6.89c0,0,0,0.01,0,0.03l-0.2,21.41
			c9.82,2.93,20.01,5.07,30.44,6.33l11.32-26.03c3.54,0.24,7.12,0.36,10.72,0.36s7.17-0.11,10.7-0.36l11.33,26.03
			c10.43-1.27,20.61-3.4,30.43-6.33l-0.23-24.82c0-0.01,0-0.01,0-0.01l-0.03-3.49c5.69-2.04,11.23-4.38,16.6-7.05
			c1.1-0.53,2.18-1.07,3.26-1.64l20.95,19.21c8.9-5.27,17.31-11.29,25.14-17.95l-11.71-25.72c5.39-5.05,10.43-10.5,15.07-16.3
			l27.01,9.04c4.88-6.82,9.32-13.99,13.22-21.46c0.84-1.57,1.64-3.16,2.42-4.75l-21.12-18.69c1.58-3.69,3.03-7.43,4.33-11.26
			C332.28,230.42,333.33,226.91,334.27,223.34z M183.73,322.18c-14.57,0-28.62-2.25-41.82-6.4c-7.36-2.32-14.45-5.22-21.22-8.67
			c-26.13-13.34-47.49-34.67-60.83-60.8c-3.23-6.32-5.99-12.92-8.23-19.77c-4.48-13.65-6.9-28.22-6.9-43.37
			c0-15,2.38-29.45,6.79-42.98c2.26-7.02,5.08-13.79,8.4-20.27c13.36-26.1,34.76-47.44,60.92-60.72c6.16-3.15,12.61-5.84,19.27-8.03
			c13.72-4.54,28.38-6.99,43.62-6.99s29.9,2.45,43.62,6.99c6.69,2.21,13.15,4.91,19.34,8.06c26.03,13.25,47.32,34.46,60.69,60.42
			c3.4,6.62,6.29,13.54,8.61,20.72c4.37,13.48,6.72,27.87,6.72,42.8c0,14.82-2.32,29.09-6.62,42.47
			c-2.23,7.02-5.02,13.81-8.33,20.28c-13.18,26.06-34.34,47.4-60.28,60.8c-6.77,3.5-13.88,6.46-21.25,8.82
			C212.85,319.86,198.56,322.18,183.73,322.18z"/>
		<path class="st1" d="M321.73,136.44c-2.12-6.25-4.64-12.3-7.56-18.13c-14.2-28.55-37.53-51.78-66.17-65.88
			c-5.47-2.69-11.12-5.05-16.94-7.05c-14.84-5.11-30.77-7.87-47.34-7.87c-16.58,0-32.51,2.76-47.35,7.89
			c-5.81,1.98-11.44,4.33-16.89,7.02c-28.72,14.13-52.12,37.46-66.34,66.14c-2.85,5.74-5.32,11.69-7.4,17.82
			c-4.98,14.69-7.69,30.43-7.69,46.8c0,16.51,2.75,32.39,7.81,47.18c2.04,5.95,4.46,11.74,7.22,17.31
			c14.18,28.71,37.55,52.05,66.25,66.21c5.98,2.95,12.17,5.49,18.57,7.61c14.4,4.78,29.8,7.36,45.82,7.36
			c16.28,0,31.92-2.68,46.54-7.6c6.4-2.15,12.61-4.75,18.57-7.74c28.52-14.26,51.69-37.63,65.74-66.28
			c2.79-5.69,5.22-11.59,7.26-17.66c4.9-14.57,7.54-30.16,7.54-46.38C329.39,166.83,326.7,151.1,321.73,136.44z M307.39,119.65
			c-16.08,2.09-32.92-3.05-45.27-15.4c-12.28-12.28-17.42-29.02-15.41-45.02C272.73,72.48,294.02,93.69,307.39,119.65z
			 M282.86,181.93c0,9.02-7.3,16.33-16.31,16.33c-9.02,0-16.33-7.3-16.33-16.33c0-9.01,7.3-16.31,16.33-16.31
			C275.56,165.62,282.86,172.92,282.86,181.93z M183.73,237.98c-30.27,0-54.81-24.54-54.81-54.81c0-30.26,24.54-54.8,54.81-54.8
			c30.26,0,54.8,24.54,54.8,54.8C238.53,213.44,213.99,237.98,183.73,237.98z M200.5,266.77c0,9.02-7.32,16.33-16.33,16.33
			c-9.02,0-16.33-7.3-16.33-16.33c0-9.01,7.3-16.31,16.33-16.31C193.18,250.46,200.5,257.76,200.5,266.77z M167.85,101.13
			c0-9.01,7.3-16.33,16.33-16.33c9.01,0,16.33,7.32,16.33,16.33c0,9.02-7.32,16.33-16.33,16.33
			C175.15,117.46,167.85,110.16,167.85,101.13z M183.73,44.19c15.24,0,29.9,2.45,43.62,6.99c-9.85,13.41-25.72,22.1-43.62,22.1
			s-33.79-8.7-43.62-22.1C153.83,46.63,168.49,44.19,183.73,44.19z M120.84,59.2c2.12,16.11-3,32.99-15.37,45.36
			c-12.43,12.43-29.39,17.55-45.55,15.36C73.29,93.82,94.68,72.48,120.84,59.2z M117.22,181.93c0,9.02-7.3,16.33-16.33,16.33
			c-9.01,0-16.31-7.3-16.31-16.33c0-9.01,7.3-16.31,16.31-16.31C109.92,165.62,117.22,172.92,117.22,181.93z M44.73,183.17
			c0-15,2.38-29.45,6.79-42.98c13.09,9.86,21.56,25.55,21.56,43.21c0,17.61-8.41,33.26-21.45,43.14
			C47.15,212.89,44.73,198.31,44.73,183.17z M59.86,246.31c16.14-2.16,33.08,2.96,45.47,15.36c12.4,12.4,17.52,29.31,15.36,45.45
			C94.56,293.77,73.2,272.44,59.86,246.31z M183.73,322.18c-14.57,0-28.62-2.25-41.82-6.4c9.91-12.38,25.16-20.32,42.26-20.32
			c16.99,0,32.15,7.84,42.07,20.1C212.85,319.86,198.56,322.18,183.73,322.18z M247.5,306.73c-2.12-16.11,3-32.99,15.39-45.37
			c12.25-12.25,28.92-17.39,44.89-15.43C294.59,271.98,273.43,293.32,247.5,306.73z M316.1,225.64
			c-12.68-9.92-20.84-25.35-20.84-42.68c0-17.29,8.11-32.68,20.74-42.58c4.37,13.48,6.72,27.87,6.72,42.8
			C322.72,197.99,320.4,212.26,316.1,225.64z"/>
	</g>
	<path class="st1" d="M237.66,23.26c-0.58,7.98-2.9,15.47-6.59,22.12c-1.11,2.01-2.36,3.94-3.71,5.79
		c-13.72-4.54-28.38-6.99-43.62-6.99s-29.9,2.45-43.62,6.99c-1.37-1.84-2.6-3.77-3.73-5.78c-3.67-6.65-6.01-14.15-6.59-22.13
		l8.38,11.77c8.24-2.53,16.77-4.38,25.52-5.51l5.64-27.71c4.75-0.37,9.55-0.57,14.4-0.57s9.65,0.2,14.39,0.57l5.64,27.71
		c8.77,1.12,17.29,2.97,25.52,5.51L237.66,23.26z"/>
	<path class="st1" d="M51.64,226.54c-1.84,1.38-3.76,2.66-5.76,3.81c-2.93,1.68-6.05,3.1-9.29,4.21c-1.27-3.69-2.39-7.43-3.39-11.23
		L4.84,220.6c-1.98-9.69-3.17-19.68-3.56-29.87l26.87-8.47c0.09-8.14,0.78-16.13,2.06-23.91L5.44,144.31
		c1.05-4.78,2.29-9.48,3.71-14.1c3.19-0.58,6.48-0.9,9.83-0.9c9.72,0,18.86,2.56,26.76,7.06c2.01,1.15,3.94,2.42,5.78,3.81
		c-4.41,13.54-6.79,27.98-6.79,42.98C44.73,198.31,47.15,212.89,51.64,226.54z"/>
	<path class="st1" d="M366.17,190.73c-0.37,10.19-1.57,20.18-3.54,29.87l-28.35,2.73c-0.94,3.57-1.99,7.09-3.17,10.56
		c-3.25-1.15-6.33-2.6-9.25-4.34c-2.01-1.18-3.93-2.49-5.75-3.91c4.3-13.38,6.62-27.65,6.62-42.47c0-14.93-2.35-29.32-6.72-42.8
		c1.82-1.42,3.73-2.75,5.74-3.93c8.08-4.81,17.52-7.57,27.61-7.57c2.97,0,5.91,0.24,8.75,0.71c1.51,4.82,2.82,9.74,3.93,14.73
		l-24.79,14.03c1.28,7.79,1.99,15.77,2.08,23.91L366.17,190.73z"/>
	<path class="st1" d="M120.84,59.2c-26.16,13.28-47.55,34.61-60.92,60.72c-2.28-0.3-4.54-0.75-6.77-1.37
		c-3.1-0.83-6.15-1.94-9.09-3.34c3.03-6.18,6.46-12.11,10.26-17.79L37.43,74.59c5.84-7.81,12.3-15.13,19.3-21.92L81,66.99
		c6.42-5.65,13.32-10.77,20.61-15.33l-6.13-27.68c1.04-0.58,2.09-1.14,3.15-1.69c2.41,1.71,4.7,3.64,6.85,5.79
		c6.99,6.99,11.67,15.43,14.02,24.34C120.1,54.65,120.54,56.93,120.84,59.2z"/>
	<path class="st1" d="M345.47,268.6c-3.9,7.47-8.34,14.65-13.22,21.46l-27.01-9.04c-4.64,5.79-9.68,11.24-15.07,16.3l11.71,25.72
		c-7.83,6.66-16.24,12.68-25.14,17.95l-20.95-19.21c-1.08,0.57-2.16,1.11-3.26,1.64c-1.57-3.2-2.8-6.52-3.69-9.91
		c-0.61-2.23-1.05-4.5-1.35-6.77c25.93-13.41,47.1-34.74,60.28-60.8c2.29,0.27,4.57,0.71,6.82,1.3c9.08,2.31,17.69,7.03,24.79,14.13
		C341.66,263.63,343.68,266.05,345.47,268.6z"/>
	<path class="st1" d="M120.69,307.11c-0.3,2.28-0.74,4.54-1.35,6.76c-0.88,3.39-2.12,6.7-3.69,9.91c-1.34-0.65-2.66-1.32-3.99-2.01
		l-20.95,19.21c-8.91-5.27-17.31-11.29-25.15-17.95l11.71-25.72c-5.39-5.05-10.43-10.5-15.06-16.3l-27.01,9.04
		c-4.71-6.58-9-13.46-12.81-20.65c1.86-2.73,4.01-5.32,6.43-7.74c6.97-6.97,15.37-11.64,24.25-14c2.23-0.6,4.5-1.05,6.77-1.35
		C73.2,272.44,94.56,293.77,120.69,307.11z"/>
	<path class="st1" d="M313.14,97.42c3.76,5.62,7.16,11.49,10.16,17.59c-2.95,1.38-6.01,2.49-9.12,3.3c-2.23,0.6-4.51,1.04-6.79,1.34
		c-13.36-25.96-34.66-47.17-60.69-60.42c0.28-2.29,0.71-4.55,1.31-6.8c2.32-9.04,7.03-17.59,14.1-24.68
		c2.06-2.06,4.24-3.91,6.53-5.57c1.11,0.58,2.22,1.18,3.33,1.79l-6.13,27.68c7.3,4.55,14.2,9.68,20.62,15.33l24.27-14.32
		c7,6.79,13.46,14.1,19.3,21.92L313.14,97.42z"/>
</g>
<g>
</g>
<g>
</g>
<g>
</g>
<g>
</g>
<g>
</g>
<g>
</g>
</svg>
