<?xml version="1.0" encoding="utf-8"?>
<!-- Generator: Adobe Illustrator 23.0.1, SVG Export Plug-In . SVG Version: 6.00 Build 0)  -->
<svg version="1.1" id="Warstwa_1" xmlns="http://www.w3.org/2000/svg" xmlns:xlink="http://www.w3.org/1999/xlink" x="0px" y="0px"
	 viewBox="0 0 434.42 433.25" style="enable-background:new 0 0 434.42 433.25;" xml:space="preserve">
<style type="text/css">
	.st0{opacity:0.8;}
	.st1{fill:#F0812B;stroke:#F0812B;stroke-width:2.9462;stroke-miterlimit:10;}
</style>
<g class="st0">
	<g>
		<path class="st1" d="M395.2,264.04l33.52-3.23c2.34-11.46,3.75-23.27,4.19-35.32l-31.75-10.01c-0.1-9.63-0.94-19.06-2.46-28.27
			l29.31-16.59c-1.31-5.91-2.86-11.71-4.64-17.42c-1.68-5.44-3.58-10.79-5.69-16.04l-33.08,3.77c-0.76-1.67-1.55-3.33-2.37-4.96
			c-3.55-7.22-7.57-14.15-12.01-20.8l19.97-26.99c-6.9-9.24-14.54-17.89-22.82-25.91L338.68,79.2
			c-7.59-6.68-15.75-12.74-24.38-18.12l7.25-32.73c-1.31-0.72-2.63-1.43-3.94-2.12c-8.72-4.59-17.79-8.62-27.16-12l-9.47,13.28
			l-9.91,13.92c-9.73-3-19.81-5.18-30.17-6.51l-6.66-32.76c-5.6-0.44-11.27-0.67-17.01-0.67s-11.41,0.24-17.03,0.67l-6.66,32.76
			c-10.35,1.33-20.43,3.52-30.17,6.51l-9.91-13.92l-9.47-13.28c-9.46,3.42-18.58,7.47-27.38,12.12c-1.25,0.66-2.49,1.31-3.72,2
			l7.25,32.73c-8.62,5.38-16.78,11.44-24.37,18.12L67.07,62.27c-8.28,8.03-15.92,16.68-22.82,25.91l19.96,26.99
			c-4.49,6.71-8.55,13.73-12.13,21.03c-0.76,1.56-1.51,3.13-2.24,4.73l-33.1-3.77c-2.19,5.49-4.17,11.09-5.92,16.78
			c-1.68,5.47-3.15,11.02-4.39,16.68l29.3,16.59c-1.51,9.2-2.34,18.64-2.44,28.27L1.51,225.49c0.45,12.05,1.87,23.86,4.21,35.32
			l33.52,3.23c1.18,4.49,2.51,8.92,4.01,13.28c1.48,4.24,3.1,8.41,4.86,12.52l-24.99,22.09c1.08,2.22,2.2,4.41,3.37,6.58
			c4.51,8.5,9.57,16.64,15.14,24.42l31.94-10.69c5.47,6.85,11.43,13.29,17.8,19.27l-13.85,30.41c9.27,7.87,19.2,14.99,29.73,21.22
			l24.77-22.72c1.57,0.81,3.13,1.6,4.71,2.37c6.07,2.96,12.32,5.6,18.75,7.89l-0.07,8.14c0,0,0,0.02,0,0.03l-0.24,25.31
			c11.61,3.47,23.66,5.99,35.99,7.49l13.38-30.78c4.19,0.29,8.41,0.42,12.67,0.42s8.48-0.13,12.65-0.42l13.39,30.78
			c12.33-1.5,24.37-4.02,35.98-7.49l-0.27-29.35c0-0.02,0-0.02,0-0.02l-0.03-4.12c6.73-2.41,13.28-5.18,19.62-8.33
			c1.3-0.62,2.57-1.26,3.85-1.94l24.77,22.72c10.52-6.23,20.46-13.34,29.72-21.22l-13.85-30.41c6.38-5.97,12.33-12.42,17.82-19.27
			l31.94,10.69c5.77-8.06,11.02-16.54,15.63-25.38c0.99-1.85,1.94-3.74,2.86-5.62l-24.97-22.09c1.87-4.36,3.58-8.78,5.12-13.31
			C392.85,272.42,394.09,268.27,395.2,264.04z M217.22,380.91c-17.23,0-33.84-2.66-49.44-7.57c-8.7-2.74-17.08-6.18-25.09-10.25
			c-30.89-15.77-56.15-40.99-71.92-71.89c-3.82-7.47-7.08-15.28-9.73-23.37c-5.3-16.14-8.16-33.37-8.16-51.27
			c0-17.74,2.81-34.82,8.03-50.82c2.68-8.3,6.01-16.31,9.93-23.96c15.8-30.86,41.09-56.08,72.02-71.78
			c7.29-3.72,14.91-6.9,22.78-9.49c16.22-5.37,33.55-8.26,51.58-8.26s35.35,2.89,51.58,8.26c7.91,2.61,15.55,5.81,22.87,9.52
			c30.78,15.67,55.95,40.74,71.75,71.43c4.02,7.82,7.44,16,10.18,24.5c5.17,15.94,7.94,32.95,7.94,50.6
			c0,17.52-2.74,34.39-7.82,50.21c-2.64,8.3-5.94,16.32-9.84,23.98c-15.58,30.81-40.6,56.03-71.26,71.89
			c-8.01,4.14-16.41,7.64-25.12,10.43C251.65,378.17,234.76,380.91,217.22,380.91z"/>
		<path class="st1" d="M380.38,161.31c-2.51-7.39-5.49-14.54-8.93-21.44c-16.79-33.76-44.37-61.22-78.23-77.89
			c-6.46-3.18-13.14-5.97-20.02-8.33c-17.55-6.04-36.38-9.31-55.97-9.31c-19.6,0-38.43,3.26-55.98,9.32
			c-6.87,2.34-13.53,5.12-19.97,8.3c-33.96,16.71-61.62,44.29-78.43,78.2c-3.37,6.78-6.29,13.82-8.75,21.07
			C48.19,178.6,45,197.21,45,216.56c0,19.52,3.25,38.3,9.24,55.78c2.41,7.03,5.27,13.88,8.53,20.46
			c16.76,33.94,44.39,61.54,78.33,78.28c7.07,3.48,14.39,6.5,21.96,9c17.03,5.65,35.24,8.7,54.17,8.7c19.25,0,37.74-3.16,55.02-8.99
			c7.57-2.54,14.91-5.62,21.96-9.15c33.72-16.86,61.12-44.49,77.72-78.36c3.3-6.73,6.18-13.7,8.58-20.88
			c5.79-17.23,8.92-35.66,8.92-54.84C389.43,197.24,386.25,178.65,380.38,161.31z M363.42,141.46c-19.01,2.47-38.92-3.6-53.53-18.21
			c-14.52-14.52-20.6-34.31-18.22-53.22C322.44,85.69,347.61,110.77,363.42,141.46z M334.42,215.09c0,10.67-8.63,19.3-19.28,19.3
			c-10.67,0-19.3-8.63-19.3-19.3c0-10.65,8.63-19.28,19.3-19.28C325.79,195.81,334.42,204.44,334.42,215.09z M217.22,281.36
			c-35.79,0-64.8-29.01-64.8-64.8c0-35.77,29.01-64.78,64.8-64.78c35.77,0,64.78,29.01,64.78,64.78
			C282.01,252.35,253,281.36,217.22,281.36z M237.04,315.4c0,10.67-8.65,19.3-19.3,19.3c-10.67,0-19.3-8.63-19.3-19.3
			c0-10.65,8.63-19.28,19.3-19.28C228.39,296.12,237.04,304.75,237.04,315.4z M198.44,119.57c0-10.65,8.63-19.3,19.3-19.3
			c10.65,0,19.3,8.65,19.3,19.3c0,10.67-8.65,19.3-19.3,19.3C207.07,138.87,198.44,130.23,198.44,119.57z M217.22,52.24
			c18.02,0,35.35,2.89,51.58,8.26c-11.64,15.85-30.41,26.13-51.58,26.13s-39.95-10.28-51.58-26.13
			C181.87,55.13,199.2,52.24,217.22,52.24z M142.86,69.99c2.51,19.05-3.55,39.01-18.17,53.63c-14.69,14.69-34.75,20.75-53.85,18.16
			C86.64,110.92,111.93,85.69,142.86,69.99z M138.59,215.09c0,10.67-8.63,19.3-19.3,19.3c-10.65,0-19.28-8.63-19.28-19.3
			c0-10.65,8.63-19.28,19.28-19.28C129.96,195.81,138.59,204.44,138.59,215.09z M52.89,216.56c0-17.74,2.81-34.82,8.03-50.82
			c15.48,11.66,25.49,30.2,25.49,51.09c0,20.82-9.94,39.33-25.36,51C55.75,251.69,52.89,234.46,52.89,216.56z M70.77,291.2
			c19.08-2.56,39.11,3.5,53.76,18.16c14.66,14.66,20.71,34.65,18.16,53.73C111.8,347.32,86.54,322.1,70.77,291.2z M217.22,380.91
			c-17.23,0-33.84-2.66-49.44-7.57c11.71-14.64,29.75-24.03,49.96-24.03c20.09,0,38.01,9.27,49.74,23.76
			C251.65,378.17,234.76,380.91,217.22,380.91z M292.61,362.63c-2.51-19.05,3.55-39.01,18.19-53.65
			c14.49-14.49,34.19-20.56,53.07-18.24C348.29,321.56,323.27,346.78,292.61,362.63z M373.71,266.77
			c-14.99-11.73-24.63-29.97-24.63-50.46c0-20.45,9.59-38.64,24.52-50.35c5.17,15.94,7.94,32.95,7.94,50.6
			C381.54,234.07,378.8,250.95,373.71,266.77z"/>
	</g>
	<path class="st1" d="M280.98,27.5c-0.69,9.44-3.43,18.29-7.79,26.15c-1.31,2.37-2.79,4.66-4.39,6.85
		c-16.22-5.37-33.55-8.26-51.58-8.26s-35.35,2.89-51.58,8.26c-1.62-2.17-3.08-4.46-4.41-6.83c-4.34-7.86-7.1-16.73-7.79-26.17
		l9.91,13.92c9.74-3,19.82-5.18,30.17-6.51l6.66-32.76c5.62-0.44,11.29-0.67,17.03-0.67s11.41,0.24,17.01,0.67l6.66,32.76
		c10.37,1.33,20.44,3.52,30.17,6.51L280.98,27.5z"/>
	<path class="st1" d="M61.05,267.83c-2.17,1.63-4.44,3.15-6.82,4.51c-3.47,1.99-7.15,3.67-10.99,4.98
		c-1.5-4.36-2.83-8.78-4.01-13.28l-33.52-3.23c-2.34-11.46-3.75-23.27-4.21-35.32l31.77-10.01c0.1-9.63,0.93-19.06,2.44-28.27
		l-29.3-16.59c1.25-5.65,2.71-11.21,4.39-16.68c3.77-0.69,7.66-1.06,11.63-1.06c11.49,0,22.3,3.03,31.64,8.35
		c2.37,1.36,4.66,2.86,6.83,4.51c-5.22,16-8.03,33.08-8.03,50.82C52.89,234.46,55.75,251.69,61.05,267.83z"/>
	<path class="st1" d="M432.91,225.49c-0.44,12.05-1.85,23.86-4.19,35.32l-33.52,3.23c-1.11,4.22-2.36,8.38-3.75,12.49
		c-3.84-1.36-7.49-3.08-10.94-5.13c-2.37-1.4-4.64-2.94-6.8-4.63c5.08-15.82,7.82-32.7,7.82-50.21c0-17.65-2.78-34.66-7.94-50.6
		c2.15-1.68,4.41-3.25,6.78-4.64c9.56-5.69,20.71-8.95,32.64-8.95c3.52,0,6.98,0.29,10.35,0.84c1.78,5.7,3.33,11.51,4.64,17.42
		l-29.31,16.59c1.51,9.2,2.36,18.64,2.46,28.27L432.91,225.49z"/>
	<path class="st1" d="M142.86,69.99c-30.93,15.7-56.22,40.92-72.02,71.78c-2.69-0.35-5.37-0.89-8.01-1.62
		c-3.67-0.98-7.27-2.29-10.75-3.95c3.58-7.3,7.64-14.32,12.13-21.03L44.26,88.18c6.9-9.24,14.54-17.89,22.82-25.91L95.76,79.2
		c7.59-6.68,15.75-12.74,24.37-18.12l-7.25-32.73c1.23-0.69,2.47-1.35,3.72-2c2.84,2.02,5.55,4.31,8.09,6.85
		c8.26,8.26,13.8,18.24,16.57,28.77C141.99,64.61,142.51,67.3,142.86,69.99z"/>
	<path class="st1" d="M408.44,317.55c-4.61,8.83-9.86,17.32-15.63,25.38l-31.94-10.69c-5.49,6.85-11.44,13.29-17.82,19.27
		l13.85,30.41c-9.25,7.87-19.2,14.99-29.72,21.22l-24.77-22.72c-1.28,0.67-2.56,1.31-3.85,1.94c-1.85-3.79-3.32-7.71-4.36-11.71
		c-0.72-2.64-1.25-5.32-1.6-8.01c30.66-15.85,55.68-41.08,71.26-71.89c2.71,0.32,5.4,0.84,8.06,1.53
		c10.74,2.73,20.92,8.31,29.31,16.71C403.94,311.68,406.32,314.54,408.44,317.55z"/>
	<path class="st1" d="M142.69,363.09c-0.35,2.69-0.88,5.37-1.6,7.99c-1.04,4-2.51,7.93-4.36,11.71c-1.58-0.77-3.15-1.57-4.71-2.37
		l-24.77,22.72c-10.53-6.23-20.46-13.34-29.73-21.22l13.85-30.41c-6.38-5.97-12.33-12.42-17.8-19.27l-31.94,10.69
		c-5.57-7.77-10.63-15.92-15.14-24.42c2.2-3.23,4.74-6.29,7.61-9.15c8.25-8.25,18.17-13.76,28.67-16.56
		c2.64-0.71,5.32-1.25,8.01-1.6C86.54,322.1,111.8,347.32,142.69,363.09z"/>
	<path class="st1" d="M370.21,115.17c4.44,6.65,8.46,13.58,12.01,20.8c-3.48,1.63-7.1,2.94-10.79,3.9
		c-2.64,0.71-5.33,1.23-8.03,1.58c-15.8-30.69-40.97-55.76-71.75-71.43c0.34-2.71,0.84-5.38,1.55-8.04
		c2.74-10.68,8.31-20.8,16.68-29.18c2.44-2.44,5.01-4.63,7.72-6.58c1.31,0.69,2.63,1.4,3.94,2.12l-7.25,32.73
		c8.63,5.38,16.79,11.44,24.38,18.12l28.69-16.93c8.28,8.03,15.92,16.68,22.82,25.91L370.21,115.17z"/>
</g>
</svg>
