<?xml version="1.0" encoding="utf-8"?>
<!-- Generator: Adobe Illustrator 23.0.1, SVG Export Plug-In . SVG Version: 6.00 Build 0)  -->
<svg version="1.1" id="Warstwa_1" xmlns="http://www.w3.org/2000/svg" xmlns:xlink="http://www.w3.org/1999/xlink" x="0px" y="0px"
	 viewBox="0 0 141.87 142.12" style="enable-background:new 0 0 141.87 142.12;" xml:space="preserve">
<style type="text/css">
	.st0{opacity:0.8;}
	.st1{fill:#F0812B;stroke:#F0812B;stroke-width:1.7372;stroke-miterlimit:10;}
</style>
<g class="st0">
	<path class="st1" d="M140.77,76.86c0.31-3.79,0.31-7.66-0.01-11.57l-10.64-2c-0.41-3.1-1.04-6.12-1.89-9.03l8.82-6.49
		c-1.27-3.62-2.82-7.09-4.63-10.4l-10.54,2.5c-1.67-2.75-3.57-5.34-5.64-7.76l5.4-9.49c-2.59-2.71-5.39-5.21-8.37-7.48l-8.61,6.58
		c-2.71-1.86-5.58-3.5-8.57-4.9l1.07-10.85c-3.41-1.39-6.95-2.51-10.59-3.35l-5.2,9.53c-3.26-0.59-6.6-0.9-9.99-0.93L67.94,0.9
		c-1.83,0.08-3.67,0.22-5.52,0.45s-3.67,0.52-5.47,0.88l-0.88,10.84c-3.29,0.83-6.46,1.93-9.49,3.27l-7.31-8.02
		c-3.34,1.68-6.5,3.61-9.49,5.76l3.61,10.29c-2.58,2.07-4.97,4.34-7.17,6.79L16.3,26.8c-2.36,2.91-4.49,6-6.36,9.25l7.5,7.94
		c-1.44,2.85-2.67,5.81-3.64,8.88L2.96,52.94c-0.97,3.64-1.66,7.38-2.03,11.2l10.1,4.22c-0.13,3.03-0.03,6.12,0.31,9.22l-9.87,4.47
		C2.08,85.92,3,89.68,4.2,93.29l10.95-0.26c1.09,2.78,2.39,5.45,3.86,7.99l-7.21,8.1c2.14,3.31,4.54,6.41,7.18,9.29l9.9-4.69
		c2.03,2,4.21,3.85,6.5,5.53l-3.29,10.36c3.3,2.18,6.78,4.09,10.42,5.7l7.12-8.3c2.58,0.98,5.25,1.78,7.97,2.4l1.2,10.82
		c3.88,0.67,7.87,1.02,11.91,1.02l3.13-10.46c1.36-0.07,2.73-0.19,4.1-0.35c1.38-0.17,2.73-0.37,4.07-0.63l5.52,9.42
		c3.93-0.96,7.71-2.24,11.33-3.82l-1.4-10.8c2.5-1.25,4.9-2.66,7.18-4.22l8.88,6.37c3.15-2.42,6.09-5.1,8.77-8.01l-5.65-9.28
		c1.83-2.18,3.5-4.49,5-6.91l10.73,2.21c1.88-3.42,3.48-7.01,4.77-10.73l-8.92-6.16c0.83-2.82,1.46-5.72,1.86-8.68L140.77,76.86z
		 M77.15,123.85c-29.31,3.52-55.91-17.38-59.44-46.68s17.37-55.91,46.68-59.44s55.91,17.37,59.44,46.68S106.46,120.33,77.15,123.85z
		"/>
	<path class="st1" d="M66,31.15c-21.9,2.63-37.51,22.52-34.88,44.41c2.63,21.9,22.52,37.51,44.41,34.88s37.51-22.52,34.88-44.41
		C107.78,44.13,87.9,28.51,66,31.15z M73.09,90.05c-10.64,1.28-20.3-6.31-21.58-16.94c-1.28-10.63,6.31-20.29,16.95-21.57
		c10.64-1.28,20.3,6.31,21.58,16.94C91.31,79.11,83.72,88.77,73.09,90.05z"/>
	<circle class="st1" cx="68.06" cy="48.28" r="13.26"/>
	<circle class="st1" cx="73.45" cy="93.11" r="13.26"/>
	<circle class="st1" cx="48.35" cy="73.49" r="13.26"/>
	<circle class="st1" cx="93.19" cy="68.1" r="13.26"/>
</g>
<g>
</g>
<g>
</g>
<g>
</g>
<g>
</g>
<g>
</g>
<g>
</g>
</svg>
