<?xml version="1.0" encoding="utf-8"?>
<!-- Generator: Adobe Illustrator 23.0.1, SVG Export Plug-In . SVG Version: 6.00 Build 0)  -->
<svg version="1.1" id="Warstwa_1" xmlns="http://www.w3.org/2000/svg" xmlns:xlink="http://www.w3.org/1999/xlink" x="0px" y="0px"
	 viewBox="0 0 255.26 256.04" style="enable-background:new 0 0 255.26 256.04;" xml:space="preserve">
<style type="text/css">
	.st0{opacity:0.8;}
	.st1{fill:#F9B03D;stroke:#F9B03D;stroke-width:5.3925;stroke-miterlimit:10;}
</style>
<g class="st0">
	<path class="st1" d="M251.83,141.77c0.74-6.74,0.92-13.65,0.53-20.64l-18.9-4.08c-0.58-5.55-1.56-10.97-2.93-16.21l16.04-11.16
		c-2.09-6.53-4.7-12.79-7.76-18.78l-18.92,3.96c-2.85-4.98-6.1-9.7-9.69-14.12l10.09-16.68c-4.49-4.96-9.36-9.56-14.58-13.75
		l-15.67,11.32c-4.75-3.45-9.79-6.52-15.06-9.16l2.43-19.31c-6.03-2.64-12.28-4.81-18.73-6.49l-9.74,16.75
		c-5.79-1.2-11.73-1.92-17.79-2.14l-5.61-18.58c-3.27,0.06-6.56,0.22-9.87,0.53c-3.31,0.31-6.58,0.75-9.8,1.3l-2.09,19.3
		c-5.92,1.33-11.62,3.13-17.09,5.38L74.01,14.58c-6.03,2.83-11.78,6.12-17.21,9.83l5.95,18.53c-4.69,3.57-9.08,7.51-13.11,11.78
		l-17.49-8.24c-4.35,5.08-8.3,10.5-11.79,16.2L33.34,77.2c-2.71,5.01-5.04,10.24-6.92,15.66l-19.33-0.4
		c-1.91,6.45-3.31,13.09-4.16,19.89l17.83,8.01c-0.38,5.4-0.35,10.91,0.11,16.47l-17.82,7.5c0.9,6.94,2.36,13.69,4.33,20.19
		l19.55,0.07c1.82,5.01,4,9.83,6.51,14.44l-13.25,14.11c3.65,6,7.79,11.66,12.36,16.92l17.89-7.89c3.53,3.66,7.32,7.06,11.33,10.18
		l-6.37,18.32c5.78,4.05,11.9,7.63,18.32,10.67l13.1-14.46c4.57,1.87,9.28,3.43,14.11,4.67l1.63,19.37c6.9,1.38,13.99,2.2,21.2,2.39
		l6.08-18.51c2.43-0.06,4.88-0.21,7.34-0.44c2.46-0.23,4.89-0.54,7.29-0.93l9.39,17.07c7.05-1.53,13.87-3.63,20.39-6.26l-1.98-19.33
		c4.52-2.1,8.87-4.51,13.01-7.19l15.54,11.8c5.74-4.17,11.1-8.81,16.04-13.86l-9.64-16.83c3.37-3.8,6.46-7.84,9.26-12.09l19.04,4.46
		c3.51-6.01,6.54-12.33,9.02-18.91l-15.62-11.42c1.62-4.99,2.87-10.13,3.74-15.39L251.83,141.77z M136.06,222.56
		c-52.46,4.88-98.93-33.69-103.81-86.15C27.37,83.95,65.93,37.48,118.38,32.6s98.93,33.68,103.81,86.14S188.51,217.68,136.06,222.56
		z"/>
	<path class="st1" d="M120.62,56.61c-39.19,3.65-68.01,38.37-64.36,77.57c3.65,39.19,38.37,68.01,77.57,64.36
		c39.19-3.65,68.01-38.37,64.36-77.57C194.54,81.78,159.81,52.97,120.62,56.61z M130.43,162.05c-19.04,1.77-35.91-12.23-37.68-31.27
		c-1.77-19.03,12.23-35.9,31.27-37.67c19.04-1.77,35.91,12.23,37.68,31.26C163.47,143.41,149.47,160.28,130.43,162.05z"/>
	<line class="st1" x1="127.22" y1="32.19" x2="127.22" y2="222.97"/>
	<path class="st1" d="M31.86,125.3"/>
	<line class="st1" x1="31.86" y1="128.01" x2="220.35" y2="128.01"/>
	<line class="st1" x1="61.1" y1="194.22" x2="194.38" y2="60.94"/>
	<line class="st1" x1="59.46" y1="60.94" x2="192.75" y2="194.22"/>
</g>
<g>
</g>
<g>
</g>
<g>
</g>
<g>
</g>
<g>
</g>
<g>
</g>
</svg>
