<?xml version="1.0" encoding="utf-8"?>
<!-- Generator: Adobe Illustrator 23.0.1, SVG Export Plug-In . SVG Version: 6.00 Build 0)  -->
<svg version="1.1" id="Warstwa_1" xmlns="http://www.w3.org/2000/svg" xmlns:xlink="http://www.w3.org/1999/xlink" x="0px" y="0px"
	 viewBox="0 0 224.89 224.29" style="enable-background:new 0 0 224.89 224.29;" xml:space="preserve">
<style type="text/css">
	.st0{opacity:0.8;}
	.st1{fill:#EB5D2F;stroke:#EB5D2F;stroke-width:2.0034;stroke-miterlimit:10;}
</style>
<g class="st0">
	<path class="st1" d="M221.69,134.96c1.21-5.91,1.94-12.02,2.17-18.24l-16.41-5.17c-0.05-4.96-0.48-9.85-1.26-14.6l15.13-8.56
		c-1.31-5.96-3.11-11.72-5.33-17.28l-17.1,1.95c-2.12-4.65-4.61-9.1-7.43-13.31l10.32-13.95c-3.57-4.77-7.51-9.24-11.79-13.38
		l-14.82,8.74c-3.92-3.45-8.14-6.58-12.59-9.36l3.74-16.91c-5.12-2.84-10.48-5.28-16.06-7.29l-10.01,14.04
		c-5.03-1.54-10.23-2.67-15.58-3.36l-3.44-16.93c-2.9-0.22-5.83-0.34-8.79-0.34s-5.89,0.13-8.79,0.34l-3.44,16.93
		c-5.35,0.69-10.56,1.82-15.58,3.36L74.62,7.59c-5.58,2.01-10.94,4.45-16.06,7.29l3.74,16.91c-4.45,2.77-8.67,5.9-12.59,9.36
		l-14.82-8.74c-4.28,4.14-8.22,8.62-11.79,13.38l10.32,13.95c-2.82,4.21-5.31,8.66-7.43,13.31l-17.1-1.95
		c-2.22,5.56-4.02,11.33-5.33,17.28l15.13,8.56c-0.78,4.76-1.21,9.64-1.26,14.6l-16.41,5.17c0.23,6.23,0.96,12.33,2.17,18.24
		l17.31,1.67c1.2,4.59,2.73,9.04,4.58,13.33l-12.9,11.41c2.74,5.62,5.95,10.97,9.55,16.01l16.5-5.52c2.83,3.54,5.9,6.86,9.2,9.95
		l-7.16,15.71c4.79,4.07,9.92,7.74,15.35,10.96l12.8-11.73c3.89,2.03,7.94,3.81,12.12,5.3l-0.16,17.29c6,1.79,12.21,3.1,18.59,3.87
		l6.92-15.9c2.16,0.15,4.34,0.22,6.54,0.22c2.2,0,4.38-0.07,6.54-0.22l6.92,15.9c6.37-0.77,12.59-2.08,18.59-3.87l-0.16-17.29
		c4.18-1.49,8.23-3.26,12.12-5.3l12.8,11.73c5.43-3.22,10.57-6.89,15.35-10.96l-7.16-15.71c3.3-3.09,6.37-6.41,9.2-9.95l16.5,5.52
		c3.61-5.04,6.81-10.39,9.55-16.01l-12.9-11.41c1.85-4.29,3.38-8.74,4.58-13.33L221.69,134.96z M115.21,196.95
		c-49.08,1.56-89.18-38.56-87.61-87.64c1.42-44.44,37.63-80.64,82.07-82.05c49.08-1.56,89.18,38.55,87.6,87.63
		C195.86,159.34,159.66,195.54,115.21,196.95z"/>
	<path class="st1" d="M115.75,48.77c-37.63-1.91-68.55,29.01-66.64,66.64c1.63,32.22,27.82,58.41,60.04,60.04
		c37.63,1.91,68.55-29.01,66.64-66.64C174.16,76.58,147.97,50.4,115.75,48.77z M144.72,132.75c-3.19,0.64-6.34,0.53-9.23-0.18
		c-0.8,0.9-1.65,1.76-2.56,2.56c0.3,1.26,0.48,2.57,0.54,3.91c0.49,11.05-7.89,20.82-18.89,21.91
		c-12.59,1.24-23.19-8.61-23.19-20.95c0-1.68,0.19-3.3,0.56-4.87c-0.9-0.8-1.76-1.65-2.56-2.56c-2.87,0.7-6,0.82-9.17,0.19
		c-9.18-1.8-16.14-9.74-16.82-19.07c-0.9-12.34,8.84-22.64,20.99-22.64c1.72,0,3.4,0.21,5,0.6c0.82-0.92,1.69-1.79,2.62-2.62
		c-0.71-2.87-0.84-5.99-0.25-9.16c1.73-9.19,9.61-16.21,18.93-16.95c12.42-1,22.79,8.78,22.79,20.98c0,1.76-0.22,3.49-0.63,5.13
		c0.92,0.83,1.8,1.69,2.62,2.62c1.6-0.39,3.28-0.6,5-0.6c12.12,0,21.84,10.24,21,22.54C160.85,122.94,153.9,130.92,144.72,132.75z"
		/>
	<line class="st1" x1="112.45" y1="62.86" x2="112.45" y2="161.04"/>
	<line class="st1" x1="63.35" y1="112.11" x2="161.54" y2="112.11"/>
	<line class="st1" x1="133.39" y1="90.73" x2="90.9" y2="133.22"/>
	<line class="st1" x1="90.9" y1="90.09" x2="133.7" y2="132.9"/>
</g>
<g>
</g>
<g>
</g>
<g>
</g>
<g>
</g>
<g>
</g>
<g>
</g>
</svg>
