<?xml version="1.0" encoding="utf-8"?>
<!-- Generator: Adobe Illustrator 23.0.1, SVG Export Plug-In . SVG Version: 6.00 Build 0)  -->
<svg version="1.1" id="Warstwa_1" xmlns="http://www.w3.org/2000/svg" xmlns:xlink="http://www.w3.org/1999/xlink" x="0px" y="0px"
	 viewBox="0 0 153.13 153.17" style="enable-background:new 0 0 153.13 153.17;" xml:space="preserve">
<style type="text/css">
	.st0{opacity:0.8;}
	.st1{fill:#F0812B;stroke:#F0812B;stroke-width:1.5774;stroke-miterlimit:10;}
	.st2{fill:#F0812B;stroke:#F0812B;stroke-width:2.3661;stroke-miterlimit:10;}
</style>
<g class="st0">
	<path class="st1" d="M150.28,95.19c1-3.98,1.68-8.11,2.02-12.34l-11-4.01c0.11-3.38-0.03-6.71-0.42-9.97l10.55-5.37
		c-0.72-4.09-1.76-8.06-3.11-11.91l-11.68,0.82c-1.3-3.23-2.86-6.32-4.65-9.27l7.43-9.17c-2.28-3.35-4.83-6.51-7.61-9.45l-10.34,5.5
		c-2.56-2.46-5.34-4.72-8.28-6.74l3.05-11.38c-3.4-2.08-6.97-3.9-10.7-5.44l-7.23,9.25c-3.37-1.2-6.88-2.12-10.49-2.75L85.96,1.36
		c-1.96-0.24-3.95-0.41-5.97-0.5S75.98,0.77,74,0.83l-2.84,11.41c-3.66,0.31-7.23,0.92-10.7,1.82l-6.39-9.84
		c-3.85,1.2-7.57,2.7-11.14,4.48l2.04,11.61c-3.11,1.75-6.07,3.76-8.84,5.99l-9.82-6.38c-3.03,2.69-5.84,5.61-8.41,8.75l6.6,9.79
		c-2.04,2.78-3.87,5.73-5.45,8.83L7.5,45.43c-1.68,3.71-3.07,7.58-4.14,11.59l10.03,6.27c-0.67,3.21-1.11,6.52-1.29,9.89L0.79,76.21
		c-0.03,4.24,0.29,8.41,0.93,12.47l11.72,1.65c0.68,3.16,1.59,6.23,2.72,9.2l-9.11,7.37c1.7,3.9,3.72,7.64,6.02,11.17l11.38-3.26
		c1.82,2.49,3.81,4.84,5.96,7.04l-5.33,10.47c3.13,2.91,6.51,5.56,10.11,7.91l9.05-7.6c2.58,1.5,5.28,2.83,8.08,3.96l-0.62,11.75
		c4.02,1.4,8.21,2.47,12.52,3.18l5.18-10.6c1.46,0.16,2.94,0.28,4.44,0.34c1.5,0.07,2.98,0.08,4.45,0.05l4.23,11.01
		c4.36-0.33,8.62-1.04,12.75-2.08l0.41-11.76c2.89-0.89,5.69-1.97,8.4-3.24l8.35,8.36c3.79-2.03,7.39-4.37,10.77-7l-4.4-10.89
		c2.33-2,4.52-4.17,6.55-6.49l11.05,4.24c2.6-3.32,4.94-6.86,6.97-10.6l-8.43-8.14c1.38-2.86,2.56-5.84,3.51-8.93L150.28,95.19z
		 M74.15,134.12c-31.88-1.4-56.58-28.37-55.18-60.25s28.36-56.58,60.24-55.18c31.88,1.4,56.58,28.36,55.18,60.24
		C132.99,110.81,106.03,135.52,74.15,134.12z"/>
	<circle class="st2" cx="76.68" cy="76.4" r="26.78"/>
	<g>
		<line class="st1" x1="74.15" y1="134.12" x2="75.51" y2="103.16"/>
		<line class="st1" x1="77.85" y1="49.65" x2="79.21" y2="18.69"/>
		<line class="st1" x1="49.93" y1="75.23" x2="18.97" y2="73.87"/>
		<line class="st1" x1="134.4" y1="78.93" x2="103.43" y2="77.57"/>
		<line class="st1" x1="119.28" y1="37.38" x2="96.42" y2="58.32"/>
		<polyline class="st1" points="34.08,115.42 56.94,94.49 56.94,94.48 		"/>
		<line class="st1" x1="58.6" y1="56.66" x2="37.66" y2="33.8"/>
		<polyline class="st1" points="94.76,96.14 94.76,96.15 115.7,119 		"/>
	</g>
</g>
<g>
</g>
<g>
</g>
<g>
</g>
<g>
</g>
<g>
</g>
<g>
</g>
</svg>
