<?xml version="1.0" encoding="utf-8"?>
<!-- Generator: Adobe Illustrator 23.0.1, SVG Export Plug-In . SVG Version: 6.00 Build 0)  -->
<svg version="1.1" id="Warstwa_1" xmlns="http://www.w3.org/2000/svg" xmlns:xlink="http://www.w3.org/1999/xlink" x="0px" y="0px"
	 viewBox="0 0 357.56 358.74" style="enable-background:new 0 0 357.56 358.74;" xml:space="preserve">
<style type="text/css">
	.st0{opacity:0.8;}
	.st1{fill:#F0812B;stroke:#F0812B;stroke-width:4.3844;stroke-miterlimit:10;}
</style>
<g class="st0">
	<path class="st1" d="M354.34,198.82c1.04-9.53,1.3-19.3,0.75-29.18l-26.72-5.77c-0.81-7.85-2.21-15.51-4.15-22.92l22.68-15.78
		c-2.96-9.23-6.64-18.09-10.98-26.56l-26.76,5.6c-4.03-7.05-8.63-13.71-13.71-19.96l14.27-23.58c-6.35-7.02-13.24-13.52-20.62-19.44
		l-22.16,16.01c-6.71-4.88-13.84-9.22-21.29-12.95l3.44-27.3c-8.52-3.73-17.36-6.81-26.49-9.17l-13.78,23.69
		c-8.18-1.7-16.58-2.72-25.15-3.02l-7.94-26.28c-4.62,0.08-9.27,0.31-13.96,0.75s-9.31,1.07-13.86,1.84l-2.95,27.29
		c-8.36,1.88-16.43,4.43-24.16,7.61L102.9,18.97c-8.53,4.01-16.65,8.66-24.34,13.9l8.41,26.2c-6.64,5.04-12.84,10.62-18.54,16.66
		L43.69,64.07c-6.16,7.18-11.74,14.84-16.68,22.91l18.37,20.54c-3.84,7.08-7.13,14.48-9.79,22.15L8.27,129.1
		c-2.7,9.12-4.69,18.51-5.89,28.13l25.2,11.32c-0.54,7.64-0.5,15.43,0.15,23.29l-25.2,10.6c1.28,9.82,3.33,19.36,6.12,28.54
		l27.64,0.09c2.57,7.08,5.65,13.9,9.21,20.42l-18.73,19.95c5.17,8.49,11.02,16.48,17.47,23.92l25.29-11.16
		c4.99,5.18,10.35,9.99,16.02,14.39l-9.01,25.91c8.17,5.73,16.83,10.78,25.9,15.08l18.52-20.45c6.45,2.65,13.12,4.86,19.96,6.6
		l2.3,27.38c9.75,1.96,19.78,3.1,29.98,3.39l8.6-26.17c3.44-0.09,6.9-0.29,10.38-0.62c3.48-0.32,6.92-0.76,10.31-1.31l13.28,24.13
		c9.97-2.16,19.61-5.14,28.84-8.86l-2.79-27.34c6.4-2.98,12.54-6.38,18.4-10.17l21.97,16.68c8.12-5.9,15.7-12.46,22.68-19.6
		l-13.63-23.8c4.76-5.37,9.14-11.09,13.09-17.1l26.92,6.3c4.97-8.5,9.25-17.44,12.76-26.74l-22.09-16.15
		c2.29-7.05,4.06-14.33,5.28-21.76L354.34,198.82z M190.63,313.06c-74.18,6.9-139.89-47.64-146.79-121.82S91.46,51.36,165.64,44.46
		s139.88,47.62,146.79,121.8S264.8,306.16,190.63,313.06z"/>
	<path class="st1" d="M168.8,78.41c-55.42,5.16-96.17,54.26-91.01,109.68c5.16,55.42,54.26,96.17,109.68,91.01
		s96.17-54.26,91.01-109.68C273.32,114,224.22,73.25,168.8,78.41z M182.67,227.5c-26.93,2.5-50.78-17.29-53.28-44.21
		c-2.5-26.91,17.29-50.77,44.22-53.27c26.93-2.5,50.78,17.29,53.28,44.2C229.39,201.14,209.59,225,182.67,227.5z"/>
	<circle class="st1" cx="172.83" cy="121.77" r="33.45"/>
	<circle class="st1" cx="183.39" cy="235.25" r="33.45"/>
	<circle class="st1" cx="121.4" cy="184.04" r="33.45"/>
	<circle class="st1" cx="234.87" cy="173.48" r="33.45"/>
</g>
<g>
</g>
<g>
</g>
<g>
</g>
<g>
</g>
<g>
</g>
<g>
</g>
</svg>
