<?xml version="1.0" encoding="utf-8"?>
<!-- Generator: Adobe Illustrator 23.0.1, SVG Export Plug-In . SVG Version: 6.00 Build 0)  -->
<svg version="1.1" id="Warstwa_1" xmlns="http://www.w3.org/2000/svg" xmlns:xlink="http://www.w3.org/1999/xlink" x="0px" y="0px"
	 viewBox="0 0 1922.53 988.53" style="enable-background:new 0 0 1922.53 988.53;" xml:space="preserve">
<style type="text/css">
	.st0{fill:#F0812B;stroke:#F0812B;stroke-width:2.5317;stroke-miterlimit:10;}
	.st1{opacity:0.8;}
	.st2{fill:#FFFFFF;stroke:#FFFFFF;stroke-width:1.5774;stroke-miterlimit:10;}
	.st3{fill:#FFFFFF;stroke:#FFFFFF;stroke-width:2.3661;stroke-miterlimit:10;}
	.st4{fill:#FFFFFF;stroke:#FFFFFF;stroke-width:1.8613;stroke-miterlimit:10;}
	.st5{fill:#FFFFFF;stroke:#FFFFFF;stroke-width:5.0626;stroke-miterlimit:10;}
	.st6{fill:#FFFFFF;stroke:#FFFFFF;stroke-width:1.7372;stroke-miterlimit:10;}
	.st7{fill:#FFFFFF;stroke:#FFFFFF;stroke-width:1.708;stroke-miterlimit:10;}
	.st8{fill:#FFFFFF;stroke:#FFFFFF;stroke-width:5.124;stroke-miterlimit:10;}
	.st9{fill:#FFFFFF;stroke:#FFFFFF;stroke-width:2.5317;stroke-miterlimit:10;}
</style>
<rect x="1.27" y="1.27" class="st0" width="1920" height="986"/>
<g class="st1">
	<path class="st2" d="M490.38,113.89c-0.76-4.04-1.87-8.07-3.33-12.05l-11.67,0.96c-1.31-3.11-2.84-6.08-4.55-8.88l7.33-9.29
		c-2.36-3.41-4.98-6.59-7.81-9.52l-10.27,5.63c-2.53-2.39-5.25-4.54-8.1-6.47l2.91-11.44c-3.47-2.09-7.11-3.89-10.87-5.4l-7.09,9.32
		c-3.36-1.17-6.82-2.05-10.34-2.65l-1.99-11.62c-3.96-0.47-7.96-0.63-12-0.46l-2.7,11.42c-3.56,0.32-7.13,0.95-10.68,1.89
		l-6.52-9.78c-1.88,0.61-3.76,1.28-5.63,2.05s-3.68,1.6-5.45,2.48l2.19,11.55c-3.19,1.81-6.18,3.86-8.95,6.13l-9.92-6.27
		c-3,2.7-5.75,5.62-8.24,8.73l6.71,9.69c-2.09,2.89-3.94,5.95-5.52,9.13l-11.59-1.69c-1.63,3.71-2.96,7.54-3.98,11.46l10.09,6.13
		c-0.69,3.38-1.12,6.82-1.25,10.3l-11.27,3.17c0.03,4.07,0.38,8.17,1.09,12.26l11.74,1.5c0.73,3.2,1.72,6.38,2.96,9.52l-9.01,7.48
		c1.75,3.86,3.78,7.52,6.06,10.94l11.34-3.4c1.94,2.58,4.05,4.99,6.32,7.22l-5.19,10.51c3.18,2.84,6.57,5.38,10.14,7.63l8.98-7.72
		c2.69,1.5,5.49,2.8,8.36,3.9l-0.47,11.74c4.06,1.33,8.24,2.32,12.49,2.96l5.04-10.69c2.97,0.28,5.98,0.36,9,0.22l4.35,10.94
		c4.24-0.41,8.49-1.19,12.71-2.34l0.27-11.79c1.4-0.46,2.79-0.98,4.18-1.54c1.39-0.57,2.74-1.17,4.06-1.82l8.45,8.24
		c3.82-2.13,7.4-4.55,10.71-7.22l-4.55-10.86c2.25-2.02,4.34-4.17,6.27-6.46l11.08,4.1c2.59-3.43,4.88-7.06,6.85-10.86l-8.55-8.06
		c1.28-2.79,2.36-5.68,3.24-8.64l11.82-0.77c0.98-4.1,1.62-8.3,1.9-12.55l-11.07-3.87c0.06-3.18-0.12-6.38-0.55-9.58L490.38,113.89z
		 M437.52,181.09c-29.54,12.06-63.26-2.1-75.32-31.64c-12.06-29.54,2.1-63.26,31.64-75.32s63.26,2.1,75.32,31.64
		S467.06,169.02,437.52,181.09z"/>
	<circle class="st3" cx="415.67" cy="127.61" r="26.78"/>
	<g>
		<line class="st2" x1="437.52" y1="181.09" x2="425.8" y2="152.4"/>
		<line class="st2" x1="405.55" y1="102.82" x2="393.83" y2="74.12"/>
		<line class="st2" x1="390.89" y1="137.73" x2="362.19" y2="149.45"/>
		<line class="st2" x1="469.16" y1="105.76" x2="440.46" y2="117.48"/>
		<line class="st2" x1="438.04" y1="74.34" x2="426.04" y2="102.92"/>
		<polyline class="st2" points="393.3,180.87 405.31,152.29 405.31,152.29 		"/>
		<line class="st2" x1="390.99" y1="117.24" x2="362.41" y2="105.23"/>
		<polyline class="st2" points="440.36,137.97 440.36,137.98 468.94,149.98 		"/>
	</g>
</g>
<g class="st1">
	<path class="st4" d="M1153.08,745.44"/>
	<path class="st4" d="M1153.08,625.35"/>
	<path class="st4" d="M1213.12,685.58"/>
	<path class="st4" d="M1093.04,685.58"/>
	<path class="st4" d="M1126.72,711.4"/>
	<path class="st4" d="M1178.69,659.44"/>
	<path class="st4" d="M1179.08,711.01"/>
	<path class="st4" d="M1126.72,658.66"/>
	<g>
		<path class="st4" d="M1281.6,727.36l21.18-2.04c1.48-7.24,2.37-14.7,2.65-22.31l-20.06-6.33c-0.06-6.08-0.6-12.04-1.55-17.86
			l18.52-10.48c-0.83-3.73-1.81-7.4-2.93-11c-1.06-3.43-2.26-6.81-3.59-10.13l-20.9,2.38c-0.48-1.05-0.98-2.1-1.5-3.14
			c-2.24-4.56-4.78-8.94-7.59-13.14l12.62-17.05c-4.36-5.84-9.18-11.3-14.42-16.37l-18.13,10.69c-4.79-4.22-9.95-8.05-15.4-11.45
			l4.58-20.68c-0.83-0.46-1.66-0.9-2.49-1.34c-5.51-2.9-11.24-5.44-17.16-7.58l-5.99,8.39l-6.26,8.79
			c-6.14-1.89-12.51-3.27-19.06-4.11l-4.21-20.7c-3.54-0.28-7.12-0.43-10.75-0.43c-3.62,0-7.21,0.15-10.76,0.43l-4.21,20.7
			c-6.54,0.84-12.91,2.22-19.06,4.11l-6.26-8.79l-5.99-8.39c-5.97,2.16-11.74,4.72-17.3,7.65c-0.79,0.41-1.57,0.83-2.35,1.27
			l4.58,20.68c-5.44,3.4-10.6,7.23-15.39,11.45l-18.13-10.69c-5.23,5.07-10.06,10.53-14.42,16.37l12.61,17.05
			c-2.84,4.24-5.4,8.67-7.66,13.29c-0.48,0.99-0.96,1.98-1.41,2.99l-20.91-2.38c-1.38,3.47-2.64,7.01-3.74,10.6
			c-1.06,3.45-1.99,6.96-2.77,10.53l18.51,10.48c-0.96,5.81-1.48,11.78-1.54,17.86l-20.07,6.33c0.29,7.61,1.18,15.07,2.66,22.31
			l21.18,2.04c0.74,2.84,1.58,5.63,2.53,8.39c0.94,2.68,1.96,5.32,3.07,7.91l-15.79,13.96c0.68,1.4,1.39,2.79,2.13,4.16
			c2.85,5.37,6.05,10.51,9.57,15.43l20.18-6.75c3.45,4.33,7.22,8.4,11.25,12.17l-8.75,19.21c5.86,4.98,12.13,9.47,18.78,13.41
			l15.65-14.35c0.99,0.51,1.98,1.01,2.98,1.5c3.84,1.87,7.78,3.54,11.84,4.99l-0.04,5.15c0,0,0,0.01,0,0.02l-0.15,15.99
			c7.34,2.19,14.95,3.78,22.74,4.73l8.45-19.44c2.65,0.18,5.32,0.27,8,0.27c2.69,0,5.36-0.09,7.99-0.27l8.46,19.44
			c7.79-0.95,15.39-2.54,22.73-4.73l-0.17-18.54c0-0.01,0-0.01,0-0.01l-0.02-2.6c4.25-1.52,8.39-3.27,12.4-5.26
			c0.82-0.39,1.63-0.8,2.43-1.22l15.65,14.35c6.64-3.93,12.93-8.43,18.77-13.41l-8.75-19.21c4.03-3.77,7.79-7.85,11.26-12.17
			l20.18,6.75c3.65-5.09,6.96-10.45,9.88-16.03c0.63-1.17,1.22-2.36,1.81-3.55L1276,743.66c1.18-2.75,2.26-5.55,3.23-8.41
			C1280.11,732.66,1280.9,730.03,1281.6,727.36z M1169.16,801.19c-10.89,0-21.38-1.68-31.23-4.78c-5.5-1.73-10.79-3.9-15.85-6.47
			c-19.52-9.96-35.47-25.9-45.44-45.41c-2.41-4.72-4.48-9.65-6.14-14.77c-3.35-10.19-5.16-21.08-5.16-32.39
			c0-11.2,1.78-21.99,5.07-32.1c1.69-5.24,3.79-10.3,6.27-15.14c9.98-19.5,25.96-35.43,45.5-45.35c4.6-2.35,9.42-4.36,14.39-6
			c10.25-3.39,21.2-5.22,32.58-5.22c11.39,0,22.34,1.83,32.58,5.22c5,1.65,9.82,3.67,14.45,6.02c19.44,9.9,35.35,25.74,45.33,45.13
			c2.54,4.94,4.7,10.11,6.43,15.48c3.26,10.07,5.02,20.81,5.02,31.97c0,11.07-1.73,21.73-4.94,31.72
			c-1.67,5.24-3.75,10.31-6.22,15.15c-9.84,19.46-25.65,35.4-45.02,45.41c-5.06,2.62-10.36,4.83-15.87,6.59
			C1190.91,799.46,1180.24,801.19,1169.16,801.19z"/>
		<path class="st4" d="M1272.23,662.46c-1.58-4.67-3.47-9.18-5.64-13.54c-10.61-21.33-28.03-38.67-49.42-49.21
			c-4.08-2.01-8.3-3.77-12.65-5.26c-11.09-3.82-22.98-5.88-35.36-5.88c-12.38,0-24.28,2.06-35.37,5.89
			c-4.34,1.48-8.55,3.23-12.62,5.24c-21.45,10.56-38.93,27.98-49.55,49.4c-2.13,4.28-3.98,8.73-5.53,13.31
			c-3.72,10.97-5.74,22.73-5.74,34.95c0,12.33,2.05,24.2,5.84,35.24c1.52,4.44,3.33,8.77,5.39,12.93
			c10.59,21.44,28.04,38.88,49.49,49.45c4.46,2.2,9.09,4.1,13.87,5.69c10.76,3.57,22.26,5.5,34.22,5.5c12.16,0,23.84-2,34.76-5.68
			c4.78-1.61,9.42-3.55,13.87-5.78c21.3-10.65,38.61-28.11,49.1-49.51c2.08-4.25,3.9-8.65,5.42-13.19
			c3.66-10.89,5.63-22.53,5.63-34.65C1277.95,685.16,1275.94,673.41,1272.23,662.46z M1261.52,649.92
			c-12.01,1.56-24.59-2.27-33.82-11.5c-9.17-9.17-13.01-21.68-11.51-33.62C1235.63,614.69,1251.54,630.53,1261.52,649.92z
			 M1243.2,696.44c0,6.74-5.45,12.19-12.18,12.19c-6.74,0-12.19-5.45-12.19-12.19c0-6.73,5.45-12.18,12.19-12.18
			C1237.75,684.25,1243.2,689.71,1243.2,696.44z M1169.16,738.3c-22.61,0-40.94-18.33-40.94-40.94c0-22.6,18.33-40.93,40.94-40.93
			c22.6,0,40.93,18.33,40.93,40.93C1210.09,719.97,1191.76,738.3,1169.16,738.3z M1181.68,759.81c0,6.74-5.46,12.19-12.19,12.19
			c-6.74,0-12.19-5.45-12.19-12.19c0-6.73,5.45-12.18,12.19-12.18C1176.22,747.62,1181.68,753.08,1181.68,759.81z M1157.29,636.09
			c0-6.73,5.45-12.19,12.19-12.19c6.73,0,12.19,5.46,12.19,12.19c0,6.74-5.46,12.19-12.19,12.19
			C1162.75,648.28,1157.29,642.83,1157.29,636.09z M1169.16,593.55c11.39,0,22.34,1.83,32.58,5.22
			c-7.36,10.01-19.21,16.51-32.58,16.51c-13.37,0-25.24-6.5-32.58-16.51C1146.82,595.38,1157.77,593.55,1169.16,593.55z
			 M1122.18,604.77c1.58,12.03-2.24,24.64-11.48,33.88c-9.28,9.28-21.95,13.11-34.02,11.47
			C1086.66,630.62,1102.64,614.69,1122.18,604.77z M1119.48,696.44c0,6.74-5.45,12.19-12.19,12.19c-6.73,0-12.18-5.45-12.18-12.19
			c0-6.73,5.45-12.18,12.18-12.18C1114.03,684.25,1119.48,689.71,1119.48,696.44z M1065.34,697.36c0-11.2,1.78-21.99,5.07-32.1
			c9.78,7.37,16.11,19.08,16.11,32.27c0,13.15-6.28,24.84-16.02,32.22C1067.15,719.56,1065.34,708.67,1065.34,697.36z
			 M1076.64,744.52c12.06-1.62,24.71,2.21,33.96,11.47c9.26,9.26,13.09,21.89,11.47,33.94
			C1102.56,779.97,1086.6,764.04,1076.64,744.52z M1169.16,801.19c-10.89,0-21.38-1.68-31.23-4.78c7.4-9.25,18.8-15.18,31.56-15.18
			c12.69,0,24.01,5.86,31.42,15.01C1190.91,799.46,1180.24,801.19,1169.16,801.19z M1216.78,789.65
			c-1.58-12.03,2.24-24.64,11.49-33.89c9.15-9.15,21.6-12.99,33.53-11.52C1251.96,763.7,1236.15,779.63,1216.78,789.65z
			 M1268.02,729.08c-9.47-7.41-15.56-18.93-15.56-31.88c0-12.92,6.06-24.41,15.49-31.81c3.26,10.07,5.02,20.81,5.02,31.97
			C1272.97,708.43,1271.23,719.09,1268.02,729.08z"/>
	</g>
	<path class="st4" d="M1209.44,577.93c-0.44,5.96-2.17,11.56-4.92,16.52c-0.83,1.5-1.76,2.94-2.77,4.33
		c-10.25-3.39-21.2-5.22-32.58-5.22c-11.39,0-22.33,1.83-32.58,5.22c-1.02-1.37-1.95-2.82-2.79-4.32
		c-2.74-4.96-4.49-10.57-4.92-16.53l6.26,8.79c6.16-1.89,12.52-3.27,19.06-4.11l4.21-20.7c3.55-0.28,7.13-0.43,10.76-0.43
		c3.63,0,7.21,0.15,10.75,0.43l4.21,20.7c6.55,0.84,12.92,2.22,19.06,4.11L1209.44,577.93z"/>
	<path class="st4" d="M1070.49,729.75c-1.37,1.03-2.81,1.99-4.31,2.85c-2.19,1.25-4.52,2.32-6.94,3.15
		c-0.95-2.75-1.79-5.55-2.53-8.39l-21.18-2.04c-1.48-7.24-2.37-14.7-2.66-22.31l20.07-6.33c0.06-6.08,0.58-12.04,1.54-17.86
		l-18.51-10.48c0.79-3.57,1.71-7.08,2.77-10.53c2.38-0.44,4.84-0.67,7.35-0.67c7.26,0,14.09,1.91,19.99,5.27
		c1.5,0.86,2.94,1.81,4.32,2.85c-3.3,10.11-5.07,20.9-5.07,32.1C1065.34,708.67,1067.15,719.56,1070.49,729.75z"/>
	<path class="st4" d="M1305.42,703.01c-0.28,7.61-1.17,15.07-2.65,22.31l-21.18,2.04c-0.7,2.67-1.49,5.29-2.37,7.89
		c-2.42-0.86-4.73-1.95-6.91-3.24c-1.5-0.88-2.93-1.86-4.29-2.92c3.21-9.99,4.94-20.66,4.94-31.72c0-11.15-1.75-21.9-5.02-31.97
		c1.36-1.06,2.79-2.05,4.28-2.93c6.04-3.59,13.09-5.66,20.62-5.66c2.22,0,4.41,0.18,6.54,0.53c1.13,3.6,2.1,7.27,2.93,11
		l-18.52,10.48c0.96,5.81,1.49,11.78,1.55,17.86L1305.42,703.01z"/>
	<path class="st4" d="M1122.18,604.77c-19.54,9.92-35.52,25.85-45.5,45.35c-1.7-0.22-3.39-0.56-5.06-1.02
		c-2.32-0.62-4.59-1.45-6.79-2.5c2.26-4.61,4.83-9.05,7.66-13.29l-12.61-17.05c4.36-5.84,9.19-11.3,14.42-16.37l18.13,10.69
		c4.79-4.22,9.95-8.05,15.39-11.45l-4.58-20.68c0.78-0.44,1.56-0.85,2.35-1.27c1.8,1.28,3.51,2.72,5.11,4.33
		c5.22,5.22,8.72,11.52,10.47,18.18C1121.63,601.37,1121.96,603.07,1122.18,604.77z"/>
	<path class="st4" d="M1289.96,761.17c-2.91,5.58-6.23,10.94-9.88,16.03l-20.18-6.75c-3.47,4.33-7.23,8.4-11.26,12.17l8.75,19.21
		c-5.85,4.98-12.13,9.47-18.77,13.41l-15.65-14.35c-0.81,0.43-1.62,0.83-2.43,1.22c-1.17-2.39-2.09-4.87-2.75-7.4
		c-0.46-1.67-0.79-3.36-1.01-5.06c19.37-10.01,35.18-25.95,45.02-45.41c1.71,0.2,3.41,0.53,5.09,0.97
		c6.78,1.72,13.21,5.25,18.52,10.56C1287.12,757.46,1288.63,759.26,1289.96,761.17z"/>
	<path class="st4" d="M1122.07,789.93c-0.22,1.7-0.55,3.39-1.01,5.05c-0.66,2.53-1.58,5.01-2.75,7.4c-1-0.49-1.99-0.99-2.98-1.5
		l-15.65,14.35c-6.66-3.93-12.93-8.43-18.78-13.41l8.75-19.21c-4.03-3.77-7.79-7.85-11.25-12.17l-20.18,6.75
		c-3.52-4.91-6.72-10.06-9.57-15.43c1.39-2.04,3-3.98,4.8-5.78c5.21-5.21,11.48-8.7,18.11-10.46c1.67-0.45,3.36-0.79,5.06-1.01
		C1086.6,764.04,1102.56,779.97,1122.07,789.93z"/>
	<path class="st4" d="M1265.81,633.31c2.81,4.2,5.35,8.58,7.59,13.14c-2.2,1.03-4.49,1.86-6.81,2.47c-1.67,0.45-3.37,0.78-5.07,1
		c-9.98-19.39-25.89-35.23-45.33-45.13c0.21-1.71,0.53-3.4,0.98-5.08c1.73-6.75,5.25-13.14,10.54-18.43
		c1.54-1.54,3.17-2.92,4.88-4.16c0.83,0.44,1.66,0.88,2.49,1.34l-4.58,20.68c5.45,3.4,10.61,7.23,15.4,11.45l18.13-10.69
		c5.23,5.07,10.06,10.53,14.42,16.37L1265.81,633.31z"/>
</g>
<g class="st1">
	<path class="st5" d="M732.15,167.45c1.06-6.28,1.61-12.74,1.63-19.31l-17.49-4.86c-0.23-5.23-0.86-10.36-1.86-15.35l15.65-9.57
		c-1.6-6.23-3.7-12.25-6.24-18.03l-17.95,2.67c-2.4-4.83-5.19-9.42-8.31-13.77l10.37-15.08c-3.93-4.9-8.25-9.47-12.91-13.68
		l-15.31,9.75c-4.26-3.5-8.82-6.65-13.61-9.41l3.34-17.96c-5.5-2.81-11.24-5.19-17.2-7.11L642.21,50.9
		c-5.36-1.45-10.88-2.45-16.55-2.98l-4.24-17.72c-3.07-0.13-6.16-0.15-9.28-0.05c-3.12,0.11-6.21,0.34-9.26,0.68l-3.02,17.97
		c-5.62,0.92-11.06,2.29-16.31,4.1l-11.06-14.44c-5.81,2.32-11.38,5.09-16.67,8.27l4.56,17.69c-4.6,3.09-8.93,6.54-12.94,10.32
		l-15.94-8.68c-4.36,4.52-8.36,9.38-11.94,14.53l11.38,14.33c-2.82,4.54-5.29,9.32-7.35,14.3l-18.09-1.44
		c-2.14,5.94-3.83,12.09-5,18.41l16.27,8.48c-0.65,5.04-0.93,10.21-0.8,15.44l-17.11,6.05c0.47,6.56,1.46,12.96,2.95,19.16
		l18.32,1.14c1.43,4.8,3.21,9.44,5.31,13.89l-13.19,12.5c3.1,5.83,6.66,11.35,10.65,16.54l17.2-6.41
		c3.11,3.63,6.47,7.02,10.06,10.16l-6.98,16.82c5.19,4.12,10.74,7.8,16.58,11l13.07-12.83c4.18,2,8.51,3.73,12.97,5.15l0.46,18.24
		c6.39,1.68,12.99,2.83,19.74,3.41l6.72-17.01c2.28,0.08,4.58,0.07,6.9,0c2.32-0.08,4.62-0.23,6.89-0.47l7.86,16.51
		c6.69-1.04,13.2-2.64,19.46-4.75L653,240.98c4.36-1.72,8.56-3.74,12.59-6.02l13.92,11.91c5.61-3.59,10.89-7.65,15.79-12.11
		l-8.11-16.3c3.36-3.37,6.49-6.99,9.34-10.82l17.6,5.22c3.62-5.44,6.81-11.2,9.5-17.23l-14.01-11.57c1.79-4.59,3.25-9.34,4.35-14.22
		L732.15,167.45z M619.2,236.8c-49.43,1.69-90.87-37.01-92.56-86.45s37-90.87,86.44-92.56s90.87,37,92.56,86.44
		S668.63,235.11,619.2,236.8z"/>
	<path class="st5" d="M613.85,80.43c-36.93,1.26-65.85,32.23-64.59,69.16c1.26,36.93,32.23,65.85,69.16,64.59
		s65.85-32.23,64.59-69.16C681.75,108.08,650.79,79.16,613.85,80.43z M617.25,179.79c-17.94,0.61-32.99-13.43-33.6-31.38
		c-0.61-17.93,13.43-32.98,31.38-33.59c17.94-0.61,32.99,13.43,33.6,31.37C649.24,164.13,635.2,179.17,617.25,179.79z"/>
	<line class="st5" x1="621.38" y1="57.9" x2="610.9" y2="236.7"/>
	<path class="st5" d="M526.89,139.92"/>
	<line class="st5" x1="526.74" y1="142.46" x2="703.4" y2="152.82"/>
	<line class="st5" x1="550.51" y1="206.12" x2="682.75" y2="88.54"/>
	<line class="st5" x1="556.3" y1="81.12" x2="673.89" y2="213.36"/>
</g>
<g class="st1">
	<path class="st6" d="M882.43,208.32c0.83-3.71,1.37-7.54,1.59-11.46l-10.26-3.46c0.03-3.13-0.18-6.2-0.62-9.21l9.63-5.21
		c-0.76-3.76-1.81-7.42-3.15-10.94l-10.78,1.02c-1.28-2.95-2.79-5.78-4.51-8.47l6.66-8.65c-2.19-3.04-4.62-5.91-7.26-8.57
		l-9.44,5.32c-2.43-2.22-5.04-4.24-7.81-6.04l2.56-10.6c-3.19-1.85-6.53-3.45-10.02-4.78l-6.47,8.72c-3.15-1.03-6.41-1.8-9.77-2.3
		l-1.96-10.7c-1.82-0.17-3.67-0.29-5.53-0.32c-1.86-0.04-3.71,0.01-5.54,0.11l-2.37,10.61c-3.38,0.37-6.67,1.01-9.85,1.93
		l-6.13-8.96c-3.54,1.2-6.94,2.67-10.2,4.39l2.15,10.69c-2.84,1.69-5.53,3.61-8.04,5.74l-9.22-5.68c-2.74,2.55-5.28,5.32-7.58,8.28
		l6.32,8.9c-1.82,2.62-3.45,5.38-4.84,8.29l-10.74-1.44c-1.47,3.47-2.67,7.08-3.56,10.81l9.42,5.57c-0.55,2.98-0.88,6.05-0.97,9.18
		l-10.39,3.06c0.07,3.92,0.45,7.77,1.14,11.51l10.88,1.26c0.7,2.9,1.61,5.73,2.72,8.45l-8.26,7.03c1.66,3.57,3.61,6.98,5.82,10.19
		l10.45-3.27c1.74,2.26,3.63,4.39,5.67,6.37l-4.69,9.8c2.96,2.62,6.15,4.99,9.53,7.09l8.2-7.23c2.42,1.33,4.95,2.49,7.56,3.48
		l-0.31,10.88c3.75,1.2,7.65,2.1,11.65,2.66l4.55-9.92c1.36,0.12,2.73,0.19,4.11,0.22c1.39,0.03,2.76,0.01,4.12-0.06l4.16,10.09
		c4.02-0.41,7.95-1.15,11.75-2.21l0.11-10.89c2.65-0.89,5.22-1.96,7.69-3.19l7.91,7.54c3.46-1.96,6.73-4.21,9.8-6.71l-4.31-9.97
		c2.11-1.9,4.09-3.96,5.91-6.15l10.32,3.67c2.33-3.13,4.41-6.46,6.21-9.96l-7.98-7.34c1.21-2.68,2.23-5.46,3.04-8.33L882.43,208.32z
		 M812.92,246.05c-29.51-0.57-52.97-24.95-52.4-54.46c0.57-29.51,24.95-52.97,54.46-52.4s52.97,24.95,52.4,54.46
		S842.43,246.61,812.92,246.05z"/>
	<path class="st6" d="M814.71,152.69c-22.05-0.42-40.27,17.11-40.69,39.15c-0.42,22.05,17.11,40.27,39.15,40.69
		s40.27-17.11,40.69-39.15C854.29,171.33,836.76,153.11,814.71,152.69z M813.57,212.01c-10.71-0.21-19.23-9.06-19.02-19.77
		c0.21-10.71,9.06-19.22,19.77-19.02c10.71,0.21,19.23,9.06,19.02,19.76C833.13,203.7,824.28,212.21,813.57,212.01z"/>
	<circle class="st6" cx="814.38" cy="169.94" r="13.26"/>
	<circle class="st6" cx="813.51" cy="215.09" r="13.26"/>
	<circle class="st6" cx="791.37" cy="192.18" r="13.26"/>
	<circle class="st6" cx="836.52" cy="193.05" r="13.26"/>
</g>
<g class="st1">
	<path class="st7" d="M1345.35,660.02c0-6.18,5.01-11.19,11.19-11.19c6.18,0,11.19,5.01,11.19,11.19c0,6.18-5.01,11.19-11.19,11.19
		C1350.36,671.2,1345.35,666.19,1345.35,660.02"/>
	<g>
		
			<ellipse transform="matrix(0.2034 -0.9791 0.9791 0.2034 474.769 1902.9338)" class="st8" cx="1406.83" cy="659.7" rx="31.08" ry="31.08"/>
		<path class="st7" d="M1405.14,597.02c6.18-0.17,11.32,4.7,11.48,10.88c0.17,6.18-4.7,11.32-10.88,11.48
			c-6.18,0.17-11.32-4.7-11.48-10.88C1394.09,602.33,1398.96,597.19,1405.14,597.02"/>
		<path class="st7" d="M1408.52,722.38c-6.18,0.17-11.32-4.7-11.48-10.88s4.7-11.32,10.88-11.48s11.32,4.7,11.48,10.88
			S1414.7,722.21,1408.52,722.38"/>
		<path class="st7" d="M1469.51,658.01c0.17,6.18-4.7,11.32-10.88,11.48c-6.18,0.17-11.32-4.7-11.48-10.88
			c-0.17-6.18,4.7-11.32,10.88-11.48S1469.34,651.83,1469.51,658.01"/>
		<circle class="st7" cx="1369.43" cy="624.27" r="11.19"/>
		<circle class="st7" cx="1444.23" cy="695.13" r="11.19"/>
		<circle class="st7" cx="1371.4" cy="697.1" r="11.19"/>
		<circle class="st7" cx="1442.26" cy="622.3" r="11.19"/>
		<path class="st7" d="M1498.56,676.32c0.88-4.96,1.35-10.08,1.4-15.28l-13.82-3.95c-0.16-4.14-0.62-8.21-1.38-12.16l12.44-7.49
			c-1.23-4.94-2.86-9.72-4.84-14.31l-14.23,2.01c-1.87-3.84-4.05-7.49-6.5-10.94l8.3-11.88c-3.09-3.9-6.48-7.55-10.14-10.91
			l-12.18,7.63c-3.35-2.79-6.94-5.31-10.72-7.53l2.75-14.2c-4.34-2.25-8.87-4.17-13.58-5.73l-8.04,11.95
			c-4.23-1.18-8.6-2-13.09-2.45l-3.26-14.06c-2.43-0.12-4.88-0.16-7.35-0.09c-2.47,0.07-4.92,0.24-7.33,0.49l-2.49,14.21
			c-4.45,0.7-8.77,1.75-12.94,3.16l-8.68-11.5c-4.61,1.81-9.03,3.97-13.25,6.45l3.51,14.03c-3.66,2.42-7.1,5.12-10.3,8.1
			l-12.57-6.96c-3.48,3.55-6.67,7.38-9.54,11.44l8.93,11.41c-2.26,3.58-4.24,7.35-5.9,11.28l-14.32-1.24
			c-1.73,4.69-3.1,9.55-4.06,14.55l12.83,6.81c-0.55,3.99-0.79,8.07-0.72,12.22l-13.58,4.69c0.33,5.19,1.08,10.27,2.22,15.18
			l14.49,1c1.11,3.8,2.49,7.49,4.12,11.03l-10.52,9.82c2.42,4.63,5.21,9.03,8.34,13.15l13.65-4.98c2.44,2.89,5.08,5.6,7.91,8.1
			l-5.62,13.28c4.09,3.29,8.46,6.24,13.07,8.81l10.42-10.09c3.29,1.61,6.71,3,10.24,4.15l0.26,14.44
			c5.05,1.36,10.27,2.31,15.61,2.81l5.42-13.43c1.81,0.07,3.63,0.09,5.47,0.04c1.84-0.05,3.66-0.16,5.46-0.33l6.13,13.12
			c5.3-0.79,10.46-2.02,15.43-3.65l-0.52-14.44c3.46-1.34,6.8-2.91,10-4.7l10.95,9.51c4.46-2.81,8.67-5.99,12.57-9.5l-6.33-12.95
			c2.68-2.65,5.18-5.5,7.46-8.52l13.9,4.23c2.9-4.29,5.45-8.83,7.62-13.58l-11.03-9.24c1.44-3.62,2.62-7.37,3.52-11.23
			L1498.56,676.32z M1408.74,730.58c-39.15,1.06-71.73-29.82-72.78-68.97s29.81-71.73,68.96-72.78
			c39.15-1.06,71.73,29.81,72.78,68.96S1447.89,729.52,1408.74,730.58z"/>
	</g>
</g>
<g class="st1">
	<path class="st9" d="M1448.72,877.67c1.03-5.44,1.63-11.05,1.76-16.76l-15.12-4.54c-0.11-4.55-0.57-9.03-1.34-13.38l13.78-8.05
		c-1.28-5.45-3-10.72-5.11-15.79l-15.66,2.01c-2-4.24-4.35-8.29-6.98-12.12l9.29-12.92c-3.33-4.33-7.01-8.38-10.98-12.13
		l-13.49,8.21c-3.64-3.12-7.55-5.93-11.67-8.42l3.22-15.56c-4.73-2.54-9.68-4.71-14.83-6.48l-9.01,13.01
		c-4.63-1.35-9.42-2.32-14.34-2.88l-3.37-15.49c-2.66-0.16-5.35-0.24-8.07-0.2c-2.72,0.04-5.4,0.19-8.06,0.43l-2.94,15.57
		c-4.9,0.7-9.66,1.8-14.25,3.28l-9.36-12.75c-5.09,1.92-9.98,4.22-14.64,6.89l3.65,15.46c-4.05,2.6-7.88,5.53-11.43,8.74
		l-13.71-7.83c-3.87,3.85-7.43,8.01-10.64,12.43l9.64,12.66c-2.53,3.9-4.76,8.01-6.64,12.3l-15.71-1.57
		c-1.97,5.13-3.54,10.44-4.67,15.92l13.99,7.66c-0.66,4.37-0.99,8.86-0.97,13.41l-14.99,4.96c0.29,5.71,1.04,11.3,2.22,16.71
		l15.91,1.31c1.16,4.19,2.62,8.26,4.37,12.17l-11.69,10.63c2.59,5.12,5.59,9.99,8.97,14.57l15.07-5.27c2.64,3.21,5.5,6.22,8.57,9.01
		l-6.36,14.5c4.44,3.67,9.2,6.97,14.22,9.86l11.59-10.93c3.6,1.82,7.33,3.39,11.19,4.71l0.08,15.87c5.52,1.57,11.24,2.69,17.1,3.31
		l6.14-14.67c1.98,0.11,3.98,0.15,6,0.12c2.02-0.03,4.02-0.12,6-0.28l6.55,14.49c5.84-0.79,11.52-2.06,17-3.79l-0.36-15.86
		c3.82-1.42,7.51-3.1,11.05-5.02l11.89,10.6c4.94-3.03,9.61-6.46,13.95-10.25l-6.76-14.32c2.98-2.87,5.76-5.97,8.31-9.25l15.21,4.85
		c3.25-4.67,6.12-9.62,8.56-14.81l-11.98-10.3c1.64-3.96,2.99-8.06,4.03-12.29L1448.72,877.67z M1349.29,935.97
		c-43.01,0.6-78.35-33.79-78.95-76.8c-0.6-43.01,33.78-78.35,76.79-78.95c43.01-0.6,78.35,33.78,78.95,76.79
		C1426.67,900.02,1392.3,935.38,1349.29,935.97z"/>
	<path class="st9" d="M1347.4,799.91c-32.14,0.45-57.82,26.86-57.38,58.99c0.45,32.14,26.86,57.82,58.99,57.38
		c32.14-0.45,57.82-26.86,57.38-58.99C1405.95,825.15,1379.54,799.46,1347.4,799.91z M1348.6,886.36
		c-15.61,0.22-28.44-12.26-28.66-27.88c-0.22-15.6,12.26-28.44,27.88-28.65c15.61-0.22,28.44,12.26,28.66,27.87
		C1376.69,873.32,1364.21,886.15,1348.6,886.36z"/>
	<circle class="st9" cx="1347.75" cy="825.05" r="19.32"/>
	<circle class="st9" cx="1348.66" cy="890.85" r="19.32"/>
	<circle class="st9" cx="1315.31" cy="858.56" r="19.32"/>
	<circle class="st9" cx="1381.11" cy="857.64" r="19.32"/>
</g>
</svg>
