<?xml version="1.0" encoding="utf-8"?>
<!-- Generator: Adobe Illustrator 23.0.1, SVG Export Plug-In . SVG Version: 6.00 Build 0)  -->
<svg version="1.1" id="Warstwa_1" xmlns="http://www.w3.org/2000/svg" xmlns:xlink="http://www.w3.org/1999/xlink" x="0px" y="0px"
	 viewBox="0 0 595.28 841.89" style="enable-background:new 0 0 595.28 841.89;" xml:space="preserve">
<style type="text/css">
	.st0{fill:#020203;}
	.st1{fill:#662681;stroke:#020203;stroke-miterlimit:10;}
	.st2{fill:#D61052;stroke:#020203;stroke-miterlimit:10;}
	.st3{fill:#A31B5C;stroke:#020203;stroke-miterlimit:10;}
	.st4{fill:#E8501D;stroke:#020203;stroke-miterlimit:10;}
	.st5{fill:#F29104;stroke:#020203;stroke-miterlimit:10;}
	.st6{fill:#FBEA1C;stroke:#020203;stroke-miterlimit:10;}
</style>
<g>
	<g>
		<g>
			<path class="st0" d="M175.87,394.57h-4.92v-9.95h0.93v9.11h3.99V394.57z"/>
			<path class="st0" d="M182.97,391.15h-5.14c0.01,0.95,0.24,1.65,0.68,2.12c0.44,0.46,1.04,0.69,1.78,0.69c0.33,0,0.67-0.05,1-0.16
				c0.33-0.11,0.67-0.28,0.99-0.51l0.44,0.64c-0.39,0.28-0.79,0.48-1.2,0.61c-0.4,0.13-0.85,0.19-1.33,0.19
				c-0.97,0-1.76-0.31-2.37-0.92c-0.61-0.62-0.91-1.54-0.92-2.78c0-1.09,0.3-1.99,0.9-2.69c0.6-0.7,1.38-1.05,2.33-1.05
				c0.9,0,1.6,0.31,2.09,0.92c0.49,0.61,0.74,1.45,0.74,2.52V391.15z M182.06,390.4c-0.02-0.74-0.2-1.31-0.54-1.72
				c-0.34-0.41-0.81-0.62-1.41-0.62c-0.61,0-1.11,0.21-1.52,0.62c-0.41,0.41-0.65,0.99-0.74,1.72H182.06z"/>
			<path class="st0" d="M190.58,394.17c0,1.24-0.3,2.18-0.91,2.8c-0.61,0.63-1.47,0.94-2.58,0.94c-0.47,0-0.9-0.05-1.3-0.14
				c-0.4-0.09-0.81-0.24-1.22-0.45l0.34-0.7c0.37,0.18,0.72,0.31,1.07,0.39s0.72,0.12,1.13,0.12c0.79,0,1.42-0.23,1.89-0.68
				c0.47-0.45,0.7-1.16,0.7-2.12v-1h-0.03c-0.27,0.47-0.62,0.82-1.04,1.05c-0.42,0.23-0.91,0.35-1.47,0.35
				c-0.88,0-1.59-0.31-2.14-0.94s-0.82-1.5-0.82-2.61c0-1.15,0.3-2.08,0.89-2.81c0.59-0.73,1.38-1.09,2.36-1.09
				c0.5,0,0.93,0.1,1.3,0.31c0.37,0.21,0.67,0.51,0.91,0.92h0.03v-1.05h0.89V394.17z M189.69,391.47v-1.23c0-0.6-0.2-1.11-0.61-1.54
				c-0.4-0.43-0.92-0.64-1.54-0.64c-0.74,0-1.33,0.27-1.77,0.8c-0.44,0.53-0.66,1.29-0.66,2.27c0,0.95,0.2,1.66,0.61,2.13
				s0.95,0.71,1.63,0.71c0.7,0,1.26-0.24,1.69-0.71C189.48,392.78,189.69,392.19,189.69,391.47z"/>
			<path class="st0" d="M198.43,391.15h-5.14c0.01,0.95,0.24,1.65,0.68,2.12c0.44,0.46,1.04,0.69,1.78,0.69c0.33,0,0.67-0.05,1-0.16
				c0.33-0.11,0.67-0.28,0.99-0.51l0.44,0.64c-0.39,0.28-0.79,0.48-1.2,0.61c-0.4,0.13-0.85,0.19-1.33,0.19
				c-0.97,0-1.76-0.31-2.37-0.92c-0.61-0.62-0.91-1.54-0.92-2.78c0-1.09,0.3-1.99,0.9-2.69c0.6-0.7,1.38-1.05,2.33-1.05
				c0.9,0,1.6,0.31,2.09,0.92c0.49,0.61,0.74,1.45,0.74,2.52V391.15z M197.51,390.4c-0.02-0.74-0.2-1.31-0.54-1.72
				c-0.34-0.41-0.81-0.62-1.41-0.62c-0.61,0-1.11,0.21-1.52,0.62c-0.41,0.41-0.65,0.99-0.74,1.72H197.51z"/>
			<path class="st0" d="M205.85,394.57h-0.89v-4.09c0-0.8-0.15-1.41-0.44-1.81c-0.29-0.4-0.73-0.6-1.31-0.6
				c-0.63,0-1.14,0.23-1.55,0.7s-0.61,1.05-0.61,1.74v4.07h-0.89v-7.11h0.89v1.24h0.03c0.26-0.47,0.59-0.82,0.99-1.06
				c0.4-0.23,0.86-0.35,1.39-0.35c0.77,0,1.36,0.25,1.77,0.76c0.41,0.51,0.61,1.23,0.61,2.18V394.57z"/>
			<path class="st0" d="M212.95,393.32c-0.25,0.45-0.59,0.8-1.02,1.05c-0.43,0.25-0.92,0.37-1.49,0.37c-0.88,0-1.6-0.32-2.14-0.95
				c-0.54-0.64-0.82-1.51-0.82-2.62c0-1.16,0.3-2.1,0.89-2.81c0.6-0.71,1.38-1.06,2.36-1.06c0.51,0,0.95,0.1,1.32,0.31
				s0.66,0.51,0.89,0.93h0.03v-4.48h0.89v10.52h-0.89v-1.25H212.95z M208.4,391.11c0,0.9,0.2,1.6,0.61,2.1
				c0.41,0.5,0.95,0.76,1.61,0.76c0.72,0,1.29-0.24,1.71-0.72c0.42-0.48,0.63-1.07,0.63-1.79v-1.19c0-0.62-0.2-1.14-0.6-1.57
				c-0.4-0.43-0.92-0.64-1.56-0.64c-0.72,0-1.3,0.27-1.75,0.81C208.62,389.41,208.4,390.16,208.4,391.11z"/>
			<path class="st0" d="M221.11,394.57h-0.89v-1.27h-0.03c-0.24,0.46-0.55,0.81-0.95,1.06s-0.85,0.38-1.35,0.38
				c-0.67,0-1.21-0.19-1.61-0.58c-0.4-0.38-0.6-0.88-0.6-1.49c0-0.61,0.2-1.1,0.6-1.49c0.4-0.39,1.03-0.65,1.89-0.77l2.05-0.29
				v-0.19c-0.02-0.64-0.17-1.11-0.45-1.41s-0.68-0.45-1.19-0.45c-0.4,0-0.77,0.07-1.12,0.21c-0.35,0.14-0.67,0.36-0.98,0.66
				l-0.53-0.56c0.38-0.37,0.79-0.64,1.22-0.82s0.92-0.26,1.45-0.26c0.82,0,1.44,0.22,1.86,0.67c0.42,0.45,0.63,1.11,0.63,1.98
				V394.57z M220.22,391.56v-0.7l-1.84,0.26c-0.64,0.09-1.1,0.25-1.38,0.48c-0.28,0.23-0.42,0.56-0.42,1.01
				c0,0.42,0.13,0.76,0.4,1.01c0.26,0.25,0.61,0.37,1.04,0.37c0.65,0,1.18-0.23,1.58-0.68
				C220.01,392.85,220.22,392.26,220.22,391.56z"/>
			<path class="st0" d="M226.48,394.04l0.43-0.7c0.27,0.19,0.56,0.34,0.86,0.45c0.3,0.12,0.63,0.17,1,0.17
				c0.54,0,0.94-0.11,1.21-0.34s0.41-0.54,0.41-0.95c0-0.31-0.11-0.57-0.33-0.79s-0.63-0.41-1.22-0.59c-0.8-0.23-1.36-0.5-1.67-0.83
				s-0.46-0.73-0.46-1.2c0-0.58,0.21-1.06,0.64-1.43c0.43-0.37,1-0.55,1.72-0.55c0.35,0,0.69,0.04,1.02,0.13s0.67,0.24,1,0.45
				l-0.42,0.69c-0.27-0.17-0.54-0.29-0.81-0.38c-0.27-0.08-0.54-0.12-0.82-0.12c-0.48,0-0.84,0.1-1.1,0.3
				c-0.25,0.2-0.38,0.47-0.38,0.81c0,0.33,0.11,0.59,0.34,0.77s0.63,0.36,1.21,0.53c0.75,0.23,1.29,0.5,1.63,0.83
				c0.34,0.32,0.51,0.76,0.51,1.3c0,0.66-0.22,1.18-0.67,1.56c-0.44,0.38-1.05,0.57-1.82,0.57c-0.41,0-0.81-0.06-1.19-0.17
				C227.18,394.45,226.82,394.27,226.48,394.04z"/>
			<path class="st0" d="M236.05,394.45c-0.18,0.09-0.36,0.15-0.54,0.2c-0.18,0.04-0.39,0.07-0.62,0.07c-0.51,0-0.91-0.15-1.2-0.46
				s-0.43-0.76-0.43-1.36v-4.66H232v-0.78h1.25v-1.8l0.89-0.29v2.09h1.83v0.78h-1.83v4.55c0,0.41,0.08,0.7,0.23,0.88
				s0.37,0.27,0.66,0.27c0.15,0,0.29-0.02,0.42-0.06c0.13-0.04,0.25-0.08,0.35-0.14L236.05,394.45z"/>
			<path class="st0" d="M240.36,394.74c-1.05,0-1.88-0.34-2.49-1.01s-0.92-1.56-0.92-2.65c0-1.18,0.32-2.11,0.96-2.78
				c0.64-0.67,1.5-1,2.57-1.01c1.04,0,1.85,0.33,2.44,0.99c0.59,0.66,0.89,1.57,0.89,2.73c0,1.12-0.31,2.02-0.93,2.7
				C242.26,394.39,241.42,394.74,240.36,394.74z M240.41,393.96c0.8,0,1.41-0.26,1.84-0.77c0.43-0.52,0.65-1.24,0.65-2.17
				c0-0.95-0.21-1.68-0.65-2.2c-0.43-0.51-1.04-0.77-1.83-0.77c-0.78,0-1.4,0.27-1.87,0.8c-0.46,0.53-0.69,1.27-0.69,2.21
				c0,0.88,0.23,1.59,0.69,2.11C239.01,393.7,239.63,393.96,240.41,393.96z"/>
			<path class="st0" d="M246.04,385.73c-0.19,0-0.36-0.07-0.49-0.2s-0.2-0.29-0.2-0.49c0-0.19,0.07-0.35,0.2-0.48
				c0.13-0.13,0.29-0.19,0.49-0.19s0.36,0.06,0.49,0.19c0.13,0.13,0.2,0.29,0.2,0.48c0,0.19-0.07,0.36-0.2,0.49
				C246.39,385.66,246.23,385.73,246.04,385.73z M246.47,394.57h-0.89v-7.11h0.89V394.57z"/>
			<path class="st0" d="M248.1,394.04l0.43-0.7c0.27,0.19,0.56,0.34,0.86,0.45c0.3,0.12,0.63,0.17,1,0.17
				c0.54,0,0.94-0.11,1.21-0.34s0.41-0.54,0.41-0.95c0-0.31-0.11-0.57-0.33-0.79s-0.63-0.41-1.22-0.59c-0.8-0.23-1.36-0.5-1.67-0.83
				s-0.46-0.73-0.46-1.2c0-0.58,0.21-1.06,0.64-1.43c0.43-0.37,1-0.55,1.72-0.55c0.35,0,0.69,0.04,1.02,0.13s0.67,0.24,1,0.45
				l-0.42,0.69c-0.27-0.17-0.54-0.29-0.81-0.38c-0.27-0.08-0.54-0.12-0.82-0.12c-0.48,0-0.84,0.1-1.1,0.3
				c-0.25,0.2-0.38,0.47-0.38,0.81c0,0.33,0.11,0.59,0.34,0.77s0.63,0.36,1.21,0.53c0.75,0.23,1.29,0.5,1.63,0.83
				c0.34,0.32,0.51,0.76,0.51,1.3c0,0.66-0.22,1.18-0.67,1.56c-0.44,0.38-1.05,0.57-1.82,0.57c-0.41,0-0.81-0.06-1.19-0.17
				C248.79,394.45,248.43,394.27,248.1,394.04z"/>
			<path class="st0" d="M259.99,394.57h-1.26l-3.27-3.46h-0.03v3.46h-0.89v-10.52h0.89v6.72h0.03l3.11-3.31h1.16l-3.34,3.43
				L259.99,394.57z"/>
		</g>
	</g>
	<g>
		<g>
			<rect id="L4_22_" x="165.83" y="404.07" class="st1" width="15.04" height="15.04"/>
			<g>
				<g>
					<path class="st0" d="M192.41,415.26l0.36-0.53c0.3,0.21,0.6,0.36,0.91,0.46c0.31,0.09,0.66,0.14,1.05,0.14
						c0.48,0,0.88-0.13,1.18-0.38c0.31-0.26,0.46-0.61,0.46-1.07c0-0.38-0.12-0.68-0.37-0.92c-0.25-0.24-0.66-0.46-1.22-0.65
						c-0.71-0.25-1.23-0.54-1.57-0.86c-0.33-0.32-0.5-0.74-0.5-1.24c0-0.61,0.21-1.11,0.63-1.47c0.42-0.37,0.98-0.55,1.68-0.55
						c0.31,0,0.61,0.04,0.91,0.11c0.3,0.08,0.6,0.2,0.91,0.37l-0.29,0.56c-0.26-0.14-0.52-0.25-0.77-0.31
						c-0.25-0.06-0.53-0.09-0.83-0.09c-0.46,0-0.84,0.12-1.12,0.35c-0.29,0.24-0.43,0.56-0.43,0.97c0,0.35,0.13,0.65,0.39,0.87
						c0.26,0.23,0.68,0.44,1.27,0.65c0.71,0.25,1.23,0.53,1.54,0.86s0.47,0.76,0.47,1.3c0,0.64-0.21,1.16-0.64,1.56
						s-1.01,0.6-1.75,0.6c-0.43,0-0.83-0.06-1.2-0.17S192.76,415.51,192.41,415.26z"/>
					<path class="st0" d="M199.13,414.98h-0.02v3.35h-0.67v-7.87h0.67v1.03h0.02c0.2-0.38,0.47-0.66,0.81-0.86
						c0.33-0.2,0.71-0.3,1.13-0.3c0.69,0,1.23,0.24,1.61,0.72s0.58,1.12,0.58,1.93c0,0.9-0.22,1.63-0.66,2.18
						c-0.44,0.55-1.03,0.82-1.77,0.82c-0.38,0-0.71-0.08-1-0.25S199.32,415.31,199.13,414.98z M199.11,412.89v0.72
						c0,0.49,0.16,0.91,0.47,1.26c0.31,0.35,0.72,0.52,1.22,0.52c0.54,0,0.97-0.22,1.29-0.65c0.32-0.44,0.48-1.02,0.48-1.76
						c0-0.64-0.15-1.14-0.44-1.51c-0.3-0.37-0.7-0.55-1.2-0.55c-0.57,0-1.01,0.19-1.33,0.58
						C199.27,411.87,199.11,412.34,199.11,412.89z"/>
					<path class="st0" d="M206.83,415.97c-0.79,0-1.42-0.25-1.89-0.77c-0.47-0.51-0.7-1.18-0.7-2.01c0-0.9,0.24-1.6,0.73-2.11
						s1.14-0.76,1.95-0.77c0.79,0,1.4,0.25,1.85,0.75s0.67,1.19,0.67,2.07c0,0.85-0.23,1.53-0.71,2.05
						C208.27,415.71,207.63,415.97,206.83,415.97z M206.87,415.39c0.6,0,1.07-0.2,1.4-0.59c0.33-0.39,0.49-0.94,0.49-1.64
						c0-0.72-0.16-1.28-0.49-1.67c-0.33-0.39-0.79-0.58-1.38-0.58c-0.59,0-1.07,0.2-1.42,0.61s-0.53,0.96-0.53,1.67
						c0,0.67,0.17,1.21,0.52,1.6C205.8,415.19,206.27,415.39,206.87,415.39z"/>
					<path class="st0" d="M215.11,415.85h-0.67v-3.11c0-0.61-0.11-1.07-0.33-1.37c-0.22-0.31-0.55-0.46-1-0.46
						c-0.47,0-0.87,0.18-1.17,0.53s-0.46,0.79-0.46,1.32v3.08h-0.67v-5.39h0.67v0.94h0.02c0.2-0.36,0.45-0.63,0.75-0.8
						c0.3-0.18,0.65-0.27,1.05-0.27c0.59,0,1.03,0.19,1.34,0.58c0.31,0.38,0.47,0.94,0.47,1.66V415.85z"/>
					<path class="st0" d="M216.22,415.45l0.33-0.53c0.21,0.14,0.43,0.25,0.66,0.34c0.23,0.09,0.48,0.13,0.76,0.13
						c0.41,0,0.71-0.09,0.92-0.26s0.31-0.41,0.31-0.72c0-0.24-0.08-0.43-0.25-0.6c-0.17-0.16-0.48-0.31-0.93-0.45
						c-0.61-0.17-1.03-0.38-1.27-0.63c-0.23-0.25-0.35-0.55-0.35-0.91c0-0.44,0.16-0.8,0.48-1.08c0.32-0.28,0.76-0.42,1.31-0.42
						c0.26,0,0.52,0.03,0.77,0.1c0.25,0.07,0.5,0.18,0.76,0.34l-0.32,0.52c-0.21-0.13-0.41-0.22-0.62-0.28
						c-0.2-0.06-0.41-0.09-0.62-0.09c-0.36,0-0.64,0.08-0.83,0.23c-0.19,0.15-0.29,0.36-0.29,0.62c0,0.25,0.09,0.45,0.26,0.58
						s0.48,0.27,0.92,0.4c0.57,0.17,0.98,0.38,1.24,0.63c0.26,0.25,0.39,0.58,0.39,0.99c0,0.5-0.17,0.9-0.51,1.19
						c-0.34,0.29-0.8,0.43-1.38,0.43c-0.31,0-0.61-0.04-0.91-0.13C216.75,415.75,216.47,415.62,216.22,415.45z"/>
					<path class="st0" d="M223.32,415.97c-0.79,0-1.42-0.25-1.89-0.77c-0.47-0.51-0.7-1.18-0.7-2.01c0-0.9,0.24-1.6,0.73-2.11
						s1.14-0.76,1.95-0.77c0.79,0,1.4,0.25,1.85,0.75s0.67,1.19,0.67,2.07c0,0.85-0.23,1.53-0.71,2.05
						C224.76,415.71,224.12,415.97,223.32,415.97z M223.36,415.39c0.6,0,1.07-0.2,1.4-0.59c0.33-0.39,0.49-0.94,0.49-1.64
						c0-0.72-0.16-1.28-0.49-1.67c-0.33-0.39-0.79-0.58-1.38-0.58c-0.59,0-1.07,0.2-1.42,0.61s-0.53,0.96-0.53,1.67
						c0,0.67,0.17,1.21,0.52,1.6C222.29,415.19,222.76,415.39,223.36,415.39z"/>
					<path class="st0" d="M229.86,411.04c-0.08-0.03-0.15-0.05-0.21-0.06c-0.07-0.01-0.14-0.02-0.22-0.02
						c-0.45,0-0.81,0.21-1.07,0.62c-0.27,0.41-0.4,0.95-0.4,1.62v2.64h-0.67v-5.39h0.67v1.13h0.02c0.12-0.39,0.32-0.7,0.58-0.91
						c0.26-0.21,0.57-0.32,0.93-0.32c0.09,0,0.18,0,0.25,0.02c0.08,0.01,0.16,0.03,0.23,0.05L229.86,411.04z"/>
					<path class="st0" d="M238.35,415.54c0,0.94-0.23,1.65-0.69,2.13c-0.46,0.47-1.11,0.71-1.96,0.71c-0.35,0-0.68-0.04-0.99-0.11
						s-0.61-0.18-0.93-0.34l0.26-0.53c0.28,0.14,0.55,0.24,0.81,0.3c0.26,0.06,0.55,0.09,0.86,0.09c0.6,0,1.08-0.17,1.43-0.51
						c0.36-0.34,0.53-0.88,0.53-1.61v-0.76h-0.02c-0.21,0.35-0.47,0.62-0.79,0.8c-0.32,0.18-0.69,0.27-1.11,0.27
						c-0.67,0-1.21-0.24-1.62-0.71s-0.62-1.13-0.62-1.98c0-0.87,0.23-1.58,0.68-2.13c0.45-0.55,1.05-0.83,1.79-0.83
						c0.38,0,0.71,0.08,0.99,0.23c0.28,0.16,0.51,0.39,0.69,0.7h0.02v-0.8h0.67V415.54z M237.68,413.5v-0.93
						c0-0.45-0.15-0.84-0.46-1.17c-0.31-0.33-0.7-0.49-1.17-0.49c-0.57,0-1.01,0.2-1.35,0.61c-0.33,0.41-0.5,0.98-0.5,1.72
						c0,0.72,0.15,1.26,0.46,1.62c0.31,0.36,0.72,0.54,1.24,0.54c0.53,0,0.96-0.18,1.28-0.54
						C237.52,414.49,237.68,414.04,237.68,413.5z"/>
					<path class="st0" d="M240.94,415.85h-0.67v-3.18l-0.72,0.54l-0.31-0.45l1.03-0.75v-4.13h0.67v3.65l0.75-0.55l0.3,0.45
						l-1.05,0.77V415.85z"/>
					<path class="st0" d="M245.09,415.97c-0.79,0-1.42-0.25-1.89-0.77c-0.47-0.51-0.7-1.18-0.7-2.01c0-0.9,0.24-1.6,0.73-2.11
						s1.14-0.76,1.95-0.77c0.79,0,1.4,0.25,1.85,0.75s0.67,1.19,0.67,2.07c0,0.85-0.23,1.53-0.71,2.05
						C246.53,415.71,245.89,415.97,245.09,415.97z M245.13,415.39c0.6,0,1.07-0.2,1.4-0.59c0.33-0.39,0.49-0.94,0.49-1.64
						c0-0.72-0.16-1.28-0.49-1.67c-0.33-0.39-0.79-0.58-1.38-0.58c-0.59,0-1.07,0.2-1.42,0.61s-0.53,0.96-0.53,1.67
						c0,0.67,0.17,1.21,0.52,1.6C244.06,415.19,244.53,415.39,245.13,415.39z M245.1,409.44h-0.57l1.21-1.73h0.71L245.1,409.44z"/>
					<path class="st0" d="M255.57,410.46l-1.64,5.39h-0.67l-1.15-3.97c-0.02-0.08-0.04-0.15-0.05-0.22s-0.02-0.15-0.03-0.25H252
						c0,0.06-0.01,0.13-0.03,0.2s-0.04,0.16-0.07,0.26l-1.26,3.97h-0.66l-1.63-5.39h0.72l1.18,4.17c0.02,0.06,0.03,0.13,0.04,0.21
						s0.02,0.17,0.03,0.26h0.04c0-0.06,0.01-0.13,0.03-0.21c0.02-0.08,0.04-0.17,0.07-0.26l1.31-4.17h0.56l1.17,4.18
						c0.01,0.06,0.03,0.13,0.04,0.21c0.01,0.08,0.02,0.16,0.03,0.26h0.04c0-0.06,0.01-0.13,0.03-0.21c0.01-0.08,0.04-0.17,0.06-0.26
						l1.19-4.18H255.57z"/>
					<path class="st0" d="M260.91,415.85h-0.67v-3.11c0-0.61-0.11-1.07-0.33-1.37c-0.22-0.31-0.55-0.46-1-0.46
						c-0.47,0-0.87,0.18-1.17,0.53s-0.46,0.79-0.46,1.32v3.08h-0.67v-5.39h0.67v0.94h0.02c0.2-0.36,0.45-0.63,0.75-0.8
						c0.3-0.18,0.65-0.27,1.05-0.27c0.59,0,1.03,0.19,1.34,0.58c0.31,0.38,0.47,0.94,0.47,1.66V415.85z"/>
					<path class="st0" d="M266.65,410.46l-2.65,6.61c-0.16,0.39-0.37,0.7-0.64,0.95c-0.27,0.24-0.59,0.37-0.97,0.37
						c-0.1,0-0.19-0.01-0.28-0.02c-0.09-0.01-0.17-0.03-0.25-0.05l0.15-0.61c0.06,0.02,0.12,0.04,0.17,0.05
						c0.06,0.01,0.12,0.02,0.18,0.02c0.22,0,0.41-0.07,0.57-0.2c0.16-0.13,0.29-0.31,0.38-0.54l0.51-1.21l-2.07-5.36h0.75l1.54,4.27
						c0.02,0.06,0.04,0.12,0.06,0.18c0.02,0.06,0.04,0.14,0.06,0.22h0.03c0.01-0.05,0.03-0.11,0.05-0.17s0.04-0.13,0.07-0.21
						l1.63-4.29H266.65z"/>
					<path class="st0" d="M272.68,417.56h-0.64c-0.54-0.62-0.94-1.31-1.21-2.08s-0.4-1.6-0.4-2.51c0-0.93,0.13-1.78,0.41-2.56
						c0.27-0.78,0.68-1.48,1.22-2.11h0.65c-0.55,0.65-0.96,1.36-1.24,2.14s-0.41,1.62-0.41,2.52c0,0.87,0.14,1.69,0.41,2.46
						C271.73,416.19,272.13,416.9,272.68,417.56z"/>
					<path class="st0" d="M275.57,415.85h-0.67v-6.68c-0.18,0.16-0.43,0.32-0.74,0.48c-0.31,0.16-0.63,0.29-0.93,0.39l-0.19-0.59
						c0.41-0.13,0.82-0.31,1.23-0.54c0.41-0.23,0.77-0.49,1.07-0.77h0.25V415.85z"/>
					<path class="st0" d="M277.49,415.85v-0.36c0-0.34,0.04-0.65,0.13-0.91s0.21-0.48,0.36-0.67c0.2-0.25,0.43-0.47,0.69-0.68
						c0.26-0.21,0.56-0.43,0.9-0.69c0.25-0.18,0.47-0.35,0.67-0.52c0.19-0.17,0.35-0.35,0.48-0.53c0.12-0.17,0.22-0.36,0.29-0.56
						s0.11-0.43,0.11-0.68c0-0.46-0.13-0.82-0.39-1.09c-0.26-0.27-0.61-0.4-1.04-0.4c-0.34,0-0.66,0.06-0.96,0.19
						c-0.3,0.13-0.58,0.32-0.84,0.58l-0.42-0.41c0.32-0.32,0.66-0.56,1.03-0.71c0.37-0.15,0.78-0.23,1.23-0.23
						c0.65,0,1.15,0.19,1.52,0.57c0.37,0.38,0.55,0.86,0.55,1.42c0,0.31-0.04,0.6-0.13,0.86c-0.09,0.26-0.21,0.5-0.36,0.71
						c-0.16,0.22-0.34,0.42-0.56,0.62c-0.22,0.19-0.46,0.39-0.73,0.58c-0.35,0.25-0.64,0.46-0.87,0.64s-0.42,0.35-0.56,0.52
						c-0.14,0.17-0.24,0.34-0.3,0.51s-0.09,0.38-0.09,0.63h3.76v0.61H277.49z"/>
					<path class="st0" d="M290.84,415.85h-0.67v-3.17c0-0.64-0.1-1.09-0.3-1.36c-0.2-0.27-0.52-0.41-0.97-0.41
						c-0.4,0-0.74,0.18-1.02,0.53c-0.28,0.35-0.43,0.78-0.43,1.29v3.12h-0.67v-3.24c0-0.57-0.11-0.99-0.32-1.27
						s-0.54-0.42-0.97-0.42c-0.41,0-0.75,0.17-1.02,0.51c-0.27,0.34-0.4,0.79-0.4,1.33v3.09h-0.67v-5.39h0.67v0.87h0.02
						c0.19-0.34,0.43-0.59,0.7-0.75s0.6-0.25,0.96-0.25c0.38,0,0.71,0.11,0.98,0.33s0.46,0.5,0.56,0.85
						c0.18-0.38,0.43-0.67,0.73-0.87c0.31-0.2,0.65-0.3,1.03-0.3c0.59,0,1.04,0.18,1.33,0.55c0.29,0.37,0.44,0.92,0.44,1.65V415.85z
						"/>
					<path class="st0" d="M291.97,412.26v-0.21c0-0.2,0.03-0.38,0.08-0.53c0.05-0.15,0.12-0.28,0.21-0.39
						c0.12-0.14,0.25-0.27,0.4-0.39c0.15-0.12,0.33-0.25,0.52-0.4c0.15-0.1,0.28-0.21,0.39-0.31c0.11-0.1,0.21-0.2,0.28-0.31
						c0.07-0.1,0.13-0.21,0.17-0.33s0.06-0.25,0.06-0.4c0-0.27-0.08-0.48-0.23-0.63c-0.15-0.16-0.35-0.24-0.61-0.24
						c-0.2,0-0.38,0.04-0.56,0.11c-0.17,0.07-0.34,0.18-0.49,0.34l-0.24-0.24c0.19-0.19,0.39-0.32,0.6-0.41s0.45-0.13,0.72-0.13
						c0.38,0,0.67,0.11,0.89,0.33s0.32,0.5,0.32,0.83c0,0.18-0.03,0.35-0.08,0.5c-0.05,0.15-0.12,0.29-0.21,0.41
						c-0.09,0.13-0.2,0.25-0.33,0.36c-0.13,0.11-0.27,0.22-0.42,0.34c-0.2,0.14-0.37,0.27-0.51,0.37c-0.14,0.11-0.25,0.21-0.33,0.3
						c-0.08,0.1-0.14,0.2-0.18,0.3c-0.04,0.1-0.05,0.22-0.05,0.37h2.19v0.36H291.97z"/>
					<path class="st0" d="M295.68,417.56h-0.64c0.54-0.66,0.95-1.37,1.22-2.14c0.27-0.77,0.41-1.59,0.41-2.46
						c0-0.91-0.14-1.75-0.41-2.52s-0.69-1.49-1.23-2.14h0.65c0.54,0.63,0.95,1.33,1.22,2.11c0.27,0.78,0.41,1.63,0.41,2.56
						c0,0.91-0.13,1.75-0.41,2.51C296.62,416.25,296.22,416.94,295.68,417.56z"/>
				</g>
			</g>
		</g>
		<g>
			<rect id="L4_20_" x="165.83" y="424.78" class="st2" width="15.04" height="15.04"/>
			<g>
				<g>
					<path class="st0" d="M190.78,435.97l0.36-0.53c0.3,0.21,0.6,0.36,0.91,0.46c0.31,0.09,0.66,0.14,1.05,0.14
						c0.48,0,0.88-0.13,1.18-0.38c0.31-0.26,0.46-0.61,0.46-1.07c0-0.38-0.12-0.68-0.37-0.92c-0.25-0.24-0.66-0.46-1.22-0.65
						c-0.71-0.25-1.23-0.54-1.57-0.86c-0.33-0.32-0.5-0.74-0.5-1.24c0-0.61,0.21-1.11,0.63-1.47c0.42-0.37,0.98-0.55,1.68-0.55
						c0.31,0,0.61,0.04,0.91,0.11c0.3,0.08,0.6,0.2,0.91,0.37l-0.29,0.56c-0.26-0.14-0.52-0.25-0.77-0.31
						c-0.25-0.06-0.53-0.09-0.83-0.09c-0.46,0-0.84,0.12-1.12,0.35c-0.29,0.24-0.43,0.56-0.43,0.97c0,0.35,0.13,0.65,0.39,0.87
						c0.26,0.23,0.68,0.44,1.27,0.65c0.71,0.25,1.23,0.53,1.54,0.86s0.47,0.76,0.47,1.3c0,0.64-0.21,1.16-0.64,1.56
						s-1.01,0.6-1.75,0.6c-0.43,0-0.83-0.06-1.2-0.17S191.13,436.22,190.78,435.97z"/>
					<path class="st0" d="M197.5,435.69h-0.02v3.35h-0.67v-7.87h0.67v1.03h0.02c0.2-0.38,0.47-0.66,0.81-0.86
						c0.33-0.2,0.71-0.3,1.13-0.3c0.69,0,1.23,0.24,1.61,0.72s0.58,1.12,0.58,1.93c0,0.9-0.22,1.63-0.66,2.18
						c-0.44,0.55-1.03,0.82-1.77,0.82c-0.38,0-0.71-0.08-1-0.25S197.69,436.02,197.5,435.69z M197.48,433.6v0.72
						c0,0.49,0.16,0.91,0.47,1.26c0.31,0.35,0.72,0.52,1.22,0.52c0.54,0,0.97-0.22,1.29-0.65c0.32-0.44,0.48-1.02,0.48-1.76
						c0-0.64-0.15-1.14-0.44-1.51c-0.3-0.37-0.7-0.55-1.2-0.55c-0.57,0-1.01,0.19-1.33,0.58
						C197.64,432.58,197.48,433.05,197.48,433.6z"/>
					<path class="st0" d="M205.2,436.68c-0.79,0-1.42-0.25-1.89-0.77c-0.47-0.51-0.7-1.18-0.7-2.01c0-0.9,0.24-1.6,0.73-2.11
						s1.14-0.76,1.95-0.77c0.79,0,1.4,0.25,1.85,0.75s0.67,1.19,0.67,2.07c0,0.85-0.23,1.53-0.71,2.05
						C206.64,436.42,206,436.68,205.2,436.68z M205.24,436.1c0.6,0,1.07-0.2,1.4-0.59c0.33-0.39,0.49-0.94,0.49-1.64
						c0-0.72-0.16-1.28-0.49-1.67c-0.33-0.39-0.79-0.58-1.38-0.58c-0.59,0-1.07,0.2-1.42,0.61s-0.53,0.96-0.53,1.67
						c0,0.67,0.17,1.21,0.52,1.6C204.17,435.9,204.64,436.1,205.24,436.1z"/>
					<path class="st0" d="M213.48,436.56h-0.67v-3.11c0-0.61-0.11-1.07-0.33-1.37c-0.22-0.31-0.55-0.46-1-0.46
						c-0.47,0-0.87,0.18-1.17,0.53s-0.46,0.79-0.46,1.32v3.08h-0.67v-5.39h0.67v0.94h0.02c0.2-0.36,0.45-0.63,0.75-0.8
						c0.3-0.18,0.65-0.27,1.05-0.27c0.59,0,1.03,0.19,1.34,0.58c0.31,0.38,0.47,0.94,0.47,1.66V436.56z"/>
					<path class="st0" d="M214.59,436.16l0.33-0.53c0.21,0.14,0.43,0.25,0.66,0.34c0.23,0.09,0.48,0.13,0.76,0.13
						c0.41,0,0.71-0.09,0.92-0.26s0.31-0.41,0.31-0.72c0-0.24-0.08-0.43-0.25-0.6c-0.17-0.16-0.48-0.31-0.93-0.45
						c-0.61-0.17-1.03-0.38-1.27-0.63c-0.23-0.25-0.35-0.55-0.35-0.91c0-0.44,0.16-0.8,0.48-1.08c0.32-0.28,0.76-0.42,1.31-0.42
						c0.26,0,0.52,0.03,0.77,0.1c0.25,0.07,0.5,0.18,0.76,0.34l-0.32,0.52c-0.21-0.13-0.41-0.22-0.62-0.28
						c-0.2-0.06-0.41-0.09-0.62-0.09c-0.36,0-0.64,0.08-0.83,0.23c-0.19,0.15-0.29,0.36-0.29,0.62c0,0.25,0.09,0.45,0.26,0.58
						s0.48,0.27,0.92,0.4c0.57,0.17,0.98,0.38,1.24,0.63c0.26,0.25,0.39,0.58,0.39,0.99c0,0.5-0.17,0.9-0.51,1.19
						c-0.34,0.29-0.8,0.43-1.38,0.43c-0.31,0-0.61-0.04-0.91-0.13C215.12,436.46,214.84,436.33,214.59,436.16z"/>
					<path class="st0" d="M221.69,436.68c-0.79,0-1.42-0.25-1.89-0.77c-0.47-0.51-0.7-1.18-0.7-2.01c0-0.9,0.24-1.6,0.73-2.11
						s1.14-0.76,1.95-0.77c0.79,0,1.4,0.25,1.85,0.75s0.67,1.19,0.67,2.07c0,0.85-0.23,1.53-0.71,2.05
						C223.13,436.42,222.49,436.68,221.69,436.68z M221.73,436.1c0.6,0,1.07-0.2,1.4-0.59c0.33-0.39,0.49-0.94,0.49-1.64
						c0-0.72-0.16-1.28-0.49-1.67c-0.33-0.39-0.79-0.58-1.38-0.58c-0.59,0-1.07,0.2-1.42,0.61s-0.53,0.96-0.53,1.67
						c0,0.67,0.17,1.21,0.52,1.6C220.66,435.9,221.13,436.1,221.73,436.1z"/>
					<path class="st0" d="M228.23,431.75c-0.08-0.03-0.15-0.05-0.21-0.06c-0.07-0.01-0.14-0.02-0.22-0.02
						c-0.45,0-0.81,0.21-1.07,0.62c-0.27,0.41-0.4,0.95-0.4,1.62v2.64h-0.67v-5.39h0.67v1.13h0.02c0.12-0.39,0.32-0.7,0.58-0.91
						c0.26-0.21,0.57-0.32,0.93-0.32c0.09,0,0.18,0,0.25,0.02c0.08,0.01,0.16,0.03,0.23,0.05L228.23,431.75z"/>
					<path class="st0" d="M233.11,431.36l-3.4,4.61h3.32v0.59h-4.35v-0.23l3.38-4.57h-3.11v-0.59h4.15V431.36z"/>
					<path class="st0" d="M238.37,431.17l-2.65,6.61c-0.16,0.39-0.37,0.7-0.64,0.95c-0.27,0.24-0.59,0.37-0.97,0.37
						c-0.1,0-0.19-0.01-0.28-0.02c-0.09-0.01-0.17-0.03-0.25-0.05l0.15-0.61c0.06,0.02,0.12,0.04,0.17,0.05
						c0.06,0.01,0.12,0.02,0.18,0.02c0.22,0,0.41-0.07,0.57-0.2c0.16-0.13,0.29-0.31,0.38-0.54l0.51-1.21l-2.07-5.36h0.75l1.54,4.27
						c0.02,0.06,0.04,0.12,0.06,0.18c0.02,0.06,0.04,0.14,0.06,0.22h0.03c0.01-0.05,0.03-0.11,0.05-0.17s0.04-0.13,0.07-0.21
						l1.63-4.29H238.37z"/>
					<path class="st0" d="M244.4,438.27h-0.64c-0.54-0.62-0.94-1.31-1.21-2.08s-0.4-1.6-0.4-2.51c0-0.93,0.13-1.78,0.41-2.56
						c0.27-0.78,0.68-1.48,1.22-2.11h0.65c-0.55,0.65-0.96,1.36-1.24,2.14s-0.41,1.62-0.41,2.52c0,0.87,0.14,1.69,0.41,2.46
						C243.44,436.9,243.85,437.61,244.4,438.27z"/>
					<path class="st0" d="M245.04,434.45c0-0.4,0.12-0.79,0.35-1.16c0.24-0.37,0.59-0.64,1.05-0.81c-0.34-0.18-0.61-0.41-0.82-0.7
						c-0.2-0.29-0.31-0.62-0.31-0.98c0-0.55,0.2-1.01,0.59-1.38c0.39-0.37,0.88-0.55,1.46-0.55c0.59,0,1.08,0.18,1.47,0.55
						c0.39,0.37,0.58,0.83,0.58,1.37c0,0.36-0.1,0.68-0.3,0.98c-0.2,0.29-0.46,0.53-0.79,0.7c0.45,0.17,0.79,0.44,1.03,0.81
						c0.23,0.37,0.35,0.76,0.35,1.15c0,0.68-0.21,1.22-0.64,1.62c-0.43,0.41-0.99,0.61-1.69,0.61c-0.68,0-1.24-0.2-1.68-0.6
						C245.26,435.68,245.04,435.14,245.04,434.45z M245.75,434.42c0,0.51,0.15,0.92,0.45,1.21s0.69,0.44,1.16,0.44
						c0.47,0,0.86-0.15,1.16-0.45c0.3-0.3,0.46-0.7,0.46-1.19c0-0.45-0.15-0.83-0.44-1.16s-0.69-0.48-1.18-0.48
						c-0.46,0-0.84,0.15-1.15,0.46C245.91,433.57,245.75,433.96,245.75,434.42z M246.02,430.85c0,0.39,0.13,0.72,0.4,0.98
						c0.26,0.26,0.58,0.39,0.95,0.39c0.38,0,0.7-0.13,0.96-0.4c0.26-0.27,0.4-0.59,0.4-0.97c0-0.4-0.13-0.73-0.4-0.99
						c-0.26-0.26-0.58-0.39-0.96-0.39c-0.4,0-0.72,0.13-0.97,0.4S246.02,430.46,246.02,430.85z"/>
					<path class="st0" d="M258.53,436.56h-0.67v-3.17c0-0.64-0.1-1.09-0.3-1.36c-0.2-0.27-0.52-0.41-0.97-0.41
						c-0.4,0-0.74,0.18-1.02,0.53c-0.28,0.35-0.43,0.78-0.43,1.29v3.12h-0.67v-3.24c0-0.57-0.11-0.99-0.32-1.27
						s-0.54-0.42-0.97-0.42c-0.41,0-0.75,0.17-1.02,0.51c-0.27,0.34-0.4,0.79-0.4,1.33v3.09h-0.67v-5.39h0.67v0.87h0.02
						c0.19-0.34,0.43-0.59,0.7-0.75s0.6-0.25,0.96-0.25c0.38,0,0.71,0.11,0.98,0.33s0.46,0.5,0.56,0.85
						c0.18-0.38,0.43-0.67,0.73-0.87c0.31-0.2,0.65-0.3,1.03-0.3c0.59,0,1.04,0.18,1.33,0.55c0.29,0.37,0.44,0.92,0.44,1.65V436.56z
						"/>
					<path class="st0" d="M259.65,432.97v-0.21c0-0.2,0.03-0.38,0.08-0.53c0.05-0.15,0.12-0.28,0.21-0.39
						c0.12-0.14,0.25-0.27,0.4-0.39c0.15-0.12,0.33-0.25,0.52-0.4c0.15-0.1,0.28-0.21,0.39-0.31c0.11-0.1,0.21-0.2,0.28-0.31
						c0.07-0.1,0.13-0.21,0.17-0.33s0.06-0.25,0.06-0.4c0-0.27-0.08-0.48-0.23-0.63c-0.15-0.16-0.35-0.24-0.61-0.24
						c-0.2,0-0.38,0.04-0.56,0.11c-0.17,0.07-0.34,0.18-0.49,0.34l-0.24-0.24c0.19-0.19,0.39-0.32,0.6-0.41s0.45-0.13,0.72-0.13
						c0.38,0,0.67,0.11,0.89,0.33s0.32,0.5,0.32,0.83c0,0.18-0.03,0.35-0.08,0.5c-0.05,0.15-0.12,0.29-0.21,0.41
						c-0.09,0.13-0.2,0.25-0.33,0.36c-0.13,0.11-0.27,0.22-0.42,0.34c-0.2,0.14-0.37,0.27-0.51,0.37c-0.14,0.11-0.25,0.21-0.33,0.3
						c-0.08,0.1-0.14,0.2-0.18,0.3c-0.04,0.1-0.05,0.22-0.05,0.37h2.19v0.36H259.65z"/>
					<path class="st0" d="M263.36,438.27h-0.64c0.54-0.66,0.95-1.37,1.22-2.14c0.27-0.77,0.41-1.59,0.41-2.46
						c0-0.91-0.14-1.75-0.41-2.52s-0.69-1.49-1.23-2.14h0.65c0.54,0.63,0.95,1.33,1.22,2.11c0.27,0.78,0.41,1.63,0.41,2.56
						c0,0.91-0.13,1.75-0.41,2.51C264.3,436.96,263.9,437.65,263.36,438.27z"/>
				</g>
			</g>
		</g>
		<g>
			<rect id="L4_18_" x="165.83" y="445.49" class="st3" width="15.04" height="15.04"/>
			<g>
				<g>
					<path class="st0" d="M195,454.41v2.86h-0.71v-7.55h1.95c0.79,0,1.4,0.19,1.83,0.58c0.43,0.38,0.64,0.93,0.64,1.65
						c0,0.72-0.24,1.31-0.71,1.77c-0.48,0.46-1.13,0.69-1.96,0.69H195z M195,450.35v3.42h1c0.65,0,1.14-0.15,1.47-0.46
						c0.34-0.31,0.51-0.75,0.51-1.31c0-0.55-0.15-0.96-0.46-1.23c-0.31-0.27-0.77-0.41-1.4-0.41H195z"/>
					<path class="st0" d="M203.89,457.26h-0.67v-0.96h-0.02c-0.18,0.35-0.42,0.62-0.72,0.8c-0.3,0.19-0.64,0.28-1.02,0.28
						c-0.51,0-0.92-0.15-1.22-0.44c-0.31-0.29-0.46-0.67-0.46-1.13c0-0.46,0.15-0.84,0.46-1.13c0.3-0.29,0.78-0.49,1.43-0.58
						l1.55-0.22v-0.15c-0.01-0.48-0.13-0.84-0.34-1.07c-0.21-0.23-0.52-0.34-0.91-0.34c-0.3,0-0.58,0.05-0.85,0.16
						c-0.26,0.11-0.51,0.27-0.74,0.5l-0.41-0.42c0.29-0.28,0.6-0.49,0.93-0.62c0.33-0.13,0.7-0.2,1.1-0.2c0.62,0,1.1,0.17,1.41,0.51
						c0.32,0.34,0.48,0.84,0.48,1.5V457.26z M203.22,454.98v-0.53l-1.4,0.2c-0.49,0.07-0.84,0.19-1.05,0.36
						c-0.21,0.17-0.32,0.43-0.32,0.76c0,0.32,0.1,0.57,0.3,0.76c0.2,0.19,0.46,0.28,0.79,0.28c0.49,0,0.89-0.17,1.2-0.52
						S203.22,455.52,203.22,454.98z"/>
					<path class="st0" d="M208.1,452.46c-0.08-0.03-0.15-0.05-0.21-0.06c-0.07-0.01-0.14-0.02-0.22-0.02
						c-0.45,0-0.81,0.21-1.07,0.62c-0.27,0.41-0.4,0.95-0.4,1.62v2.64h-0.67v-5.39h0.67v1.13h0.02c0.12-0.39,0.32-0.7,0.58-0.91
						c0.26-0.21,0.57-0.32,0.93-0.32c0.09,0,0.18,0,0.25,0.02c0.08,0.01,0.16,0.03,0.23,0.05L208.1,452.46z"/>
					<path class="st0" d="M211.55,457.17c-0.13,0.07-0.27,0.12-0.41,0.15c-0.14,0.03-0.3,0.05-0.47,0.05
						c-0.39,0-0.69-0.12-0.91-0.35c-0.22-0.23-0.33-0.58-0.33-1.03v-3.53h-0.95v-0.59h0.95v-1.37l0.67-0.22v1.59h1.39v0.59h-1.39
						v3.45c0,0.31,0.06,0.53,0.17,0.67s0.28,0.21,0.5,0.21c0.12,0,0.22-0.01,0.32-0.04c0.1-0.03,0.19-0.06,0.26-0.11L211.55,457.17z
						"/>
					<path class="st0" d="M216.92,457.26h-0.67v-3.11c0-0.61-0.11-1.07-0.33-1.37c-0.22-0.31-0.55-0.46-1-0.46
						c-0.47,0-0.87,0.18-1.17,0.53s-0.46,0.79-0.46,1.32v3.08h-0.67v-5.39h0.67v0.94h0.02c0.2-0.36,0.45-0.63,0.75-0.8
						c0.3-0.18,0.65-0.27,1.05-0.27c0.59,0,1.03,0.19,1.34,0.58c0.31,0.38,0.47,0.94,0.47,1.66V457.26z"/>
					<path class="st0" d="M222.76,454.67h-3.9c0.01,0.72,0.18,1.25,0.52,1.61s0.79,0.53,1.35,0.53c0.25,0,0.51-0.04,0.76-0.12
						c0.25-0.08,0.5-0.21,0.75-0.39l0.34,0.48c-0.3,0.21-0.6,0.37-0.91,0.46c-0.31,0.1-0.65,0.15-1.01,0.15
						c-0.74,0-1.33-0.23-1.79-0.7c-0.46-0.47-0.69-1.17-0.69-2.11c0-0.83,0.23-1.51,0.68-2.04c0.45-0.53,1.04-0.8,1.77-0.8
						c0.68,0,1.21,0.23,1.59,0.7c0.37,0.46,0.56,1.1,0.56,1.91V454.67z M222.07,454.1c-0.01-0.56-0.15-0.99-0.41-1.31
						s-0.61-0.47-1.07-0.47c-0.46,0-0.84,0.16-1.15,0.47c-0.31,0.31-0.5,0.75-0.56,1.3H222.07z"/>
					<path class="st0" d="M226.65,452.46c-0.08-0.03-0.15-0.05-0.21-0.06c-0.07-0.01-0.14-0.02-0.22-0.02
						c-0.45,0-0.81,0.21-1.07,0.62c-0.27,0.41-0.4,0.95-0.4,1.62v2.64h-0.67v-5.39h0.67v1.13h0.02c0.12-0.39,0.32-0.7,0.58-0.91
						c0.26-0.21,0.57-0.32,0.93-0.32c0.09,0,0.18,0,0.25,0.02c0.08,0.01,0.16,0.03,0.23,0.05L226.65,452.46z"/>
					<path class="st0" d="M230.2,456.68l0.36-0.53c0.3,0.21,0.6,0.36,0.91,0.46c0.31,0.09,0.66,0.14,1.05,0.14
						c0.48,0,0.88-0.13,1.18-0.38c0.31-0.26,0.46-0.61,0.46-1.07c0-0.38-0.12-0.68-0.37-0.92c-0.25-0.24-0.66-0.46-1.22-0.65
						c-0.71-0.25-1.23-0.54-1.57-0.86c-0.33-0.32-0.5-0.74-0.5-1.24c0-0.61,0.21-1.11,0.63-1.47c0.42-0.37,0.98-0.55,1.68-0.55
						c0.31,0,0.61,0.04,0.91,0.11c0.3,0.08,0.6,0.2,0.91,0.37l-0.29,0.56c-0.26-0.14-0.52-0.25-0.77-0.31
						c-0.25-0.06-0.53-0.09-0.83-0.09c-0.46,0-0.84,0.12-1.12,0.35c-0.29,0.24-0.43,0.56-0.43,0.97c0,0.35,0.13,0.65,0.39,0.87
						c0.26,0.23,0.68,0.44,1.27,0.65c0.71,0.25,1.23,0.53,1.54,0.86s0.47,0.76,0.47,1.3c0,0.64-0.21,1.16-0.64,1.56
						s-1.01,0.6-1.75,0.6c-0.43,0-0.83-0.06-1.2-0.17S230.55,456.93,230.2,456.68z"/>
					<path class="st0" d="M238.59,457.17c-0.13,0.07-0.27,0.12-0.41,0.15c-0.14,0.03-0.3,0.05-0.47,0.05
						c-0.39,0-0.69-0.12-0.91-0.35c-0.22-0.23-0.33-0.58-0.33-1.03v-3.53h-0.95v-0.59h0.95v-1.37l0.67-0.22v1.59h1.39v0.59h-1.39
						v3.45c0,0.31,0.06,0.53,0.17,0.67s0.28,0.21,0.5,0.21c0.12,0,0.22-0.01,0.32-0.04c0.1-0.03,0.19-0.06,0.26-0.11L238.59,457.17z
						"/>
					<path class="st0" d="M242.22,452.46c-0.08-0.03-0.15-0.05-0.21-0.06c-0.07-0.01-0.14-0.02-0.22-0.02
						c-0.45,0-0.81,0.21-1.07,0.62c-0.27,0.41-0.4,0.95-0.4,1.62v2.64h-0.67v-5.39h0.67v1.13h0.02c0.12-0.39,0.32-0.7,0.58-0.91
						c0.26-0.21,0.57-0.32,0.93-0.32c0.09,0,0.18,0,0.25,0.02c0.08,0.01,0.16,0.03,0.23,0.05L242.22,452.46z"/>
					<path class="st0" d="M247.53,454.67h-3.9c0.01,0.72,0.18,1.25,0.52,1.61s0.79,0.53,1.35,0.53c0.25,0,0.51-0.04,0.76-0.12
						c0.25-0.08,0.5-0.21,0.75-0.39l0.34,0.48c-0.3,0.21-0.6,0.37-0.91,0.46c-0.31,0.1-0.65,0.15-1.01,0.15
						c-0.74,0-1.33-0.23-1.79-0.7c-0.46-0.47-0.69-1.17-0.69-2.11c0-0.83,0.23-1.51,0.68-2.04c0.45-0.53,1.04-0.8,1.77-0.8
						c0.68,0,1.21,0.23,1.59,0.7c0.37,0.46,0.56,1.1,0.56,1.91V454.67z M246.83,454.1c-0.01-0.56-0.15-0.99-0.41-1.31
						s-0.61-0.47-1.07-0.47c-0.46,0-0.84,0.16-1.15,0.47c-0.31,0.31-0.5,0.75-0.56,1.3H246.83z"/>
					<path class="st0" d="M251.23,449.84c-0.09-0.02-0.17-0.04-0.24-0.05c-0.07-0.01-0.15-0.02-0.23-0.02
						c-0.32,0-0.56,0.09-0.72,0.27c-0.15,0.18-0.23,0.45-0.23,0.81v1.03h1.35v0.59h-1.35v4.8h-0.67v-4.8h-0.95v-0.59h0.95v-1.06
						c0-0.53,0.15-0.93,0.44-1.21s0.69-0.42,1.2-0.42c0.1,0,0.2,0.01,0.3,0.02s0.2,0.04,0.32,0.08L251.23,449.84z"/>
					<path class="st0" d="M256.13,451.88l-2.65,6.61c-0.16,0.39-0.37,0.7-0.64,0.95c-0.27,0.24-0.59,0.37-0.97,0.37
						c-0.1,0-0.19-0.01-0.28-0.02c-0.09-0.01-0.17-0.03-0.25-0.05l0.15-0.61c0.06,0.02,0.12,0.04,0.17,0.05
						c0.06,0.01,0.12,0.02,0.18,0.02c0.22,0,0.41-0.07,0.57-0.2c0.16-0.13,0.29-0.31,0.38-0.54l0.51-1.21l-2.07-5.36h0.75l1.54,4.27
						c0.02,0.06,0.04,0.12,0.06,0.18c0.02,0.06,0.04,0.14,0.06,0.22h0.03c0.01-0.05,0.03-0.11,0.05-0.17s0.04-0.13,0.07-0.21
						l1.63-4.29H256.13z"/>
					<path class="st0" d="M259.53,456.68l0.36-0.53c0.3,0.21,0.6,0.36,0.91,0.46c0.31,0.09,0.66,0.14,1.05,0.14
						c0.48,0,0.88-0.13,1.18-0.38c0.31-0.26,0.46-0.61,0.46-1.07c0-0.38-0.12-0.68-0.37-0.92c-0.25-0.24-0.66-0.46-1.22-0.65
						c-0.71-0.25-1.23-0.54-1.57-0.86c-0.33-0.32-0.5-0.74-0.5-1.24c0-0.61,0.21-1.11,0.63-1.47c0.42-0.37,0.98-0.55,1.68-0.55
						c0.31,0,0.61,0.04,0.91,0.11c0.3,0.08,0.6,0.2,0.91,0.37l-0.29,0.56c-0.26-0.14-0.52-0.25-0.77-0.31
						c-0.25-0.06-0.53-0.09-0.83-0.09c-0.46,0-0.84,0.12-1.12,0.35c-0.29,0.24-0.43,0.56-0.43,0.97c0,0.35,0.13,0.65,0.39,0.87
						c0.26,0.23,0.68,0.44,1.27,0.65c0.71,0.25,1.23,0.53,1.54,0.86s0.47,0.76,0.47,1.3c0,0.64-0.21,1.16-0.64,1.56
						s-1.01,0.6-1.75,0.6c-0.43,0-0.83-0.06-1.2-0.17S259.89,456.93,259.53,456.68z"/>
					<path class="st0" d="M267.93,457.17c-0.13,0.07-0.27,0.12-0.41,0.15c-0.14,0.03-0.3,0.05-0.47,0.05
						c-0.39,0-0.69-0.12-0.91-0.35c-0.22-0.23-0.33-0.58-0.33-1.03v-3.53h-0.95v-0.59h0.95v-1.37l0.67-0.22v1.59h1.39v0.59h-1.39
						v3.45c0,0.31,0.06,0.53,0.17,0.67s0.28,0.21,0.5,0.21c0.12,0,0.22-0.01,0.32-0.04c0.1-0.03,0.19-0.06,0.26-0.11L267.93,457.17z
						"/>
					<path class="st0" d="M273.18,457.26h-0.67v-0.92h-0.02c-0.18,0.35-0.42,0.61-0.7,0.78c-0.28,0.17-0.62,0.26-1,0.26
						c-0.64,0-1.12-0.2-1.44-0.59c-0.32-0.39-0.48-0.98-0.48-1.76v-3.17h0.67v3.04c0,0.65,0.11,1.13,0.34,1.43
						c0.23,0.31,0.58,0.46,1.06,0.46c0.46,0,0.83-0.17,1.13-0.51s0.44-0.79,0.44-1.34v-3.08h0.67V457.26z"/>
					<path class="st0" d="M278.69,456.32c-0.19,0.34-0.45,0.61-0.77,0.79c-0.32,0.19-0.7,0.28-1.13,0.28
						c-0.67,0-1.21-0.24-1.62-0.72s-0.62-1.14-0.62-1.99c0-0.88,0.23-1.59,0.68-2.13c0.45-0.54,1.05-0.81,1.79-0.81
						c0.39,0,0.72,0.08,1,0.23c0.28,0.16,0.5,0.39,0.67,0.7h0.02v-3.39h0.67v7.98h-0.67v-0.95H278.69z M275.24,454.64
						c0,0.68,0.16,1.21,0.47,1.6c0.31,0.38,0.72,0.57,1.22,0.57c0.55,0,0.98-0.18,1.3-0.54s0.48-0.81,0.48-1.36v-0.9
						c0-0.47-0.15-0.86-0.46-1.19c-0.3-0.33-0.7-0.49-1.19-0.49c-0.55,0-0.99,0.21-1.32,0.62
						C275.41,453.35,275.24,453.92,275.24,454.64z"/>
					<path class="st0" d="M285.34,454.67h-3.9c0.01,0.72,0.18,1.25,0.52,1.61s0.79,0.53,1.35,0.53c0.25,0,0.51-0.04,0.76-0.12
						c0.25-0.08,0.5-0.21,0.75-0.39l0.34,0.48c-0.3,0.21-0.6,0.37-0.91,0.46c-0.31,0.1-0.65,0.15-1.01,0.15
						c-0.74,0-1.33-0.23-1.79-0.7c-0.46-0.47-0.69-1.17-0.69-2.11c0-0.83,0.23-1.51,0.68-2.04c0.45-0.53,1.04-0.8,1.77-0.8
						c0.68,0,1.21,0.23,1.59,0.7c0.37,0.46,0.56,1.1,0.56,1.91V454.67z M284.64,454.1c-0.01-0.56-0.15-0.99-0.41-1.31
						s-0.61-0.47-1.07-0.47c-0.46,0-0.84,0.16-1.15,0.47c-0.31,0.31-0.5,0.75-0.56,1.3H284.64z"/>
					<path class="st0" d="M290.96,457.26h-0.67v-3.11c0-0.61-0.11-1.07-0.33-1.37c-0.22-0.31-0.55-0.46-1-0.46
						c-0.47,0-0.87,0.18-1.17,0.53s-0.46,0.79-0.46,1.32v3.08h-0.67v-5.39h0.67v0.94h0.02c0.2-0.36,0.45-0.63,0.75-0.8
						c0.3-0.18,0.65-0.27,1.05-0.27c0.59,0,1.03,0.19,1.34,0.58c0.31,0.38,0.47,0.94,0.47,1.66V457.26z"/>
					<path class="st0" d="M294.95,457.17c-0.13,0.07-0.27,0.12-0.41,0.15c-0.14,0.03-0.3,0.05-0.47,0.05
						c-0.39,0-0.69-0.12-0.91-0.35c-0.22-0.23-0.33-0.58-0.33-1.03v-3.53h-0.95v-0.59h0.95v-1.37l0.67-0.22v1.59h1.39v0.59h-1.39
						v3.45c0,0.31,0.06,0.53,0.17,0.67s0.28,0.21,0.5,0.21c0.12,0,0.22-0.01,0.32-0.04c0.1-0.03,0.19-0.06,0.26-0.11L294.95,457.17z
						"/>
					<path class="st0" d="M299.78,457.26h-0.67v-0.96h-0.02c-0.18,0.35-0.42,0.62-0.72,0.8c-0.3,0.19-0.64,0.28-1.02,0.28
						c-0.51,0-0.92-0.15-1.22-0.44c-0.31-0.29-0.46-0.67-0.46-1.13c0-0.46,0.15-0.84,0.46-1.13c0.3-0.29,0.78-0.49,1.43-0.58
						l1.55-0.22v-0.15c-0.01-0.48-0.13-0.84-0.34-1.07c-0.21-0.23-0.52-0.34-0.91-0.34c-0.3,0-0.58,0.05-0.85,0.16
						c-0.26,0.11-0.51,0.27-0.74,0.5l-0.41-0.42c0.29-0.28,0.6-0.49,0.93-0.62c0.33-0.13,0.7-0.2,1.1-0.2c0.62,0,1.1,0.17,1.41,0.51
						c0.32,0.34,0.48,0.84,0.48,1.5V457.26z M299.1,454.98v-0.53l-1.4,0.2c-0.49,0.07-0.84,0.19-1.05,0.36
						c-0.21,0.17-0.32,0.43-0.32,0.76c0,0.32,0.1,0.57,0.3,0.76c0.2,0.19,0.46,0.28,0.79,0.28c0.49,0,0.89-0.17,1.2-0.52
						S299.1,455.52,299.1,454.98z"/>
					<path class="st0" d="M306.51,458.98h-0.64c-0.54-0.62-0.94-1.31-1.21-2.08s-0.4-1.6-0.4-2.51c0-0.93,0.13-1.78,0.41-2.56
						c0.27-0.78,0.68-1.48,1.22-2.11h0.65c-0.55,0.65-0.96,1.36-1.24,2.14s-0.41,1.62-0.41,2.52c0,0.87,0.14,1.69,0.41,2.46
						C305.56,457.61,305.96,458.32,306.51,458.98z"/>
					<path class="st0" d="M307.15,455.16c0-0.4,0.12-0.79,0.35-1.16c0.24-0.37,0.59-0.64,1.05-0.81c-0.34-0.18-0.61-0.41-0.82-0.7
						c-0.2-0.29-0.31-0.62-0.31-0.98c0-0.55,0.2-1.01,0.59-1.38c0.39-0.37,0.88-0.55,1.46-0.55c0.59,0,1.08,0.18,1.47,0.55
						c0.39,0.37,0.58,0.83,0.58,1.37c0,0.36-0.1,0.68-0.3,0.98c-0.2,0.29-0.46,0.53-0.79,0.7c0.45,0.17,0.79,0.44,1.03,0.81
						c0.23,0.37,0.35,0.76,0.35,1.15c0,0.68-0.21,1.22-0.64,1.62c-0.43,0.41-0.99,0.61-1.69,0.61c-0.68,0-1.24-0.2-1.68-0.6
						C307.37,456.39,307.15,455.84,307.15,455.16z M307.87,455.13c0,0.51,0.15,0.92,0.45,1.21s0.69,0.44,1.16,0.44
						c0.47,0,0.86-0.15,1.16-0.45c0.3-0.3,0.46-0.7,0.46-1.19c0-0.45-0.15-0.83-0.44-1.16s-0.69-0.48-1.18-0.48
						c-0.46,0-0.84,0.15-1.15,0.46C308.02,454.28,307.87,454.67,307.87,455.13z M308.14,451.56c0,0.39,0.13,0.72,0.4,0.98
						c0.26,0.26,0.58,0.39,0.95,0.39c0.38,0,0.7-0.13,0.96-0.4c0.26-0.27,0.4-0.59,0.4-0.97c0-0.4-0.13-0.73-0.4-0.99
						c-0.26-0.26-0.58-0.39-0.96-0.39c-0.4,0-0.72,0.13-0.97,0.4S308.14,451.17,308.14,451.56z"/>
					<path class="st0" d="M320.64,457.26h-0.67v-3.17c0-0.64-0.1-1.09-0.3-1.36c-0.2-0.27-0.52-0.41-0.97-0.41
						c-0.4,0-0.74,0.18-1.02,0.53c-0.28,0.35-0.43,0.78-0.43,1.29v3.12h-0.67v-3.24c0-0.57-0.11-0.99-0.32-1.27
						s-0.54-0.42-0.97-0.42c-0.41,0-0.75,0.17-1.02,0.51c-0.27,0.34-0.4,0.79-0.4,1.33v3.09h-0.67v-5.39h0.67v0.87h0.02
						c0.19-0.34,0.43-0.59,0.7-0.75s0.6-0.25,0.96-0.25c0.38,0,0.71,0.11,0.98,0.33s0.46,0.5,0.56,0.85
						c0.18-0.38,0.43-0.67,0.73-0.87c0.31-0.2,0.65-0.3,1.03-0.3c0.59,0,1.04,0.18,1.33,0.55c0.29,0.37,0.44,0.92,0.44,1.65V457.26z
						"/>
					<path class="st0" d="M321.77,453.67v-0.21c0-0.2,0.03-0.38,0.08-0.53c0.05-0.15,0.12-0.28,0.21-0.39
						c0.12-0.14,0.25-0.27,0.4-0.39c0.15-0.12,0.33-0.25,0.52-0.4c0.15-0.1,0.28-0.21,0.39-0.31c0.11-0.1,0.21-0.2,0.28-0.31
						c0.07-0.1,0.13-0.21,0.17-0.33s0.06-0.25,0.06-0.4c0-0.27-0.08-0.48-0.23-0.63c-0.15-0.16-0.35-0.24-0.61-0.24
						c-0.2,0-0.38,0.04-0.56,0.11c-0.17,0.07-0.34,0.18-0.49,0.34l-0.24-0.24c0.19-0.19,0.39-0.32,0.6-0.41s0.45-0.13,0.72-0.13
						c0.38,0,0.67,0.11,0.89,0.33s0.32,0.5,0.32,0.83c0,0.18-0.03,0.35-0.08,0.5c-0.05,0.15-0.12,0.29-0.21,0.41
						c-0.09,0.13-0.2,0.25-0.33,0.36c-0.13,0.11-0.27,0.22-0.42,0.34c-0.2,0.14-0.37,0.27-0.51,0.37c-0.14,0.11-0.25,0.21-0.33,0.3
						c-0.08,0.1-0.14,0.2-0.18,0.3c-0.04,0.1-0.05,0.22-0.05,0.37h2.19v0.36H321.77z"/>
					<path class="st0" d="M325.48,458.98h-0.64c0.54-0.66,0.95-1.37,1.22-2.14c0.27-0.77,0.41-1.59,0.41-2.46
						c0-0.91-0.14-1.75-0.41-2.52s-0.69-1.49-1.23-2.14h0.65c0.54,0.63,0.95,1.33,1.22,2.11c0.27,0.78,0.41,1.63,0.41,2.56
						c0,0.91-0.13,1.75-0.41,2.51C326.42,457.67,326.01,458.36,325.48,458.98z"/>
				</g>
			</g>
		</g>
		<g>
			<g>
				<rect id="L4_16_" x="348.35" y="404.07" class="st4" width="15.04" height="15.04"/>
				<g>
					<g>
						<path class="st0" d="M372.27,415.26l0.36-0.53c0.3,0.21,0.6,0.36,0.91,0.46s0.65,0.14,1.05,0.14c0.48,0,0.88-0.13,1.19-0.38
							c0.31-0.26,0.46-0.61,0.46-1.07c0-0.38-0.13-0.68-0.38-0.92c-0.25-0.24-0.66-0.46-1.22-0.65c-0.71-0.25-1.23-0.54-1.57-0.86
							c-0.33-0.32-0.5-0.74-0.5-1.24c0-0.61,0.21-1.11,0.63-1.47c0.42-0.37,0.98-0.55,1.68-0.55c0.31,0,0.61,0.04,0.91,0.11
							c0.3,0.08,0.61,0.2,0.91,0.37l-0.29,0.56c-0.26-0.14-0.52-0.25-0.77-0.31c-0.25-0.06-0.53-0.09-0.83-0.09
							c-0.46,0-0.84,0.12-1.12,0.35c-0.29,0.24-0.43,0.56-0.43,0.97c0,0.35,0.13,0.65,0.39,0.87c0.26,0.23,0.68,0.44,1.27,0.65
							c0.71,0.25,1.23,0.53,1.54,0.86s0.47,0.76,0.47,1.3c0,0.64-0.21,1.16-0.64,1.56c-0.43,0.4-1.01,0.6-1.75,0.6
							c-0.43,0-0.83-0.06-1.2-0.17S372.62,415.51,372.27,415.26z"/>
						<path class="st0" d="M380.66,415.76c-0.13,0.07-0.27,0.12-0.41,0.15c-0.14,0.03-0.3,0.05-0.47,0.05
							c-0.39,0-0.69-0.12-0.91-0.35s-0.33-0.58-0.33-1.03v-3.53h-0.95v-0.59h0.95v-1.37l0.67-0.22v1.59h1.39v0.59h-1.39v3.45
							c0,0.31,0.06,0.53,0.17,0.67c0.12,0.14,0.28,0.21,0.5,0.21c0.12,0,0.22-0.01,0.32-0.04s0.19-0.06,0.26-0.11L380.66,415.76z"/>
						<path class="st0" d="M383.93,415.97c-0.79,0-1.42-0.25-1.89-0.77s-0.7-1.18-0.7-2.01c0-0.9,0.24-1.6,0.73-2.11
							s1.13-0.76,1.95-0.77c0.79,0,1.4,0.25,1.85,0.75s0.67,1.19,0.67,2.07c0,0.85-0.23,1.53-0.71,2.05S384.73,415.97,383.93,415.97
							z M383.97,415.39c0.6,0,1.07-0.2,1.4-0.59c0.33-0.39,0.49-0.94,0.49-1.64c0-0.72-0.16-1.28-0.49-1.67
							c-0.33-0.39-0.79-0.58-1.38-0.58c-0.59,0-1.07,0.2-1.42,0.61c-0.35,0.4-0.53,0.96-0.53,1.67c0,0.67,0.17,1.21,0.52,1.6
							C382.9,415.19,383.38,415.39,383.97,415.39z"/>
						<path class="st0" d="M388.24,409.14c-0.15,0-0.27-0.05-0.37-0.15c-0.1-0.1-0.15-0.22-0.15-0.37c0-0.14,0.05-0.27,0.15-0.36
							c0.1-0.1,0.22-0.15,0.37-0.15c0.15,0,0.27,0.05,0.37,0.15c0.1,0.1,0.15,0.22,0.15,0.36c0,0.15-0.05,0.27-0.15,0.37
							C388.51,409.09,388.38,409.14,388.24,409.14z M388.57,415.85h-0.67v-5.39h0.67V415.85z"/>
						<path class="st0" d="M389.8,415.45l0.33-0.53c0.21,0.14,0.43,0.25,0.66,0.34c0.23,0.09,0.48,0.13,0.76,0.13
							c0.41,0,0.71-0.09,0.92-0.26s0.31-0.41,0.31-0.72c0-0.24-0.08-0.43-0.25-0.6c-0.17-0.16-0.47-0.31-0.93-0.45
							c-0.61-0.17-1.03-0.38-1.27-0.63c-0.23-0.25-0.35-0.55-0.35-0.91c0-0.44,0.16-0.8,0.48-1.08c0.32-0.28,0.76-0.42,1.31-0.42
							c0.26,0,0.52,0.03,0.77,0.1c0.25,0.07,0.5,0.18,0.76,0.34l-0.32,0.52c-0.21-0.13-0.41-0.22-0.62-0.28
							c-0.2-0.06-0.41-0.09-0.62-0.09c-0.36,0-0.64,0.08-0.83,0.23c-0.19,0.15-0.29,0.36-0.29,0.62c0,0.25,0.09,0.45,0.26,0.58
							s0.48,0.27,0.92,0.4c0.56,0.17,0.98,0.38,1.24,0.63c0.26,0.25,0.39,0.58,0.39,0.99c0,0.5-0.17,0.9-0.51,1.19
							c-0.34,0.29-0.8,0.43-1.38,0.43c-0.31,0-0.61-0.04-0.9-0.13C390.33,415.75,390.05,415.62,389.8,415.45z"/>
						<path class="st0" d="M398.82,415.85h-0.96l-2.48-2.63h-0.02v2.63h-0.67v-7.98h0.67v5.1h0.02l2.36-2.51h0.88l-2.53,2.61
							L398.82,415.85z"/>
						<path class="st0" d="M403.52,415.85h-0.67v-0.96h-0.02c-0.18,0.35-0.42,0.62-0.72,0.8c-0.3,0.19-0.64,0.28-1.02,0.28
							c-0.51,0-0.92-0.15-1.22-0.44s-0.46-0.67-0.46-1.13c0-0.46,0.15-0.84,0.46-1.13s0.78-0.49,1.43-0.58l1.55-0.22v-0.15
							c-0.01-0.48-0.13-0.84-0.34-1.07c-0.21-0.23-0.52-0.34-0.91-0.34c-0.3,0-0.58,0.05-0.85,0.16c-0.26,0.11-0.51,0.27-0.74,0.5
							l-0.4-0.42c0.29-0.28,0.6-0.49,0.93-0.62c0.33-0.13,0.7-0.2,1.1-0.2c0.62,0,1.1,0.17,1.41,0.51c0.32,0.34,0.48,0.84,0.48,1.5
							V415.85z M402.85,413.56v-0.53l-1.39,0.2c-0.49,0.07-0.84,0.19-1.05,0.36c-0.21,0.17-0.32,0.43-0.32,0.76
							c0,0.32,0.1,0.57,0.3,0.76c0.2,0.19,0.46,0.28,0.79,0.28c0.49,0,0.89-0.17,1.2-0.52S402.85,414.1,402.85,413.56z"/>
						<path class="st0" d="M407.75,413.74c0-0.4,0.12-0.79,0.35-1.16c0.24-0.37,0.59-0.64,1.05-0.81c-0.34-0.18-0.61-0.41-0.81-0.7
							c-0.21-0.29-0.31-0.62-0.31-0.98c0-0.55,0.2-1.01,0.59-1.38s0.88-0.55,1.46-0.55c0.59,0,1.08,0.18,1.46,0.55
							c0.39,0.37,0.58,0.83,0.58,1.37c0,0.36-0.1,0.68-0.3,0.98c-0.2,0.29-0.46,0.53-0.79,0.7c0.45,0.17,0.79,0.44,1.03,0.81
							c0.23,0.37,0.35,0.76,0.35,1.15c0,0.68-0.21,1.22-0.64,1.62s-0.99,0.61-1.69,0.61c-0.69,0-1.24-0.2-1.68-0.6
							C407.97,414.97,407.75,414.43,407.75,413.74z M408.47,413.72c0,0.51,0.15,0.92,0.45,1.21c0.3,0.29,0.69,0.44,1.16,0.44
							c0.47,0,0.86-0.15,1.16-0.45c0.3-0.3,0.46-0.7,0.46-1.19c0-0.45-0.15-0.83-0.44-1.16s-0.69-0.48-1.18-0.48
							c-0.46,0-0.84,0.15-1.15,0.46C408.62,412.86,408.47,413.25,408.47,413.72z M408.74,410.14c0,0.39,0.13,0.72,0.4,0.98
							c0.27,0.26,0.58,0.39,0.95,0.39c0.38,0,0.7-0.13,0.96-0.4c0.26-0.27,0.4-0.59,0.4-0.97c0-0.4-0.13-0.73-0.39-0.99
							c-0.26-0.26-0.58-0.39-0.96-0.39c-0.4,0-0.72,0.13-0.97,0.4C408.86,409.43,408.74,409.76,408.74,410.14z"/>
						<path class="st0" d="M421.24,415.85h-0.67v-3.17c0-0.64-0.1-1.09-0.3-1.36c-0.2-0.27-0.52-0.41-0.96-0.41
							c-0.4,0-0.74,0.18-1.02,0.53c-0.29,0.35-0.43,0.78-0.43,1.29v3.12h-0.67v-3.24c0-0.57-0.11-0.99-0.32-1.27
							c-0.22-0.28-0.54-0.42-0.97-0.42c-0.41,0-0.75,0.17-1.02,0.51c-0.27,0.34-0.4,0.79-0.4,1.33v3.09h-0.67v-5.39h0.67v0.87h0.02
							c0.19-0.34,0.43-0.59,0.7-0.75s0.6-0.25,0.96-0.25c0.38,0,0.71,0.11,0.98,0.33s0.46,0.5,0.56,0.85
							c0.18-0.38,0.43-0.67,0.73-0.87c0.31-0.2,0.65-0.3,1.03-0.3c0.59,0,1.04,0.18,1.33,0.55c0.29,0.37,0.44,0.92,0.44,1.65V415.85
							z"/>
						<path class="st0" d="M422.37,412.26v-0.21c0-0.2,0.03-0.38,0.08-0.53c0.05-0.15,0.12-0.28,0.21-0.39
							c0.12-0.14,0.25-0.27,0.4-0.39c0.15-0.12,0.33-0.25,0.52-0.4c0.15-0.1,0.28-0.21,0.39-0.31s0.21-0.2,0.28-0.31
							c0.07-0.1,0.13-0.21,0.17-0.33s0.06-0.25,0.06-0.4c0-0.27-0.08-0.48-0.23-0.63c-0.15-0.16-0.36-0.24-0.61-0.24
							c-0.2,0-0.38,0.04-0.56,0.11c-0.17,0.07-0.34,0.18-0.49,0.34l-0.24-0.24c0.19-0.19,0.38-0.32,0.6-0.41
							c0.21-0.09,0.45-0.13,0.72-0.13c0.38,0,0.67,0.11,0.89,0.33c0.21,0.22,0.32,0.5,0.32,0.83c0,0.18-0.03,0.35-0.08,0.5
							s-0.12,0.29-0.21,0.41c-0.09,0.13-0.2,0.25-0.33,0.36c-0.13,0.11-0.27,0.22-0.42,0.34c-0.2,0.14-0.37,0.27-0.51,0.37
							c-0.13,0.11-0.24,0.21-0.33,0.3c-0.08,0.1-0.14,0.2-0.18,0.3c-0.04,0.1-0.05,0.22-0.05,0.37h2.19v0.36H422.37z"/>
					</g>
				</g>
			</g>
			<g>
				<rect id="L4_5_" x="348.35" y="424.78" class="st5" width="15.04" height="15.04"/>
				<g>
					<g>
						<path class="st0" d="M372.27,435.97l0.36-0.53c0.3,0.21,0.6,0.36,0.91,0.46c0.3,0.1,0.65,0.14,1.05,0.14
							c0.48,0,0.88-0.13,1.19-0.38s0.46-0.61,0.46-1.07c0-0.38-0.13-0.68-0.38-0.92c-0.25-0.24-0.66-0.46-1.22-0.65
							c-0.71-0.25-1.23-0.54-1.57-0.86c-0.33-0.32-0.5-0.74-0.5-1.24c0-0.62,0.21-1.11,0.63-1.47c0.42-0.37,0.98-0.55,1.68-0.55
							c0.31,0,0.61,0.04,0.91,0.11c0.3,0.08,0.61,0.2,0.91,0.37l-0.29,0.56c-0.26-0.14-0.52-0.25-0.77-0.31
							c-0.25-0.06-0.53-0.1-0.83-0.1c-0.46,0-0.84,0.12-1.12,0.35c-0.29,0.23-0.43,0.56-0.43,0.97c0,0.35,0.13,0.64,0.39,0.87
							s0.68,0.44,1.27,0.65c0.71,0.24,1.23,0.53,1.54,0.86s0.47,0.76,0.47,1.3c0,0.64-0.21,1.16-0.64,1.56
							c-0.43,0.4-1.01,0.6-1.75,0.6c-0.43,0-0.83-0.06-1.2-0.17C372.99,436.4,372.63,436.22,372.27,435.97z"/>
						<path class="st0" d="M380.67,436.46c-0.13,0.07-0.27,0.12-0.41,0.15c-0.14,0.03-0.3,0.05-0.47,0.05
							c-0.39,0-0.69-0.12-0.91-0.35c-0.22-0.23-0.33-0.58-0.33-1.03v-3.53h-0.95v-0.59h0.95v-1.37l0.67-0.22v1.59h1.39v0.59h-1.39
							v3.45c0,0.31,0.06,0.53,0.17,0.67c0.12,0.14,0.28,0.21,0.5,0.21c0.12,0,0.22-0.01,0.32-0.04c0.1-0.03,0.19-0.06,0.26-0.11
							L380.67,436.46z"/>
						<path class="st0" d="M383.94,436.68c-0.79,0-1.42-0.26-1.89-0.77c-0.47-0.51-0.7-1.18-0.7-2.01c0-0.9,0.24-1.6,0.73-2.11
							c0.49-0.51,1.13-0.76,1.95-0.77c0.79,0,1.4,0.25,1.85,0.75s0.67,1.19,0.67,2.07c0,0.85-0.23,1.53-0.71,2.05
							S384.74,436.68,383.94,436.68z M383.97,436.1c0.6,0,1.07-0.2,1.4-0.59c0.33-0.39,0.49-0.94,0.49-1.64
							c0-0.72-0.16-1.28-0.49-1.67c-0.33-0.39-0.79-0.58-1.38-0.58c-0.59,0-1.07,0.2-1.42,0.61c-0.35,0.4-0.53,0.96-0.53,1.67
							c0,0.67,0.17,1.21,0.52,1.6S383.38,436.1,383.97,436.1z"/>
						<path class="st0" d="M388.24,429.85c-0.15,0-0.27-0.05-0.37-0.15c-0.1-0.1-0.15-0.22-0.15-0.37c0-0.14,0.05-0.27,0.15-0.36
							c0.1-0.1,0.22-0.15,0.37-0.15c0.15,0,0.27,0.05,0.37,0.15s0.15,0.22,0.15,0.36c0,0.15-0.05,0.27-0.15,0.37
							S388.39,429.85,388.24,429.85z M388.57,436.55h-0.67v-5.39h0.67V436.55z"/>
						<path class="st0" d="M389.81,436.15l0.33-0.53c0.21,0.14,0.43,0.26,0.66,0.34c0.23,0.09,0.48,0.13,0.76,0.13
							c0.41,0,0.71-0.09,0.92-0.26s0.31-0.41,0.31-0.72c0-0.24-0.08-0.44-0.25-0.6c-0.17-0.16-0.47-0.31-0.93-0.45
							c-0.61-0.17-1.03-0.38-1.27-0.63c-0.23-0.25-0.35-0.55-0.35-0.91c0-0.44,0.16-0.8,0.48-1.08c0.32-0.28,0.76-0.42,1.31-0.42
							c0.26,0,0.52,0.03,0.77,0.1c0.25,0.07,0.5,0.18,0.76,0.34l-0.32,0.52c-0.21-0.13-0.41-0.22-0.62-0.28s-0.41-0.1-0.62-0.1
							c-0.36,0-0.64,0.08-0.83,0.23s-0.29,0.36-0.29,0.62c0,0.25,0.09,0.45,0.26,0.58s0.48,0.27,0.92,0.4
							c0.56,0.17,0.98,0.38,1.24,0.63s0.39,0.58,0.39,0.99c0,0.5-0.17,0.9-0.51,1.19c-0.34,0.29-0.8,0.43-1.38,0.43
							c-0.31,0-0.61-0.04-0.9-0.13C390.34,436.46,390.06,436.33,389.81,436.15z"/>
						<path class="st0" d="M398.83,436.55h-0.96l-2.48-2.63h-0.02v2.63h-0.67v-7.98h0.67v5.1h0.02l2.36-2.51h0.88l-2.53,2.61
							L398.83,436.55z"/>
						<path class="st0" d="M403.53,436.55h-0.67v-0.96h-0.02c-0.18,0.35-0.42,0.62-0.72,0.8c-0.3,0.19-0.64,0.29-1.02,0.29
							c-0.51,0-0.92-0.15-1.22-0.44s-0.46-0.67-0.46-1.13c0-0.46,0.15-0.84,0.46-1.13s0.78-0.49,1.43-0.58l1.55-0.22v-0.15
							c-0.01-0.48-0.13-0.84-0.34-1.07c-0.21-0.23-0.52-0.34-0.91-0.34c-0.3,0-0.58,0.05-0.85,0.16c-0.26,0.11-0.51,0.27-0.74,0.5
							l-0.4-0.42c0.29-0.28,0.6-0.49,0.93-0.62c0.33-0.13,0.7-0.2,1.1-0.2c0.62,0,1.1,0.17,1.41,0.51c0.32,0.34,0.48,0.84,0.48,1.5
							V436.55z M402.86,434.27v-0.53l-1.39,0.2c-0.49,0.07-0.84,0.19-1.05,0.36c-0.21,0.17-0.32,0.43-0.32,0.76
							c0,0.32,0.1,0.57,0.3,0.76c0.2,0.19,0.46,0.29,0.79,0.29c0.49,0,0.89-0.17,1.2-0.52S402.86,434.81,402.86,434.27z"/>
						<path class="st0" d="M412.41,434.18c0,0.74-0.22,1.34-0.66,1.81s-0.99,0.7-1.66,0.7c-0.73,0-1.29-0.3-1.7-0.89
							c-0.41-0.6-0.61-1.45-0.61-2.56c0-0.6,0.06-1.17,0.17-1.72s0.32-1.03,0.61-1.46c0.26-0.39,0.57-0.69,0.94-0.88
							c0.36-0.2,0.78-0.29,1.25-0.29c0.25,0,0.5,0.04,0.75,0.11s0.49,0.2,0.73,0.36l-0.34,0.48c-0.19-0.13-0.38-0.22-0.57-0.28
							c-0.19-0.06-0.4-0.09-0.63-0.09c-0.32,0-0.61,0.08-0.88,0.24c-0.27,0.16-0.52,0.4-0.73,0.72c-0.19,0.29-0.34,0.65-0.45,1.07
							c-0.1,0.42-0.15,0.89-0.15,1.4h0.02c0.2-0.36,0.46-0.62,0.76-0.79c0.31-0.18,0.66-0.26,1.04-0.26c0.63,0,1.14,0.22,1.53,0.66
							C412.22,432.94,412.41,433.5,412.41,434.18z M411.71,434.24c0-0.57-0.14-1.02-0.42-1.34c-0.28-0.32-0.64-0.48-1.1-0.48
							c-0.49,0-0.89,0.17-1.2,0.51c-0.31,0.34-0.46,0.73-0.46,1.16c0,0.56,0.15,1.04,0.44,1.43c0.29,0.39,0.68,0.58,1.16,0.58
							c0.46,0,0.84-0.17,1.13-0.51C411.56,435.25,411.71,434.8,411.71,434.24z"/>
						<path class="st0" d="M421.25,436.55h-0.67v-3.17c0-0.64-0.1-1.09-0.3-1.36c-0.2-0.27-0.52-0.41-0.96-0.41
							c-0.4,0-0.74,0.18-1.02,0.53c-0.29,0.35-0.43,0.78-0.43,1.29v3.12h-0.67v-3.24c0-0.56-0.11-0.99-0.32-1.27
							c-0.22-0.28-0.54-0.42-0.97-0.42c-0.41,0-0.75,0.17-1.02,0.51c-0.27,0.34-0.4,0.79-0.4,1.33v3.09h-0.67v-5.39h0.67v0.87h0.02
							c0.19-0.34,0.43-0.59,0.7-0.76c0.28-0.17,0.6-0.25,0.96-0.25c0.38,0,0.71,0.11,0.98,0.33c0.28,0.22,0.46,0.5,0.56,0.85
							c0.18-0.38,0.43-0.67,0.73-0.87s0.65-0.3,1.03-0.3c0.59,0,1.04,0.18,1.33,0.55s0.44,0.91,0.44,1.64V436.55z"/>
						<path class="st0" d="M422.38,432.96v-0.21c0-0.2,0.03-0.38,0.08-0.53c0.05-0.15,0.12-0.28,0.21-0.39
							c0.12-0.14,0.25-0.27,0.4-0.39c0.15-0.12,0.33-0.25,0.52-0.4c0.15-0.11,0.28-0.21,0.39-0.31s0.21-0.2,0.28-0.31
							c0.07-0.1,0.13-0.21,0.17-0.33s0.06-0.25,0.06-0.39c0-0.27-0.08-0.48-0.23-0.63s-0.36-0.23-0.61-0.23
							c-0.2,0-0.38,0.04-0.56,0.11c-0.17,0.07-0.34,0.18-0.49,0.34l-0.24-0.24c0.19-0.19,0.38-0.32,0.6-0.41
							c0.21-0.09,0.45-0.13,0.72-0.13c0.38,0,0.67,0.11,0.89,0.34c0.21,0.22,0.32,0.5,0.32,0.83c0,0.18-0.03,0.35-0.08,0.5
							c-0.05,0.15-0.12,0.29-0.21,0.41c-0.09,0.13-0.2,0.25-0.33,0.36c-0.13,0.11-0.27,0.22-0.42,0.34
							c-0.2,0.14-0.37,0.27-0.51,0.37c-0.13,0.11-0.24,0.21-0.33,0.3c-0.08,0.1-0.14,0.2-0.18,0.3c-0.04,0.1-0.05,0.22-0.05,0.37
							h2.19v0.36H422.38z"/>
					</g>
				</g>
			</g>
			<g>
				<rect id="L4_2_" x="348.35" y="445.49" class="st6" width="15.04" height="15.04"/>
				<g>
					<g>
						<path class="st0" d="M372.21,456.68l0.36-0.53c0.3,0.21,0.6,0.36,0.9,0.46c0.31,0.1,0.66,0.14,1.05,0.14
							c0.48,0,0.88-0.13,1.18-0.38s0.46-0.61,0.46-1.07c0-0.38-0.12-0.68-0.37-0.92s-0.66-0.46-1.22-0.65
							c-0.71-0.25-1.23-0.54-1.57-0.86s-0.5-0.74-0.5-1.24c0-0.62,0.21-1.11,0.63-1.47c0.42-0.37,0.98-0.55,1.68-0.55
							c0.31,0,0.61,0.04,0.91,0.11s0.6,0.2,0.91,0.37l-0.29,0.56c-0.26-0.14-0.52-0.25-0.77-0.31c-0.25-0.06-0.53-0.1-0.83-0.1
							c-0.46,0-0.84,0.12-1.12,0.35s-0.43,0.56-0.43,0.97c0,0.35,0.13,0.64,0.39,0.87s0.68,0.44,1.27,0.65
							c0.71,0.24,1.22,0.53,1.54,0.86s0.47,0.76,0.47,1.3c0,0.64-0.21,1.16-0.64,1.56c-0.42,0.4-1.01,0.6-1.75,0.6
							c-0.44,0-0.83-0.06-1.2-0.17C372.92,457.11,372.56,456.93,372.21,456.68z"/>
						<path class="st0" d="M380.6,457.17c-0.13,0.07-0.27,0.12-0.41,0.15s-0.3,0.05-0.47,0.05c-0.39,0-0.69-0.12-0.91-0.35
							c-0.22-0.23-0.33-0.58-0.33-1.03v-3.53h-0.95v-0.59h0.95v-1.37l0.67-0.22v1.59h1.39v0.59h-1.39v3.45
							c0,0.31,0.06,0.53,0.17,0.67c0.11,0.14,0.28,0.21,0.5,0.21c0.12,0,0.22-0.01,0.32-0.04c0.1-0.03,0.19-0.06,0.26-0.11
							L380.6,457.17z"/>
						<path class="st0" d="M383.87,457.39c-0.79,0-1.42-0.26-1.89-0.77c-0.47-0.51-0.7-1.18-0.7-2.01c0-0.9,0.24-1.6,0.73-2.11
							c0.49-0.51,1.14-0.76,1.95-0.77c0.79,0,1.4,0.25,1.85,0.75s0.67,1.19,0.67,2.07c0,0.85-0.23,1.53-0.71,2.05
							C385.31,457.13,384.68,457.39,383.87,457.39z M383.91,456.81c0.6,0,1.07-0.2,1.39-0.59c0.33-0.39,0.49-0.94,0.49-1.64
							c0-0.72-0.16-1.28-0.49-1.67c-0.33-0.39-0.79-0.58-1.38-0.58c-0.59,0-1.06,0.2-1.42,0.61c-0.35,0.4-0.53,0.96-0.53,1.67
							c0,0.67,0.17,1.21,0.52,1.6C382.85,456.61,383.32,456.81,383.91,456.81z"/>
						<path class="st0" d="M388.18,450.56c-0.15,0-0.27-0.05-0.37-0.15s-0.15-0.22-0.15-0.37c0-0.14,0.05-0.27,0.15-0.36
							s0.22-0.15,0.37-0.15c0.15,0,0.27,0.05,0.37,0.15c0.1,0.1,0.15,0.22,0.15,0.36c0,0.15-0.05,0.27-0.15,0.37
							C388.45,450.51,388.33,450.56,388.18,450.56z M388.51,457.26h-0.67v-5.39h0.67V457.26z"/>
						<path class="st0" d="M389.74,456.86l0.33-0.53c0.21,0.14,0.43,0.26,0.65,0.34c0.23,0.09,0.48,0.13,0.76,0.13
							c0.41,0,0.71-0.09,0.92-0.26s0.31-0.41,0.31-0.72c0-0.24-0.08-0.44-0.25-0.6c-0.17-0.16-0.48-0.31-0.93-0.45
							c-0.61-0.17-1.03-0.38-1.27-0.63c-0.23-0.25-0.35-0.55-0.35-0.91c0-0.44,0.16-0.8,0.48-1.08c0.32-0.28,0.76-0.42,1.3-0.42
							c0.26,0,0.52,0.03,0.77,0.1c0.25,0.07,0.5,0.18,0.76,0.34l-0.31,0.52c-0.21-0.13-0.41-0.22-0.62-0.28
							c-0.2-0.06-0.41-0.1-0.62-0.1c-0.36,0-0.64,0.08-0.83,0.23c-0.19,0.15-0.29,0.36-0.29,0.62c0,0.25,0.09,0.45,0.26,0.58
							s0.48,0.27,0.92,0.4c0.57,0.17,0.98,0.38,1.24,0.63s0.39,0.58,0.39,0.99c0,0.5-0.17,0.9-0.51,1.19
							c-0.34,0.29-0.8,0.43-1.38,0.43c-0.31,0-0.62-0.04-0.91-0.13C390.27,457.17,390,457.04,389.74,456.86z"/>
						<path class="st0" d="M398.76,457.26h-0.96l-2.48-2.63h-0.02v2.63h-0.67v-7.98h0.67v5.1h0.02l2.36-2.51h0.88l-2.53,2.61
							L398.76,457.26z"/>
						<path class="st0" d="M403.46,457.26h-0.67v-0.96h-0.02c-0.18,0.35-0.42,0.62-0.72,0.8s-0.64,0.29-1.02,0.29
							c-0.51,0-0.92-0.15-1.22-0.44c-0.31-0.29-0.46-0.67-0.46-1.13c0-0.46,0.15-0.84,0.46-1.13c0.3-0.29,0.78-0.49,1.43-0.58
							l1.55-0.22v-0.15c-0.02-0.48-0.13-0.84-0.34-1.07c-0.21-0.23-0.52-0.34-0.9-0.34c-0.3,0-0.58,0.05-0.85,0.16
							c-0.26,0.11-0.51,0.27-0.74,0.5l-0.41-0.42c0.29-0.28,0.6-0.49,0.93-0.62c0.33-0.13,0.7-0.2,1.1-0.2
							c0.63,0,1.1,0.17,1.41,0.51c0.32,0.34,0.48,0.84,0.48,1.5V457.26z M402.79,454.98v-0.53l-1.4,0.2
							c-0.49,0.07-0.84,0.19-1.05,0.36s-0.32,0.43-0.32,0.76c0,0.32,0.1,0.57,0.3,0.76s0.46,0.29,0.79,0.29
							c0.49,0,0.89-0.17,1.2-0.52S402.79,455.52,402.79,454.98z"/>
						<path class="st0" d="M411.88,449.68v5.11h0.92v0.62h-0.92v1.89h-0.69v-1.89h-3.68v-0.62c0.34-0.38,0.69-0.79,1.04-1.22
							c0.35-0.43,0.69-0.88,1.01-1.32s0.62-0.89,0.89-1.33c0.27-0.44,0.5-0.85,0.69-1.24H411.88z M408.3,454.79h2.89v-4.02
							c-0.27,0.45-0.53,0.88-0.79,1.27c-0.26,0.39-0.52,0.75-0.76,1.09c-0.25,0.33-0.49,0.64-0.71,0.91S408.49,454.57,408.3,454.79z
							"/>
						<path class="st0" d="M421.42,457.26h-0.67v-3.17c0-0.64-0.1-1.09-0.3-1.36c-0.2-0.27-0.52-0.41-0.97-0.41
							c-0.4,0-0.74,0.18-1.02,0.53c-0.28,0.35-0.43,0.78-0.43,1.29v3.12h-0.67v-3.24c0-0.56-0.11-0.99-0.32-1.27
							c-0.21-0.28-0.54-0.42-0.97-0.42c-0.41,0-0.75,0.17-1.02,0.51c-0.27,0.34-0.4,0.79-0.4,1.33v3.09h-0.67v-5.39h0.67v0.87h0.02
							c0.19-0.34,0.43-0.59,0.7-0.76c0.28-0.17,0.6-0.25,0.96-0.25c0.38,0,0.71,0.11,0.98,0.33c0.28,0.22,0.46,0.5,0.56,0.85
							c0.18-0.38,0.43-0.67,0.73-0.87s0.65-0.3,1.04-0.3c0.59,0,1.04,0.18,1.33,0.55s0.44,0.91,0.44,1.64V457.26z"/>
						<path class="st0" d="M422.55,453.67v-0.21c0-0.2,0.03-0.38,0.08-0.53c0.05-0.15,0.12-0.28,0.21-0.39
							c0.12-0.14,0.25-0.27,0.4-0.39c0.15-0.12,0.32-0.25,0.52-0.4c0.15-0.11,0.28-0.21,0.39-0.31c0.11-0.1,0.21-0.2,0.28-0.31
							c0.07-0.1,0.13-0.21,0.17-0.33s0.06-0.25,0.06-0.39c0-0.27-0.08-0.48-0.23-0.63s-0.35-0.23-0.61-0.23
							c-0.2,0-0.38,0.04-0.56,0.11c-0.17,0.07-0.34,0.18-0.49,0.34l-0.24-0.24c0.19-0.19,0.39-0.32,0.6-0.41
							c0.21-0.09,0.45-0.13,0.72-0.13c0.38,0,0.67,0.11,0.89,0.34c0.22,0.22,0.32,0.5,0.32,0.83c0,0.18-0.03,0.35-0.08,0.5
							c-0.05,0.15-0.12,0.29-0.21,0.41c-0.09,0.13-0.2,0.25-0.32,0.36c-0.13,0.11-0.27,0.22-0.42,0.34
							c-0.2,0.14-0.37,0.27-0.51,0.37s-0.25,0.21-0.33,0.3c-0.08,0.1-0.14,0.2-0.18,0.3c-0.04,0.1-0.05,0.22-0.05,0.37h2.19v0.36
							H422.55z"/>
					</g>
				</g>
			</g>
		</g>
	</g>
</g>
</svg>
