<?xml version="1.0" encoding="UTF-8" standalone="no"?>
<!-- Generator: Adobe Illustrator 23.0.1, SVG Export Plug-In . SVG Version: 6.00 Build 0)  -->

<svg
   version="1.1"
   id="Warstwa_1"
   x="0px"
   y="0px"
   viewBox="0 0 265.22 78.55"
   style="enable-background:new 0 0 265.22 78.55;"
   xml:space="preserve"
   sodipodi:docname="legend-24_new.svg"
   inkscape:version="1.1.2 (b8e25be833, 2022-02-05)"
   xmlns:inkscape="http://www.inkscape.org/namespaces/inkscape"
   xmlns:sodipodi="http://sodipodi.sourceforge.net/DTD/sodipodi-0.dtd"
   xmlns="http://www.w3.org/2000/svg"
   xmlns:svg="http://www.w3.org/2000/svg"><defs
   id="defs261" /><sodipodi:namedview
   id="namedview259"
   pagecolor="#ffffff"
   bordercolor="#cccccc"
   borderopacity="1"
   inkscape:pageshadow="0"
   inkscape:pageopacity="1"
   inkscape:pagecheckerboard="0"
   showgrid="false"
   inkscape:zoom="4.2304502"
   inkscape:cx="145.13822"
   inkscape:cy="79.778744"
   inkscape:window-width="1920"
   inkscape:window-height="992"
   inkscape:window-x="-8"
   inkscape:window-y="-8"
   inkscape:window-maximized="1"
   inkscape:current-layer="g238" />
<style
   type="text/css"
   id="style2">
	.st0{fill:#1B3B6E;}
	.st1{fill:#951B81;stroke:#020203;stroke-miterlimit:10;}
	.st2{fill:#5C83C2;stroke:#020203;stroke-miterlimit:10;}
	.st3{fill:#96BBE4;stroke:#020203;stroke-miterlimit:10;}
	.st4{fill:#EB5D2E;stroke:#020203;stroke-miterlimit:10;}
	.st5{fill:#F0812B;stroke:#020203;stroke-miterlimit:10;}
	.st6{fill:#F9C677;stroke:#020203;stroke-miterlimit:10;}
</style>
<g
   id="g244">
	<g
   id="g30">
		<path
   class="st0"
   d="M9.78,12.08H4.86V2.13h0.93v9.11h3.99V12.08z"
   id="path4"
   style="fill:#ffffff" />
		<path
   class="st0"
   d="M16.89,8.67h-5.14c0.01,0.95,0.24,1.65,0.68,2.12c0.44,0.46,1.04,0.69,1.78,0.69c0.33,0,0.67-0.05,1-0.16    c0.33-0.11,0.67-0.28,0.99-0.51l0.44,0.64c-0.39,0.28-0.79,0.48-1.2,0.61c-0.4,0.13-0.85,0.19-1.33,0.19    c-0.97,0-1.76-0.31-2.37-0.92c-0.61-0.62-0.91-1.54-0.92-2.78c0-1.09,0.3-1.99,0.9-2.69c0.6-0.7,1.38-1.05,2.33-1.05    c0.9,0,1.6,0.31,2.09,0.92c0.49,0.61,0.74,1.45,0.74,2.52V8.67z M15.97,7.91c-0.02-0.74-0.2-1.31-0.54-1.72    c-0.34-0.41-0.81-0.62-1.41-0.62c-0.61,0-1.11,0.21-1.52,0.62c-0.41,0.41-0.65,0.99-0.74,1.72H15.97z"
   id="path6"
   style="fill:#ffffff" />
		<path
   class="st0"
   d="M24.5,11.68c0,1.24-0.3,2.18-0.91,2.8c-0.61,0.63-1.47,0.94-2.58,0.94c-0.47,0-0.9-0.05-1.3-0.14    c-0.4-0.09-0.81-0.24-1.22-0.45l0.34-0.7c0.37,0.18,0.72,0.31,1.07,0.39s0.72,0.12,1.13,0.12c0.79,0,1.42-0.23,1.89-0.68    c0.47-0.45,0.7-1.16,0.7-2.12v-1h-0.03c-0.27,0.47-0.62,0.82-1.04,1.05c-0.42,0.23-0.91,0.35-1.47,0.35    c-0.88,0-1.59-0.31-2.14-0.94s-0.82-1.5-0.82-2.61c0-1.15,0.3-2.08,0.89-2.81c0.59-0.73,1.38-1.09,2.36-1.09    c0.5,0,0.93,0.1,1.3,0.31c0.37,0.21,0.67,0.51,0.91,0.92h0.03V4.97h0.89V11.68z M23.61,8.99V7.76c0-0.6-0.2-1.11-0.61-1.54    c-0.4-0.43-0.92-0.64-1.54-0.64c-0.74,0-1.33,0.27-1.77,0.8c-0.44,0.53-0.66,1.29-0.66,2.27c0,0.95,0.2,1.66,0.61,2.13    s0.95,0.71,1.63,0.71c0.7,0,1.26-0.24,1.69-0.71C23.4,10.29,23.61,9.7,23.61,8.99z"
   id="path8"
   style="fill:#ffffff" />
		<path
   class="st0"
   d="M32.35,8.67H27.2c0.01,0.95,0.24,1.65,0.68,2.12c0.44,0.46,1.04,0.69,1.78,0.69c0.33,0,0.67-0.05,1-0.16    c0.33-0.11,0.67-0.28,0.99-0.51l0.44,0.64c-0.39,0.28-0.79,0.48-1.2,0.61c-0.4,0.13-0.85,0.19-1.33,0.19    c-0.97,0-1.76-0.31-2.37-0.92c-0.61-0.62-0.91-1.54-0.92-2.78c0-1.09,0.3-1.99,0.9-2.69c0.6-0.7,1.38-1.05,2.33-1.05    c0.9,0,1.6,0.31,2.09,0.92c0.49,0.61,0.74,1.45,0.74,2.52V8.67z M31.43,7.91c-0.02-0.74-0.2-1.31-0.54-1.72    c-0.34-0.41-0.81-0.62-1.41-0.62c-0.61,0-1.11,0.21-1.52,0.62c-0.41,0.41-0.65,0.99-0.74,1.72H31.43z"
   id="path10"
   style="fill:#ffffff" />
		<path
   class="st0"
   d="M39.76,12.08h-0.89V7.99c0-0.8-0.15-1.41-0.44-1.81c-0.29-0.4-0.73-0.6-1.31-0.6c-0.63,0-1.14,0.23-1.55,0.7    s-0.61,1.05-0.61,1.74v4.07h-0.89V4.97h0.89v1.24H35c0.26-0.47,0.59-0.82,0.99-1.06c0.4-0.23,0.86-0.35,1.39-0.35    c0.77,0,1.36,0.25,1.77,0.76c0.41,0.51,0.61,1.23,0.61,2.18V12.08z"
   id="path12"
   style="fill:#ffffff" />
		<path
   class="st0"
   d="M46.86,10.83c-0.25,0.45-0.59,0.8-1.02,1.05c-0.43,0.25-0.92,0.37-1.49,0.37c-0.88,0-1.6-0.32-2.14-0.95    c-0.54-0.64-0.82-1.51-0.82-2.62c0-1.16,0.3-2.1,0.89-2.81c0.6-0.71,1.38-1.06,2.36-1.06c0.51,0,0.95,0.1,1.32,0.31    s0.66,0.51,0.89,0.93h0.03V1.56h0.89v10.52h-0.89v-1.25H46.86z M42.32,8.62c0,0.9,0.2,1.6,0.61,2.1c0.41,0.5,0.95,0.76,1.61,0.76    c0.72,0,1.29-0.24,1.71-0.72c0.42-0.48,0.63-1.07,0.63-1.79V7.79c0-0.62-0.2-1.14-0.6-1.57c-0.4-0.43-0.92-0.64-1.56-0.64    c-0.72,0-1.3,0.27-1.75,0.81C42.54,6.92,42.32,7.67,42.32,8.62z"
   id="path14"
   style="fill:#ffffff" />
		<path
   class="st0"
   d="M55.02,12.08h-0.89v-1.27H54.1c-0.24,0.46-0.55,0.81-0.95,1.06s-0.85,0.38-1.35,0.38    c-0.67,0-1.21-0.19-1.61-0.58c-0.4-0.38-0.6-0.88-0.6-1.49c0-0.61,0.2-1.1,0.6-1.49c0.4-0.39,1.03-0.65,1.89-0.77l2.05-0.29V7.43    c-0.02-0.64-0.17-1.11-0.45-1.41S53,5.57,52.49,5.57c-0.4,0-0.77,0.07-1.12,0.21c-0.35,0.14-0.67,0.36-0.98,0.66l-0.53-0.56    c0.38-0.37,0.79-0.64,1.22-0.82S52,4.8,52.53,4.8c0.82,0,1.44,0.22,1.86,0.67c0.42,0.45,0.63,1.11,0.63,1.98V12.08z M54.13,9.07    v-0.7l-1.84,0.26c-0.64,0.09-1.1,0.25-1.38,0.48c-0.28,0.23-0.42,0.56-0.42,1.01c0,0.42,0.13,0.76,0.4,1.01    c0.26,0.25,0.61,0.37,1.04,0.37c0.65,0,1.18-0.23,1.58-0.68C53.93,10.36,54.13,9.78,54.13,9.07z"
   id="path16"
   style="fill:#ffffff" />
		<path
   class="st0"
   d="M60.4,11.55l0.43-0.7c0.27,0.19,0.56,0.34,0.86,0.45c0.3,0.12,0.63,0.17,1,0.17c0.54,0,0.94-0.11,1.21-0.34    c0.27-0.23,0.41-0.54,0.41-0.95c0-0.31-0.11-0.57-0.33-0.79c-0.22-0.21-0.63-0.41-1.22-0.59c-0.8-0.23-1.36-0.5-1.67-0.83    s-0.46-0.73-0.46-1.2c0-0.58,0.21-1.06,0.64-1.43c0.43-0.37,1-0.55,1.72-0.55c0.35,0,0.69,0.04,1.02,0.13    c0.33,0.09,0.67,0.24,1,0.45l-0.42,0.69c-0.27-0.17-0.54-0.29-0.81-0.38c-0.27-0.08-0.54-0.12-0.82-0.12c-0.48,0-0.84,0.1-1.1,0.3    c-0.25,0.2-0.38,0.47-0.38,0.81c0,0.33,0.11,0.59,0.34,0.77s0.63,0.36,1.21,0.53c0.75,0.23,1.29,0.5,1.63,0.83    c0.34,0.32,0.51,0.76,0.51,1.3c0,0.66-0.22,1.18-0.67,1.56c-0.44,0.38-1.05,0.57-1.82,0.57c-0.41,0-0.81-0.06-1.19-0.17    C61.1,11.96,60.74,11.78,60.4,11.55z"
   id="path18"
   style="fill:#ffffff" />
		<path
   class="st0"
   d="M69.97,11.96c-0.18,0.09-0.36,0.15-0.54,0.2c-0.18,0.04-0.39,0.07-0.62,0.07c-0.51,0-0.91-0.15-1.2-0.46    s-0.43-0.76-0.43-1.36V5.75h-1.25V4.97h1.25v-1.8l0.89-0.29v2.09h1.83v0.78h-1.83v4.55c0,0.41,0.08,0.7,0.23,0.88    s0.37,0.27,0.66,0.27c0.15,0,0.29-0.02,0.42-0.06c0.13-0.04,0.25-0.08,0.35-0.14L69.97,11.96z"
   id="path20"
   style="fill:#ffffff" />
		<path
   class="st0"
   d="M74.27,12.25c-1.05,0-1.88-0.34-2.49-1.01s-0.92-1.56-0.92-2.65c0-1.18,0.32-2.11,0.96-2.78    c0.64-0.67,1.5-1,2.57-1.01c1.04,0,1.85,0.33,2.44,0.99c0.59,0.66,0.89,1.57,0.89,2.73c0,1.12-0.31,2.02-0.93,2.7    C76.17,11.91,75.33,12.25,74.27,12.25z M74.32,11.48c0.8,0,1.41-0.26,1.84-0.77c0.43-0.52,0.65-1.24,0.65-2.17    c0-0.95-0.21-1.68-0.65-2.2c-0.43-0.51-1.04-0.77-1.83-0.77c-0.78,0-1.4,0.27-1.87,0.8c-0.46,0.53-0.69,1.27-0.69,2.21    c0,0.88,0.23,1.59,0.69,2.11C72.92,11.21,73.54,11.48,74.32,11.48z"
   id="path22"
   style="fill:#ffffff" />
		<path
   class="st0"
   d="M79.95,3.24c-0.19,0-0.36-0.07-0.49-0.2s-0.2-0.29-0.2-0.49c0-0.19,0.07-0.35,0.2-0.48    c0.13-0.13,0.29-0.19,0.49-0.19s0.36,0.06,0.49,0.19c0.13,0.13,0.2,0.29,0.2,0.48c0,0.19-0.07,0.36-0.2,0.49    C80.31,3.17,80.14,3.24,79.95,3.24z M80.39,12.08H79.5V4.97h0.89V12.08z"
   id="path24"
   style="fill:#ffffff" />
		<path
   class="st0"
   d="M82.01,11.55l0.43-0.7c0.27,0.19,0.56,0.34,0.86,0.45c0.3,0.12,0.63,0.17,1,0.17c0.54,0,0.94-0.11,1.21-0.34    s0.41-0.54,0.41-0.95c0-0.31-0.11-0.57-0.33-0.79s-0.63-0.41-1.22-0.59c-0.8-0.23-1.36-0.5-1.67-0.83s-0.46-0.73-0.46-1.2    c0-0.58,0.21-1.06,0.64-1.43c0.43-0.37,1-0.55,1.72-0.55c0.35,0,0.69,0.04,1.02,0.13s0.67,0.24,1,0.45L86.2,6.07    c-0.27-0.17-0.54-0.29-0.81-0.38c-0.27-0.08-0.54-0.12-0.82-0.12c-0.48,0-0.84,0.1-1.1,0.3c-0.25,0.2-0.38,0.47-0.38,0.81    c0,0.33,0.11,0.59,0.34,0.77s0.63,0.36,1.21,0.53c0.75,0.23,1.29,0.5,1.63,0.83c0.34,0.32,0.51,0.76,0.51,1.3    c0,0.66-0.22,1.18-0.67,1.56c-0.44,0.38-1.05,0.57-1.82,0.57c-0.41,0-0.81-0.06-1.19-0.17C82.71,11.96,82.35,11.78,82.01,11.55z"
   id="path26"
   style="fill:#ffffff" />
		<path
   class="st0"
   d="M93.9,12.08h-1.26l-3.27-3.46h-0.03v3.46h-0.89V1.56h0.89v6.72h0.03l3.11-3.31h1.16L90.3,8.41L93.9,12.08z"
   id="path28"
   style="fill:#ffffff" />
	</g>
	<g
   id="g242">
		<g
   id="g73">
			<rect
   id="L4_15_"
   x="5.75"
   y="21.58"
   class="st1"
   width="15.04"
   height="15.04"
   style="stroke:#ffffff;stroke-opacity:1" />
			<g
   id="g71"
   style="fill:#ffffff">
				<path
   class="st0"
   d="M30.69,32.77l0.36-0.53c0.3,0.21,0.6,0.36,0.91,0.46c0.31,0.09,0.66,0.14,1.05,0.14      c0.48,0,0.88-0.13,1.18-0.38c0.31-0.26,0.46-0.61,0.46-1.07c0-0.38-0.12-0.68-0.37-0.92c-0.25-0.24-0.66-0.46-1.22-0.65      c-0.71-0.25-1.23-0.54-1.57-0.86c-0.33-0.32-0.5-0.74-0.5-1.24c0-0.61,0.21-1.11,0.63-1.47c0.42-0.37,0.98-0.55,1.68-0.55      c0.31,0,0.61,0.04,0.91,0.11c0.3,0.08,0.6,0.2,0.91,0.37l-0.29,0.56c-0.26-0.14-0.52-0.25-0.77-0.31      c-0.25-0.06-0.53-0.09-0.83-0.09c-0.46,0-0.84,0.12-1.12,0.35c-0.29,0.24-0.43,0.56-0.43,0.97c0,0.35,0.13,0.65,0.39,0.87      c0.26,0.23,0.68,0.44,1.27,0.65c0.71,0.25,1.23,0.53,1.54,0.86s0.47,0.76,0.47,1.3c0,0.64-0.21,1.16-0.64,1.56      s-1.01,0.6-1.75,0.6c-0.43,0-0.83-0.06-1.2-0.17C31.4,33.2,31.05,33.02,30.69,32.77z"
   id="path33"
   style="fill:#ffffff" />
				<path
   class="st0"
   d="M37.41,32.49h-0.02v3.35h-0.67v-7.87h0.67V29h0.02c0.2-0.38,0.47-0.66,0.81-0.86      c0.33-0.2,0.71-0.3,1.13-0.3c0.69,0,1.23,0.24,1.61,0.72s0.58,1.12,0.58,1.93c0,0.9-0.22,1.63-0.66,2.18      c-0.44,0.55-1.03,0.82-1.77,0.82c-0.38,0-0.71-0.08-1-0.25S37.6,32.82,37.41,32.49z M37.39,30.4v0.72      c0,0.49,0.16,0.91,0.47,1.26c0.31,0.35,0.72,0.52,1.22,0.52c0.54,0,0.97-0.22,1.29-0.65c0.32-0.44,0.48-1.02,0.48-1.76      c0-0.64-0.15-1.14-0.44-1.51c-0.3-0.37-0.7-0.55-1.2-0.55c-0.57,0-1.01,0.19-1.33,0.58C37.55,29.39,37.39,29.85,37.39,30.4z"
   id="path35"
   style="fill:#ffffff" />
				<path
   class="st0"
   d="M45.11,33.48c-0.79,0-1.42-0.25-1.89-0.77c-0.47-0.51-0.7-1.18-0.7-2.01c0-0.9,0.24-1.6,0.73-2.11      s1.14-0.76,1.95-0.77c0.79,0,1.4,0.25,1.85,0.75s0.67,1.19,0.67,2.07c0,0.85-0.23,1.53-0.71,2.05      C46.55,33.23,45.92,33.48,45.11,33.48z M45.15,32.9c0.6,0,1.07-0.2,1.4-0.59c0.33-0.39,0.49-0.94,0.49-1.64      c0-0.72-0.16-1.28-0.49-1.67c-0.33-0.39-0.79-0.58-1.38-0.58c-0.59,0-1.07,0.2-1.42,0.61s-0.53,0.96-0.53,1.67      c0,0.67,0.17,1.21,0.52,1.6C44.09,32.7,44.56,32.9,45.15,32.9z"
   id="path37"
   style="fill:#ffffff" />
				<path
   class="st0"
   d="M53.39,33.36h-0.67v-3.11c0-0.61-0.11-1.07-0.33-1.37c-0.22-0.31-0.55-0.46-1-0.46      c-0.47,0-0.87,0.18-1.17,0.53s-0.46,0.79-0.46,1.32v3.08h-0.67v-5.39h0.67v0.94h0.02c0.2-0.36,0.45-0.63,0.75-0.8      c0.3-0.18,0.65-0.27,1.05-0.27c0.59,0,1.03,0.19,1.34,0.58c0.31,0.38,0.47,0.94,0.47,1.66V33.36z"
   id="path39"
   style="fill:#ffffff" />
				<path
   class="st0"
   d="M54.5,32.96l0.33-0.53c0.21,0.14,0.43,0.25,0.66,0.34c0.23,0.09,0.48,0.13,0.76,0.13      c0.41,0,0.71-0.09,0.92-0.26s0.31-0.41,0.31-0.72c0-0.24-0.08-0.43-0.25-0.6c-0.17-0.16-0.48-0.31-0.93-0.45      c-0.61-0.17-1.03-0.38-1.27-0.63c-0.23-0.25-0.35-0.55-0.35-0.91c0-0.44,0.16-0.8,0.48-1.08c0.32-0.28,0.76-0.42,1.31-0.42      c0.26,0,0.52,0.03,0.77,0.1c0.25,0.07,0.5,0.18,0.76,0.34l-0.32,0.52c-0.21-0.13-0.41-0.22-0.62-0.28      c-0.2-0.06-0.41-0.09-0.62-0.09c-0.36,0-0.64,0.08-0.83,0.23c-0.19,0.15-0.29,0.36-0.29,0.62c0,0.25,0.09,0.45,0.26,0.58      s0.48,0.27,0.92,0.4c0.57,0.17,0.98,0.38,1.24,0.63c0.26,0.25,0.39,0.58,0.39,0.99c0,0.5-0.17,0.9-0.51,1.19      c-0.34,0.29-0.8,0.43-1.38,0.43c-0.31,0-0.61-0.04-0.91-0.13C55.03,33.27,54.76,33.13,54.5,32.96z"
   id="path41"
   style="fill:#ffffff" />
				<path
   class="st0"
   d="M61.61,33.48c-0.79,0-1.42-0.25-1.89-0.77c-0.47-0.51-0.7-1.18-0.7-2.01c0-0.9,0.24-1.6,0.73-2.11      s1.14-0.76,1.95-0.77c0.79,0,1.4,0.25,1.85,0.75s0.67,1.19,0.67,2.07c0,0.85-0.23,1.53-0.71,2.05      C63.05,33.23,62.41,33.48,61.61,33.48z M61.64,32.9c0.6,0,1.07-0.2,1.4-0.59c0.33-0.39,0.49-0.94,0.49-1.64      c0-0.72-0.16-1.28-0.49-1.67c-0.33-0.39-0.79-0.58-1.38-0.58c-0.59,0-1.07,0.2-1.42,0.61s-0.53,0.96-0.53,1.67      c0,0.67,0.17,1.21,0.52,1.6C60.58,32.7,61.05,32.9,61.64,32.9z"
   id="path43"
   style="fill:#ffffff" />
				<path
   class="st0"
   d="M68.14,28.55c-0.08-0.03-0.15-0.05-0.21-0.06c-0.07-0.01-0.14-0.02-0.22-0.02c-0.45,0-0.81,0.21-1.07,0.62      c-0.27,0.41-0.4,0.95-0.4,1.62v2.64h-0.67v-5.39h0.67v1.13h0.02c0.12-0.39,0.32-0.7,0.58-0.91c0.26-0.21,0.57-0.32,0.93-0.32      c0.09,0,0.18,0,0.25,0.02c0.08,0.01,0.16,0.03,0.23,0.05L68.14,28.55z"
   id="path45"
   style="fill:#ffffff" />
				<path
   class="st0"
   d="M76.64,33.05c0,0.94-0.23,1.65-0.69,2.13c-0.46,0.47-1.11,0.71-1.96,0.71c-0.35,0-0.68-0.04-0.99-0.11      s-0.61-0.18-0.93-0.34l0.26-0.53c0.28,0.14,0.55,0.24,0.81,0.3c0.26,0.06,0.55,0.09,0.86,0.09c0.6,0,1.08-0.17,1.43-0.51      c0.36-0.34,0.53-0.88,0.53-1.61v-0.76h-0.02c-0.21,0.35-0.47,0.62-0.79,0.8c-0.32,0.18-0.69,0.27-1.11,0.27      c-0.67,0-1.21-0.24-1.62-0.71s-0.62-1.13-0.62-1.98c0-0.87,0.23-1.58,0.68-2.13c0.45-0.55,1.05-0.83,1.79-0.83      c0.38,0,0.71,0.08,0.99,0.23c0.28,0.16,0.51,0.39,0.69,0.7h0.02v-0.8h0.67V33.05z M75.96,31.01v-0.93      c0-0.45-0.15-0.84-0.46-1.17c-0.31-0.33-0.7-0.49-1.17-0.49c-0.57,0-1.01,0.2-1.35,0.61c-0.33,0.41-0.5,0.98-0.5,1.72      c0,0.72,0.15,1.26,0.46,1.62c0.31,0.36,0.72,0.54,1.24,0.54c0.53,0,0.96-0.18,1.28-0.54C75.8,32,75.96,31.55,75.96,31.01z"
   id="path47"
   style="fill:#ffffff" />
				<path
   class="st0"
   d="M79.22,33.36h-0.67v-3.18l-0.72,0.54l-0.31-0.45l1.03-0.75v-4.13h0.67v3.65l0.75-0.55l0.3,0.45l-1.05,0.77      V33.36z"
   id="path49"
   style="fill:#ffffff" />
				<path
   class="st0"
   d="M83.38,33.48c-0.79,0-1.42-0.25-1.89-0.77c-0.47-0.51-0.7-1.18-0.7-2.01c0-0.9,0.24-1.6,0.73-2.11      s1.14-0.76,1.95-0.77c0.79,0,1.4,0.25,1.85,0.75s0.67,1.19,0.67,2.07c0,0.85-0.23,1.53-0.71,2.05      C84.82,33.23,84.18,33.48,83.38,33.48z M83.41,32.9c0.6,0,1.07-0.2,1.4-0.59c0.33-0.39,0.49-0.94,0.49-1.64      c0-0.72-0.16-1.28-0.49-1.67c-0.33-0.39-0.79-0.58-1.38-0.58c-0.59,0-1.07,0.2-1.42,0.61s-0.53,0.96-0.53,1.67      c0,0.67,0.17,1.21,0.52,1.6C82.35,32.7,82.82,32.9,83.41,32.9z M83.39,26.95h-0.57l1.21-1.73h0.71L83.39,26.95z"
   id="path51"
   style="fill:#ffffff" />
				<path
   class="st0"
   d="M93.86,27.97l-1.64,5.39h-0.67l-1.15-3.97c-0.02-0.08-0.04-0.15-0.05-0.22s-0.02-0.15-0.03-0.25h-0.03      c0,0.06-0.01,0.13-0.03,0.2s-0.04,0.16-0.07,0.26l-1.26,3.97h-0.66l-1.63-5.39h0.72l1.18,4.17c0.02,0.06,0.03,0.13,0.04,0.21      s0.02,0.17,0.03,0.26h0.04c0-0.06,0.01-0.13,0.03-0.21c0.02-0.08,0.04-0.17,0.07-0.26l1.31-4.17h0.56l1.17,4.18      c0.01,0.06,0.03,0.13,0.04,0.21c0.01,0.08,0.02,0.16,0.03,0.26h0.04c0-0.06,0.01-0.13,0.03-0.21c0.01-0.08,0.04-0.17,0.06-0.26      l1.19-4.18H93.86z"
   id="path53"
   style="fill:#ffffff" />
				<path
   class="st0"
   d="M99.2,33.36h-0.67v-3.11c0-0.61-0.11-1.07-0.33-1.37c-0.22-0.31-0.55-0.46-1-0.46      c-0.47,0-0.87,0.18-1.17,0.53s-0.46,0.79-0.46,1.32v3.08h-0.67v-5.39h0.67v0.94h0.02c0.2-0.36,0.45-0.63,0.75-0.8      c0.3-0.18,0.65-0.27,1.05-0.27c0.59,0,1.03,0.19,1.34,0.58c0.31,0.38,0.47,0.94,0.47,1.66V33.36z"
   id="path55"
   style="fill:#ffffff" />
				<path
   class="st0"
   d="M104.94,27.97l-2.65,6.61c-0.16,0.39-0.37,0.7-0.64,0.95c-0.27,0.24-0.59,0.37-0.97,0.37      c-0.1,0-0.19-0.01-0.28-0.02c-0.09-0.01-0.17-0.03-0.25-0.05l0.15-0.61c0.06,0.02,0.12,0.04,0.17,0.05      c0.06,0.01,0.12,0.02,0.18,0.02c0.22,0,0.41-0.07,0.57-0.2c0.16-0.13,0.29-0.31,0.38-0.54l0.51-1.21l-2.07-5.36h0.75l1.54,4.27      c0.02,0.06,0.04,0.12,0.06,0.18c0.02,0.06,0.04,0.14,0.06,0.22h0.03c0.01-0.05,0.03-0.11,0.05-0.17s0.04-0.13,0.07-0.21      l1.63-4.29H104.94z"
   id="path57"
   style="fill:#ffffff" />
				<path
   class="st0"
   d="M110.97,35.07h-0.64c-0.54-0.62-0.94-1.31-1.21-2.08s-0.4-1.6-0.4-2.51c0-0.93,0.13-1.78,0.41-2.56      c0.27-0.78,0.68-1.48,1.22-2.11h0.65c-0.55,0.65-0.96,1.36-1.24,2.14s-0.41,1.62-0.41,2.52c0,0.87,0.14,1.69,0.41,2.46      C110.01,33.7,110.42,34.42,110.97,35.07z"
   id="path59"
   style="fill:#ffffff" />
				<path
   class="st0"
   d="M113.85,33.36h-0.67v-6.68c-0.18,0.16-0.43,0.32-0.74,0.48c-0.31,0.16-0.63,0.29-0.93,0.39l-0.19-0.59      c0.41-0.13,0.82-0.31,1.23-0.54c0.41-0.23,0.77-0.49,1.07-0.77h0.25V33.36z"
   id="path61"
   style="fill:#ffffff" />
				<path
   class="st0"
   d="M115.78,33.36V33c0-0.34,0.04-0.65,0.13-0.91s0.21-0.48,0.36-0.67c0.2-0.25,0.43-0.47,0.69-0.68      c0.26-0.21,0.56-0.43,0.9-0.69c0.25-0.18,0.47-0.35,0.67-0.52c0.19-0.17,0.35-0.35,0.48-0.53c0.12-0.17,0.22-0.36,0.29-0.56      s0.11-0.43,0.11-0.68c0-0.46-0.13-0.82-0.39-1.09c-0.26-0.27-0.61-0.4-1.04-0.4c-0.34,0-0.66,0.06-0.96,0.19      c-0.3,0.13-0.58,0.32-0.84,0.58l-0.42-0.41c0.32-0.32,0.66-0.56,1.03-0.71c0.37-0.15,0.78-0.23,1.23-0.23      c0.65,0,1.15,0.19,1.52,0.57c0.37,0.38,0.55,0.86,0.55,1.42c0,0.31-0.04,0.6-0.13,0.86c-0.09,0.26-0.21,0.5-0.36,0.71      c-0.16,0.22-0.34,0.42-0.56,0.62c-0.22,0.19-0.46,0.39-0.73,0.58c-0.35,0.25-0.64,0.46-0.87,0.64s-0.42,0.35-0.56,0.52      c-0.14,0.17-0.24,0.34-0.3,0.51s-0.09,0.38-0.09,0.63h3.76v0.61H115.78z"
   id="path63"
   style="fill:#ffffff" />
				<path
   class="st0"
   d="M129.13,33.36h-0.67v-3.17c0-0.64-0.1-1.09-0.3-1.36c-0.2-0.27-0.52-0.41-0.97-0.41      c-0.4,0-0.74,0.18-1.02,0.53c-0.28,0.35-0.43,0.78-0.43,1.29v3.12h-0.67v-3.24c0-0.57-0.11-0.99-0.32-1.27s-0.54-0.42-0.97-0.42      c-0.41,0-0.75,0.17-1.02,0.51c-0.27,0.34-0.4,0.79-0.4,1.33v3.09h-0.67v-5.39h0.67v0.87h0.02c0.19-0.34,0.43-0.59,0.7-0.75      s0.6-0.25,0.96-0.25c0.38,0,0.71,0.11,0.98,0.33s0.46,0.5,0.56,0.85c0.18-0.38,0.43-0.67,0.73-0.87c0.31-0.2,0.65-0.3,1.03-0.3      c0.59,0,1.04,0.18,1.33,0.55c0.29,0.37,0.44,0.92,0.44,1.65V33.36z"
   id="path65"
   style="fill:#ffffff" />
				<path
   class="st0"
   d="M130.26,29.77v-0.21c0-0.2,0.03-0.38,0.08-0.53c0.05-0.15,0.12-0.28,0.21-0.39      c0.12-0.14,0.25-0.27,0.4-0.39c0.15-0.12,0.33-0.25,0.52-0.4c0.15-0.1,0.28-0.21,0.39-0.31c0.11-0.1,0.21-0.2,0.28-0.31      c0.07-0.1,0.13-0.21,0.17-0.33s0.06-0.25,0.06-0.4c0-0.27-0.08-0.48-0.23-0.63c-0.15-0.16-0.35-0.24-0.61-0.24      c-0.2,0-0.38,0.04-0.56,0.11c-0.17,0.07-0.34,0.18-0.49,0.34l-0.24-0.24c0.19-0.19,0.39-0.32,0.6-0.41s0.45-0.13,0.72-0.13      c0.38,0,0.67,0.11,0.89,0.33s0.32,0.5,0.32,0.83c0,0.18-0.03,0.35-0.08,0.5c-0.05,0.15-0.12,0.29-0.21,0.41      c-0.09,0.13-0.2,0.25-0.33,0.36c-0.13,0.11-0.27,0.22-0.42,0.34c-0.2,0.14-0.37,0.27-0.51,0.37c-0.14,0.11-0.25,0.21-0.33,0.3      c-0.08,0.1-0.14,0.2-0.18,0.3c-0.04,0.1-0.05,0.22-0.05,0.37h2.19v0.36H130.26z"
   id="path67"
   style="fill:#ffffff" />
				<path
   class="st0"
   d="M133.96,35.07h-0.64c0.54-0.66,0.95-1.37,1.22-2.14c0.27-0.77,0.41-1.59,0.41-2.46      c0-0.91-0.14-1.75-0.41-2.52s-0.69-1.49-1.23-2.14h0.65c0.54,0.63,0.95,1.33,1.22,2.11c0.27,0.78,0.41,1.63,0.41,2.56      c0,0.91-0.13,1.75-0.41,2.51C134.91,33.76,134.5,34.45,133.96,35.07z"
   id="path69"
   style="fill:#ffffff" />
			</g>
		</g>
		<g
   id="g106">
			<rect
   id="L4_18_"
   x="5.75"
   y="42.29"
   class="st2"
   width="15.04"
   height="15.04"
   style="stroke:#ffffff" />
			<g
   id="g104"
   style="fill:#ffffff">
				<path
   class="st0"
   d="M30.69,53.48l0.36-0.53c0.3,0.21,0.6,0.36,0.91,0.46c0.31,0.09,0.66,0.14,1.05,0.14      c0.48,0,0.88-0.13,1.18-0.38c0.31-0.26,0.46-0.62,0.46-1.07c0-0.38-0.12-0.68-0.37-0.92c-0.25-0.24-0.66-0.46-1.22-0.65      c-0.71-0.25-1.23-0.54-1.57-0.86c-0.33-0.32-0.5-0.74-0.5-1.24c0-0.61,0.21-1.11,0.63-1.47c0.42-0.37,0.98-0.55,1.68-0.55      c0.31,0,0.61,0.04,0.91,0.11c0.3,0.08,0.6,0.2,0.91,0.37l-0.29,0.56c-0.26-0.14-0.52-0.25-0.77-0.31      c-0.25-0.06-0.53-0.09-0.83-0.09c-0.46,0-0.84,0.12-1.12,0.35c-0.29,0.24-0.43,0.56-0.43,0.97c0,0.36,0.13,0.65,0.39,0.88      c0.26,0.23,0.68,0.44,1.27,0.65c0.71,0.25,1.23,0.53,1.54,0.86s0.47,0.76,0.47,1.3c0,0.64-0.21,1.16-0.64,1.56      s-1.01,0.6-1.75,0.6c-0.43,0-0.83-0.06-1.2-0.17C31.4,53.91,31.05,53.73,30.69,53.48z"
   id="path76"
   style="fill:#ffffff" />
				<path
   class="st0"
   d="M37.41,53.2h-0.02v3.35h-0.67v-7.87h0.67v1.03h0.02c0.2-0.38,0.47-0.66,0.81-0.86      c0.33-0.2,0.71-0.3,1.13-0.3c0.69,0,1.23,0.24,1.61,0.71c0.39,0.48,0.58,1.12,0.58,1.93c0,0.9-0.22,1.63-0.66,2.18      c-0.44,0.55-1.03,0.82-1.77,0.82c-0.38,0-0.71-0.08-1-0.25C37.84,53.78,37.6,53.53,37.41,53.2z M37.39,51.11v0.72      c0,0.49,0.16,0.91,0.47,1.26s0.72,0.52,1.22,0.52c0.54,0,0.97-0.22,1.29-0.65s0.48-1.02,0.48-1.76c0-0.64-0.15-1.14-0.44-1.51      c-0.3-0.37-0.7-0.55-1.2-0.55c-0.57,0-1.01,0.19-1.33,0.58C37.55,50.1,37.39,50.56,37.39,51.11z"
   id="path78"
   style="fill:#ffffff" />
				<path
   class="st0"
   d="M45.11,54.19c-0.79,0-1.42-0.25-1.89-0.77c-0.47-0.51-0.7-1.18-0.7-2.01c0-0.9,0.24-1.6,0.73-2.11      c0.49-0.51,1.14-0.76,1.95-0.77c0.79,0,1.4,0.25,1.85,0.75s0.67,1.19,0.67,2.07c0,0.85-0.23,1.53-0.71,2.05      C46.55,53.94,45.92,54.19,45.11,54.19z M45.15,53.61c0.6,0,1.07-0.2,1.4-0.59c0.33-0.39,0.49-0.94,0.49-1.64      c0-0.72-0.16-1.28-0.49-1.67c-0.33-0.39-0.79-0.58-1.38-0.58c-0.59,0-1.07,0.2-1.42,0.61c-0.35,0.4-0.53,0.96-0.53,1.67      c0,0.67,0.17,1.21,0.52,1.6C44.09,53.41,44.56,53.61,45.15,53.61z"
   id="path80"
   style="fill:#ffffff" />
				<path
   class="st0"
   d="M53.39,54.07h-0.67v-3.11c0-0.61-0.11-1.07-0.33-1.38c-0.22-0.3-0.55-0.46-1-0.46      c-0.47,0-0.87,0.18-1.17,0.53c-0.31,0.35-0.46,0.79-0.46,1.32v3.09h-0.67v-5.39h0.67v0.94h0.02c0.2-0.36,0.45-0.63,0.75-0.8      s0.65-0.27,1.05-0.27c0.59,0,1.03,0.19,1.34,0.58s0.47,0.94,0.47,1.65V54.07z"
   id="path82"
   style="fill:#ffffff" />
				<path
   class="st0"
   d="M54.5,53.67l0.33-0.53c0.21,0.14,0.43,0.25,0.66,0.34s0.48,0.13,0.76,0.13c0.41,0,0.71-0.09,0.92-0.26      s0.31-0.41,0.31-0.72c0-0.23-0.08-0.43-0.25-0.6c-0.17-0.16-0.48-0.31-0.93-0.45c-0.61-0.17-1.03-0.38-1.27-0.63      s-0.35-0.55-0.35-0.91c0-0.44,0.16-0.8,0.48-1.08c0.32-0.28,0.76-0.42,1.31-0.42c0.26,0,0.52,0.03,0.77,0.1      c0.25,0.07,0.5,0.18,0.76,0.34l-0.32,0.52c-0.21-0.13-0.41-0.22-0.62-0.29c-0.2-0.06-0.41-0.09-0.62-0.09      c-0.36,0-0.64,0.07-0.83,0.23c-0.19,0.15-0.29,0.36-0.29,0.62c0,0.25,0.09,0.45,0.26,0.58s0.48,0.27,0.92,0.4      c0.57,0.17,0.98,0.38,1.24,0.63c0.26,0.24,0.39,0.57,0.39,0.99c0,0.5-0.17,0.9-0.51,1.19s-0.8,0.43-1.38,0.43      c-0.31,0-0.61-0.04-0.91-0.13C55.03,53.98,54.76,53.84,54.5,53.67z"
   id="path84"
   style="fill:#ffffff" />
				<path
   class="st0"
   d="M61.61,54.19c-0.79,0-1.42-0.25-1.89-0.77c-0.47-0.51-0.7-1.18-0.7-2.01c0-0.9,0.24-1.6,0.73-2.11      c0.49-0.51,1.14-0.76,1.95-0.77c0.79,0,1.4,0.25,1.85,0.75s0.67,1.19,0.67,2.07c0,0.85-0.23,1.53-0.71,2.05      C63.05,53.94,62.41,54.19,61.61,54.19z M61.64,53.61c0.6,0,1.07-0.2,1.4-0.59c0.33-0.39,0.49-0.94,0.49-1.64      c0-0.72-0.16-1.28-0.49-1.67c-0.33-0.39-0.79-0.58-1.38-0.58c-0.59,0-1.07,0.2-1.42,0.61c-0.35,0.4-0.53,0.96-0.53,1.67      c0,0.67,0.17,1.21,0.52,1.6C60.58,53.41,61.05,53.61,61.64,53.61z"
   id="path86"
   style="fill:#ffffff" />
				<path
   class="st0"
   d="M68.14,49.26c-0.08-0.03-0.15-0.05-0.21-0.06c-0.07-0.01-0.14-0.02-0.22-0.02c-0.45,0-0.81,0.21-1.07,0.62      c-0.27,0.41-0.4,0.95-0.4,1.62v2.64h-0.67v-5.39h0.67v1.13h0.02c0.12-0.39,0.32-0.7,0.58-0.91c0.26-0.21,0.57-0.32,0.93-0.32      c0.09,0,0.18,0,0.25,0.02c0.08,0.01,0.16,0.03,0.23,0.05L68.14,49.26z"
   id="path88"
   style="fill:#ffffff" />
				<path
   class="st0"
   d="M73.02,48.87l-3.4,4.61h3.32v0.59h-4.35v-0.23l3.38-4.57h-3.11v-0.59h4.15V48.87z"
   id="path90"
   style="fill:#ffffff" />
				<path
   class="st0"
   d="M78.28,48.68l-2.65,6.61c-0.16,0.39-0.37,0.7-0.64,0.95c-0.27,0.24-0.59,0.37-0.97,0.37      c-0.1,0-0.19-0.01-0.28-0.02c-0.09-0.01-0.17-0.03-0.25-0.05l0.15-0.61c0.06,0.02,0.12,0.04,0.17,0.05      c0.06,0.01,0.12,0.02,0.18,0.02c0.22,0,0.41-0.07,0.57-0.2c0.16-0.13,0.29-0.31,0.38-0.54l0.51-1.21l-2.07-5.36h0.75l1.54,4.27      c0.02,0.05,0.04,0.12,0.06,0.18c0.02,0.06,0.04,0.14,0.06,0.22h0.03c0.01-0.05,0.03-0.11,0.05-0.17      c0.02-0.06,0.04-0.13,0.07-0.21l1.63-4.29H78.28z"
   id="path92"
   style="fill:#ffffff" />
				<path
   class="st0"
   d="M84.31,55.78h-0.64c-0.54-0.62-0.94-1.31-1.21-2.08c-0.27-0.77-0.4-1.6-0.4-2.51      c0-0.93,0.13-1.78,0.41-2.56c0.27-0.78,0.68-1.48,1.22-2.11h0.65c-0.55,0.65-0.96,1.36-1.24,2.14s-0.41,1.62-0.41,2.52      c0,0.87,0.14,1.69,0.41,2.46C83.36,54.41,83.76,55.13,84.31,55.78z"
   id="path94"
   style="fill:#ffffff" />
				<path
   class="st0"
   d="M84.95,51.96c0-0.4,0.12-0.79,0.35-1.16c0.24-0.37,0.59-0.64,1.05-0.81c-0.34-0.18-0.61-0.41-0.82-0.7      c-0.2-0.29-0.31-0.62-0.31-0.98c0-0.55,0.2-1.01,0.59-1.38c0.39-0.37,0.88-0.55,1.46-0.55c0.59,0,1.08,0.19,1.47,0.55      c0.39,0.37,0.58,0.83,0.58,1.38c0,0.36-0.1,0.68-0.3,0.98c-0.2,0.29-0.46,0.53-0.79,0.7c0.45,0.17,0.79,0.44,1.03,0.81      c0.23,0.37,0.35,0.76,0.35,1.14c0,0.68-0.21,1.22-0.64,1.62c-0.43,0.41-0.99,0.61-1.69,0.61c-0.68,0-1.24-0.2-1.68-0.6      C85.17,53.19,84.95,52.65,84.95,51.96z M85.67,51.94c0,0.51,0.15,0.92,0.45,1.21s0.69,0.44,1.16,0.44      c0.47,0,0.86-0.15,1.16-0.45c0.3-0.3,0.46-0.7,0.46-1.19c0-0.45-0.15-0.83-0.44-1.15c-0.29-0.32-0.69-0.48-1.18-0.48      c-0.46,0-0.84,0.15-1.15,0.46C85.82,51.08,85.67,51.47,85.67,51.94z M85.94,48.36c0,0.39,0.13,0.72,0.4,0.98      c0.26,0.26,0.58,0.39,0.95,0.39c0.38,0,0.7-0.13,0.96-0.4c0.26-0.27,0.4-0.59,0.4-0.97c0-0.4-0.13-0.73-0.4-0.99      c-0.26-0.26-0.58-0.39-0.96-0.39c-0.4,0-0.72,0.13-0.97,0.4C86.06,47.65,85.94,47.98,85.94,48.36z"
   id="path96"
   style="fill:#ffffff" />
				<path
   class="st0"
   d="M98.44,54.07h-0.67V50.9c0-0.64-0.1-1.09-0.3-1.36c-0.2-0.27-0.52-0.4-0.97-0.4c-0.4,0-0.74,0.18-1.02,0.53      c-0.28,0.35-0.43,0.78-0.43,1.29v3.12h-0.67v-3.24c0-0.57-0.11-0.99-0.32-1.27c-0.22-0.28-0.54-0.42-0.97-0.42      c-0.41,0-0.75,0.17-1.02,0.51c-0.27,0.34-0.4,0.79-0.4,1.33v3.09h-0.67v-5.39h0.67v0.87h0.02c0.19-0.34,0.43-0.59,0.7-0.75      c0.28-0.17,0.6-0.25,0.96-0.25c0.38,0,0.71,0.11,0.98,0.33c0.28,0.22,0.46,0.5,0.56,0.85c0.18-0.38,0.43-0.67,0.73-0.87      c0.31-0.2,0.65-0.3,1.03-0.3c0.59,0,1.04,0.18,1.33,0.55c0.29,0.37,0.44,0.92,0.44,1.65V54.07z"
   id="path98"
   style="fill:#ffffff" />
				<path
   class="st0"
   d="M99.57,50.48v-0.21c0-0.2,0.03-0.38,0.08-0.53c0.05-0.15,0.12-0.28,0.21-0.39c0.12-0.14,0.25-0.28,0.4-0.39      s0.33-0.25,0.52-0.4c0.15-0.1,0.28-0.21,0.39-0.3c0.11-0.1,0.21-0.2,0.28-0.31c0.07-0.1,0.13-0.21,0.17-0.33s0.06-0.25,0.06-0.4      c0-0.27-0.08-0.48-0.23-0.63c-0.15-0.16-0.35-0.24-0.61-0.24c-0.2,0-0.38,0.04-0.56,0.11s-0.34,0.19-0.49,0.34l-0.24-0.24      c0.19-0.19,0.39-0.32,0.6-0.41c0.21-0.09,0.45-0.13,0.72-0.13c0.38,0,0.67,0.11,0.89,0.33s0.32,0.5,0.32,0.83      c0,0.18-0.03,0.35-0.08,0.5c-0.05,0.15-0.12,0.29-0.21,0.41c-0.09,0.13-0.2,0.25-0.33,0.36s-0.27,0.22-0.42,0.34      c-0.2,0.14-0.37,0.27-0.51,0.37c-0.14,0.11-0.25,0.21-0.33,0.3c-0.08,0.1-0.14,0.2-0.18,0.3c-0.04,0.1-0.05,0.22-0.05,0.37h2.19      v0.36H99.57z"
   id="path100"
   style="fill:#ffffff" />
				<path
   class="st0"
   d="M103.28,55.78h-0.64c0.54-0.66,0.95-1.37,1.22-2.14c0.27-0.77,0.41-1.59,0.41-2.46      c0-0.91-0.14-1.75-0.41-2.52s-0.69-1.49-1.23-2.14h0.65c0.54,0.63,0.95,1.33,1.22,2.11c0.27,0.78,0.41,1.63,0.41,2.56      c0,0.91-0.13,1.75-0.41,2.51C104.22,54.47,103.81,55.16,103.28,55.78z"
   id="path102"
   style="fill:#ffffff" />
			</g>
		</g>
		<g
   id="g163">
			<rect
   id="L4_16_"
   x="5.75"
   y="63"
   class="st3"
   width="15.04"
   height="15.04"
   style="stroke:#ffffff" />
			<g
   id="g161"
   style="fill:#ffffff">
				<path
   class="st0"
   d="M31.99,71.92v2.86h-0.71v-7.55h1.95c0.79,0,1.4,0.19,1.83,0.58c0.43,0.38,0.64,0.93,0.64,1.65      c0,0.72-0.24,1.31-0.71,1.77c-0.48,0.46-1.13,0.69-1.96,0.69H31.99z M31.99,67.87v3.42h1c0.65,0,1.14-0.15,1.47-0.46      c0.34-0.31,0.51-0.75,0.51-1.31c0-0.55-0.15-0.96-0.46-1.23c-0.31-0.27-0.77-0.41-1.4-0.41H31.99z"
   id="path109"
   style="fill:#ffffff" />
				<path
   class="st0"
   d="M40.52,74.78h-0.67v-0.96h-0.02c-0.18,0.35-0.42,0.62-0.72,0.8c-0.3,0.19-0.64,0.29-1.02,0.29      c-0.51,0-0.92-0.15-1.22-0.44c-0.31-0.29-0.46-0.67-0.46-1.13c0-0.46,0.15-0.84,0.46-1.13c0.3-0.29,0.78-0.49,1.43-0.58      l1.55-0.22v-0.15c-0.01-0.48-0.13-0.84-0.34-1.07c-0.21-0.23-0.52-0.34-0.91-0.34c-0.3,0-0.58,0.05-0.85,0.16      c-0.26,0.11-0.51,0.27-0.74,0.5l-0.41-0.42c0.29-0.28,0.6-0.49,0.93-0.62c0.33-0.13,0.7-0.2,1.1-0.2c0.62,0,1.1,0.17,1.41,0.51      c0.32,0.34,0.48,0.84,0.48,1.5V74.78z M39.84,72.49v-0.53l-1.4,0.2c-0.49,0.07-0.84,0.19-1.05,0.36      c-0.21,0.17-0.32,0.43-0.32,0.76c0,0.32,0.1,0.57,0.3,0.76c0.2,0.19,0.46,0.29,0.79,0.29c0.49,0,0.89-0.17,1.2-0.52      S39.84,73.03,39.84,72.49z"
   id="path111"
   style="fill:#ffffff" />
				<path
   class="st0"
   d="M44.72,69.97c-0.08-0.03-0.15-0.05-0.21-0.06c-0.07-0.01-0.14-0.02-0.22-0.02c-0.45,0-0.81,0.21-1.07,0.62      c-0.27,0.41-0.4,0.95-0.4,1.62v2.64h-0.67v-5.39h0.67v1.13h0.02c0.12-0.39,0.32-0.7,0.58-0.91c0.26-0.21,0.57-0.32,0.93-0.32      c0.09,0,0.18,0.01,0.25,0.02c0.08,0.01,0.16,0.03,0.23,0.05L44.72,69.97z"
   id="path113"
   style="fill:#ffffff" />
				<path
   class="st0"
   d="M48.18,74.69c-0.13,0.07-0.27,0.12-0.41,0.15c-0.14,0.03-0.3,0.05-0.47,0.05c-0.39,0-0.69-0.12-0.91-0.35      c-0.22-0.23-0.33-0.58-0.33-1.03v-3.53h-0.95v-0.59h0.95v-1.37l0.67-0.22v1.59h1.39v0.59h-1.39v3.45c0,0.31,0.06,0.53,0.17,0.67      s0.28,0.21,0.5,0.21c0.12,0,0.22-0.01,0.32-0.04c0.1-0.03,0.19-0.06,0.26-0.11L48.18,74.69z"
   id="path115"
   style="fill:#ffffff" />
				<path
   class="st0"
   d="M53.55,74.78h-0.67v-3.11c0-0.61-0.11-1.07-0.33-1.37c-0.22-0.31-0.55-0.46-1-0.46      c-0.47,0-0.87,0.18-1.17,0.53c-0.31,0.35-0.46,0.79-0.46,1.32v3.08h-0.67v-5.39h0.67v0.94h0.02c0.2-0.36,0.45-0.63,0.75-0.8      c0.3-0.18,0.65-0.27,1.05-0.27c0.59,0,1.03,0.19,1.34,0.58c0.31,0.38,0.47,0.94,0.47,1.66V74.78z"
   id="path117"
   style="fill:#ffffff" />
				<path
   class="st0"
   d="M59.39,72.19h-3.9c0.01,0.72,0.18,1.26,0.52,1.61c0.34,0.35,0.79,0.53,1.35,0.53      c0.25,0,0.51-0.04,0.76-0.12c0.25-0.08,0.5-0.21,0.75-0.39l0.34,0.48c-0.3,0.21-0.6,0.37-0.91,0.46      c-0.31,0.1-0.65,0.15-1.01,0.15c-0.74,0-1.33-0.23-1.79-0.7c-0.46-0.46-0.69-1.17-0.69-2.11c0-0.83,0.23-1.51,0.68-2.04      c0.45-0.53,1.04-0.8,1.77-0.8c0.68,0,1.21,0.23,1.59,0.7c0.37,0.46,0.56,1.1,0.56,1.91V72.19z M58.69,71.61      c-0.01-0.56-0.15-0.99-0.41-1.31s-0.61-0.47-1.07-0.47c-0.46,0-0.84,0.16-1.15,0.47c-0.31,0.31-0.5,0.75-0.56,1.3H58.69z"
   id="path119"
   style="fill:#ffffff" />
				<path
   class="st0"
   d="M63.27,69.97c-0.08-0.03-0.15-0.05-0.21-0.06C63,69.9,62.92,69.9,62.84,69.9c-0.45,0-0.81,0.21-1.07,0.62      c-0.27,0.41-0.4,0.95-0.4,1.62v2.64H60.7v-5.39h0.67v1.13h0.02c0.12-0.39,0.32-0.7,0.58-0.91c0.26-0.21,0.57-0.32,0.93-0.32      c0.09,0,0.18,0.01,0.25,0.02c0.08,0.01,0.16,0.03,0.23,0.05L63.27,69.97z"
   id="path121"
   style="fill:#ffffff" />
				<path
   class="st0"
   d="M66.83,74.19l0.36-0.53c0.3,0.21,0.6,0.36,0.91,0.46c0.31,0.1,0.66,0.14,1.05,0.14      c0.48,0,0.88-0.13,1.18-0.38s0.46-0.61,0.46-1.07c0-0.38-0.12-0.68-0.37-0.92c-0.25-0.24-0.66-0.46-1.22-0.65      c-0.71-0.25-1.23-0.54-1.57-0.86c-0.33-0.32-0.5-0.74-0.5-1.24c0-0.62,0.21-1.11,0.63-1.47s0.98-0.55,1.68-0.55      c0.31,0,0.61,0.04,0.91,0.11c0.3,0.08,0.6,0.2,0.91,0.37l-0.29,0.56c-0.26-0.14-0.52-0.25-0.77-0.31s-0.53-0.1-0.83-0.1      c-0.46,0-0.84,0.12-1.12,0.35c-0.29,0.23-0.43,0.56-0.43,0.97c0,0.35,0.13,0.64,0.39,0.87s0.68,0.44,1.27,0.65      c0.71,0.24,1.23,0.53,1.54,0.86s0.47,0.76,0.47,1.3c0,0.64-0.21,1.16-0.64,1.56s-1.01,0.6-1.75,0.6c-0.43,0-0.83-0.06-1.2-0.17      C67.54,74.62,67.18,74.44,66.83,74.19z"
   id="path123"
   style="fill:#ffffff" />
				<path
   class="st0"
   d="M74.87,74.69c-0.13,0.07-0.27,0.12-0.41,0.15c-0.14,0.03-0.3,0.05-0.47,0.05c-0.39,0-0.69-0.12-0.91-0.35      c-0.22-0.23-0.33-0.58-0.33-1.03v-3.53h-0.95v-0.59h0.95v-1.37l0.67-0.22v1.59h1.39v0.59h-1.39v3.45c0,0.31,0.06,0.53,0.17,0.67      s0.28,0.21,0.5,0.21c0.12,0,0.22-0.01,0.32-0.04c0.1-0.03,0.19-0.06,0.26-0.11L74.87,74.69z"
   id="path125"
   style="fill:#ffffff" />
				<path
   class="st0"
   d="M78.5,69.97c-0.08-0.03-0.15-0.05-0.21-0.06c-0.07-0.01-0.14-0.02-0.22-0.02c-0.45,0-0.81,0.21-1.07,0.62      c-0.27,0.41-0.4,0.95-0.4,1.62v2.64h-0.67v-5.39h0.67v1.13h0.02c0.12-0.39,0.32-0.7,0.58-0.91c0.26-0.21,0.57-0.32,0.93-0.32      c0.09,0,0.18,0.01,0.25,0.02c0.08,0.01,0.16,0.03,0.23,0.05L78.5,69.97z"
   id="path127"
   style="fill:#ffffff" />
				<path
   class="st0"
   d="M83.81,72.19h-3.9c0.01,0.72,0.18,1.26,0.52,1.61c0.34,0.35,0.79,0.53,1.35,0.53      c0.25,0,0.51-0.04,0.76-0.12c0.25-0.08,0.5-0.21,0.75-0.39l0.34,0.48c-0.3,0.21-0.6,0.37-0.91,0.46      c-0.31,0.1-0.65,0.15-1.01,0.15c-0.74,0-1.33-0.23-1.79-0.7c-0.46-0.46-0.69-1.17-0.69-2.11c0-0.83,0.23-1.51,0.68-2.04      c0.45-0.53,1.04-0.8,1.77-0.8c0.68,0,1.21,0.23,1.59,0.7c0.37,0.46,0.56,1.1,0.56,1.91V72.19z M83.11,71.61      c-0.01-0.56-0.15-0.99-0.41-1.31s-0.61-0.47-1.07-0.47c-0.46,0-0.84,0.16-1.15,0.47c-0.31,0.31-0.5,0.75-0.56,1.3H83.11z"
   id="path129"
   style="fill:#ffffff" />
				<path
   class="st0"
   d="M87.51,67.35c-0.09-0.02-0.17-0.04-0.24-0.05c-0.07-0.01-0.15-0.02-0.23-0.02c-0.32,0-0.56,0.09-0.72,0.27      c-0.15,0.18-0.23,0.45-0.23,0.81v1.03h1.35v0.59H86.1v4.8h-0.67v-4.8h-0.95v-0.59h0.95v-1.06c0-0.53,0.15-0.93,0.44-1.21      s0.69-0.42,1.2-0.42c0.1,0,0.2,0.01,0.3,0.02s0.2,0.04,0.32,0.08L87.51,67.35z"
   id="path131"
   style="fill:#ffffff" />
				<path
   class="st0"
   d="M92.41,69.39L89.77,76c-0.16,0.39-0.37,0.7-0.64,0.95c-0.27,0.24-0.59,0.37-0.97,0.37      c-0.1,0-0.19-0.01-0.28-0.02s-0.17-0.03-0.25-0.05l0.15-0.61c0.06,0.02,0.12,0.04,0.17,0.05c0.06,0.01,0.12,0.02,0.18,0.02      c0.22,0,0.41-0.07,0.57-0.2c0.16-0.13,0.29-0.31,0.38-0.54l0.51-1.21l-2.07-5.36h0.75l1.54,4.27c0.02,0.06,0.04,0.12,0.06,0.18      c0.02,0.06,0.04,0.14,0.06,0.22h0.03c0.01-0.05,0.03-0.11,0.05-0.17c0.02-0.06,0.04-0.13,0.07-0.21l1.63-4.29H92.41z"
   id="path133"
   style="fill:#ffffff" />
				<path
   class="st0"
   d="M95.81,74.19l0.36-0.53c0.3,0.21,0.6,0.36,0.91,0.46c0.31,0.1,0.66,0.14,1.05,0.14      c0.48,0,0.88-0.13,1.18-0.38s0.46-0.61,0.46-1.07c0-0.38-0.12-0.68-0.37-0.92c-0.25-0.24-0.66-0.46-1.22-0.65      c-0.71-0.25-1.23-0.54-1.57-0.86c-0.33-0.32-0.5-0.74-0.5-1.24c0-0.62,0.21-1.11,0.63-1.47s0.98-0.55,1.68-0.55      c0.31,0,0.61,0.04,0.91,0.11c0.3,0.08,0.6,0.2,0.91,0.37l-0.29,0.56c-0.26-0.14-0.52-0.25-0.77-0.31s-0.53-0.1-0.83-0.1      c-0.46,0-0.84,0.12-1.12,0.35c-0.29,0.23-0.43,0.56-0.43,0.97c0,0.35,0.13,0.64,0.39,0.87s0.68,0.44,1.27,0.65      c0.71,0.24,1.23,0.53,1.54,0.86s0.47,0.76,0.47,1.3c0,0.64-0.21,1.16-0.64,1.56s-1.01,0.6-1.75,0.6c-0.43,0-0.83-0.06-1.2-0.17      C96.53,74.62,96.17,74.44,95.81,74.19z"
   id="path135"
   style="fill:#ffffff" />
				<path
   class="st0"
   d="M103.86,74.69c-0.13,0.07-0.27,0.12-0.41,0.15c-0.14,0.03-0.3,0.05-0.47,0.05c-0.39,0-0.69-0.12-0.91-0.35      c-0.22-0.23-0.33-0.58-0.33-1.03v-3.53h-0.95v-0.59h0.95v-1.37l0.67-0.22v1.59h1.39v0.59h-1.39v3.45c0,0.31,0.06,0.53,0.17,0.67      s0.28,0.21,0.5,0.21c0.12,0,0.22-0.01,0.32-0.04c0.1-0.03,0.19-0.06,0.26-0.11L103.86,74.69z"
   id="path137"
   style="fill:#ffffff" />
				<path
   class="st0"
   d="M109.12,74.78h-0.67v-0.92h-0.02c-0.18,0.35-0.42,0.61-0.7,0.78c-0.28,0.17-0.62,0.26-1,0.26      c-0.64,0-1.12-0.2-1.44-0.59c-0.32-0.39-0.48-0.98-0.48-1.76v-3.17h0.67v3.04c0,0.65,0.11,1.13,0.34,1.43      c0.23,0.31,0.58,0.46,1.06,0.46c0.46,0,0.83-0.17,1.13-0.51c0.29-0.34,0.44-0.79,0.44-1.35v-3.08h0.67V74.78z"
   id="path139"
   style="fill:#ffffff" />
				<path
   class="st0"
   d="M114.62,73.83c-0.19,0.34-0.45,0.61-0.77,0.79s-0.7,0.28-1.13,0.28c-0.67,0-1.21-0.24-1.62-0.72      s-0.62-1.14-0.62-1.99c0-0.88,0.23-1.59,0.68-2.13s1.05-0.81,1.79-0.81c0.39,0,0.72,0.08,1,0.23c0.28,0.16,0.5,0.39,0.67,0.7      h0.02V66.8h0.67v7.98h-0.67v-0.95H114.62z M111.17,72.15c0,0.68,0.16,1.21,0.47,1.6s0.72,0.57,1.22,0.57      c0.55,0,0.98-0.18,1.3-0.54s0.48-0.81,0.48-1.36v-0.9c0-0.47-0.15-0.86-0.46-1.19s-0.7-0.49-1.19-0.49      c-0.55,0-0.99,0.21-1.32,0.62C111.34,70.87,111.17,71.43,111.17,72.15z"
   id="path141"
   style="fill:#ffffff" />
				<path
   class="st0"
   d="M121.27,72.19h-3.9c0.01,0.72,0.18,1.26,0.52,1.61c0.34,0.35,0.79,0.53,1.35,0.53      c0.25,0,0.51-0.04,0.76-0.12c0.25-0.08,0.5-0.21,0.75-0.39l0.34,0.48c-0.3,0.21-0.6,0.37-0.91,0.46      c-0.31,0.1-0.65,0.15-1.01,0.15c-0.74,0-1.33-0.23-1.79-0.7c-0.46-0.46-0.69-1.17-0.69-2.11c0-0.83,0.23-1.51,0.68-2.04      c0.45-0.53,1.04-0.8,1.77-0.8c0.68,0,1.21,0.23,1.59,0.7c0.37,0.46,0.56,1.1,0.56,1.91V72.19z M120.57,71.61      c-0.01-0.56-0.15-0.99-0.41-1.31s-0.61-0.47-1.07-0.47c-0.46,0-0.84,0.16-1.15,0.47c-0.31,0.31-0.5,0.75-0.56,1.3H120.57z"
   id="path143"
   style="fill:#ffffff" />
				<path
   class="st0"
   d="M126.9,74.78h-0.67v-3.11c0-0.61-0.11-1.07-0.33-1.37c-0.22-0.31-0.55-0.46-1-0.46      c-0.47,0-0.87,0.18-1.17,0.53c-0.31,0.35-0.46,0.79-0.46,1.32v3.08h-0.67v-5.39h0.67v0.94h0.02c0.2-0.36,0.45-0.63,0.75-0.8      c0.3-0.18,0.65-0.27,1.05-0.27c0.59,0,1.03,0.19,1.34,0.58c0.31,0.38,0.47,0.94,0.47,1.66V74.78z"
   id="path145"
   style="fill:#ffffff" />
				<path
   class="st0"
   d="M130.88,74.69c-0.13,0.07-0.27,0.12-0.41,0.15c-0.14,0.03-0.3,0.05-0.47,0.05c-0.39,0-0.69-0.12-0.91-0.35      c-0.22-0.23-0.33-0.58-0.33-1.03v-3.53h-0.95v-0.59h0.95v-1.37l0.67-0.22v1.59h1.39v0.59h-1.39v3.45c0,0.31,0.06,0.53,0.17,0.67      s0.28,0.21,0.5,0.21c0.12,0,0.22-0.01,0.32-0.04c0.1-0.03,0.19-0.06,0.26-0.11L130.88,74.69z"
   id="path147"
   style="fill:#ffffff" />
				<path
   class="st0"
   d="M135.71,74.78h-0.67v-0.96h-0.02c-0.18,0.35-0.42,0.62-0.72,0.8c-0.3,0.19-0.64,0.29-1.02,0.29      c-0.51,0-0.92-0.15-1.22-0.44c-0.31-0.29-0.46-0.67-0.46-1.13c0-0.46,0.15-0.84,0.46-1.13c0.3-0.29,0.78-0.49,1.43-0.58      l1.55-0.22v-0.15c-0.01-0.48-0.13-0.84-0.34-1.07c-0.21-0.23-0.52-0.34-0.91-0.34c-0.3,0-0.58,0.05-0.85,0.16      c-0.26,0.11-0.51,0.27-0.74,0.5l-0.41-0.42c0.29-0.28,0.6-0.49,0.93-0.62c0.33-0.13,0.7-0.2,1.1-0.2c0.62,0,1.1,0.17,1.41,0.51      c0.32,0.34,0.48,0.84,0.48,1.5V74.78z M135.03,72.49v-0.53l-1.4,0.2c-0.49,0.07-0.84,0.19-1.05,0.36      c-0.21,0.17-0.32,0.43-0.32,0.76c0,0.32,0.1,0.57,0.3,0.76c0.2,0.19,0.46,0.29,0.79,0.29c0.49,0,0.89-0.17,1.2-0.52      S135.03,73.03,135.03,72.49z"
   id="path149"
   style="fill:#ffffff" />
				<path
   class="st0"
   d="M142.44,76.49h-0.64c-0.54-0.62-0.94-1.31-1.21-2.08c-0.27-0.76-0.4-1.6-0.4-2.51      c0-0.93,0.13-1.79,0.41-2.56c0.27-0.78,0.68-1.48,1.22-2.11h0.65c-0.55,0.65-0.96,1.36-1.24,2.14s-0.41,1.62-0.41,2.52      c0,0.88,0.14,1.7,0.41,2.46C141.49,75.12,141.9,75.83,142.44,76.49z"
   id="path151"
   style="fill:#ffffff" />
				<path
   class="st0"
   d="M143.09,72.67c0-0.4,0.12-0.79,0.35-1.15c0.24-0.37,0.59-0.64,1.05-0.81c-0.34-0.18-0.61-0.41-0.82-0.7      c-0.2-0.29-0.31-0.62-0.31-0.98c0-0.55,0.2-1.01,0.59-1.38c0.39-0.37,0.88-0.55,1.46-0.55c0.59,0,1.08,0.18,1.47,0.55      s0.58,0.83,0.58,1.37c0,0.36-0.1,0.68-0.3,0.98c-0.2,0.29-0.46,0.53-0.79,0.7c0.45,0.17,0.79,0.44,1.03,0.81      c0.23,0.38,0.35,0.76,0.35,1.15c0,0.68-0.21,1.22-0.64,1.62c-0.43,0.4-0.99,0.61-1.69,0.61c-0.68,0-1.24-0.2-1.68-0.6      C143.3,73.9,143.09,73.36,143.09,72.67z M143.8,72.65c0,0.51,0.15,0.92,0.45,1.21s0.69,0.44,1.16,0.44      c0.47,0,0.86-0.15,1.16-0.45c0.3-0.3,0.46-0.7,0.46-1.19c0-0.45-0.15-0.83-0.44-1.16c-0.29-0.32-0.69-0.48-1.18-0.48      c-0.46,0-0.84,0.15-1.15,0.46C143.96,71.79,143.8,72.18,143.8,72.65z M144.07,69.07c0,0.39,0.13,0.71,0.4,0.98      s0.58,0.39,0.95,0.39c0.38,0,0.7-0.13,0.96-0.4c0.26-0.27,0.4-0.59,0.4-0.97c0-0.4-0.13-0.73-0.4-0.99      c-0.26-0.26-0.58-0.39-0.96-0.39c-0.4,0-0.72,0.13-0.97,0.4C144.2,68.36,144.07,68.68,144.07,69.07z"
   id="path153"
   style="fill:#ffffff" />
				<path
   class="st0"
   d="M156.57,74.78h-0.67v-3.17c0-0.64-0.1-1.09-0.3-1.36s-0.52-0.41-0.97-0.41c-0.4,0-0.74,0.18-1.02,0.53      s-0.43,0.78-0.43,1.29v3.12h-0.67v-3.24c0-0.56-0.11-0.99-0.32-1.27c-0.22-0.28-0.54-0.42-0.97-0.42      c-0.41,0-0.75,0.17-1.02,0.51s-0.4,0.79-0.4,1.33v3.09h-0.67v-5.39h0.67v0.87h0.02c0.19-0.34,0.43-0.59,0.7-0.76      c0.28-0.17,0.6-0.25,0.96-0.25c0.38,0,0.71,0.11,0.98,0.33c0.28,0.22,0.46,0.5,0.56,0.85c0.18-0.38,0.43-0.67,0.73-0.87      s0.65-0.3,1.03-0.3c0.59,0,1.04,0.18,1.33,0.55s0.44,0.91,0.44,1.64V74.78z"
   id="path155"
   style="fill:#ffffff" />
				<path
   class="st0"
   d="M157.7,71.19v-0.21c0-0.2,0.03-0.38,0.08-0.53c0.05-0.15,0.12-0.28,0.21-0.39c0.12-0.14,0.25-0.27,0.4-0.39      c0.15-0.12,0.33-0.25,0.52-0.4c0.15-0.11,0.28-0.21,0.39-0.31c0.11-0.1,0.21-0.2,0.28-0.31c0.07-0.1,0.13-0.21,0.17-0.33      s0.06-0.25,0.06-0.39c0-0.27-0.08-0.48-0.23-0.63s-0.35-0.23-0.61-0.23c-0.2,0-0.38,0.04-0.56,0.11      c-0.17,0.07-0.34,0.18-0.49,0.34l-0.24-0.24c0.19-0.19,0.39-0.32,0.6-0.41c0.21-0.09,0.45-0.13,0.72-0.13      c0.38,0,0.67,0.11,0.89,0.34s0.32,0.5,0.32,0.83c0,0.18-0.03,0.35-0.08,0.5c-0.05,0.15-0.12,0.29-0.21,0.41      c-0.09,0.13-0.2,0.25-0.33,0.36c-0.13,0.11-0.27,0.22-0.42,0.34c-0.2,0.14-0.37,0.27-0.51,0.37c-0.14,0.11-0.25,0.21-0.33,0.3      c-0.08,0.1-0.14,0.2-0.18,0.3c-0.04,0.1-0.05,0.22-0.05,0.37h2.19v0.36H157.7z"
   id="path157"
   style="fill:#ffffff" />
				<path
   class="st0"
   d="M161.41,76.49h-0.64c0.54-0.66,0.95-1.37,1.22-2.14c0.27-0.77,0.41-1.59,0.41-2.46      c0-0.9-0.14-1.75-0.41-2.52s-0.69-1.49-1.23-2.14h0.65c0.54,0.63,0.95,1.33,1.22,2.11c0.27,0.78,0.41,1.63,0.41,2.56      c0,0.91-0.13,1.75-0.41,2.51C162.35,75.18,161.95,75.87,161.41,76.49z"
   id="path159"
   style="fill:#ffffff" />
			</g>
		</g>
		<g
   id="g240">
			<g
   id="g188">
				<rect
   id="L4_13_"
   x="188.25999"
   y="21.59"
   class="st4"
   width="15.04"
   height="15.04"
   style="stroke:#ffffff" />
				<g
   id="g186"
   style="fill:#ffffff">
					<path
   class="st0"
   d="M212.35,32.77l0.36-0.53c0.3,0.21,0.6,0.36,0.91,0.46c0.31,0.09,0.66,0.14,1.05,0.14       c0.48,0,0.88-0.13,1.18-0.38c0.31-0.26,0.46-0.61,0.46-1.07c0-0.38-0.12-0.68-0.37-0.92c-0.25-0.24-0.66-0.46-1.22-0.65       c-0.71-0.25-1.23-0.54-1.57-0.86c-0.33-0.32-0.5-0.74-0.5-1.24c0-0.61,0.21-1.11,0.63-1.47c0.42-0.37,0.98-0.55,1.68-0.55       c0.31,0,0.61,0.04,0.91,0.11c0.3,0.08,0.6,0.2,0.91,0.37l-0.29,0.56c-0.26-0.14-0.52-0.25-0.77-0.31       c-0.25-0.06-0.53-0.09-0.83-0.09c-0.46,0-0.84,0.12-1.12,0.35c-0.29,0.24-0.43,0.56-0.43,0.97c0,0.35,0.13,0.65,0.39,0.87       c0.26,0.23,0.68,0.44,1.27,0.65c0.71,0.25,1.23,0.53,1.54,0.86s0.47,0.76,0.47,1.3c0,0.64-0.21,1.16-0.64,1.56       s-1.01,0.6-1.75,0.6c-0.43,0-0.83-0.06-1.2-0.17S212.71,33.02,212.35,32.77z"
   id="path166"
   style="fill:#ffffff" />
					<path
   class="st0"
   d="M220.4,33.27c-0.13,0.07-0.27,0.12-0.41,0.15c-0.14,0.03-0.3,0.05-0.47,0.05c-0.39,0-0.69-0.12-0.91-0.35       c-0.22-0.23-0.33-0.58-0.33-1.03v-3.53h-0.95v-0.59h0.95V26.6l0.67-0.22v1.59h1.39v0.59h-1.39v3.45c0,0.31,0.06,0.53,0.17,0.67       s0.28,0.21,0.5,0.21c0.12,0,0.22-0.01,0.32-0.04c0.1-0.03,0.19-0.06,0.26-0.11L220.4,33.27z"
   id="path168"
   style="fill:#ffffff" />
					<path
   class="st0"
   d="M223.67,33.48c-0.79,0-1.42-0.25-1.89-0.77c-0.47-0.51-0.7-1.18-0.7-2.01c0-0.9,0.24-1.6,0.73-2.11       s1.14-0.76,1.95-0.77c0.79,0,1.4,0.25,1.85,0.75s0.67,1.19,0.67,2.07c0,0.85-0.23,1.53-0.71,2.05       C225.11,33.23,224.47,33.48,223.67,33.48z M223.71,32.9c0.6,0,1.07-0.2,1.4-0.59c0.33-0.39,0.49-0.94,0.49-1.64       c0-0.72-0.16-1.28-0.49-1.67c-0.33-0.39-0.79-0.58-1.38-0.58c-0.59,0-1.07,0.2-1.42,0.61s-0.53,0.96-0.53,1.67       c0,0.67,0.17,1.21,0.52,1.6C222.64,32.7,223.12,32.9,223.71,32.9z"
   id="path170"
   style="fill:#ffffff" />
					<path
   class="st0"
   d="M227.98,26.65c-0.15,0-0.27-0.05-0.37-0.15c-0.1-0.1-0.15-0.22-0.15-0.37c0-0.14,0.05-0.27,0.15-0.36       c0.1-0.1,0.22-0.15,0.37-0.15s0.27,0.05,0.37,0.15c0.1,0.1,0.15,0.22,0.15,0.36c0,0.15-0.05,0.27-0.15,0.37       C228.25,26.6,228.13,26.65,227.98,26.65z M228.31,33.36h-0.67v-5.39h0.67V33.36z"
   id="path172"
   style="fill:#ffffff" />
					<path
   class="st0"
   d="M229.54,32.96l0.33-0.53c0.21,0.14,0.43,0.25,0.66,0.34c0.23,0.09,0.48,0.13,0.76,0.13       c0.41,0,0.71-0.09,0.92-0.26s0.31-0.41,0.31-0.72c0-0.24-0.08-0.43-0.25-0.6c-0.17-0.16-0.48-0.31-0.93-0.45       c-0.61-0.17-1.03-0.38-1.27-0.63c-0.23-0.25-0.35-0.55-0.35-0.91c0-0.44,0.16-0.8,0.48-1.08c0.32-0.28,0.76-0.42,1.31-0.42       c0.26,0,0.52,0.03,0.77,0.1c0.25,0.07,0.5,0.18,0.76,0.34l-0.32,0.52c-0.21-0.13-0.41-0.22-0.62-0.28       c-0.2-0.06-0.41-0.09-0.62-0.09c-0.36,0-0.64,0.08-0.83,0.23c-0.19,0.15-0.29,0.36-0.29,0.62c0,0.25,0.09,0.45,0.26,0.58       s0.48,0.27,0.92,0.4c0.57,0.17,0.98,0.38,1.24,0.63c0.26,0.25,0.39,0.58,0.39,0.99c0,0.5-0.17,0.9-0.51,1.19       c-0.34,0.29-0.8,0.43-1.38,0.43c-0.31,0-0.61-0.04-0.91-0.13C230.07,33.27,229.8,33.13,229.54,32.96z"
   id="path174"
   style="fill:#ffffff" />
					<path
   class="st0"
   d="M238.56,33.36h-0.96l-2.48-2.63h-0.02v2.63h-0.67v-7.98h0.67v5.1h0.02l2.36-2.51h0.88l-2.53,2.61       L238.56,33.36z"
   id="path176"
   style="fill:#ffffff" />
					<path
   class="st0"
   d="M243.26,33.36h-0.67V32.4h-0.02c-0.18,0.35-0.42,0.62-0.72,0.8c-0.3,0.19-0.64,0.28-1.02,0.28       c-0.51,0-0.92-0.15-1.22-0.44c-0.31-0.29-0.46-0.67-0.46-1.13c0-0.46,0.15-0.84,0.46-1.13c0.3-0.29,0.78-0.49,1.43-0.58       l1.55-0.22v-0.15c-0.01-0.48-0.13-0.84-0.34-1.07c-0.21-0.23-0.52-0.34-0.91-0.34c-0.3,0-0.58,0.05-0.85,0.16       c-0.26,0.11-0.51,0.27-0.74,0.5l-0.41-0.42c0.29-0.28,0.6-0.49,0.93-0.62c0.33-0.13,0.7-0.2,1.1-0.2c0.62,0,1.1,0.17,1.41,0.51       c0.32,0.34,0.48,0.84,0.48,1.5V33.36z M242.59,31.07v-0.53l-1.4,0.2c-0.49,0.07-0.84,0.19-1.05,0.36       c-0.21,0.17-0.32,0.43-0.32,0.76c0,0.32,0.1,0.57,0.3,0.76c0.2,0.19,0.46,0.28,0.79,0.28c0.49,0,0.89-0.17,1.2-0.52       S242.59,31.61,242.59,31.07z"
   id="path178"
   style="fill:#ffffff" />
					<path
   class="st0"
   d="M247.49,31.25c0-0.4,0.12-0.79,0.35-1.16c0.24-0.37,0.59-0.64,1.05-0.81c-0.34-0.18-0.61-0.41-0.82-0.7       c-0.2-0.29-0.31-0.62-0.31-0.98c0-0.55,0.2-1.01,0.59-1.38c0.39-0.37,0.88-0.55,1.46-0.55c0.59,0,1.08,0.18,1.47,0.55       c0.39,0.37,0.58,0.83,0.58,1.37c0,0.36-0.1,0.68-0.3,0.98c-0.2,0.29-0.46,0.53-0.79,0.7c0.45,0.17,0.79,0.44,1.03,0.81       c0.23,0.37,0.35,0.76,0.35,1.15c0,0.68-0.21,1.22-0.64,1.62c-0.43,0.41-0.99,0.61-1.69,0.61c-0.68,0-1.24-0.2-1.68-0.6       C247.71,32.48,247.49,31.94,247.49,31.25z M248.21,31.23c0,0.51,0.15,0.92,0.45,1.21s0.69,0.44,1.16,0.44       c0.47,0,0.86-0.15,1.16-0.45c0.3-0.3,0.46-0.7,0.46-1.19c0-0.45-0.15-0.83-0.44-1.16s-0.69-0.48-1.18-0.48       c-0.46,0-0.84,0.15-1.15,0.46C248.36,30.37,248.21,30.76,248.21,31.23z M248.48,27.65c0,0.39,0.13,0.72,0.4,0.98       c0.26,0.26,0.58,0.39,0.95,0.39c0.38,0,0.7-0.13,0.96-0.4c0.26-0.27,0.4-0.59,0.4-0.97c0-0.4-0.13-0.73-0.4-0.99       c-0.26-0.26-0.58-0.39-0.96-0.39c-0.4,0-0.72,0.13-0.97,0.4S248.48,27.27,248.48,27.65z"
   id="path180"
   style="fill:#ffffff" />
					<path
   class="st0"
   d="M260.98,33.36h-0.67v-3.17c0-0.64-0.1-1.09-0.3-1.36c-0.2-0.27-0.52-0.41-0.97-0.41       c-0.4,0-0.74,0.18-1.02,0.53c-0.28,0.35-0.43,0.78-0.43,1.29v3.12h-0.67v-3.24c0-0.57-0.11-0.99-0.32-1.27       s-0.54-0.42-0.97-0.42c-0.41,0-0.75,0.17-1.02,0.51c-0.27,0.34-0.4,0.79-0.4,1.33v3.09h-0.67v-5.39h0.67v0.87h0.02       c0.19-0.34,0.43-0.59,0.7-0.75s0.6-0.25,0.96-0.25c0.38,0,0.71,0.11,0.98,0.33s0.46,0.5,0.56,0.85       c0.18-0.38,0.43-0.67,0.73-0.87c0.31-0.2,0.65-0.3,1.03-0.3c0.59,0,1.04,0.18,1.33,0.55c0.29,0.37,0.44,0.92,0.44,1.65V33.36z"
   id="path182"
   style="fill:#ffffff" />
					<path
   class="st0"
   d="M262.11,29.77v-0.21c0-0.2,0.03-0.38,0.08-0.53c0.05-0.15,0.12-0.28,0.21-0.39       c0.12-0.14,0.25-0.27,0.4-0.39c0.15-0.12,0.33-0.25,0.52-0.4c0.15-0.1,0.28-0.21,0.39-0.31c0.11-0.1,0.21-0.2,0.28-0.31       c0.07-0.1,0.13-0.21,0.17-0.33s0.06-0.25,0.06-0.4c0-0.27-0.08-0.48-0.23-0.63c-0.15-0.16-0.35-0.24-0.61-0.24       c-0.2,0-0.38,0.04-0.56,0.11c-0.17,0.07-0.34,0.18-0.49,0.34l-0.24-0.24c0.19-0.19,0.39-0.32,0.6-0.41s0.45-0.13,0.72-0.13       c0.38,0,0.67,0.11,0.89,0.33s0.32,0.5,0.32,0.83c0,0.18-0.03,0.35-0.08,0.5c-0.05,0.15-0.12,0.29-0.21,0.41       c-0.09,0.13-0.2,0.25-0.33,0.36c-0.13,0.11-0.27,0.22-0.42,0.34c-0.2,0.14-0.37,0.27-0.51,0.37c-0.14,0.11-0.25,0.21-0.33,0.3       c-0.08,0.1-0.14,0.2-0.18,0.3c-0.04,0.1-0.05,0.22-0.05,0.37h2.19v0.36H262.11z"
   id="path184"
   style="fill:#ffffff" />
				</g>
			</g>
			<g
   id="g213">
				<rect
   id="L4_10_"
   x="188.26"
   y="42.29"
   class="st5"
   width="15.04"
   height="15.04"
   style="stroke:#ffffff" />
				<g
   id="g211"
   style="fill:#ffffff">
					<path
   class="st0"
   d="M212.36,53.48l0.36-0.53c0.3,0.21,0.6,0.36,0.91,0.46c0.31,0.09,0.66,0.14,1.05,0.14       c0.48,0,0.88-0.13,1.18-0.38c0.31-0.26,0.46-0.61,0.46-1.07c0-0.38-0.12-0.68-0.37-0.92c-0.25-0.24-0.66-0.46-1.22-0.65       c-0.71-0.25-1.23-0.54-1.57-0.86c-0.33-0.32-0.5-0.74-0.5-1.24c0-0.61,0.21-1.11,0.63-1.47c0.42-0.37,0.98-0.55,1.68-0.55       c0.31,0,0.61,0.04,0.91,0.11c0.3,0.08,0.6,0.2,0.91,0.37l-0.29,0.56c-0.26-0.14-0.52-0.25-0.77-0.31       c-0.25-0.06-0.53-0.09-0.83-0.09c-0.46,0-0.84,0.12-1.12,0.35c-0.29,0.24-0.43,0.56-0.43,0.97c0,0.35,0.13,0.65,0.39,0.87       c0.26,0.23,0.68,0.44,1.27,0.65c0.71,0.25,1.23,0.53,1.54,0.86s0.47,0.76,0.47,1.3c0,0.64-0.21,1.16-0.64,1.56       s-1.01,0.6-1.75,0.6c-0.43,0-0.83-0.06-1.2-0.17S212.72,53.73,212.36,53.48z"
   id="path191"
   style="fill:#ffffff" />
					<path
   class="st0"
   d="M220.41,53.98c-0.13,0.07-0.27,0.12-0.41,0.15c-0.14,0.03-0.3,0.05-0.47,0.05c-0.39,0-0.69-0.12-0.91-0.35       c-0.22-0.23-0.33-0.58-0.33-1.03v-3.53h-0.95v-0.59h0.95v-1.37l0.67-0.22v1.59h1.39v0.59h-1.39v3.45       c0,0.31,0.06,0.53,0.17,0.67s0.28,0.21,0.5,0.21c0.12,0,0.22-0.01,0.32-0.04c0.1-0.03,0.19-0.06,0.26-0.11L220.41,53.98z"
   id="path193"
   style="fill:#ffffff" />
					<path
   class="st0"
   d="M223.68,54.19c-0.79,0-1.42-0.25-1.89-0.77c-0.47-0.51-0.7-1.18-0.7-2.01c0-0.9,0.24-1.6,0.73-2.11       s1.14-0.76,1.95-0.77c0.79,0,1.4,0.25,1.85,0.75s0.67,1.19,0.67,2.07c0,0.85-0.23,1.53-0.71,2.05       C225.12,53.93,224.48,54.19,223.68,54.19z M223.72,53.61c0.6,0,1.07-0.2,1.4-0.59c0.33-0.39,0.49-0.94,0.49-1.64       c0-0.72-0.16-1.28-0.49-1.67c-0.33-0.39-0.79-0.58-1.38-0.58c-0.59,0-1.07,0.2-1.42,0.61s-0.53,0.96-0.53,1.67       c0,0.67,0.17,1.21,0.52,1.6C222.65,53.41,223.12,53.61,223.72,53.61z"
   id="path195"
   style="fill:#ffffff" />
					<path
   class="st0"
   d="M227.99,47.36c-0.15,0-0.27-0.05-0.37-0.15c-0.1-0.1-0.15-0.22-0.15-0.37c0-0.14,0.05-0.27,0.15-0.36       c0.1-0.1,0.22-0.15,0.37-0.15s0.27,0.05,0.37,0.15c0.1,0.1,0.15,0.22,0.15,0.36c0,0.15-0.05,0.27-0.15,0.37       C228.26,47.31,228.13,47.36,227.99,47.36z M228.32,54.07h-0.67v-5.39h0.67V54.07z"
   id="path197"
   style="fill:#ffffff" />
					<path
   class="st0"
   d="M229.55,53.67l0.33-0.53c0.21,0.14,0.43,0.25,0.66,0.34c0.23,0.09,0.48,0.13,0.76,0.13       c0.41,0,0.71-0.09,0.92-0.26s0.31-0.41,0.31-0.72c0-0.24-0.08-0.43-0.25-0.6c-0.17-0.16-0.48-0.31-0.93-0.45       c-0.61-0.17-1.03-0.38-1.27-0.63c-0.23-0.25-0.35-0.55-0.35-0.91c0-0.44,0.16-0.8,0.48-1.08c0.32-0.28,0.76-0.42,1.31-0.42       c0.26,0,0.52,0.03,0.77,0.1c0.25,0.07,0.5,0.18,0.76,0.34l-0.32,0.52c-0.21-0.13-0.41-0.22-0.62-0.28       c-0.2-0.06-0.41-0.09-0.62-0.09c-0.36,0-0.64,0.08-0.83,0.23c-0.19,0.15-0.29,0.36-0.29,0.62c0,0.25,0.09,0.45,0.26,0.58       s0.48,0.27,0.92,0.4c0.57,0.17,0.98,0.38,1.24,0.63c0.26,0.25,0.39,0.58,0.39,0.99c0,0.5-0.17,0.9-0.51,1.19       c-0.34,0.29-0.8,0.43-1.38,0.43c-0.31,0-0.61-0.04-0.91-0.13C230.08,53.97,229.8,53.84,229.55,53.67z"
   id="path199"
   style="fill:#ffffff" />
					<path
   class="st0"
   d="M238.57,54.07h-0.96l-2.48-2.63h-0.02v2.63h-0.67v-7.98h0.67v5.1h0.02l2.36-2.51h0.88l-2.53,2.61       L238.57,54.07z"
   id="path201"
   style="fill:#ffffff" />
					<path
   class="st0"
   d="M243.27,54.07h-0.67V53.1h-0.02c-0.18,0.35-0.42,0.62-0.72,0.8c-0.3,0.19-0.64,0.28-1.02,0.28       c-0.51,0-0.92-0.15-1.22-0.44c-0.31-0.29-0.46-0.67-0.46-1.13c0-0.46,0.15-0.84,0.46-1.13c0.3-0.29,0.78-0.49,1.43-0.58       l1.55-0.22v-0.15c-0.01-0.48-0.13-0.84-0.34-1.07c-0.21-0.23-0.52-0.34-0.91-0.34c-0.3,0-0.58,0.05-0.85,0.16       c-0.26,0.11-0.51,0.27-0.74,0.5l-0.41-0.42c0.29-0.28,0.6-0.49,0.93-0.62c0.33-0.13,0.7-0.2,1.1-0.2c0.62,0,1.1,0.17,1.41,0.51       c0.32,0.34,0.48,0.84,0.48,1.5V54.07z M242.6,51.78v-0.53l-1.4,0.2c-0.49,0.07-0.84,0.19-1.05,0.36       c-0.21,0.17-0.32,0.43-0.32,0.76c0,0.32,0.1,0.57,0.3,0.76c0.2,0.19,0.46,0.28,0.79,0.28c0.49,0,0.89-0.17,1.2-0.52       S242.6,52.32,242.6,51.78z"
   id="path203"
   style="fill:#ffffff" />
					<path
   class="st0"
   d="M252.15,51.69c0,0.74-0.22,1.34-0.66,1.81c-0.44,0.47-0.99,0.7-1.66,0.7c-0.73,0-1.29-0.3-1.7-0.89       c-0.41-0.59-0.61-1.45-0.61-2.56c0-0.6,0.06-1.17,0.17-1.72c0.12-0.55,0.32-1.03,0.61-1.46c0.26-0.39,0.58-0.69,0.94-0.88       c0.36-0.2,0.78-0.29,1.25-0.29c0.25,0,0.5,0.04,0.75,0.11c0.25,0.08,0.49,0.2,0.73,0.36l-0.34,0.48       c-0.19-0.13-0.38-0.22-0.57-0.28s-0.4-0.09-0.63-0.09c-0.32,0-0.61,0.08-0.88,0.24c-0.27,0.16-0.52,0.4-0.73,0.72       c-0.19,0.29-0.34,0.65-0.44,1.07s-0.16,0.89-0.16,1.4h0.02c0.2-0.35,0.46-0.62,0.76-0.79c0.31-0.18,0.66-0.26,1.04-0.26       c0.64,0,1.15,0.22,1.53,0.66C251.96,50.45,252.15,51.01,252.15,51.69z M251.45,51.75c0-0.57-0.14-1.02-0.42-1.34       c-0.28-0.32-0.64-0.48-1.1-0.48c-0.49,0-0.89,0.17-1.2,0.51c-0.31,0.34-0.46,0.73-0.46,1.16c0,0.56,0.15,1.04,0.44,1.43       s0.68,0.58,1.16,0.58c0.46,0,0.84-0.17,1.13-0.51S251.45,52.31,251.45,51.75z"
   id="path205"
   style="fill:#ffffff" />
					<path
   class="st0"
   d="M260.99,54.07h-0.67V50.9c0-0.64-0.1-1.09-0.3-1.36c-0.2-0.27-0.52-0.41-0.97-0.41       c-0.4,0-0.74,0.18-1.02,0.53c-0.28,0.35-0.43,0.78-0.43,1.29v3.12h-0.67v-3.24c0-0.57-0.11-0.99-0.32-1.27       s-0.54-0.42-0.97-0.42c-0.41,0-0.75,0.17-1.02,0.51c-0.27,0.34-0.4,0.79-0.4,1.33v3.09h-0.67v-5.39h0.67v0.87h0.02       c0.19-0.34,0.43-0.59,0.7-0.75s0.6-0.25,0.96-0.25c0.38,0,0.71,0.11,0.98,0.33s0.46,0.5,0.56,0.85       c0.18-0.38,0.43-0.67,0.73-0.87c0.31-0.2,0.65-0.3,1.03-0.3c0.59,0,1.04,0.18,1.33,0.55c0.29,0.37,0.44,0.92,0.44,1.65V54.07z"
   id="path207"
   style="fill:#ffffff" />
					<path
   class="st0"
   d="M262.12,50.48v-0.21c0-0.2,0.03-0.38,0.08-0.53c0.05-0.15,0.12-0.28,0.21-0.39       c0.12-0.14,0.25-0.27,0.4-0.39c0.15-0.12,0.33-0.25,0.52-0.4c0.15-0.1,0.28-0.21,0.39-0.31c0.11-0.1,0.21-0.2,0.28-0.31       c0.07-0.1,0.13-0.21,0.17-0.33s0.06-0.25,0.06-0.4c0-0.27-0.08-0.48-0.23-0.63c-0.15-0.16-0.35-0.24-0.61-0.24       c-0.2,0-0.38,0.04-0.56,0.11c-0.17,0.07-0.34,0.18-0.49,0.34l-0.24-0.24c0.19-0.19,0.39-0.32,0.6-0.41s0.45-0.13,0.72-0.13       c0.38,0,0.67,0.11,0.89,0.33s0.32,0.5,0.32,0.83c0,0.18-0.03,0.35-0.08,0.5c-0.05,0.15-0.12,0.29-0.21,0.41       c-0.09,0.13-0.2,0.25-0.33,0.36c-0.13,0.11-0.27,0.22-0.42,0.34c-0.2,0.14-0.37,0.27-0.51,0.37c-0.14,0.11-0.25,0.21-0.33,0.3       c-0.08,0.1-0.14,0.2-0.18,0.3c-0.04,0.1-0.05,0.22-0.05,0.37h2.19v0.36H262.12z"
   id="path209"
   style="fill:#ffffff" />
				</g>
			</g>
			<g
   id="g238">
				<rect
   id="L4_7_"
   x="188.26"
   y="63"
   class="st6"
   width="15.04"
   height="15.04"
   style="stroke:#ffffff" />
				<g
   id="g236"
   style="fill:#ffffff">
					<path
   class="st0"
   d="M212.3,74.19l0.36-0.53c0.3,0.21,0.6,0.36,0.91,0.46c0.31,0.09,0.66,0.14,1.05,0.14       c0.48,0,0.88-0.13,1.18-0.38c0.31-0.26,0.46-0.61,0.46-1.07c0-0.38-0.12-0.68-0.37-0.92c-0.25-0.24-0.66-0.46-1.22-0.65       c-0.71-0.25-1.23-0.54-1.57-0.86c-0.33-0.32-0.5-0.74-0.5-1.24c0-0.61,0.21-1.11,0.63-1.47c0.42-0.37,0.98-0.55,1.68-0.55       c0.31,0,0.61,0.04,0.91,0.11c0.3,0.08,0.6,0.2,0.91,0.37l-0.29,0.56c-0.26-0.14-0.52-0.25-0.77-0.31       c-0.25-0.06-0.53-0.09-0.83-0.09c-0.46,0-0.84,0.12-1.12,0.35c-0.29,0.24-0.43,0.56-0.43,0.97c0,0.35,0.13,0.65,0.39,0.87       c0.26,0.23,0.68,0.44,1.27,0.65c0.71,0.25,1.23,0.53,1.54,0.86s0.47,0.76,0.47,1.3c0,0.64-0.21,1.16-0.64,1.56       s-1.01,0.6-1.75,0.6c-0.43,0-0.83-0.06-1.2-0.17S212.65,74.44,212.3,74.19z"
   id="path216"
   style="fill:#ffffff" />
					<path
   class="st0"
   d="M220.34,74.69c-0.13,0.07-0.27,0.12-0.41,0.15c-0.14,0.03-0.3,0.05-0.47,0.05c-0.39,0-0.69-0.12-0.91-0.35       c-0.22-0.23-0.33-0.58-0.33-1.03v-3.53h-0.95v-0.59h0.95v-1.37l0.67-0.22v1.59h1.39v0.59h-1.39v3.45       c0,0.31,0.06,0.53,0.17,0.67s0.28,0.21,0.5,0.21c0.12,0,0.22-0.01,0.32-0.04c0.1-0.03,0.19-0.06,0.26-0.11L220.34,74.69z"
   id="path218"
   style="fill:#ffffff" />
					<path
   class="st0"
   d="M223.61,74.9c-0.79,0-1.42-0.25-1.89-0.77c-0.47-0.51-0.7-1.18-0.7-2.01c0-0.9,0.24-1.6,0.73-2.11       s1.14-0.76,1.95-0.77c0.79,0,1.4,0.25,1.85,0.75s0.67,1.19,0.67,2.07c0,0.85-0.23,1.53-0.71,2.05       C225.05,74.64,224.42,74.9,223.61,74.9z M223.65,74.32c0.6,0,1.07-0.2,1.4-0.59c0.33-0.39,0.49-0.94,0.49-1.64       c0-0.72-0.16-1.28-0.49-1.67c-0.33-0.39-0.79-0.58-1.38-0.58c-0.59,0-1.07,0.2-1.42,0.61s-0.53,0.96-0.53,1.67       c0,0.67,0.17,1.21,0.52,1.6C222.59,74.12,223.06,74.32,223.65,74.32z"
   id="path220"
   style="fill:#ffffff" />
					<path
   class="st0"
   d="M227.92,68.07c-0.15,0-0.27-0.05-0.37-0.15c-0.1-0.1-0.15-0.22-0.15-0.37c0-0.14,0.05-0.27,0.15-0.36       c0.1-0.1,0.22-0.15,0.37-0.15s0.27,0.05,0.37,0.15c0.1,0.1,0.15,0.22,0.15,0.36c0,0.15-0.05,0.27-0.15,0.37       C228.19,68.02,228.07,68.07,227.92,68.07z M228.25,74.78h-0.67v-5.39h0.67V74.78z"
   id="path222"
   style="fill:#ffffff" />
					<path
   class="st0"
   d="M229.48,74.38l0.33-0.53c0.21,0.14,0.43,0.25,0.66,0.34c0.23,0.09,0.48,0.13,0.76,0.13       c0.41,0,0.71-0.09,0.92-0.26s0.31-0.41,0.31-0.72c0-0.24-0.08-0.43-0.25-0.6c-0.17-0.16-0.48-0.31-0.93-0.45       c-0.61-0.17-1.03-0.38-1.27-0.63c-0.23-0.25-0.35-0.55-0.35-0.91c0-0.44,0.16-0.8,0.48-1.08c0.32-0.28,0.76-0.42,1.31-0.42       c0.26,0,0.52,0.03,0.77,0.1c0.25,0.07,0.5,0.18,0.76,0.34l-0.32,0.52c-0.21-0.13-0.41-0.22-0.62-0.28       c-0.2-0.06-0.41-0.09-0.62-0.09c-0.36,0-0.64,0.08-0.83,0.23c-0.19,0.15-0.29,0.36-0.29,0.62c0,0.25,0.09,0.45,0.26,0.58       s0.48,0.27,0.92,0.4c0.57,0.17,0.98,0.38,1.24,0.63c0.26,0.25,0.39,0.58,0.39,0.99c0,0.5-0.17,0.9-0.51,1.19       c-0.34,0.29-0.8,0.43-1.38,0.43c-0.31,0-0.61-0.04-0.91-0.13C230.01,74.68,229.74,74.55,229.48,74.38z"
   id="path224"
   style="fill:#ffffff" />
					<path
   class="st0"
   d="M238.51,74.78h-0.96l-2.48-2.63h-0.02v2.63h-0.67V66.8h0.67v5.1h0.02l2.36-2.51h0.88l-2.53,2.61       L238.51,74.78z"
   id="path226"
   style="fill:#ffffff" />
					<path
   class="st0"
   d="M243.21,74.78h-0.67v-0.96h-0.02c-0.18,0.35-0.42,0.62-0.72,0.8c-0.3,0.19-0.64,0.28-1.02,0.28       c-0.51,0-0.92-0.15-1.22-0.44c-0.31-0.29-0.46-0.67-0.46-1.13c0-0.46,0.15-0.84,0.46-1.13c0.3-0.29,0.78-0.49,1.43-0.58       l1.55-0.22v-0.15c-0.01-0.48-0.13-0.84-0.34-1.07c-0.21-0.23-0.52-0.34-0.91-0.34c-0.3,0-0.58,0.05-0.85,0.16       c-0.26,0.11-0.51,0.27-0.74,0.5l-0.41-0.42c0.29-0.28,0.6-0.49,0.93-0.62c0.33-0.13,0.7-0.2,1.1-0.2c0.62,0,1.1,0.17,1.41,0.51       c0.32,0.34,0.48,0.84,0.48,1.5V74.78z M242.53,72.49v-0.53l-1.4,0.2c-0.49,0.07-0.84,0.19-1.05,0.36       c-0.21,0.17-0.32,0.43-0.32,0.76c0,0.32,0.1,0.57,0.3,0.76c0.2,0.19,0.46,0.28,0.79,0.28c0.49,0,0.89-0.17,1.2-0.52       S242.53,73.03,242.53,72.49z"
   id="path228"
   style="fill:#ffffff" />
					<path
   class="st0"
   d="M251.62,67.2v5.11h0.92v0.62h-0.92v1.89h-0.69v-1.89h-3.68V72.3c0.34-0.38,0.69-0.79,1.04-1.22       c0.35-0.43,0.69-0.88,1.01-1.32c0.32-0.45,0.62-0.89,0.89-1.33c0.27-0.44,0.5-0.85,0.69-1.24H251.62z M248.04,72.3h2.89v-4.02       c-0.27,0.45-0.53,0.88-0.79,1.27c-0.26,0.39-0.52,0.75-0.76,1.09c-0.25,0.33-0.49,0.64-0.71,0.91       C248.43,71.83,248.23,72.08,248.04,72.3z"
   id="path230"
   style="fill:#ffffff" />
					<path
   class="st0"
   d="M261.16,74.78h-0.67v-3.17c0-0.64-0.1-1.09-0.3-1.36c-0.2-0.27-0.52-0.41-0.97-0.41       c-0.4,0-0.74,0.18-1.02,0.53c-0.28,0.35-0.43,0.78-0.43,1.29v3.12h-0.67v-3.24c0-0.57-0.11-0.99-0.32-1.27       s-0.54-0.42-0.97-0.42c-0.41,0-0.75,0.17-1.02,0.51c-0.27,0.34-0.4,0.79-0.4,1.33v3.09h-0.67v-5.39h0.67v0.87h0.02       c0.19-0.34,0.43-0.59,0.7-0.75s0.6-0.25,0.96-0.25c0.38,0,0.71,0.11,0.98,0.33s0.46,0.5,0.56,0.85       c0.18-0.38,0.43-0.67,0.73-0.87c0.31-0.2,0.65-0.3,1.03-0.3c0.59,0,1.04,0.18,1.33,0.55c0.29,0.37,0.44,0.92,0.44,1.65V74.78z"
   id="path232"
   style="fill:#ffffff" />
					<path
   class="st0"
   d="M262.29,71.19v-0.21c0-0.2,0.03-0.38,0.08-0.53c0.05-0.15,0.12-0.28,0.21-0.39       c0.12-0.14,0.25-0.27,0.4-0.39c0.15-0.12,0.33-0.25,0.52-0.4c0.15-0.1,0.28-0.21,0.39-0.31c0.11-0.1,0.21-0.2,0.28-0.31       c0.07-0.1,0.13-0.21,0.17-0.33s0.06-0.25,0.06-0.4c0-0.27-0.08-0.48-0.23-0.63c-0.15-0.16-0.35-0.24-0.61-0.24       c-0.2,0-0.38,0.04-0.56,0.11c-0.17,0.07-0.34,0.18-0.49,0.34l-0.24-0.24c0.19-0.19,0.39-0.32,0.6-0.41s0.45-0.13,0.72-0.13       c0.38,0,0.67,0.11,0.89,0.33s0.32,0.5,0.32,0.83c0,0.18-0.03,0.35-0.08,0.5c-0.05,0.15-0.12,0.29-0.21,0.41       c-0.09,0.13-0.2,0.25-0.33,0.36c-0.13,0.11-0.27,0.22-0.42,0.34c-0.2,0.14-0.37,0.27-0.51,0.37c-0.14,0.11-0.25,0.21-0.33,0.3       c-0.08,0.1-0.14,0.2-0.18,0.3c-0.04,0.1-0.05,0.22-0.05,0.37h2.19v0.36H262.29z"
   id="path234"
   style="fill:#ffffff" />
				</g>
			</g>
		</g>
	</g>
</g>
<g
   id="g246">
</g>
<g
   id="g248">
</g>
<g
   id="g250">
</g>
<g
   id="g252">
</g>
<g
   id="g254">
</g>
<g
   id="g256">
</g>
</svg>
