<?xml version="1.0" encoding="UTF-8" standalone="no"?>
<!-- Generator: Adobe Illustrator 23.0.1, SVG Export Plug-In . SVG Version: 6.00 Build 0)  -->

<svg
   version="1.1"
   id="Warstwa_1"
   x="0px"
   y="0px"
   viewBox="0 0 259.81999 76.979987"
   xml:space="preserve"
   sodipodi:docname="legend-24.svg"
   width="259.82001"
   height="76.979988"
   inkscape:version="1.1.2 (b8e25be833, 2022-02-05)"
   xmlns:inkscape="http://www.inkscape.org/namespaces/inkscape"
   xmlns:sodipodi="http://sodipodi.sourceforge.net/DTD/sodipodi-0.dtd"
   xmlns="http://www.w3.org/2000/svg"
   xmlns:svg="http://www.w3.org/2000/svg"><defs
   id="defs263" /><sodipodi:namedview
   id="namedview261"
   pagecolor="#ffffff"
   bordercolor="#cccccc"
   borderopacity="1"
   inkscape:pageshadow="0"
   inkscape:pageopacity="1"
   inkscape:pagecheckerboard="0"
   showgrid="false"
   inkscape:zoom="0.96330873"
   inkscape:cx="132.87537"
   inkscape:cy="45.156863"
   inkscape:window-width="1920"
   inkscape:window-height="992"
   inkscape:window-x="-8"
   inkscape:window-y="-8"
   inkscape:window-maximized="1"
   inkscape:current-layer="Warstwa_1" />
<style
   type="text/css"
   id="style2">
	.st0{fill:#020203;}
	.st1{fill:#662681;stroke:#020203;stroke-miterlimit:10;}
	.st2{fill:#D61052;stroke:#020203;stroke-miterlimit:10;}
	.st3{fill:#A31B5C;stroke:#020203;stroke-miterlimit:10;}
	.st4{fill:#E8501D;stroke:#020203;stroke-miterlimit:10;}
	.st5{fill:#F29104;stroke:#020203;stroke-miterlimit:10;}
	.st6{fill:#FBEA1C;stroke:#020203;stroke-miterlimit:10;}
</style>
<g
   id="g258"
   transform="translate(-165.33,-384.05)">
	<g
   id="g32">
		<g
   id="g30">
			<path
   class="st0"
   d="m 175.87,394.57 h -4.92 v -9.95 h 0.93 v 9.11 h 3.99 z"
   id="path4" />
			<path
   class="st0"
   d="m 182.97,391.15 h -5.14 c 0.01,0.95 0.24,1.65 0.68,2.12 0.44,0.46 1.04,0.69 1.78,0.69 0.33,0 0.67,-0.05 1,-0.16 0.33,-0.11 0.67,-0.28 0.99,-0.51 l 0.44,0.64 c -0.39,0.28 -0.79,0.48 -1.2,0.61 -0.4,0.13 -0.85,0.19 -1.33,0.19 -0.97,0 -1.76,-0.31 -2.37,-0.92 -0.61,-0.62 -0.91,-1.54 -0.92,-2.78 0,-1.09 0.3,-1.99 0.9,-2.69 0.6,-0.7 1.38,-1.05 2.33,-1.05 0.9,0 1.6,0.31 2.09,0.92 0.49,0.61 0.74,1.45 0.74,2.52 v 0.42 z m -0.91,-0.75 c -0.02,-0.74 -0.2,-1.31 -0.54,-1.72 -0.34,-0.41 -0.81,-0.62 -1.41,-0.62 -0.61,0 -1.11,0.21 -1.52,0.62 -0.41,0.41 -0.65,0.99 -0.74,1.72 z"
   id="path6" />
			<path
   class="st0"
   d="m 190.58,394.17 c 0,1.24 -0.3,2.18 -0.91,2.8 -0.61,0.63 -1.47,0.94 -2.58,0.94 -0.47,0 -0.9,-0.05 -1.3,-0.14 -0.4,-0.09 -0.81,-0.24 -1.22,-0.45 l 0.34,-0.7 c 0.37,0.18 0.72,0.31 1.07,0.39 0.35,0.08 0.72,0.12 1.13,0.12 0.79,0 1.42,-0.23 1.89,-0.68 0.47,-0.45 0.7,-1.16 0.7,-2.12 v -1 h -0.03 c -0.27,0.47 -0.62,0.82 -1.04,1.05 -0.42,0.23 -0.91,0.35 -1.47,0.35 -0.88,0 -1.59,-0.31 -2.14,-0.94 -0.55,-0.63 -0.82,-1.5 -0.82,-2.61 0,-1.15 0.3,-2.08 0.89,-2.81 0.59,-0.73 1.38,-1.09 2.36,-1.09 0.5,0 0.93,0.1 1.3,0.31 0.37,0.21 0.67,0.51 0.91,0.92 h 0.03 v -1.05 h 0.89 z m -0.89,-2.7 v -1.23 c 0,-0.6 -0.2,-1.11 -0.61,-1.54 -0.4,-0.43 -0.92,-0.64 -1.54,-0.64 -0.74,0 -1.33,0.27 -1.77,0.8 -0.44,0.53 -0.66,1.29 -0.66,2.27 0,0.95 0.2,1.66 0.61,2.13 0.41,0.47 0.95,0.71 1.63,0.71 0.7,0 1.26,-0.24 1.69,-0.71 0.44,-0.48 0.65,-1.07 0.65,-1.79 z"
   id="path8" />
			<path
   class="st0"
   d="m 198.43,391.15 h -5.14 c 0.01,0.95 0.24,1.65 0.68,2.12 0.44,0.46 1.04,0.69 1.78,0.69 0.33,0 0.67,-0.05 1,-0.16 0.33,-0.11 0.67,-0.28 0.99,-0.51 l 0.44,0.64 c -0.39,0.28 -0.79,0.48 -1.2,0.61 -0.4,0.13 -0.85,0.19 -1.33,0.19 -0.97,0 -1.76,-0.31 -2.37,-0.92 -0.61,-0.62 -0.91,-1.54 -0.92,-2.78 0,-1.09 0.3,-1.99 0.9,-2.69 0.6,-0.7 1.38,-1.05 2.33,-1.05 0.9,0 1.6,0.31 2.09,0.92 0.49,0.61 0.74,1.45 0.74,2.52 v 0.42 z m -0.92,-0.75 c -0.02,-0.74 -0.2,-1.31 -0.54,-1.72 -0.34,-0.41 -0.81,-0.62 -1.41,-0.62 -0.61,0 -1.11,0.21 -1.52,0.62 -0.41,0.41 -0.65,0.99 -0.74,1.72 z"
   id="path10" />
			<path
   class="st0"
   d="m 205.85,394.57 h -0.89 v -4.09 c 0,-0.8 -0.15,-1.41 -0.44,-1.81 -0.29,-0.4 -0.73,-0.6 -1.31,-0.6 -0.63,0 -1.14,0.23 -1.55,0.7 -0.41,0.47 -0.61,1.05 -0.61,1.74 v 4.07 h -0.89 v -7.11 h 0.89 v 1.24 h 0.03 c 0.26,-0.47 0.59,-0.82 0.99,-1.06 0.4,-0.23 0.86,-0.35 1.39,-0.35 0.77,0 1.36,0.25 1.77,0.76 0.41,0.51 0.61,1.23 0.61,2.18 v 4.33 z"
   id="path12" />
			<path
   class="st0"
   d="m 212.95,393.32 c -0.25,0.45 -0.59,0.8 -1.02,1.05 -0.43,0.25 -0.92,0.37 -1.49,0.37 -0.88,0 -1.6,-0.32 -2.14,-0.95 -0.54,-0.64 -0.82,-1.51 -0.82,-2.62 0,-1.16 0.3,-2.1 0.89,-2.81 0.6,-0.71 1.38,-1.06 2.36,-1.06 0.51,0 0.95,0.1 1.32,0.31 0.37,0.21 0.66,0.51 0.89,0.93 h 0.03 v -4.48 h 0.89 v 10.52 h -0.89 v -1.25 h -0.02 z m -4.55,-2.21 c 0,0.9 0.2,1.6 0.61,2.1 0.41,0.5 0.95,0.76 1.61,0.76 0.72,0 1.29,-0.24 1.71,-0.72 0.42,-0.48 0.63,-1.07 0.63,-1.79 v -1.19 c 0,-0.62 -0.2,-1.14 -0.6,-1.57 -0.4,-0.43 -0.92,-0.64 -1.56,-0.64 -0.72,0 -1.3,0.27 -1.75,0.81 -0.43,0.54 -0.65,1.29 -0.65,2.24 z"
   id="path14" />
			<path
   class="st0"
   d="m 221.11,394.57 h -0.89 v -1.27 h -0.03 c -0.24,0.46 -0.55,0.81 -0.95,1.06 -0.4,0.25 -0.85,0.38 -1.35,0.38 -0.67,0 -1.21,-0.19 -1.61,-0.58 -0.4,-0.38 -0.6,-0.88 -0.6,-1.49 0,-0.61 0.2,-1.1 0.6,-1.49 0.4,-0.39 1.03,-0.65 1.89,-0.77 l 2.05,-0.29 v -0.19 c -0.02,-0.64 -0.17,-1.11 -0.45,-1.41 -0.28,-0.3 -0.68,-0.45 -1.19,-0.45 -0.4,0 -0.77,0.07 -1.12,0.21 -0.35,0.14 -0.67,0.36 -0.98,0.66 l -0.53,-0.56 c 0.38,-0.37 0.79,-0.64 1.22,-0.82 0.43,-0.18 0.92,-0.26 1.45,-0.26 0.82,0 1.44,0.22 1.86,0.67 0.42,0.45 0.63,1.11 0.63,1.98 z m -0.89,-3.01 v -0.7 l -1.84,0.26 c -0.64,0.09 -1.1,0.25 -1.38,0.48 -0.28,0.23 -0.42,0.56 -0.42,1.01 0,0.42 0.13,0.76 0.4,1.01 0.26,0.25 0.61,0.37 1.04,0.37 0.65,0 1.18,-0.23 1.58,-0.68 0.41,-0.46 0.62,-1.05 0.62,-1.75 z"
   id="path16" />
			<path
   class="st0"
   d="m 226.48,394.04 0.43,-0.7 c 0.27,0.19 0.56,0.34 0.86,0.45 0.3,0.12 0.63,0.17 1,0.17 0.54,0 0.94,-0.11 1.21,-0.34 0.27,-0.23 0.41,-0.54 0.41,-0.95 0,-0.31 -0.11,-0.57 -0.33,-0.79 -0.22,-0.22 -0.63,-0.41 -1.22,-0.59 -0.8,-0.23 -1.36,-0.5 -1.67,-0.83 -0.31,-0.33 -0.46,-0.73 -0.46,-1.2 0,-0.58 0.21,-1.06 0.64,-1.43 0.43,-0.37 1,-0.55 1.72,-0.55 0.35,0 0.69,0.04 1.02,0.13 0.33,0.09 0.67,0.24 1,0.45 l -0.42,0.69 c -0.27,-0.17 -0.54,-0.29 -0.81,-0.38 -0.27,-0.08 -0.54,-0.12 -0.82,-0.12 -0.48,0 -0.84,0.1 -1.1,0.3 -0.25,0.2 -0.38,0.47 -0.38,0.81 0,0.33 0.11,0.59 0.34,0.77 0.23,0.18 0.63,0.36 1.21,0.53 0.75,0.23 1.29,0.5 1.63,0.83 0.34,0.32 0.51,0.76 0.51,1.3 0,0.66 -0.22,1.18 -0.67,1.56 -0.44,0.38 -1.05,0.57 -1.82,0.57 -0.41,0 -0.81,-0.06 -1.19,-0.17 -0.39,-0.1 -0.75,-0.28 -1.09,-0.51 z"
   id="path18" />
			<path
   class="st0"
   d="m 236.05,394.45 c -0.18,0.09 -0.36,0.15 -0.54,0.2 -0.18,0.04 -0.39,0.07 -0.62,0.07 -0.51,0 -0.91,-0.15 -1.2,-0.46 -0.29,-0.31 -0.43,-0.76 -0.43,-1.36 v -4.66 H 232 v -0.78 h 1.25 v -1.8 l 0.89,-0.29 v 2.09 h 1.83 v 0.78 h -1.83 v 4.55 c 0,0.41 0.08,0.7 0.23,0.88 0.15,0.18 0.37,0.27 0.66,0.27 0.15,0 0.29,-0.02 0.42,-0.06 0.13,-0.04 0.25,-0.08 0.35,-0.14 z"
   id="path20" />
			<path
   class="st0"
   d="m 240.36,394.74 c -1.05,0 -1.88,-0.34 -2.49,-1.01 -0.61,-0.67 -0.92,-1.56 -0.92,-2.65 0,-1.18 0.32,-2.11 0.96,-2.78 0.64,-0.67 1.5,-1 2.57,-1.01 1.04,0 1.85,0.33 2.44,0.99 0.59,0.66 0.89,1.57 0.89,2.73 0,1.12 -0.31,2.02 -0.93,2.7 -0.62,0.68 -1.46,1.03 -2.52,1.03 z m 0.05,-0.78 c 0.8,0 1.41,-0.26 1.84,-0.77 0.43,-0.52 0.65,-1.24 0.65,-2.17 0,-0.95 -0.21,-1.68 -0.65,-2.2 -0.43,-0.51 -1.04,-0.77 -1.83,-0.77 -0.78,0 -1.4,0.27 -1.87,0.8 -0.46,0.53 -0.69,1.27 -0.69,2.21 0,0.88 0.23,1.59 0.69,2.11 0.46,0.53 1.08,0.79 1.86,0.79 z"
   id="path22" />
			<path
   class="st0"
   d="m 246.04,385.73 c -0.19,0 -0.36,-0.07 -0.49,-0.2 -0.13,-0.13 -0.2,-0.29 -0.2,-0.49 0,-0.19 0.07,-0.35 0.2,-0.48 0.13,-0.13 0.29,-0.19 0.49,-0.19 0.2,0 0.36,0.06 0.49,0.19 0.13,0.13 0.2,0.29 0.2,0.48 0,0.19 -0.07,0.36 -0.2,0.49 -0.14,0.13 -0.3,0.2 -0.49,0.2 z m 0.43,8.84 h -0.89 v -7.11 h 0.89 z"
   id="path24" />
			<path
   class="st0"
   d="m 248.1,394.04 0.43,-0.7 c 0.27,0.19 0.56,0.34 0.86,0.45 0.3,0.12 0.63,0.17 1,0.17 0.54,0 0.94,-0.11 1.21,-0.34 0.27,-0.23 0.41,-0.54 0.41,-0.95 0,-0.31 -0.11,-0.57 -0.33,-0.79 -0.22,-0.22 -0.63,-0.41 -1.22,-0.59 -0.8,-0.23 -1.36,-0.5 -1.67,-0.83 -0.31,-0.33 -0.46,-0.73 -0.46,-1.2 0,-0.58 0.21,-1.06 0.64,-1.43 0.43,-0.37 1,-0.55 1.72,-0.55 0.35,0 0.69,0.04 1.02,0.13 0.33,0.09 0.67,0.24 1,0.45 l -0.42,0.69 c -0.27,-0.17 -0.54,-0.29 -0.81,-0.38 -0.27,-0.08 -0.54,-0.12 -0.82,-0.12 -0.48,0 -0.84,0.1 -1.1,0.3 -0.25,0.2 -0.38,0.47 -0.38,0.81 0,0.33 0.11,0.59 0.34,0.77 0.23,0.18 0.63,0.36 1.21,0.53 0.75,0.23 1.29,0.5 1.63,0.83 0.34,0.32 0.51,0.76 0.51,1.3 0,0.66 -0.22,1.18 -0.67,1.56 -0.44,0.38 -1.05,0.57 -1.82,0.57 -0.41,0 -0.81,-0.06 -1.19,-0.17 -0.4,-0.1 -0.76,-0.28 -1.09,-0.51 z"
   id="path26" />
			<path
   class="st0"
   d="m 259.99,394.57 h -1.26 l -3.27,-3.46 h -0.03 v 3.46 h -0.89 v -10.52 h 0.89 v 6.72 h 0.03 l 3.11,-3.31 h 1.16 l -3.34,3.43 z"
   id="path28" />
		</g>
	</g>
	<g
   id="g256">
		<g
   id="g77">
			<rect
   id="L4_22_"
   x="165.83"
   y="404.07001"
   class="st1"
   width="15.04"
   height="15.04" />
			<g
   id="g75">
				<g
   id="g73">
					<path
   class="st0"
   d="m 192.41,415.26 0.36,-0.53 c 0.3,0.21 0.6,0.36 0.91,0.46 0.31,0.09 0.66,0.14 1.05,0.14 0.48,0 0.88,-0.13 1.18,-0.38 0.31,-0.26 0.46,-0.61 0.46,-1.07 0,-0.38 -0.12,-0.68 -0.37,-0.92 -0.25,-0.24 -0.66,-0.46 -1.22,-0.65 -0.71,-0.25 -1.23,-0.54 -1.57,-0.86 -0.33,-0.32 -0.5,-0.74 -0.5,-1.24 0,-0.61 0.21,-1.11 0.63,-1.47 0.42,-0.37 0.98,-0.55 1.68,-0.55 0.31,0 0.61,0.04 0.91,0.11 0.3,0.08 0.6,0.2 0.91,0.37 l -0.29,0.56 c -0.26,-0.14 -0.52,-0.25 -0.77,-0.31 -0.25,-0.06 -0.53,-0.09 -0.83,-0.09 -0.46,0 -0.84,0.12 -1.12,0.35 -0.29,0.24 -0.43,0.56 -0.43,0.97 0,0.35 0.13,0.65 0.39,0.87 0.26,0.23 0.68,0.44 1.27,0.65 0.71,0.25 1.23,0.53 1.54,0.86 0.31,0.33 0.47,0.76 0.47,1.3 0,0.64 -0.21,1.16 -0.64,1.56 -0.43,0.4 -1.01,0.6 -1.75,0.6 -0.43,0 -0.83,-0.06 -1.2,-0.17 -0.37,-0.11 -0.72,-0.31 -1.07,-0.56 z"
   id="path35" />
					<path
   class="st0"
   d="m 199.13,414.98 h -0.02 v 3.35 h -0.67 v -7.87 h 0.67 v 1.03 h 0.02 c 0.2,-0.38 0.47,-0.66 0.81,-0.86 0.33,-0.2 0.71,-0.3 1.13,-0.3 0.69,0 1.23,0.24 1.61,0.72 0.38,0.48 0.58,1.12 0.58,1.93 0,0.9 -0.22,1.63 -0.66,2.18 -0.44,0.55 -1.03,0.82 -1.77,0.82 -0.38,0 -0.71,-0.08 -1,-0.25 -0.29,-0.17 -0.51,-0.42 -0.7,-0.75 z m -0.02,-2.09 v 0.72 c 0,0.49 0.16,0.91 0.47,1.26 0.31,0.35 0.72,0.52 1.22,0.52 0.54,0 0.97,-0.22 1.29,-0.65 0.32,-0.44 0.48,-1.02 0.48,-1.76 0,-0.64 -0.15,-1.14 -0.44,-1.51 -0.3,-0.37 -0.7,-0.55 -1.2,-0.55 -0.57,0 -1.01,0.19 -1.33,0.58 -0.33,0.37 -0.49,0.84 -0.49,1.39 z"
   id="path37" />
					<path
   class="st0"
   d="m 206.83,415.97 c -0.79,0 -1.42,-0.25 -1.89,-0.77 -0.47,-0.51 -0.7,-1.18 -0.7,-2.01 0,-0.9 0.24,-1.6 0.73,-2.11 0.49,-0.51 1.14,-0.76 1.95,-0.77 0.79,0 1.4,0.25 1.85,0.75 0.45,0.5 0.67,1.19 0.67,2.07 0,0.85 -0.23,1.53 -0.71,2.05 -0.46,0.53 -1.1,0.79 -1.9,0.79 z m 0.04,-0.58 c 0.6,0 1.07,-0.2 1.4,-0.59 0.33,-0.39 0.49,-0.94 0.49,-1.64 0,-0.72 -0.16,-1.28 -0.49,-1.67 -0.33,-0.39 -0.79,-0.58 -1.38,-0.58 -0.59,0 -1.07,0.2 -1.42,0.61 -0.35,0.41 -0.53,0.96 -0.53,1.67 0,0.67 0.17,1.21 0.52,1.6 0.34,0.4 0.81,0.6 1.41,0.6 z"
   id="path39" />
					<path
   class="st0"
   d="m 215.11,415.85 h -0.67 v -3.11 c 0,-0.61 -0.11,-1.07 -0.33,-1.37 -0.22,-0.31 -0.55,-0.46 -1,-0.46 -0.47,0 -0.87,0.18 -1.17,0.53 -0.3,0.35 -0.46,0.79 -0.46,1.32 v 3.08 h -0.67 v -5.39 h 0.67 v 0.94 h 0.02 c 0.2,-0.36 0.45,-0.63 0.75,-0.8 0.3,-0.18 0.65,-0.27 1.05,-0.27 0.59,0 1.03,0.19 1.34,0.58 0.31,0.38 0.47,0.94 0.47,1.66 z"
   id="path41" />
					<path
   class="st0"
   d="m 216.22,415.45 0.33,-0.53 c 0.21,0.14 0.43,0.25 0.66,0.34 0.23,0.09 0.48,0.13 0.76,0.13 0.41,0 0.71,-0.09 0.92,-0.26 0.21,-0.17 0.31,-0.41 0.31,-0.72 0,-0.24 -0.08,-0.43 -0.25,-0.6 -0.17,-0.16 -0.48,-0.31 -0.93,-0.45 -0.61,-0.17 -1.03,-0.38 -1.27,-0.63 -0.23,-0.25 -0.35,-0.55 -0.35,-0.91 0,-0.44 0.16,-0.8 0.48,-1.08 0.32,-0.28 0.76,-0.42 1.31,-0.42 0.26,0 0.52,0.03 0.77,0.1 0.25,0.07 0.5,0.18 0.76,0.34 l -0.32,0.52 c -0.21,-0.13 -0.41,-0.22 -0.62,-0.28 -0.2,-0.06 -0.41,-0.09 -0.62,-0.09 -0.36,0 -0.64,0.08 -0.83,0.23 -0.19,0.15 -0.29,0.36 -0.29,0.62 0,0.25 0.09,0.45 0.26,0.58 0.17,0.13 0.48,0.27 0.92,0.4 0.57,0.17 0.98,0.38 1.24,0.63 0.26,0.25 0.39,0.58 0.39,0.99 0,0.5 -0.17,0.9 -0.51,1.19 -0.34,0.29 -0.8,0.43 -1.38,0.43 -0.31,0 -0.61,-0.04 -0.91,-0.13 -0.3,-0.1 -0.58,-0.23 -0.83,-0.4 z"
   id="path43" />
					<path
   class="st0"
   d="m 223.32,415.97 c -0.79,0 -1.42,-0.25 -1.89,-0.77 -0.47,-0.51 -0.7,-1.18 -0.7,-2.01 0,-0.9 0.24,-1.6 0.73,-2.11 0.49,-0.51 1.14,-0.76 1.95,-0.77 0.79,0 1.4,0.25 1.85,0.75 0.45,0.5 0.67,1.19 0.67,2.07 0,0.85 -0.23,1.53 -0.71,2.05 -0.46,0.53 -1.1,0.79 -1.9,0.79 z m 0.04,-0.58 c 0.6,0 1.07,-0.2 1.4,-0.59 0.33,-0.39 0.49,-0.94 0.49,-1.64 0,-0.72 -0.16,-1.28 -0.49,-1.67 -0.33,-0.39 -0.79,-0.58 -1.38,-0.58 -0.59,0 -1.07,0.2 -1.42,0.61 -0.35,0.41 -0.53,0.96 -0.53,1.67 0,0.67 0.17,1.21 0.52,1.6 0.34,0.4 0.81,0.6 1.41,0.6 z"
   id="path45" />
					<path
   class="st0"
   d="m 229.86,411.04 c -0.08,-0.03 -0.15,-0.05 -0.21,-0.06 -0.07,-0.01 -0.14,-0.02 -0.22,-0.02 -0.45,0 -0.81,0.21 -1.07,0.62 -0.27,0.41 -0.4,0.95 -0.4,1.62 v 2.64 h -0.67 v -5.39 h 0.67 v 1.13 h 0.02 c 0.12,-0.39 0.32,-0.7 0.58,-0.91 0.26,-0.21 0.57,-0.32 0.93,-0.32 0.09,0 0.18,0 0.25,0.02 0.08,0.01 0.16,0.03 0.23,0.05 z"
   id="path47" />
					<path
   class="st0"
   d="m 238.35,415.54 c 0,0.94 -0.23,1.65 -0.69,2.13 -0.46,0.47 -1.11,0.71 -1.96,0.71 -0.35,0 -0.68,-0.04 -0.99,-0.11 -0.31,-0.07 -0.61,-0.18 -0.93,-0.34 l 0.26,-0.53 c 0.28,0.14 0.55,0.24 0.81,0.3 0.26,0.06 0.55,0.09 0.86,0.09 0.6,0 1.08,-0.17 1.43,-0.51 0.36,-0.34 0.53,-0.88 0.53,-1.61 v -0.76 h -0.02 c -0.21,0.35 -0.47,0.62 -0.79,0.8 -0.32,0.18 -0.69,0.27 -1.11,0.27 -0.67,0 -1.21,-0.24 -1.62,-0.71 -0.41,-0.47 -0.62,-1.13 -0.62,-1.98 0,-0.87 0.23,-1.58 0.68,-2.13 0.45,-0.55 1.05,-0.83 1.79,-0.83 0.38,0 0.71,0.08 0.99,0.23 0.28,0.16 0.51,0.39 0.69,0.7 h 0.02 v -0.8 h 0.67 z m -0.67,-2.04 v -0.93 c 0,-0.45 -0.15,-0.84 -0.46,-1.17 -0.31,-0.33 -0.7,-0.49 -1.17,-0.49 -0.57,0 -1.01,0.2 -1.35,0.61 -0.33,0.41 -0.5,0.98 -0.5,1.72 0,0.72 0.15,1.26 0.46,1.62 0.31,0.36 0.72,0.54 1.24,0.54 0.53,0 0.96,-0.18 1.28,-0.54 0.34,-0.37 0.5,-0.82 0.5,-1.36 z"
   id="path49" />
					<path
   class="st0"
   d="m 240.94,415.85 h -0.67 v -3.18 l -0.72,0.54 -0.31,-0.45 1.03,-0.75 v -4.13 h 0.67 v 3.65 l 0.75,-0.55 0.3,0.45 -1.05,0.77 z"
   id="path51" />
					<path
   class="st0"
   d="m 245.09,415.97 c -0.79,0 -1.42,-0.25 -1.89,-0.77 -0.47,-0.51 -0.7,-1.18 -0.7,-2.01 0,-0.9 0.24,-1.6 0.73,-2.11 0.49,-0.51 1.14,-0.76 1.95,-0.77 0.79,0 1.4,0.25 1.85,0.75 0.45,0.5 0.67,1.19 0.67,2.07 0,0.85 -0.23,1.53 -0.71,2.05 -0.46,0.53 -1.1,0.79 -1.9,0.79 z m 0.04,-0.58 c 0.6,0 1.07,-0.2 1.4,-0.59 0.33,-0.39 0.49,-0.94 0.49,-1.64 0,-0.72 -0.16,-1.28 -0.49,-1.67 -0.33,-0.39 -0.79,-0.58 -1.38,-0.58 -0.59,0 -1.07,0.2 -1.42,0.61 -0.35,0.41 -0.53,0.96 -0.53,1.67 0,0.67 0.17,1.21 0.52,1.6 0.34,0.4 0.81,0.6 1.41,0.6 z m -0.03,-5.95 h -0.57 l 1.21,-1.73 h 0.71 z"
   id="path53" />
					<path
   class="st0"
   d="m 255.57,410.46 -1.64,5.39 h -0.67 l -1.15,-3.97 c -0.02,-0.08 -0.04,-0.15 -0.05,-0.22 -0.01,-0.07 -0.02,-0.15 -0.03,-0.25 H 252 c 0,0.06 -0.01,0.13 -0.03,0.2 -0.02,0.07 -0.04,0.16 -0.07,0.26 l -1.26,3.97 h -0.66 l -1.63,-5.39 h 0.72 l 1.18,4.17 c 0.02,0.06 0.03,0.13 0.04,0.21 0.01,0.08 0.02,0.17 0.03,0.26 h 0.04 c 0,-0.06 0.01,-0.13 0.03,-0.21 0.02,-0.08 0.04,-0.17 0.07,-0.26 l 1.31,-4.17 h 0.56 l 1.17,4.18 c 0.01,0.06 0.03,0.13 0.04,0.21 0.01,0.08 0.02,0.16 0.03,0.26 h 0.04 c 0,-0.06 0.01,-0.13 0.03,-0.21 0.01,-0.08 0.04,-0.17 0.06,-0.26 l 1.19,-4.18 h 0.68 z"
   id="path55" />
					<path
   class="st0"
   d="m 260.91,415.85 h -0.67 v -3.11 c 0,-0.61 -0.11,-1.07 -0.33,-1.37 -0.22,-0.31 -0.55,-0.46 -1,-0.46 -0.47,0 -0.87,0.18 -1.17,0.53 -0.3,0.35 -0.46,0.79 -0.46,1.32 v 3.08 h -0.67 v -5.39 h 0.67 v 0.94 h 0.02 c 0.2,-0.36 0.45,-0.63 0.75,-0.8 0.3,-0.18 0.65,-0.27 1.05,-0.27 0.59,0 1.03,0.19 1.34,0.58 0.31,0.38 0.47,0.94 0.47,1.66 z"
   id="path57" />
					<path
   class="st0"
   d="m 266.65,410.46 -2.65,6.61 c -0.16,0.39 -0.37,0.7 -0.64,0.95 -0.27,0.24 -0.59,0.37 -0.97,0.37 -0.1,0 -0.19,-0.01 -0.28,-0.02 -0.09,-0.01 -0.17,-0.03 -0.25,-0.05 l 0.15,-0.61 c 0.06,0.02 0.12,0.04 0.17,0.05 0.06,0.01 0.12,0.02 0.18,0.02 0.22,0 0.41,-0.07 0.57,-0.2 0.16,-0.13 0.29,-0.31 0.38,-0.54 l 0.51,-1.21 -2.07,-5.36 h 0.75 l 1.54,4.27 c 0.02,0.06 0.04,0.12 0.06,0.18 0.02,0.06 0.04,0.14 0.06,0.22 h 0.03 c 0.01,-0.05 0.03,-0.11 0.05,-0.17 0.02,-0.06 0.04,-0.13 0.07,-0.21 l 1.63,-4.29 h 0.71 z"
   id="path59" />
					<path
   class="st0"
   d="m 272.68,417.56 h -0.64 c -0.54,-0.62 -0.94,-1.31 -1.21,-2.08 -0.27,-0.77 -0.4,-1.6 -0.4,-2.51 0,-0.93 0.13,-1.78 0.41,-2.56 0.27,-0.78 0.68,-1.48 1.22,-2.11 h 0.65 c -0.55,0.65 -0.96,1.36 -1.24,2.14 -0.28,0.78 -0.41,1.62 -0.41,2.52 0,0.87 0.14,1.69 0.41,2.46 0.26,0.77 0.66,1.48 1.21,2.14 z"
   id="path61" />
					<path
   class="st0"
   d="m 275.57,415.85 h -0.67 v -6.68 c -0.18,0.16 -0.43,0.32 -0.74,0.48 -0.31,0.16 -0.63,0.29 -0.93,0.39 l -0.19,-0.59 c 0.41,-0.13 0.82,-0.31 1.23,-0.54 0.41,-0.23 0.77,-0.49 1.07,-0.77 h 0.25 v 7.71 z"
   id="path63" />
					<path
   class="st0"
   d="m 277.49,415.85 v -0.36 c 0,-0.34 0.04,-0.65 0.13,-0.91 0.09,-0.26 0.21,-0.48 0.36,-0.67 0.2,-0.25 0.43,-0.47 0.69,-0.68 0.26,-0.21 0.56,-0.43 0.9,-0.69 0.25,-0.18 0.47,-0.35 0.67,-0.52 0.19,-0.17 0.35,-0.35 0.48,-0.53 0.12,-0.17 0.22,-0.36 0.29,-0.56 0.07,-0.2 0.11,-0.43 0.11,-0.68 0,-0.46 -0.13,-0.82 -0.39,-1.09 -0.26,-0.27 -0.61,-0.4 -1.04,-0.4 -0.34,0 -0.66,0.06 -0.96,0.19 -0.3,0.13 -0.58,0.32 -0.84,0.58 l -0.42,-0.41 c 0.32,-0.32 0.66,-0.56 1.03,-0.71 0.37,-0.15 0.78,-0.23 1.23,-0.23 0.65,0 1.15,0.19 1.52,0.57 0.37,0.38 0.55,0.86 0.55,1.42 0,0.31 -0.04,0.6 -0.13,0.86 -0.09,0.26 -0.21,0.5 -0.36,0.71 -0.16,0.22 -0.34,0.42 -0.56,0.62 -0.22,0.19 -0.46,0.39 -0.73,0.58 -0.35,0.25 -0.64,0.46 -0.87,0.64 -0.23,0.18 -0.42,0.35 -0.56,0.52 -0.14,0.17 -0.24,0.34 -0.3,0.51 -0.06,0.17 -0.09,0.38 -0.09,0.63 h 3.76 v 0.61 z"
   id="path65" />
					<path
   class="st0"
   d="m 290.84,415.85 h -0.67 v -3.17 c 0,-0.64 -0.1,-1.09 -0.3,-1.36 -0.2,-0.27 -0.52,-0.41 -0.97,-0.41 -0.4,0 -0.74,0.18 -1.02,0.53 -0.28,0.35 -0.43,0.78 -0.43,1.29 v 3.12 h -0.67 v -3.24 c 0,-0.57 -0.11,-0.99 -0.32,-1.27 -0.21,-0.28 -0.54,-0.42 -0.97,-0.42 -0.41,0 -0.75,0.17 -1.02,0.51 -0.27,0.34 -0.4,0.79 -0.4,1.33 v 3.09 h -0.67 v -5.39 h 0.67 v 0.87 h 0.02 c 0.19,-0.34 0.43,-0.59 0.7,-0.75 0.27,-0.16 0.6,-0.25 0.96,-0.25 0.38,0 0.71,0.11 0.98,0.33 0.27,0.22 0.46,0.5 0.56,0.85 0.18,-0.38 0.43,-0.67 0.73,-0.87 0.31,-0.2 0.65,-0.3 1.03,-0.3 0.59,0 1.04,0.18 1.33,0.55 0.29,0.37 0.44,0.92 0.44,1.65 v 3.31 z"
   id="path67" />
					<path
   class="st0"
   d="m 291.97,412.26 v -0.21 c 0,-0.2 0.03,-0.38 0.08,-0.53 0.05,-0.15 0.12,-0.28 0.21,-0.39 0.12,-0.14 0.25,-0.27 0.4,-0.39 0.15,-0.12 0.33,-0.25 0.52,-0.4 0.15,-0.1 0.28,-0.21 0.39,-0.31 0.11,-0.1 0.21,-0.2 0.28,-0.31 0.07,-0.1 0.13,-0.21 0.17,-0.33 0.04,-0.12 0.06,-0.25 0.06,-0.4 0,-0.27 -0.08,-0.48 -0.23,-0.63 -0.15,-0.16 -0.35,-0.24 -0.61,-0.24 -0.2,0 -0.38,0.04 -0.56,0.11 -0.17,0.07 -0.34,0.18 -0.49,0.34 l -0.24,-0.24 c 0.19,-0.19 0.39,-0.32 0.6,-0.41 0.21,-0.09 0.45,-0.13 0.72,-0.13 0.38,0 0.67,0.11 0.89,0.33 0.22,0.22 0.32,0.5 0.32,0.83 0,0.18 -0.03,0.35 -0.08,0.5 -0.05,0.15 -0.12,0.29 -0.21,0.41 -0.09,0.13 -0.2,0.25 -0.33,0.36 -0.13,0.11 -0.27,0.22 -0.42,0.34 -0.2,0.14 -0.37,0.27 -0.51,0.37 -0.14,0.11 -0.25,0.21 -0.33,0.3 -0.08,0.1 -0.14,0.2 -0.18,0.3 -0.04,0.1 -0.05,0.22 -0.05,0.37 h 2.19 v 0.36 z"
   id="path69" />
					<path
   class="st0"
   d="m 295.68,417.56 h -0.64 c 0.54,-0.66 0.95,-1.37 1.22,-2.14 0.27,-0.77 0.41,-1.59 0.41,-2.46 0,-0.91 -0.14,-1.75 -0.41,-2.52 -0.27,-0.77 -0.69,-1.49 -1.23,-2.14 h 0.65 c 0.54,0.63 0.95,1.33 1.22,2.11 0.27,0.78 0.41,1.63 0.41,2.56 0,0.91 -0.13,1.75 -0.41,2.51 -0.28,0.77 -0.68,1.46 -1.22,2.08 z"
   id="path71" />
				</g>
			</g>
		</g>
		<g
   id="g112">
			<rect
   id="L4_20_"
   x="165.83"
   y="424.78"
   class="st2"
   width="15.04"
   height="15.04" />
			<g
   id="g110">
				<g
   id="g108">
					<path
   class="st0"
   d="m 190.78,435.97 0.36,-0.53 c 0.3,0.21 0.6,0.36 0.91,0.46 0.31,0.09 0.66,0.14 1.05,0.14 0.48,0 0.88,-0.13 1.18,-0.38 0.31,-0.26 0.46,-0.61 0.46,-1.07 0,-0.38 -0.12,-0.68 -0.37,-0.92 -0.25,-0.24 -0.66,-0.46 -1.22,-0.65 -0.71,-0.25 -1.23,-0.54 -1.57,-0.86 -0.33,-0.32 -0.5,-0.74 -0.5,-1.24 0,-0.61 0.21,-1.11 0.63,-1.47 0.42,-0.37 0.98,-0.55 1.68,-0.55 0.31,0 0.61,0.04 0.91,0.11 0.3,0.08 0.6,0.2 0.91,0.37 l -0.29,0.56 c -0.26,-0.14 -0.52,-0.25 -0.77,-0.31 -0.25,-0.06 -0.53,-0.09 -0.83,-0.09 -0.46,0 -0.84,0.12 -1.12,0.35 -0.29,0.24 -0.43,0.56 -0.43,0.97 0,0.35 0.13,0.65 0.39,0.87 0.26,0.23 0.68,0.44 1.27,0.65 0.71,0.25 1.23,0.53 1.54,0.86 0.31,0.33 0.47,0.76 0.47,1.3 0,0.64 -0.21,1.16 -0.64,1.56 -0.43,0.4 -1.01,0.6 -1.75,0.6 -0.43,0 -0.83,-0.06 -1.2,-0.17 -0.37,-0.11 -0.72,-0.31 -1.07,-0.56 z"
   id="path80" />
					<path
   class="st0"
   d="m 197.5,435.69 h -0.02 v 3.35 h -0.67 v -7.87 h 0.67 v 1.03 h 0.02 c 0.2,-0.38 0.47,-0.66 0.81,-0.86 0.33,-0.2 0.71,-0.3 1.13,-0.3 0.69,0 1.23,0.24 1.61,0.72 0.38,0.48 0.58,1.12 0.58,1.93 0,0.9 -0.22,1.63 -0.66,2.18 -0.44,0.55 -1.03,0.82 -1.77,0.82 -0.38,0 -0.71,-0.08 -1,-0.25 -0.29,-0.17 -0.51,-0.42 -0.7,-0.75 z m -0.02,-2.09 v 0.72 c 0,0.49 0.16,0.91 0.47,1.26 0.31,0.35 0.72,0.52 1.22,0.52 0.54,0 0.97,-0.22 1.29,-0.65 0.32,-0.44 0.48,-1.02 0.48,-1.76 0,-0.64 -0.15,-1.14 -0.44,-1.51 -0.3,-0.37 -0.7,-0.55 -1.2,-0.55 -0.57,0 -1.01,0.19 -1.33,0.58 -0.33,0.37 -0.49,0.84 -0.49,1.39 z"
   id="path82" />
					<path
   class="st0"
   d="m 205.2,436.68 c -0.79,0 -1.42,-0.25 -1.89,-0.77 -0.47,-0.51 -0.7,-1.18 -0.7,-2.01 0,-0.9 0.24,-1.6 0.73,-2.11 0.49,-0.51 1.14,-0.76 1.95,-0.77 0.79,0 1.4,0.25 1.85,0.75 0.45,0.5 0.67,1.19 0.67,2.07 0,0.85 -0.23,1.53 -0.71,2.05 -0.46,0.53 -1.1,0.79 -1.9,0.79 z m 0.04,-0.58 c 0.6,0 1.07,-0.2 1.4,-0.59 0.33,-0.39 0.49,-0.94 0.49,-1.64 0,-0.72 -0.16,-1.28 -0.49,-1.67 -0.33,-0.39 -0.79,-0.58 -1.38,-0.58 -0.59,0 -1.07,0.2 -1.42,0.61 -0.35,0.41 -0.53,0.96 -0.53,1.67 0,0.67 0.17,1.21 0.52,1.6 0.34,0.4 0.81,0.6 1.41,0.6 z"
   id="path84" />
					<path
   class="st0"
   d="m 213.48,436.56 h -0.67 v -3.11 c 0,-0.61 -0.11,-1.07 -0.33,-1.37 -0.22,-0.31 -0.55,-0.46 -1,-0.46 -0.47,0 -0.87,0.18 -1.17,0.53 -0.3,0.35 -0.46,0.79 -0.46,1.32 v 3.08 h -0.67 v -5.39 h 0.67 v 0.94 h 0.02 c 0.2,-0.36 0.45,-0.63 0.75,-0.8 0.3,-0.18 0.65,-0.27 1.05,-0.27 0.59,0 1.03,0.19 1.34,0.58 0.31,0.38 0.47,0.94 0.47,1.66 z"
   id="path86" />
					<path
   class="st0"
   d="m 214.59,436.16 0.33,-0.53 c 0.21,0.14 0.43,0.25 0.66,0.34 0.23,0.09 0.48,0.13 0.76,0.13 0.41,0 0.71,-0.09 0.92,-0.26 0.21,-0.17 0.31,-0.41 0.31,-0.72 0,-0.24 -0.08,-0.43 -0.25,-0.6 -0.17,-0.16 -0.48,-0.31 -0.93,-0.45 -0.61,-0.17 -1.03,-0.38 -1.27,-0.63 -0.23,-0.25 -0.35,-0.55 -0.35,-0.91 0,-0.44 0.16,-0.8 0.48,-1.08 0.32,-0.28 0.76,-0.42 1.31,-0.42 0.26,0 0.52,0.03 0.77,0.1 0.25,0.07 0.5,0.18 0.76,0.34 l -0.32,0.52 c -0.21,-0.13 -0.41,-0.22 -0.62,-0.28 -0.2,-0.06 -0.41,-0.09 -0.62,-0.09 -0.36,0 -0.64,0.08 -0.83,0.23 -0.19,0.15 -0.29,0.36 -0.29,0.62 0,0.25 0.09,0.45 0.26,0.58 0.17,0.13 0.48,0.27 0.92,0.4 0.57,0.17 0.98,0.38 1.24,0.63 0.26,0.25 0.39,0.58 0.39,0.99 0,0.5 -0.17,0.9 -0.51,1.19 -0.34,0.29 -0.8,0.43 -1.38,0.43 -0.31,0 -0.61,-0.04 -0.91,-0.13 -0.3,-0.1 -0.58,-0.23 -0.83,-0.4 z"
   id="path88" />
					<path
   class="st0"
   d="m 221.69,436.68 c -0.79,0 -1.42,-0.25 -1.89,-0.77 -0.47,-0.51 -0.7,-1.18 -0.7,-2.01 0,-0.9 0.24,-1.6 0.73,-2.11 0.49,-0.51 1.14,-0.76 1.95,-0.77 0.79,0 1.4,0.25 1.85,0.75 0.45,0.5 0.67,1.19 0.67,2.07 0,0.85 -0.23,1.53 -0.71,2.05 -0.46,0.53 -1.1,0.79 -1.9,0.79 z m 0.04,-0.58 c 0.6,0 1.07,-0.2 1.4,-0.59 0.33,-0.39 0.49,-0.94 0.49,-1.64 0,-0.72 -0.16,-1.28 -0.49,-1.67 -0.33,-0.39 -0.79,-0.58 -1.38,-0.58 -0.59,0 -1.07,0.2 -1.42,0.61 -0.35,0.41 -0.53,0.96 -0.53,1.67 0,0.67 0.17,1.21 0.52,1.6 0.34,0.4 0.81,0.6 1.41,0.6 z"
   id="path90" />
					<path
   class="st0"
   d="m 228.23,431.75 c -0.08,-0.03 -0.15,-0.05 -0.21,-0.06 -0.07,-0.01 -0.14,-0.02 -0.22,-0.02 -0.45,0 -0.81,0.21 -1.07,0.62 -0.27,0.41 -0.4,0.95 -0.4,1.62 v 2.64 h -0.67 v -5.39 h 0.67 v 1.13 h 0.02 c 0.12,-0.39 0.32,-0.7 0.58,-0.91 0.26,-0.21 0.57,-0.32 0.93,-0.32 0.09,0 0.18,0 0.25,0.02 0.08,0.01 0.16,0.03 0.23,0.05 z"
   id="path92" />
					<path
   class="st0"
   d="m 233.11,431.36 -3.4,4.61 h 3.32 v 0.59 h -4.35 v -0.23 l 3.38,-4.57 h -3.11 v -0.59 h 4.15 v 0.19 z"
   id="path94" />
					<path
   class="st0"
   d="m 238.37,431.17 -2.65,6.61 c -0.16,0.39 -0.37,0.7 -0.64,0.95 -0.27,0.24 -0.59,0.37 -0.97,0.37 -0.1,0 -0.19,-0.01 -0.28,-0.02 -0.09,-0.01 -0.17,-0.03 -0.25,-0.05 l 0.15,-0.61 c 0.06,0.02 0.12,0.04 0.17,0.05 0.06,0.01 0.12,0.02 0.18,0.02 0.22,0 0.41,-0.07 0.57,-0.2 0.16,-0.13 0.29,-0.31 0.38,-0.54 l 0.51,-1.21 -2.07,-5.36 h 0.75 l 1.54,4.27 c 0.02,0.06 0.04,0.12 0.06,0.18 0.02,0.06 0.04,0.14 0.06,0.22 h 0.03 c 0.01,-0.05 0.03,-0.11 0.05,-0.17 0.02,-0.06 0.04,-0.13 0.07,-0.21 l 1.63,-4.29 h 0.71 z"
   id="path96" />
					<path
   class="st0"
   d="m 244.4,438.27 h -0.64 c -0.54,-0.62 -0.94,-1.31 -1.21,-2.08 -0.27,-0.77 -0.4,-1.6 -0.4,-2.51 0,-0.93 0.13,-1.78 0.41,-2.56 0.27,-0.78 0.68,-1.48 1.22,-2.11 h 0.65 c -0.55,0.65 -0.96,1.36 -1.24,2.14 -0.28,0.78 -0.41,1.62 -0.41,2.52 0,0.87 0.14,1.69 0.41,2.46 0.25,0.77 0.66,1.48 1.21,2.14 z"
   id="path98" />
					<path
   class="st0"
   d="m 245.04,434.45 c 0,-0.4 0.12,-0.79 0.35,-1.16 0.24,-0.37 0.59,-0.64 1.05,-0.81 -0.34,-0.18 -0.61,-0.41 -0.82,-0.7 -0.2,-0.29 -0.31,-0.62 -0.31,-0.98 0,-0.55 0.2,-1.01 0.59,-1.38 0.39,-0.37 0.88,-0.55 1.46,-0.55 0.59,0 1.08,0.18 1.47,0.55 0.39,0.37 0.58,0.83 0.58,1.37 0,0.36 -0.1,0.68 -0.3,0.98 -0.2,0.29 -0.46,0.53 -0.79,0.7 0.45,0.17 0.79,0.44 1.03,0.81 0.23,0.37 0.35,0.76 0.35,1.15 0,0.68 -0.21,1.22 -0.64,1.62 -0.43,0.41 -0.99,0.61 -1.69,0.61 -0.68,0 -1.24,-0.2 -1.68,-0.6 -0.43,-0.38 -0.65,-0.92 -0.65,-1.61 z m 0.71,-0.03 c 0,0.51 0.15,0.92 0.45,1.21 0.3,0.29 0.69,0.44 1.16,0.44 0.47,0 0.86,-0.15 1.16,-0.45 0.3,-0.3 0.46,-0.7 0.46,-1.19 0,-0.45 -0.15,-0.83 -0.44,-1.16 -0.29,-0.33 -0.69,-0.48 -1.18,-0.48 -0.46,0 -0.84,0.15 -1.15,0.46 -0.3,0.32 -0.46,0.71 -0.46,1.17 z m 0.27,-3.57 c 0,0.39 0.13,0.72 0.4,0.98 0.26,0.26 0.58,0.39 0.95,0.39 0.38,0 0.7,-0.13 0.96,-0.4 0.26,-0.27 0.4,-0.59 0.4,-0.97 0,-0.4 -0.13,-0.73 -0.4,-0.99 -0.26,-0.26 -0.58,-0.39 -0.96,-0.39 -0.4,0 -0.72,0.13 -0.97,0.4 -0.25,0.27 -0.38,0.59 -0.38,0.98 z"
   id="path100" />
					<path
   class="st0"
   d="m 258.53,436.56 h -0.67 v -3.17 c 0,-0.64 -0.1,-1.09 -0.3,-1.36 -0.2,-0.27 -0.52,-0.41 -0.97,-0.41 -0.4,0 -0.74,0.18 -1.02,0.53 -0.28,0.35 -0.43,0.78 -0.43,1.29 v 3.12 h -0.67 v -3.24 c 0,-0.57 -0.11,-0.99 -0.32,-1.27 -0.21,-0.28 -0.54,-0.42 -0.97,-0.42 -0.41,0 -0.75,0.17 -1.02,0.51 -0.27,0.34 -0.4,0.79 -0.4,1.33 v 3.09 h -0.67 v -5.39 h 0.67 v 0.87 h 0.02 c 0.19,-0.34 0.43,-0.59 0.7,-0.75 0.27,-0.16 0.6,-0.25 0.96,-0.25 0.38,0 0.71,0.11 0.98,0.33 0.27,0.22 0.46,0.5 0.56,0.85 0.18,-0.38 0.43,-0.67 0.73,-0.87 0.31,-0.2 0.65,-0.3 1.03,-0.3 0.59,0 1.04,0.18 1.33,0.55 0.29,0.37 0.44,0.92 0.44,1.65 v 3.31 z"
   id="path102" />
					<path
   class="st0"
   d="m 259.65,432.97 v -0.21 c 0,-0.2 0.03,-0.38 0.08,-0.53 0.05,-0.15 0.12,-0.28 0.21,-0.39 0.12,-0.14 0.25,-0.27 0.4,-0.39 0.15,-0.12 0.33,-0.25 0.52,-0.4 0.15,-0.1 0.28,-0.21 0.39,-0.31 0.11,-0.1 0.21,-0.2 0.28,-0.31 0.07,-0.1 0.13,-0.21 0.17,-0.33 0.04,-0.12 0.06,-0.25 0.06,-0.4 0,-0.27 -0.08,-0.48 -0.23,-0.63 -0.15,-0.16 -0.35,-0.24 -0.61,-0.24 -0.2,0 -0.38,0.04 -0.56,0.11 -0.17,0.07 -0.34,0.18 -0.49,0.34 l -0.24,-0.24 c 0.19,-0.19 0.39,-0.32 0.6,-0.41 0.21,-0.09 0.45,-0.13 0.72,-0.13 0.38,0 0.67,0.11 0.89,0.33 0.22,0.22 0.32,0.5 0.32,0.83 0,0.18 -0.03,0.35 -0.08,0.5 -0.05,0.15 -0.12,0.29 -0.21,0.41 -0.09,0.13 -0.2,0.25 -0.33,0.36 -0.13,0.11 -0.27,0.22 -0.42,0.34 -0.2,0.14 -0.37,0.27 -0.51,0.37 -0.14,0.11 -0.25,0.21 -0.33,0.3 -0.08,0.1 -0.14,0.2 -0.18,0.3 -0.04,0.1 -0.05,0.22 -0.05,0.37 h 2.19 v 0.36 z"
   id="path104" />
					<path
   class="st0"
   d="m 263.36,438.27 h -0.64 c 0.54,-0.66 0.95,-1.37 1.22,-2.14 0.27,-0.77 0.41,-1.59 0.41,-2.46 0,-0.91 -0.14,-1.75 -0.41,-2.52 -0.27,-0.77 -0.69,-1.49 -1.23,-2.14 h 0.65 c 0.54,0.63 0.95,1.33 1.22,2.11 0.27,0.78 0.41,1.63 0.41,2.56 0,0.91 -0.13,1.75 -0.41,2.51 -0.28,0.77 -0.68,1.46 -1.22,2.08 z"
   id="path106" />
				</g>
			</g>
		</g>
		<g
   id="g171">
			<rect
   id="L4_18_"
   x="165.83"
   y="445.48999"
   class="st3"
   width="15.04"
   height="15.04" />
			<g
   id="g169">
				<g
   id="g167">
					<path
   class="st0"
   d="m 195,454.41 v 2.86 h -0.71 v -7.55 h 1.95 c 0.79,0 1.4,0.19 1.83,0.58 0.43,0.38 0.64,0.93 0.64,1.65 0,0.72 -0.24,1.31 -0.71,1.77 -0.48,0.46 -1.13,0.69 -1.96,0.69 z m 0,-4.06 v 3.42 h 1 c 0.65,0 1.14,-0.15 1.47,-0.46 0.34,-0.31 0.51,-0.75 0.51,-1.31 0,-0.55 -0.15,-0.96 -0.46,-1.23 -0.31,-0.27 -0.77,-0.41 -1.4,-0.41 H 195 Z"
   id="path115" />
					<path
   class="st0"
   d="m 203.89,457.26 h -0.67 v -0.96 h -0.02 c -0.18,0.35 -0.42,0.62 -0.72,0.8 -0.3,0.19 -0.64,0.28 -1.02,0.28 -0.51,0 -0.92,-0.15 -1.22,-0.44 -0.31,-0.29 -0.46,-0.67 -0.46,-1.13 0,-0.46 0.15,-0.84 0.46,-1.13 0.3,-0.29 0.78,-0.49 1.43,-0.58 l 1.55,-0.22 v -0.15 c -0.01,-0.48 -0.13,-0.84 -0.34,-1.07 -0.21,-0.23 -0.52,-0.34 -0.91,-0.34 -0.3,0 -0.58,0.05 -0.85,0.16 -0.26,0.11 -0.51,0.27 -0.74,0.5 l -0.41,-0.42 c 0.29,-0.28 0.6,-0.49 0.93,-0.62 0.33,-0.13 0.7,-0.2 1.1,-0.2 0.62,0 1.1,0.17 1.41,0.51 0.32,0.34 0.48,0.84 0.48,1.5 z m -0.67,-2.28 v -0.53 l -1.4,0.2 c -0.49,0.07 -0.84,0.19 -1.05,0.36 -0.21,0.17 -0.32,0.43 -0.32,0.76 0,0.32 0.1,0.57 0.3,0.76 0.2,0.19 0.46,0.28 0.79,0.28 0.49,0 0.89,-0.17 1.2,-0.52 0.31,-0.35 0.48,-0.77 0.48,-1.31 z"
   id="path117" />
					<path
   class="st0"
   d="m 208.1,452.46 c -0.08,-0.03 -0.15,-0.05 -0.21,-0.06 -0.07,-0.01 -0.14,-0.02 -0.22,-0.02 -0.45,0 -0.81,0.21 -1.07,0.62 -0.27,0.41 -0.4,0.95 -0.4,1.62 v 2.64 h -0.67 v -5.39 h 0.67 V 453 h 0.02 c 0.12,-0.39 0.32,-0.7 0.58,-0.91 0.26,-0.21 0.57,-0.32 0.93,-0.32 0.09,0 0.18,0 0.25,0.02 0.08,0.01 0.16,0.03 0.23,0.05 z"
   id="path119" />
					<path
   class="st0"
   d="m 211.55,457.17 c -0.13,0.07 -0.27,0.12 -0.41,0.15 -0.14,0.03 -0.3,0.05 -0.47,0.05 -0.39,0 -0.69,-0.12 -0.91,-0.35 -0.22,-0.23 -0.33,-0.58 -0.33,-1.03 v -3.53 h -0.95 v -0.59 h 0.95 v -1.37 l 0.67,-0.22 v 1.59 h 1.39 v 0.59 h -1.39 v 3.45 c 0,0.31 0.06,0.53 0.17,0.67 0.11,0.14 0.28,0.21 0.5,0.21 0.12,0 0.22,-0.01 0.32,-0.04 0.1,-0.03 0.19,-0.06 0.26,-0.11 z"
   id="path121" />
					<path
   class="st0"
   d="m 216.92,457.26 h -0.67 v -3.11 c 0,-0.61 -0.11,-1.07 -0.33,-1.37 -0.22,-0.31 -0.55,-0.46 -1,-0.46 -0.47,0 -0.87,0.18 -1.17,0.53 -0.3,0.35 -0.46,0.79 -0.46,1.32 v 3.08 h -0.67 v -5.39 h 0.67 v 0.94 h 0.02 c 0.2,-0.36 0.45,-0.63 0.75,-0.8 0.3,-0.18 0.65,-0.27 1.05,-0.27 0.59,0 1.03,0.19 1.34,0.58 0.31,0.38 0.47,0.94 0.47,1.66 z"
   id="path123" />
					<path
   class="st0"
   d="m 222.76,454.67 h -3.9 c 0.01,0.72 0.18,1.25 0.52,1.61 0.34,0.36 0.79,0.53 1.35,0.53 0.25,0 0.51,-0.04 0.76,-0.12 0.25,-0.08 0.5,-0.21 0.75,-0.39 l 0.34,0.48 c -0.3,0.21 -0.6,0.37 -0.91,0.46 -0.31,0.1 -0.65,0.15 -1.01,0.15 -0.74,0 -1.33,-0.23 -1.79,-0.7 -0.46,-0.47 -0.69,-1.17 -0.69,-2.11 0,-0.83 0.23,-1.51 0.68,-2.04 0.45,-0.53 1.04,-0.8 1.77,-0.8 0.68,0 1.21,0.23 1.59,0.7 0.37,0.46 0.56,1.1 0.56,1.91 v 0.32 z m -0.69,-0.57 c -0.01,-0.56 -0.15,-0.99 -0.41,-1.31 -0.26,-0.32 -0.61,-0.47 -1.07,-0.47 -0.46,0 -0.84,0.16 -1.15,0.47 -0.31,0.31 -0.5,0.75 -0.56,1.3 h 3.19 z"
   id="path125" />
					<path
   class="st0"
   d="m 226.65,452.46 c -0.08,-0.03 -0.15,-0.05 -0.21,-0.06 -0.07,-0.01 -0.14,-0.02 -0.22,-0.02 -0.45,0 -0.81,0.21 -1.07,0.62 -0.27,0.41 -0.4,0.95 -0.4,1.62 v 2.64 h -0.67 v -5.39 h 0.67 V 453 h 0.02 c 0.12,-0.39 0.32,-0.7 0.58,-0.91 0.26,-0.21 0.57,-0.32 0.93,-0.32 0.09,0 0.18,0 0.25,0.02 0.08,0.01 0.16,0.03 0.23,0.05 z"
   id="path127" />
					<path
   class="st0"
   d="m 230.2,456.68 0.36,-0.53 c 0.3,0.21 0.6,0.36 0.91,0.46 0.31,0.09 0.66,0.14 1.05,0.14 0.48,0 0.88,-0.13 1.18,-0.38 0.31,-0.26 0.46,-0.61 0.46,-1.07 0,-0.38 -0.12,-0.68 -0.37,-0.92 -0.25,-0.24 -0.66,-0.46 -1.22,-0.65 -0.71,-0.25 -1.23,-0.54 -1.57,-0.86 -0.33,-0.32 -0.5,-0.74 -0.5,-1.24 0,-0.61 0.21,-1.11 0.63,-1.47 0.42,-0.37 0.98,-0.55 1.68,-0.55 0.31,0 0.61,0.04 0.91,0.11 0.3,0.08 0.6,0.2 0.91,0.37 l -0.29,0.56 c -0.26,-0.14 -0.52,-0.25 -0.77,-0.31 -0.25,-0.06 -0.53,-0.09 -0.83,-0.09 -0.46,0 -0.84,0.12 -1.12,0.35 -0.29,0.24 -0.43,0.56 -0.43,0.97 0,0.35 0.13,0.65 0.39,0.87 0.26,0.23 0.68,0.44 1.27,0.65 0.71,0.25 1.23,0.53 1.54,0.86 0.31,0.33 0.47,0.76 0.47,1.3 0,0.64 -0.21,1.16 -0.64,1.56 -0.43,0.4 -1.01,0.6 -1.75,0.6 -0.43,0 -0.83,-0.06 -1.2,-0.17 -0.37,-0.11 -0.72,-0.31 -1.07,-0.56 z"
   id="path129" />
					<path
   class="st0"
   d="m 238.59,457.17 c -0.13,0.07 -0.27,0.12 -0.41,0.15 -0.14,0.03 -0.3,0.05 -0.47,0.05 -0.39,0 -0.69,-0.12 -0.91,-0.35 -0.22,-0.23 -0.33,-0.58 -0.33,-1.03 v -3.53 h -0.95 v -0.59 h 0.95 v -1.37 l 0.67,-0.22 v 1.59 h 1.39 v 0.59 h -1.39 v 3.45 c 0,0.31 0.06,0.53 0.17,0.67 0.11,0.14 0.28,0.21 0.5,0.21 0.12,0 0.22,-0.01 0.32,-0.04 0.1,-0.03 0.19,-0.06 0.26,-0.11 z"
   id="path131" />
					<path
   class="st0"
   d="m 242.22,452.46 c -0.08,-0.03 -0.15,-0.05 -0.21,-0.06 -0.07,-0.01 -0.14,-0.02 -0.22,-0.02 -0.45,0 -0.81,0.21 -1.07,0.62 -0.27,0.41 -0.4,0.95 -0.4,1.62 v 2.64 h -0.67 v -5.39 h 0.67 V 453 h 0.02 c 0.12,-0.39 0.32,-0.7 0.58,-0.91 0.26,-0.21 0.57,-0.32 0.93,-0.32 0.09,0 0.18,0 0.25,0.02 0.08,0.01 0.16,0.03 0.23,0.05 z"
   id="path133" />
					<path
   class="st0"
   d="m 247.53,454.67 h -3.9 c 0.01,0.72 0.18,1.25 0.52,1.61 0.34,0.36 0.79,0.53 1.35,0.53 0.25,0 0.51,-0.04 0.76,-0.12 0.25,-0.08 0.5,-0.21 0.75,-0.39 l 0.34,0.48 c -0.3,0.21 -0.6,0.37 -0.91,0.46 -0.31,0.1 -0.65,0.15 -1.01,0.15 -0.74,0 -1.33,-0.23 -1.79,-0.7 -0.46,-0.47 -0.69,-1.17 -0.69,-2.11 0,-0.83 0.23,-1.51 0.68,-2.04 0.45,-0.53 1.04,-0.8 1.77,-0.8 0.68,0 1.21,0.23 1.59,0.7 0.37,0.46 0.56,1.1 0.56,1.91 v 0.32 z m -0.7,-0.57 c -0.01,-0.56 -0.15,-0.99 -0.41,-1.31 -0.26,-0.32 -0.61,-0.47 -1.07,-0.47 -0.46,0 -0.84,0.16 -1.15,0.47 -0.31,0.31 -0.5,0.75 -0.56,1.3 h 3.19 z"
   id="path135" />
					<path
   class="st0"
   d="m 251.23,449.84 c -0.09,-0.02 -0.17,-0.04 -0.24,-0.05 -0.07,-0.01 -0.15,-0.02 -0.23,-0.02 -0.32,0 -0.56,0.09 -0.72,0.27 -0.15,0.18 -0.23,0.45 -0.23,0.81 v 1.03 h 1.35 v 0.59 h -1.35 v 4.8 h -0.67 v -4.8 h -0.95 v -0.59 h 0.95 v -1.06 c 0,-0.53 0.15,-0.93 0.44,-1.21 0.29,-0.28 0.69,-0.42 1.2,-0.42 0.1,0 0.2,0.01 0.3,0.02 0.1,0.01 0.2,0.04 0.32,0.08 z"
   id="path137" />
					<path
   class="st0"
   d="m 256.13,451.88 -2.65,6.61 c -0.16,0.39 -0.37,0.7 -0.64,0.95 -0.27,0.24 -0.59,0.37 -0.97,0.37 -0.1,0 -0.19,-0.01 -0.28,-0.02 -0.09,-0.01 -0.17,-0.03 -0.25,-0.05 l 0.15,-0.61 c 0.06,0.02 0.12,0.04 0.17,0.05 0.06,0.01 0.12,0.02 0.18,0.02 0.22,0 0.41,-0.07 0.57,-0.2 0.16,-0.13 0.29,-0.31 0.38,-0.54 l 0.51,-1.21 -2.07,-5.36 h 0.75 l 1.54,4.27 c 0.02,0.06 0.04,0.12 0.06,0.18 0.02,0.06 0.04,0.14 0.06,0.22 h 0.03 c 0.01,-0.05 0.03,-0.11 0.05,-0.17 0.02,-0.06 0.04,-0.13 0.07,-0.21 l 1.63,-4.29 h 0.71 z"
   id="path139" />
					<path
   class="st0"
   d="m 259.53,456.68 0.36,-0.53 c 0.3,0.21 0.6,0.36 0.91,0.46 0.31,0.09 0.66,0.14 1.05,0.14 0.48,0 0.88,-0.13 1.18,-0.38 0.31,-0.26 0.46,-0.61 0.46,-1.07 0,-0.38 -0.12,-0.68 -0.37,-0.92 -0.25,-0.24 -0.66,-0.46 -1.22,-0.65 -0.71,-0.25 -1.23,-0.54 -1.57,-0.86 -0.33,-0.32 -0.5,-0.74 -0.5,-1.24 0,-0.61 0.21,-1.11 0.63,-1.47 0.42,-0.37 0.98,-0.55 1.68,-0.55 0.31,0 0.61,0.04 0.91,0.11 0.3,0.08 0.6,0.2 0.91,0.37 l -0.29,0.56 c -0.26,-0.14 -0.52,-0.25 -0.77,-0.31 -0.25,-0.06 -0.53,-0.09 -0.83,-0.09 -0.46,0 -0.84,0.12 -1.12,0.35 -0.29,0.24 -0.43,0.56 -0.43,0.97 0,0.35 0.13,0.65 0.39,0.87 0.26,0.23 0.68,0.44 1.27,0.65 0.71,0.25 1.23,0.53 1.54,0.86 0.31,0.33 0.47,0.76 0.47,1.3 0,0.64 -0.21,1.16 -0.64,1.56 -0.43,0.4 -1.01,0.6 -1.75,0.6 -0.43,0 -0.83,-0.06 -1.2,-0.17 -0.37,-0.11 -0.71,-0.31 -1.07,-0.56 z"
   id="path141" />
					<path
   class="st0"
   d="m 267.93,457.17 c -0.13,0.07 -0.27,0.12 -0.41,0.15 -0.14,0.03 -0.3,0.05 -0.47,0.05 -0.39,0 -0.69,-0.12 -0.91,-0.35 -0.22,-0.23 -0.33,-0.58 -0.33,-1.03 v -3.53 h -0.95 v -0.59 h 0.95 v -1.37 l 0.67,-0.22 v 1.59 h 1.39 v 0.59 h -1.39 v 3.45 c 0,0.31 0.06,0.53 0.17,0.67 0.11,0.14 0.28,0.21 0.5,0.21 0.12,0 0.22,-0.01 0.32,-0.04 0.1,-0.03 0.19,-0.06 0.26,-0.11 z"
   id="path143" />
					<path
   class="st0"
   d="m 273.18,457.26 h -0.67 v -0.92 h -0.02 c -0.18,0.35 -0.42,0.61 -0.7,0.78 -0.28,0.17 -0.62,0.26 -1,0.26 -0.64,0 -1.12,-0.2 -1.44,-0.59 -0.32,-0.39 -0.48,-0.98 -0.48,-1.76 v -3.17 h 0.67 v 3.04 c 0,0.65 0.11,1.13 0.34,1.43 0.23,0.31 0.58,0.46 1.06,0.46 0.46,0 0.83,-0.17 1.13,-0.51 0.3,-0.34 0.44,-0.79 0.44,-1.34 v -3.08 h 0.67 z"
   id="path145" />
					<path
   class="st0"
   d="m 278.69,456.32 c -0.19,0.34 -0.45,0.61 -0.77,0.79 -0.32,0.19 -0.7,0.28 -1.13,0.28 -0.67,0 -1.21,-0.24 -1.62,-0.72 -0.41,-0.48 -0.62,-1.14 -0.62,-1.99 0,-0.88 0.23,-1.59 0.68,-2.13 0.45,-0.54 1.05,-0.81 1.79,-0.81 0.39,0 0.72,0.08 1,0.23 0.28,0.16 0.5,0.39 0.67,0.7 h 0.02 v -3.39 h 0.67 v 7.98 h -0.67 v -0.95 h -0.02 z m -3.45,-1.68 c 0,0.68 0.16,1.21 0.47,1.6 0.31,0.38 0.72,0.57 1.22,0.57 0.55,0 0.98,-0.18 1.3,-0.54 0.32,-0.36 0.48,-0.81 0.48,-1.36 v -0.9 c 0,-0.47 -0.15,-0.86 -0.46,-1.19 -0.3,-0.33 -0.7,-0.49 -1.19,-0.49 -0.55,0 -0.99,0.21 -1.32,0.62 -0.33,0.4 -0.5,0.97 -0.5,1.69 z"
   id="path147" />
					<path
   class="st0"
   d="m 285.34,454.67 h -3.9 c 0.01,0.72 0.18,1.25 0.52,1.61 0.34,0.36 0.79,0.53 1.35,0.53 0.25,0 0.51,-0.04 0.76,-0.12 0.25,-0.08 0.5,-0.21 0.75,-0.39 l 0.34,0.48 c -0.3,0.21 -0.6,0.37 -0.91,0.46 -0.31,0.1 -0.65,0.15 -1.01,0.15 -0.74,0 -1.33,-0.23 -1.79,-0.7 -0.46,-0.47 -0.69,-1.17 -0.69,-2.11 0,-0.83 0.23,-1.51 0.68,-2.04 0.45,-0.53 1.04,-0.8 1.77,-0.8 0.68,0 1.21,0.23 1.59,0.7 0.37,0.46 0.56,1.1 0.56,1.91 v 0.32 z m -0.7,-0.57 c -0.01,-0.56 -0.15,-0.99 -0.41,-1.31 -0.26,-0.32 -0.61,-0.47 -1.07,-0.47 -0.46,0 -0.84,0.16 -1.15,0.47 -0.31,0.31 -0.5,0.75 -0.56,1.3 h 3.19 z"
   id="path149" />
					<path
   class="st0"
   d="m 290.96,457.26 h -0.67 v -3.11 c 0,-0.61 -0.11,-1.07 -0.33,-1.37 -0.22,-0.31 -0.55,-0.46 -1,-0.46 -0.47,0 -0.87,0.18 -1.17,0.53 -0.3,0.35 -0.46,0.79 -0.46,1.32 v 3.08 h -0.67 v -5.39 h 0.67 v 0.94 h 0.02 c 0.2,-0.36 0.45,-0.63 0.75,-0.8 0.3,-0.18 0.65,-0.27 1.05,-0.27 0.59,0 1.03,0.19 1.34,0.58 0.31,0.38 0.47,0.94 0.47,1.66 z"
   id="path151" />
					<path
   class="st0"
   d="m 294.95,457.17 c -0.13,0.07 -0.27,0.12 -0.41,0.15 -0.14,0.03 -0.3,0.05 -0.47,0.05 -0.39,0 -0.69,-0.12 -0.91,-0.35 -0.22,-0.23 -0.33,-0.58 -0.33,-1.03 v -3.53 h -0.95 v -0.59 h 0.95 v -1.37 l 0.67,-0.22 v 1.59 h 1.39 v 0.59 h -1.39 v 3.45 c 0,0.31 0.06,0.53 0.17,0.67 0.11,0.14 0.28,0.21 0.5,0.21 0.12,0 0.22,-0.01 0.32,-0.04 0.1,-0.03 0.19,-0.06 0.26,-0.11 z"
   id="path153" />
					<path
   class="st0"
   d="m 299.78,457.26 h -0.67 v -0.96 h -0.02 c -0.18,0.35 -0.42,0.62 -0.72,0.8 -0.3,0.19 -0.64,0.28 -1.02,0.28 -0.51,0 -0.92,-0.15 -1.22,-0.44 -0.31,-0.29 -0.46,-0.67 -0.46,-1.13 0,-0.46 0.15,-0.84 0.46,-1.13 0.3,-0.29 0.78,-0.49 1.43,-0.58 l 1.55,-0.22 v -0.15 c -0.01,-0.48 -0.13,-0.84 -0.34,-1.07 -0.21,-0.23 -0.52,-0.34 -0.91,-0.34 -0.3,0 -0.58,0.05 -0.85,0.16 -0.26,0.11 -0.51,0.27 -0.74,0.5 l -0.41,-0.42 c 0.29,-0.28 0.6,-0.49 0.93,-0.62 0.33,-0.13 0.7,-0.2 1.1,-0.2 0.62,0 1.1,0.17 1.41,0.51 0.32,0.34 0.48,0.84 0.48,1.5 z m -0.68,-2.28 v -0.53 l -1.4,0.2 c -0.49,0.07 -0.84,0.19 -1.05,0.36 -0.21,0.17 -0.32,0.43 -0.32,0.76 0,0.32 0.1,0.57 0.3,0.76 0.2,0.19 0.46,0.28 0.79,0.28 0.49,0 0.89,-0.17 1.2,-0.52 0.31,-0.35 0.48,-0.77 0.48,-1.31 z"
   id="path155" />
					<path
   class="st0"
   d="m 306.51,458.98 h -0.64 c -0.54,-0.62 -0.94,-1.31 -1.21,-2.08 -0.27,-0.77 -0.4,-1.6 -0.4,-2.51 0,-0.93 0.13,-1.78 0.41,-2.56 0.27,-0.78 0.68,-1.48 1.22,-2.11 h 0.65 c -0.55,0.65 -0.96,1.36 -1.24,2.14 -0.28,0.78 -0.41,1.62 -0.41,2.52 0,0.87 0.14,1.69 0.41,2.46 0.26,0.77 0.66,1.48 1.21,2.14 z"
   id="path157" />
					<path
   class="st0"
   d="m 307.15,455.16 c 0,-0.4 0.12,-0.79 0.35,-1.16 0.24,-0.37 0.59,-0.64 1.05,-0.81 -0.34,-0.18 -0.61,-0.41 -0.82,-0.7 -0.2,-0.29 -0.31,-0.62 -0.31,-0.98 0,-0.55 0.2,-1.01 0.59,-1.38 0.39,-0.37 0.88,-0.55 1.46,-0.55 0.59,0 1.08,0.18 1.47,0.55 0.39,0.37 0.58,0.83 0.58,1.37 0,0.36 -0.1,0.68 -0.3,0.98 -0.2,0.29 -0.46,0.53 -0.79,0.7 0.45,0.17 0.79,0.44 1.03,0.81 0.23,0.37 0.35,0.76 0.35,1.15 0,0.68 -0.21,1.22 -0.64,1.62 -0.43,0.41 -0.99,0.61 -1.69,0.61 -0.68,0 -1.24,-0.2 -1.68,-0.6 -0.43,-0.38 -0.65,-0.93 -0.65,-1.61 z m 0.72,-0.03 c 0,0.51 0.15,0.92 0.45,1.21 0.3,0.29 0.69,0.44 1.16,0.44 0.47,0 0.86,-0.15 1.16,-0.45 0.3,-0.3 0.46,-0.7 0.46,-1.19 0,-0.45 -0.15,-0.83 -0.44,-1.16 -0.29,-0.33 -0.69,-0.48 -1.18,-0.48 -0.46,0 -0.84,0.15 -1.15,0.46 -0.31,0.32 -0.46,0.71 -0.46,1.17 z m 0.27,-3.57 c 0,0.39 0.13,0.72 0.4,0.98 0.26,0.26 0.58,0.39 0.95,0.39 0.38,0 0.7,-0.13 0.96,-0.4 0.26,-0.27 0.4,-0.59 0.4,-0.97 0,-0.4 -0.13,-0.73 -0.4,-0.99 -0.26,-0.26 -0.58,-0.39 -0.96,-0.39 -0.4,0 -0.72,0.13 -0.97,0.4 -0.25,0.27 -0.38,0.59 -0.38,0.98 z"
   id="path159" />
					<path
   class="st0"
   d="m 320.64,457.26 h -0.67 v -3.17 c 0,-0.64 -0.1,-1.09 -0.3,-1.36 -0.2,-0.27 -0.52,-0.41 -0.97,-0.41 -0.4,0 -0.74,0.18 -1.02,0.53 -0.28,0.35 -0.43,0.78 -0.43,1.29 v 3.12 h -0.67 v -3.24 c 0,-0.57 -0.11,-0.99 -0.32,-1.27 -0.21,-0.28 -0.54,-0.42 -0.97,-0.42 -0.41,0 -0.75,0.17 -1.02,0.51 -0.27,0.34 -0.4,0.79 -0.4,1.33 v 3.09 h -0.67 v -5.39 h 0.67 v 0.87 h 0.02 c 0.19,-0.34 0.43,-0.59 0.7,-0.75 0.27,-0.16 0.6,-0.25 0.96,-0.25 0.38,0 0.71,0.11 0.98,0.33 0.27,0.22 0.46,0.5 0.56,0.85 0.18,-0.38 0.43,-0.67 0.73,-0.87 0.31,-0.2 0.65,-0.3 1.03,-0.3 0.59,0 1.04,0.18 1.33,0.55 0.29,0.37 0.44,0.92 0.44,1.65 v 3.31 z"
   id="path161" />
					<path
   class="st0"
   d="m 321.77,453.67 v -0.21 c 0,-0.2 0.03,-0.38 0.08,-0.53 0.05,-0.15 0.12,-0.28 0.21,-0.39 0.12,-0.14 0.25,-0.27 0.4,-0.39 0.15,-0.12 0.33,-0.25 0.52,-0.4 0.15,-0.1 0.28,-0.21 0.39,-0.31 0.11,-0.1 0.21,-0.2 0.28,-0.31 0.07,-0.1 0.13,-0.21 0.17,-0.33 0.04,-0.12 0.06,-0.25 0.06,-0.4 0,-0.27 -0.08,-0.48 -0.23,-0.63 -0.15,-0.16 -0.35,-0.24 -0.61,-0.24 -0.2,0 -0.38,0.04 -0.56,0.11 -0.17,0.07 -0.34,0.18 -0.49,0.34 l -0.24,-0.24 c 0.19,-0.19 0.39,-0.32 0.6,-0.41 0.21,-0.09 0.45,-0.13 0.72,-0.13 0.38,0 0.67,0.11 0.89,0.33 0.22,0.22 0.32,0.5 0.32,0.83 0,0.18 -0.03,0.35 -0.08,0.5 -0.05,0.15 -0.12,0.29 -0.21,0.41 -0.09,0.13 -0.2,0.25 -0.33,0.36 -0.13,0.11 -0.27,0.22 -0.42,0.34 -0.2,0.14 -0.37,0.27 -0.51,0.37 -0.14,0.11 -0.25,0.21 -0.33,0.3 -0.08,0.1 -0.14,0.2 -0.18,0.3 -0.04,0.1 -0.05,0.22 -0.05,0.37 h 2.19 v 0.36 z"
   id="path163" />
					<path
   class="st0"
   d="m 325.48,458.98 h -0.64 c 0.54,-0.66 0.95,-1.37 1.22,-2.14 0.27,-0.77 0.41,-1.59 0.41,-2.46 0,-0.91 -0.14,-1.75 -0.41,-2.52 -0.27,-0.77 -0.69,-1.49 -1.23,-2.14 h 0.65 c 0.54,0.63 0.95,1.33 1.22,2.11 0.27,0.78 0.41,1.63 0.41,2.56 0,0.91 -0.13,1.75 -0.41,2.51 -0.28,0.77 -0.69,1.46 -1.22,2.08 z"
   id="path165" />
				</g>
			</g>
		</g>
		<g
   id="g254">
			<g
   id="g198">
				<rect
   id="L4_16_"
   x="348.35001"
   y="404.07001"
   class="st4"
   width="15.04"
   height="15.04" />
				<g
   id="g196">
					<g
   id="g194">
						<path
   class="st0"
   d="m 372.27,415.26 0.36,-0.53 c 0.3,0.21 0.6,0.36 0.91,0.46 0.31,0.1 0.65,0.14 1.05,0.14 0.48,0 0.88,-0.13 1.19,-0.38 0.31,-0.26 0.46,-0.61 0.46,-1.07 0,-0.38 -0.13,-0.68 -0.38,-0.92 -0.25,-0.24 -0.66,-0.46 -1.22,-0.65 -0.71,-0.25 -1.23,-0.54 -1.57,-0.86 -0.33,-0.32 -0.5,-0.74 -0.5,-1.24 0,-0.61 0.21,-1.11 0.63,-1.47 0.42,-0.37 0.98,-0.55 1.68,-0.55 0.31,0 0.61,0.04 0.91,0.11 0.3,0.08 0.61,0.2 0.91,0.37 l -0.29,0.56 c -0.26,-0.14 -0.52,-0.25 -0.77,-0.31 -0.25,-0.06 -0.53,-0.09 -0.83,-0.09 -0.46,0 -0.84,0.12 -1.12,0.35 -0.29,0.24 -0.43,0.56 -0.43,0.97 0,0.35 0.13,0.65 0.39,0.87 0.26,0.23 0.68,0.44 1.27,0.65 0.71,0.25 1.23,0.53 1.54,0.86 0.31,0.33 0.47,0.76 0.47,1.3 0,0.64 -0.21,1.16 -0.64,1.56 -0.43,0.4 -1.01,0.6 -1.75,0.6 -0.43,0 -0.83,-0.06 -1.2,-0.17 -0.37,-0.11 -0.72,-0.31 -1.07,-0.56 z"
   id="path174" />
						<path
   class="st0"
   d="m 380.66,415.76 c -0.13,0.07 -0.27,0.12 -0.41,0.15 -0.14,0.03 -0.3,0.05 -0.47,0.05 -0.39,0 -0.69,-0.12 -0.91,-0.35 -0.22,-0.23 -0.33,-0.58 -0.33,-1.03 v -3.53 h -0.95 v -0.59 h 0.95 v -1.37 l 0.67,-0.22 v 1.59 h 1.39 v 0.59 h -1.39 v 3.45 c 0,0.31 0.06,0.53 0.17,0.67 0.12,0.14 0.28,0.21 0.5,0.21 0.12,0 0.22,-0.01 0.32,-0.04 0.1,-0.03 0.19,-0.06 0.26,-0.11 z"
   id="path176" />
						<path
   class="st0"
   d="m 383.93,415.97 c -0.79,0 -1.42,-0.25 -1.89,-0.77 -0.47,-0.52 -0.7,-1.18 -0.7,-2.01 0,-0.9 0.24,-1.6 0.73,-2.11 0.49,-0.51 1.13,-0.76 1.95,-0.77 0.79,0 1.4,0.25 1.85,0.75 0.45,0.5 0.67,1.19 0.67,2.07 0,0.85 -0.23,1.53 -0.71,2.05 -0.48,0.52 -1.1,0.79 -1.9,0.79 z m 0.04,-0.58 c 0.6,0 1.07,-0.2 1.4,-0.59 0.33,-0.39 0.49,-0.94 0.49,-1.64 0,-0.72 -0.16,-1.28 -0.49,-1.67 -0.33,-0.39 -0.79,-0.58 -1.38,-0.58 -0.59,0 -1.07,0.2 -1.42,0.61 -0.35,0.4 -0.53,0.96 -0.53,1.67 0,0.67 0.17,1.21 0.52,1.6 0.34,0.4 0.82,0.6 1.41,0.6 z"
   id="path178" />
						<path
   class="st0"
   d="m 388.24,409.14 c -0.15,0 -0.27,-0.05 -0.37,-0.15 -0.1,-0.1 -0.15,-0.22 -0.15,-0.37 0,-0.14 0.05,-0.27 0.15,-0.36 0.1,-0.1 0.22,-0.15 0.37,-0.15 0.15,0 0.27,0.05 0.37,0.15 0.1,0.1 0.15,0.22 0.15,0.36 0,0.15 -0.05,0.27 -0.15,0.37 -0.1,0.1 -0.23,0.15 -0.37,0.15 z m 0.33,6.71 h -0.67 v -5.39 h 0.67 z"
   id="path180" />
						<path
   class="st0"
   d="m 389.8,415.45 0.33,-0.53 c 0.21,0.14 0.43,0.25 0.66,0.34 0.23,0.09 0.48,0.13 0.76,0.13 0.41,0 0.71,-0.09 0.92,-0.26 0.21,-0.17 0.31,-0.41 0.31,-0.72 0,-0.24 -0.08,-0.43 -0.25,-0.6 -0.17,-0.16 -0.47,-0.31 -0.93,-0.45 -0.61,-0.17 -1.03,-0.38 -1.27,-0.63 -0.23,-0.25 -0.35,-0.55 -0.35,-0.91 0,-0.44 0.16,-0.8 0.48,-1.08 0.32,-0.28 0.76,-0.42 1.31,-0.42 0.26,0 0.52,0.03 0.77,0.1 0.25,0.07 0.5,0.18 0.76,0.34 l -0.32,0.52 c -0.21,-0.13 -0.41,-0.22 -0.62,-0.28 -0.2,-0.06 -0.41,-0.09 -0.62,-0.09 -0.36,0 -0.64,0.08 -0.83,0.23 -0.19,0.15 -0.29,0.36 -0.29,0.62 0,0.25 0.09,0.45 0.26,0.58 0.17,0.13 0.48,0.27 0.92,0.4 0.56,0.17 0.98,0.38 1.24,0.63 0.26,0.25 0.39,0.58 0.39,0.99 0,0.5 -0.17,0.9 -0.51,1.19 -0.34,0.29 -0.8,0.43 -1.38,0.43 -0.31,0 -0.61,-0.04 -0.9,-0.13 -0.31,-0.1 -0.59,-0.23 -0.84,-0.4 z"
   id="path182" />
						<path
   class="st0"
   d="m 398.82,415.85 h -0.96 l -2.48,-2.63 h -0.02 v 2.63 h -0.67 v -7.98 h 0.67 v 5.1 h 0.02 l 2.36,-2.51 h 0.88 l -2.53,2.61 z"
   id="path184" />
						<path
   class="st0"
   d="m 403.52,415.85 h -0.67 v -0.96 h -0.02 c -0.18,0.35 -0.42,0.62 -0.72,0.8 -0.3,0.19 -0.64,0.28 -1.02,0.28 -0.51,0 -0.92,-0.15 -1.22,-0.44 -0.3,-0.29 -0.46,-0.67 -0.46,-1.13 0,-0.46 0.15,-0.84 0.46,-1.13 0.31,-0.29 0.78,-0.49 1.43,-0.58 l 1.55,-0.22 v -0.15 c -0.01,-0.48 -0.13,-0.84 -0.34,-1.07 -0.21,-0.23 -0.52,-0.34 -0.91,-0.34 -0.3,0 -0.58,0.05 -0.85,0.16 -0.26,0.11 -0.51,0.27 -0.74,0.5 l -0.4,-0.42 c 0.29,-0.28 0.6,-0.49 0.93,-0.62 0.33,-0.13 0.7,-0.2 1.1,-0.2 0.62,0 1.1,0.17 1.41,0.51 0.32,0.34 0.48,0.84 0.48,1.5 v 3.51 z m -0.67,-2.29 v -0.53 l -1.39,0.2 c -0.49,0.07 -0.84,0.19 -1.05,0.36 -0.21,0.17 -0.32,0.43 -0.32,0.76 0,0.32 0.1,0.57 0.3,0.76 0.2,0.19 0.46,0.28 0.79,0.28 0.49,0 0.89,-0.17 1.2,-0.52 0.31,-0.35 0.47,-0.77 0.47,-1.31 z"
   id="path186" />
						<path
   class="st0"
   d="m 407.75,413.74 c 0,-0.4 0.12,-0.79 0.35,-1.16 0.24,-0.37 0.59,-0.64 1.05,-0.81 -0.34,-0.18 -0.61,-0.41 -0.81,-0.7 -0.21,-0.29 -0.31,-0.62 -0.31,-0.98 0,-0.55 0.2,-1.01 0.59,-1.38 0.39,-0.37 0.88,-0.55 1.46,-0.55 0.59,0 1.08,0.18 1.46,0.55 0.39,0.37 0.58,0.83 0.58,1.37 0,0.36 -0.1,0.68 -0.3,0.98 -0.2,0.29 -0.46,0.53 -0.79,0.7 0.45,0.17 0.79,0.44 1.03,0.81 0.23,0.37 0.35,0.76 0.35,1.15 0,0.68 -0.21,1.22 -0.64,1.62 -0.43,0.4 -0.99,0.61 -1.69,0.61 -0.69,0 -1.24,-0.2 -1.68,-0.6 -0.43,-0.38 -0.65,-0.92 -0.65,-1.61 z m 0.72,-0.02 c 0,0.51 0.15,0.92 0.45,1.21 0.3,0.29 0.69,0.44 1.16,0.44 0.47,0 0.86,-0.15 1.16,-0.45 0.3,-0.3 0.46,-0.7 0.46,-1.19 0,-0.45 -0.15,-0.83 -0.44,-1.16 -0.29,-0.33 -0.69,-0.48 -1.18,-0.48 -0.46,0 -0.84,0.15 -1.15,0.46 -0.31,0.31 -0.46,0.7 -0.46,1.17 z m 0.27,-3.58 c 0,0.39 0.13,0.72 0.4,0.98 0.27,0.26 0.58,0.39 0.95,0.39 0.38,0 0.7,-0.13 0.96,-0.4 0.26,-0.27 0.4,-0.59 0.4,-0.97 0,-0.4 -0.13,-0.73 -0.39,-0.99 -0.26,-0.26 -0.58,-0.39 -0.96,-0.39 -0.4,0 -0.72,0.13 -0.97,0.4 -0.27,0.27 -0.39,0.6 -0.39,0.98 z"
   id="path188" />
						<path
   class="st0"
   d="m 421.24,415.85 h -0.67 v -3.17 c 0,-0.64 -0.1,-1.09 -0.3,-1.36 -0.2,-0.27 -0.52,-0.41 -0.96,-0.41 -0.4,0 -0.74,0.18 -1.02,0.53 -0.29,0.35 -0.43,0.78 -0.43,1.29 v 3.12 h -0.67 v -3.24 c 0,-0.57 -0.11,-0.99 -0.32,-1.27 -0.22,-0.28 -0.54,-0.42 -0.97,-0.42 -0.41,0 -0.75,0.17 -1.02,0.51 -0.27,0.34 -0.4,0.79 -0.4,1.33 v 3.09 h -0.67 v -5.39 h 0.67 v 0.87 h 0.02 c 0.19,-0.34 0.43,-0.59 0.7,-0.75 0.27,-0.16 0.6,-0.25 0.96,-0.25 0.38,0 0.71,0.11 0.98,0.33 0.27,0.22 0.46,0.5 0.56,0.85 0.18,-0.38 0.43,-0.67 0.73,-0.87 0.31,-0.2 0.65,-0.3 1.03,-0.3 0.59,0 1.04,0.18 1.33,0.55 0.29,0.37 0.44,0.92 0.44,1.65 v 3.31 z"
   id="path190" />
						<path
   class="st0"
   d="m 422.37,412.26 v -0.21 c 0,-0.2 0.03,-0.38 0.08,-0.53 0.05,-0.15 0.12,-0.28 0.21,-0.39 0.12,-0.14 0.25,-0.27 0.4,-0.39 0.15,-0.12 0.33,-0.25 0.52,-0.4 0.15,-0.1 0.28,-0.21 0.39,-0.31 0.11,-0.1 0.21,-0.2 0.28,-0.31 0.07,-0.1 0.13,-0.21 0.17,-0.33 0.04,-0.12 0.06,-0.25 0.06,-0.4 0,-0.27 -0.08,-0.48 -0.23,-0.63 -0.15,-0.16 -0.36,-0.24 -0.61,-0.24 -0.2,0 -0.38,0.04 -0.56,0.11 -0.17,0.07 -0.34,0.18 -0.49,0.34 l -0.24,-0.24 c 0.19,-0.19 0.38,-0.32 0.6,-0.41 0.21,-0.09 0.45,-0.13 0.72,-0.13 0.38,0 0.67,0.11 0.89,0.33 0.21,0.22 0.32,0.5 0.32,0.83 0,0.18 -0.03,0.35 -0.08,0.5 -0.05,0.15 -0.12,0.29 -0.21,0.41 -0.09,0.13 -0.2,0.25 -0.33,0.36 -0.13,0.11 -0.27,0.22 -0.42,0.34 -0.2,0.14 -0.37,0.27 -0.51,0.37 -0.13,0.11 -0.24,0.21 -0.33,0.3 -0.08,0.1 -0.14,0.2 -0.18,0.3 -0.04,0.1 -0.05,0.22 -0.05,0.37 h 2.19 v 0.36 z"
   id="path192" />
					</g>
				</g>
			</g>
			<g
   id="g225">
				<rect
   id="L4_5_"
   x="348.35001"
   y="424.78"
   class="st5"
   width="15.04"
   height="15.04" />
				<g
   id="g223">
					<g
   id="g221">
						<path
   class="st0"
   d="m 372.27,435.97 0.36,-0.53 c 0.3,0.21 0.6,0.36 0.91,0.46 0.3,0.1 0.65,0.14 1.05,0.14 0.48,0 0.88,-0.13 1.19,-0.38 0.31,-0.25 0.46,-0.61 0.46,-1.07 0,-0.38 -0.13,-0.68 -0.38,-0.92 -0.25,-0.24 -0.66,-0.46 -1.22,-0.65 -0.71,-0.25 -1.23,-0.54 -1.57,-0.86 -0.33,-0.32 -0.5,-0.74 -0.5,-1.24 0,-0.62 0.21,-1.11 0.63,-1.47 0.42,-0.37 0.98,-0.55 1.68,-0.55 0.31,0 0.61,0.04 0.91,0.11 0.3,0.08 0.61,0.2 0.91,0.37 l -0.29,0.56 c -0.26,-0.14 -0.52,-0.25 -0.77,-0.31 -0.25,-0.06 -0.53,-0.1 -0.83,-0.1 -0.46,0 -0.84,0.12 -1.12,0.35 -0.29,0.23 -0.43,0.56 -0.43,0.97 0,0.35 0.13,0.64 0.39,0.87 0.26,0.23 0.68,0.44 1.27,0.65 0.71,0.24 1.23,0.53 1.54,0.86 0.31,0.33 0.47,0.76 0.47,1.3 0,0.64 -0.21,1.16 -0.64,1.56 -0.43,0.4 -1.01,0.6 -1.75,0.6 -0.43,0 -0.83,-0.06 -1.2,-0.17 -0.35,-0.12 -0.71,-0.3 -1.07,-0.55 z"
   id="path201" />
						<path
   class="st0"
   d="m 380.67,436.46 c -0.13,0.07 -0.27,0.12 -0.41,0.15 -0.14,0.03 -0.3,0.05 -0.47,0.05 -0.39,0 -0.69,-0.12 -0.91,-0.35 -0.22,-0.23 -0.33,-0.58 -0.33,-1.03 v -3.53 h -0.95 v -0.59 h 0.95 v -1.37 l 0.67,-0.22 v 1.59 h 1.39 v 0.59 h -1.39 v 3.45 c 0,0.31 0.06,0.53 0.17,0.67 0.12,0.14 0.28,0.21 0.5,0.21 0.12,0 0.22,-0.01 0.32,-0.04 0.1,-0.03 0.19,-0.06 0.26,-0.11 z"
   id="path203" />
						<path
   class="st0"
   d="m 383.94,436.68 c -0.79,0 -1.42,-0.26 -1.89,-0.77 -0.47,-0.51 -0.7,-1.18 -0.7,-2.01 0,-0.9 0.24,-1.6 0.73,-2.11 0.49,-0.51 1.13,-0.76 1.95,-0.77 0.79,0 1.4,0.25 1.85,0.75 0.45,0.5 0.67,1.19 0.67,2.07 0,0.85 -0.23,1.53 -0.71,2.05 -0.48,0.52 -1.1,0.79 -1.9,0.79 z m 0.03,-0.58 c 0.6,0 1.07,-0.2 1.4,-0.59 0.33,-0.39 0.49,-0.94 0.49,-1.64 0,-0.72 -0.16,-1.28 -0.49,-1.67 -0.33,-0.39 -0.79,-0.58 -1.38,-0.58 -0.59,0 -1.07,0.2 -1.42,0.61 -0.35,0.4 -0.53,0.96 -0.53,1.67 0,0.67 0.17,1.21 0.52,1.6 0.35,0.39 0.82,0.6 1.41,0.6 z"
   id="path205" />
						<path
   class="st0"
   d="m 388.24,429.85 c -0.15,0 -0.27,-0.05 -0.37,-0.15 -0.1,-0.1 -0.15,-0.22 -0.15,-0.37 0,-0.14 0.05,-0.27 0.15,-0.36 0.1,-0.1 0.22,-0.15 0.37,-0.15 0.15,0 0.27,0.05 0.37,0.15 0.1,0.1 0.15,0.22 0.15,0.36 0,0.15 -0.05,0.27 -0.15,0.37 -0.1,0.1 -0.22,0.15 -0.37,0.15 z m 0.33,6.7 h -0.67 v -5.39 h 0.67 z"
   id="path207" />
						<path
   class="st0"
   d="m 389.81,436.15 0.33,-0.53 c 0.21,0.14 0.43,0.26 0.66,0.34 0.23,0.09 0.48,0.13 0.76,0.13 0.41,0 0.71,-0.09 0.92,-0.26 0.21,-0.17 0.31,-0.41 0.31,-0.72 0,-0.24 -0.08,-0.44 -0.25,-0.6 -0.17,-0.16 -0.47,-0.31 -0.93,-0.45 -0.61,-0.17 -1.03,-0.38 -1.27,-0.63 -0.23,-0.25 -0.35,-0.55 -0.35,-0.91 0,-0.44 0.16,-0.8 0.48,-1.08 0.32,-0.28 0.76,-0.42 1.31,-0.42 0.26,0 0.52,0.03 0.77,0.1 0.25,0.07 0.5,0.18 0.76,0.34 l -0.32,0.52 c -0.21,-0.13 -0.41,-0.22 -0.62,-0.28 -0.21,-0.06 -0.41,-0.1 -0.62,-0.1 -0.36,0 -0.64,0.08 -0.83,0.23 -0.19,0.15 -0.29,0.36 -0.29,0.62 0,0.25 0.09,0.45 0.26,0.58 0.17,0.13 0.48,0.27 0.92,0.4 0.56,0.17 0.98,0.38 1.24,0.63 0.26,0.25 0.39,0.58 0.39,0.99 0,0.5 -0.17,0.9 -0.51,1.19 -0.34,0.29 -0.8,0.43 -1.38,0.43 -0.31,0 -0.61,-0.04 -0.9,-0.13 -0.31,-0.08 -0.59,-0.21 -0.84,-0.39 z"
   id="path209" />
						<path
   class="st0"
   d="m 398.83,436.55 h -0.96 l -2.48,-2.63 h -0.02 v 2.63 h -0.67 v -7.98 h 0.67 v 5.1 h 0.02 l 2.36,-2.51 h 0.88 l -2.53,2.61 z"
   id="path211" />
						<path
   class="st0"
   d="m 403.53,436.55 h -0.67 v -0.96 h -0.02 c -0.18,0.35 -0.42,0.62 -0.72,0.8 -0.3,0.19 -0.64,0.29 -1.02,0.29 -0.51,0 -0.92,-0.15 -1.22,-0.44 -0.3,-0.29 -0.46,-0.67 -0.46,-1.13 0,-0.46 0.15,-0.84 0.46,-1.13 0.31,-0.29 0.78,-0.49 1.43,-0.58 l 1.55,-0.22 v -0.15 c -0.01,-0.48 -0.13,-0.84 -0.34,-1.07 -0.21,-0.23 -0.52,-0.34 -0.91,-0.34 -0.3,0 -0.58,0.05 -0.85,0.16 -0.26,0.11 -0.51,0.27 -0.74,0.5 l -0.4,-0.42 c 0.29,-0.28 0.6,-0.49 0.93,-0.62 0.33,-0.13 0.7,-0.2 1.1,-0.2 0.62,0 1.1,0.17 1.41,0.51 0.32,0.34 0.48,0.84 0.48,1.5 v 3.5 z m -0.67,-2.28 v -0.53 l -1.39,0.2 c -0.49,0.07 -0.84,0.19 -1.05,0.36 -0.21,0.17 -0.32,0.43 -0.32,0.76 0,0.32 0.1,0.57 0.3,0.76 0.2,0.19 0.46,0.29 0.79,0.29 0.49,0 0.89,-0.17 1.2,-0.52 0.31,-0.35 0.47,-0.78 0.47,-1.32 z"
   id="path213" />
						<path
   class="st0"
   d="m 412.41,434.18 c 0,0.74 -0.22,1.34 -0.66,1.81 -0.44,0.47 -0.99,0.7 -1.66,0.7 -0.73,0 -1.29,-0.3 -1.7,-0.89 -0.41,-0.6 -0.61,-1.45 -0.61,-2.56 0,-0.6 0.06,-1.17 0.17,-1.72 0.11,-0.55 0.32,-1.03 0.61,-1.46 0.26,-0.39 0.57,-0.69 0.94,-0.88 0.36,-0.2 0.78,-0.29 1.25,-0.29 0.25,0 0.5,0.04 0.75,0.11 0.25,0.07 0.49,0.2 0.73,0.36 l -0.34,0.48 c -0.19,-0.13 -0.38,-0.22 -0.57,-0.28 -0.19,-0.06 -0.4,-0.09 -0.63,-0.09 -0.32,0 -0.61,0.08 -0.88,0.24 -0.27,0.16 -0.52,0.4 -0.73,0.72 -0.19,0.29 -0.34,0.65 -0.45,1.07 -0.1,0.42 -0.15,0.89 -0.15,1.4 h 0.02 c 0.2,-0.36 0.46,-0.62 0.76,-0.79 0.31,-0.18 0.66,-0.26 1.04,-0.26 0.63,0 1.14,0.22 1.53,0.66 0.39,0.43 0.58,0.99 0.58,1.67 z m -0.7,0.06 c 0,-0.57 -0.14,-1.02 -0.42,-1.34 -0.28,-0.32 -0.64,-0.48 -1.1,-0.48 -0.49,0 -0.89,0.17 -1.2,0.51 -0.31,0.34 -0.46,0.73 -0.46,1.16 0,0.56 0.15,1.04 0.44,1.43 0.29,0.39 0.68,0.58 1.16,0.58 0.46,0 0.84,-0.17 1.13,-0.51 0.3,-0.34 0.45,-0.79 0.45,-1.35 z"
   id="path215" />
						<path
   class="st0"
   d="m 421.25,436.55 h -0.67 v -3.17 c 0,-0.64 -0.1,-1.09 -0.3,-1.36 -0.2,-0.27 -0.52,-0.41 -0.96,-0.41 -0.4,0 -0.74,0.18 -1.02,0.53 -0.29,0.35 -0.43,0.78 -0.43,1.29 v 3.12 h -0.67 v -3.24 c 0,-0.56 -0.11,-0.99 -0.32,-1.27 -0.22,-0.28 -0.54,-0.42 -0.97,-0.42 -0.41,0 -0.75,0.17 -1.02,0.51 -0.27,0.34 -0.4,0.79 -0.4,1.33 v 3.09 h -0.67 v -5.39 h 0.67 v 0.87 h 0.02 c 0.19,-0.34 0.43,-0.59 0.7,-0.76 0.28,-0.17 0.6,-0.25 0.96,-0.25 0.38,0 0.71,0.11 0.98,0.33 0.28,0.22 0.46,0.5 0.56,0.85 0.18,-0.38 0.43,-0.67 0.73,-0.87 0.3,-0.2 0.65,-0.3 1.03,-0.3 0.59,0 1.04,0.18 1.33,0.55 0.29,0.37 0.44,0.91 0.44,1.64 v 3.33 z"
   id="path217" />
						<path
   class="st0"
   d="m 422.38,432.96 v -0.21 c 0,-0.2 0.03,-0.38 0.08,-0.53 0.05,-0.15 0.12,-0.28 0.21,-0.39 0.12,-0.14 0.25,-0.27 0.4,-0.39 0.15,-0.12 0.33,-0.25 0.52,-0.4 0.15,-0.11 0.28,-0.21 0.39,-0.31 0.11,-0.1 0.21,-0.2 0.28,-0.31 0.07,-0.1 0.13,-0.21 0.17,-0.33 0.04,-0.12 0.06,-0.25 0.06,-0.39 0,-0.27 -0.08,-0.48 -0.23,-0.63 -0.15,-0.15 -0.36,-0.23 -0.61,-0.23 -0.2,0 -0.38,0.04 -0.56,0.11 -0.17,0.07 -0.34,0.18 -0.49,0.34 l -0.24,-0.24 c 0.19,-0.19 0.38,-0.32 0.6,-0.41 0.21,-0.09 0.45,-0.13 0.72,-0.13 0.38,0 0.67,0.11 0.89,0.34 0.21,0.22 0.32,0.5 0.32,0.83 0,0.18 -0.03,0.35 -0.08,0.5 -0.05,0.15 -0.12,0.29 -0.21,0.41 -0.09,0.13 -0.2,0.25 -0.33,0.36 -0.13,0.11 -0.27,0.22 -0.42,0.34 -0.2,0.14 -0.37,0.27 -0.51,0.37 -0.13,0.11 -0.24,0.21 -0.33,0.3 -0.08,0.1 -0.14,0.2 -0.18,0.3 -0.04,0.1 -0.05,0.22 -0.05,0.37 h 2.19 v 0.36 h -2.59 z"
   id="path219" />
					</g>
				</g>
			</g>
			<g
   id="g252">
				<rect
   id="L4_2_"
   x="348.35001"
   y="445.48999"
   class="st6"
   width="15.04"
   height="15.04" />
				<g
   id="g250">
					<g
   id="g248">
						<path
   class="st0"
   d="m 372.21,456.68 0.36,-0.53 c 0.3,0.21 0.6,0.36 0.9,0.46 0.31,0.1 0.66,0.14 1.05,0.14 0.48,0 0.88,-0.13 1.18,-0.38 0.3,-0.25 0.46,-0.61 0.46,-1.07 0,-0.38 -0.12,-0.68 -0.37,-0.92 -0.25,-0.24 -0.66,-0.46 -1.22,-0.65 -0.71,-0.25 -1.23,-0.54 -1.57,-0.86 -0.34,-0.32 -0.5,-0.74 -0.5,-1.24 0,-0.62 0.21,-1.11 0.63,-1.47 0.42,-0.37 0.98,-0.55 1.68,-0.55 0.31,0 0.61,0.04 0.91,0.11 0.3,0.07 0.6,0.2 0.91,0.37 l -0.29,0.56 c -0.26,-0.14 -0.52,-0.25 -0.77,-0.31 -0.25,-0.06 -0.53,-0.1 -0.83,-0.1 -0.46,0 -0.84,0.12 -1.12,0.35 -0.28,0.23 -0.43,0.56 -0.43,0.97 0,0.35 0.13,0.64 0.39,0.87 0.26,0.23 0.68,0.44 1.27,0.65 0.71,0.24 1.22,0.53 1.54,0.86 0.32,0.33 0.47,0.76 0.47,1.3 0,0.64 -0.21,1.16 -0.64,1.56 -0.42,0.4 -1.01,0.6 -1.75,0.6 -0.44,0 -0.83,-0.06 -1.2,-0.17 -0.35,-0.12 -0.71,-0.3 -1.06,-0.55 z"
   id="path228" />
						<path
   class="st0"
   d="m 380.6,457.17 c -0.13,0.07 -0.27,0.12 -0.41,0.15 -0.14,0.03 -0.3,0.05 -0.47,0.05 -0.39,0 -0.69,-0.12 -0.91,-0.35 -0.22,-0.23 -0.33,-0.58 -0.33,-1.03 v -3.53 h -0.95 v -0.59 h 0.95 v -1.37 l 0.67,-0.22 v 1.59 h 1.39 v 0.59 h -1.39 v 3.45 c 0,0.31 0.06,0.53 0.17,0.67 0.11,0.14 0.28,0.21 0.5,0.21 0.12,0 0.22,-0.01 0.32,-0.04 0.1,-0.03 0.19,-0.06 0.26,-0.11 z"
   id="path230" />
						<path
   class="st0"
   d="m 383.87,457.39 c -0.79,0 -1.42,-0.26 -1.89,-0.77 -0.47,-0.51 -0.7,-1.18 -0.7,-2.01 0,-0.9 0.24,-1.6 0.73,-2.11 0.49,-0.51 1.14,-0.76 1.95,-0.77 0.79,0 1.4,0.25 1.85,0.75 0.45,0.5 0.67,1.19 0.67,2.07 0,0.85 -0.23,1.53 -0.71,2.05 -0.46,0.53 -1.09,0.79 -1.9,0.79 z m 0.04,-0.58 c 0.6,0 1.07,-0.2 1.39,-0.59 0.33,-0.39 0.49,-0.94 0.49,-1.64 0,-0.72 -0.16,-1.28 -0.49,-1.67 -0.33,-0.39 -0.79,-0.58 -1.38,-0.58 -0.59,0 -1.06,0.2 -1.42,0.61 -0.35,0.4 -0.53,0.96 -0.53,1.67 0,0.67 0.17,1.21 0.52,1.6 0.36,0.4 0.83,0.6 1.42,0.6 z"
   id="path232" />
						<path
   class="st0"
   d="m 388.18,450.56 c -0.15,0 -0.27,-0.05 -0.37,-0.15 -0.1,-0.1 -0.15,-0.22 -0.15,-0.37 0,-0.14 0.05,-0.27 0.15,-0.36 0.1,-0.09 0.22,-0.15 0.37,-0.15 0.15,0 0.27,0.05 0.37,0.15 0.1,0.1 0.15,0.22 0.15,0.36 0,0.15 -0.05,0.27 -0.15,0.37 -0.1,0.1 -0.22,0.15 -0.37,0.15 z m 0.33,6.7 h -0.67 v -5.39 h 0.67 z"
   id="path234" />
						<path
   class="st0"
   d="m 389.74,456.86 0.33,-0.53 c 0.21,0.14 0.43,0.26 0.65,0.34 0.23,0.09 0.48,0.13 0.76,0.13 0.41,0 0.71,-0.09 0.92,-0.26 0.21,-0.17 0.31,-0.41 0.31,-0.72 0,-0.24 -0.08,-0.44 -0.25,-0.6 -0.17,-0.16 -0.48,-0.31 -0.93,-0.45 -0.61,-0.17 -1.03,-0.38 -1.27,-0.63 -0.23,-0.25 -0.35,-0.55 -0.35,-0.91 0,-0.44 0.16,-0.8 0.48,-1.08 0.32,-0.28 0.76,-0.42 1.3,-0.42 0.26,0 0.52,0.03 0.77,0.1 0.25,0.07 0.5,0.18 0.76,0.34 l -0.31,0.52 c -0.21,-0.13 -0.41,-0.22 -0.62,-0.28 -0.2,-0.06 -0.41,-0.1 -0.62,-0.1 -0.36,0 -0.64,0.08 -0.83,0.23 -0.19,0.15 -0.29,0.36 -0.29,0.62 0,0.25 0.09,0.45 0.26,0.58 0.17,0.13 0.48,0.27 0.92,0.4 0.57,0.17 0.98,0.38 1.24,0.63 0.26,0.25 0.39,0.58 0.39,0.99 0,0.5 -0.17,0.9 -0.51,1.19 -0.34,0.29 -0.8,0.43 -1.38,0.43 -0.31,0 -0.62,-0.04 -0.91,-0.13 -0.29,-0.08 -0.56,-0.21 -0.82,-0.39 z"
   id="path236" />
						<path
   class="st0"
   d="m 398.76,457.26 h -0.96 l -2.48,-2.63 h -0.02 v 2.63 h -0.67 v -7.98 h 0.67 v 5.1 h 0.02 l 2.36,-2.51 h 0.88 l -2.53,2.61 z"
   id="path238" />
						<path
   class="st0"
   d="m 403.46,457.26 h -0.67 v -0.96 h -0.02 c -0.18,0.35 -0.42,0.62 -0.72,0.8 -0.3,0.18 -0.64,0.29 -1.02,0.29 -0.51,0 -0.92,-0.15 -1.22,-0.44 -0.31,-0.29 -0.46,-0.67 -0.46,-1.13 0,-0.46 0.15,-0.84 0.46,-1.13 0.3,-0.29 0.78,-0.49 1.43,-0.58 l 1.55,-0.22 v -0.15 c -0.02,-0.48 -0.13,-0.84 -0.34,-1.07 -0.21,-0.23 -0.52,-0.34 -0.9,-0.34 -0.3,0 -0.58,0.05 -0.85,0.16 -0.26,0.11 -0.51,0.27 -0.74,0.5 l -0.41,-0.42 c 0.29,-0.28 0.6,-0.49 0.93,-0.62 0.33,-0.13 0.7,-0.2 1.1,-0.2 0.63,0 1.1,0.17 1.41,0.51 0.32,0.34 0.48,0.84 0.48,1.5 v 3.5 z m -0.67,-2.28 v -0.53 l -1.4,0.2 c -0.49,0.07 -0.84,0.19 -1.05,0.36 -0.21,0.17 -0.32,0.43 -0.32,0.76 0,0.32 0.1,0.57 0.3,0.76 0.2,0.19 0.46,0.29 0.79,0.29 0.49,0 0.89,-0.17 1.2,-0.52 0.31,-0.35 0.48,-0.78 0.48,-1.32 z"
   id="path240" />
						<path
   class="st0"
   d="m 411.88,449.68 v 5.11 h 0.92 v 0.62 h -0.92 v 1.89 h -0.69 v -1.89 h -3.68 v -0.62 c 0.34,-0.38 0.69,-0.79 1.04,-1.22 0.35,-0.43 0.69,-0.88 1.01,-1.32 0.32,-0.44 0.62,-0.89 0.89,-1.33 0.27,-0.44 0.5,-0.85 0.69,-1.24 z m -3.58,5.11 h 2.89 v -4.02 c -0.27,0.45 -0.53,0.88 -0.79,1.27 -0.26,0.39 -0.52,0.75 -0.76,1.09 -0.25,0.33 -0.49,0.64 -0.71,0.91 -0.22,0.27 -0.44,0.53 -0.63,0.75 z"
   id="path242" />
						<path
   class="st0"
   d="m 421.42,457.26 h -0.67 v -3.17 c 0,-0.64 -0.1,-1.09 -0.3,-1.36 -0.2,-0.27 -0.52,-0.41 -0.97,-0.41 -0.4,0 -0.74,0.18 -1.02,0.53 -0.28,0.35 -0.43,0.78 -0.43,1.29 v 3.12 h -0.67 v -3.24 c 0,-0.56 -0.11,-0.99 -0.32,-1.27 -0.21,-0.28 -0.54,-0.42 -0.97,-0.42 -0.41,0 -0.75,0.17 -1.02,0.51 -0.27,0.34 -0.4,0.79 -0.4,1.33 v 3.09 h -0.67 v -5.39 h 0.67 v 0.87 h 0.02 c 0.19,-0.34 0.43,-0.59 0.7,-0.76 0.28,-0.17 0.6,-0.25 0.96,-0.25 0.38,0 0.71,0.11 0.98,0.33 0.28,0.22 0.46,0.5 0.56,0.85 0.18,-0.38 0.43,-0.67 0.73,-0.87 0.3,-0.2 0.65,-0.3 1.04,-0.3 0.59,0 1.04,0.18 1.33,0.55 0.29,0.37 0.44,0.91 0.44,1.64 v 3.33 z"
   id="path244" />
						<path
   class="st0"
   d="m 422.55,453.67 v -0.21 c 0,-0.2 0.03,-0.38 0.08,-0.53 0.05,-0.15 0.12,-0.28 0.21,-0.39 0.12,-0.14 0.25,-0.27 0.4,-0.39 0.15,-0.12 0.32,-0.25 0.52,-0.4 0.15,-0.11 0.28,-0.21 0.39,-0.31 0.11,-0.1 0.21,-0.2 0.28,-0.31 0.07,-0.1 0.13,-0.21 0.17,-0.33 0.04,-0.12 0.06,-0.25 0.06,-0.39 0,-0.27 -0.08,-0.48 -0.23,-0.63 -0.15,-0.15 -0.35,-0.23 -0.61,-0.23 -0.2,0 -0.38,0.04 -0.56,0.11 -0.17,0.07 -0.34,0.18 -0.49,0.34 l -0.24,-0.24 c 0.19,-0.19 0.39,-0.32 0.6,-0.41 0.21,-0.09 0.45,-0.13 0.72,-0.13 0.38,0 0.67,0.11 0.89,0.34 0.22,0.22 0.32,0.5 0.32,0.83 0,0.18 -0.03,0.35 -0.08,0.5 -0.05,0.15 -0.12,0.29 -0.21,0.41 -0.09,0.13 -0.2,0.25 -0.32,0.36 -0.13,0.11 -0.27,0.22 -0.42,0.34 -0.2,0.14 -0.37,0.27 -0.51,0.37 -0.14,0.1 -0.25,0.21 -0.33,0.3 -0.08,0.1 -0.14,0.2 -0.18,0.3 -0.04,0.1 -0.05,0.22 -0.05,0.37 h 2.19 v 0.36 h -2.6 z"
   id="path246" />
					</g>
				</g>
			</g>
		</g>
	</g>
</g>
</svg>
