<?xml version="1.0" encoding="UTF-8" standalone="no"?>
<!-- Generator: Adobe Illustrator 23.0.1, SVG Export Plug-In . SVG Version: 6.00 Build 0)  -->

<svg
   version="1.1"
   id="Warstwa_1"
   x="0px"
   y="0px"
   viewBox="0 0 520.04 263.62"
   xml:space="preserve"
   sodipodi:docname="BEST logo stronka.svg"
   width="520.03998"
   height="263.62"
   inkscape:version="1.1.2 (b8e25be833, 2022-02-05)"
   xmlns:inkscape="http://www.inkscape.org/namespaces/inkscape"
   xmlns:sodipodi="http://sodipodi.sourceforge.net/DTD/sodipodi-0.dtd"
   xmlns="http://www.w3.org/2000/svg"
   xmlns:svg="http://www.w3.org/2000/svg"><defs
   id="defs55" /><sodipodi:namedview
   id="namedview53"
   pagecolor="#ffffff"
   bordercolor="#cccccc"
   borderopacity="1"
   inkscape:pageshadow="0"
   inkscape:pageopacity="1"
   inkscape:pagecheckerboard="0"
   showgrid="false"
   inkscape:zoom="1.8101934"
   inkscape:cx="244.17281"
   inkscape:cy="150.53641"
   inkscape:window-width="1920"
   inkscape:window-height="992"
   inkscape:window-x="-8"
   inkscape:window-y="-8"
   inkscape:window-maximized="1"
   inkscape:current-layer="Warstwa_1" />
<g
   id="g38">
	<path
   d="m 304.95,145.11 c 0,4.24 -0.85,7.98 -2.56,11.22 -1.71,3.24 -4,5.92 -6.88,8.02 -3.41,2.52 -7.06,4.3 -10.96,5.35 -3.9,1.05 -8.93,1.58 -15.1,1.58 h -26 v -85.2 h 24.04 c 6.45,0 11.29,0.2 14.52,0.6 3.23,0.4 6.32,1.34 9.28,2.83 3.25,1.64 5.62,3.78 7.12,6.43 1.5,2.65 2.25,5.76 2.25,9.35 0,4 -1.13,7.58 -3.38,10.75 -2.25,3.16 -5.37,5.64 -9.35,7.43 v 0.46 c 5.4,1.37 9.59,3.88 12.55,7.53 2.99,3.63 4.47,8.18 4.47,13.65 m -16.82,-38.24 c 0,-2.06 -0.37,-3.84 -1.1,-5.35 -0.73,-1.51 -1.91,-2.7 -3.53,-3.58 -1.95,-1.03 -4.12,-1.66 -6.51,-1.89 -2.39,-0.23 -5.7,-0.34 -9.92,-0.34 H 255.5 v 24.94 h 13.7 c 3.77,0 6.56,-0.18 8.34,-0.54 1.78,-0.36 3.63,-1.12 5.54,-2.26 1.83,-1.11 3.13,-2.56 3.9,-4.35 0.76,-1.78 1.15,-3.99 1.15,-6.63 m 4.28,38.7 c 0,-3.21 -0.49,-5.86 -1.46,-7.94 -0.98,-2.08 -2.94,-3.85 -5.91,-5.31 -1.91,-0.95 -3.99,-1.57 -6.24,-1.83 -2.25,-0.27 -5.45,-0.4 -9.59,-0.4 h -13.7 v 31.54 h 9.81 c 5.28,0 9.44,-0.23 12.48,-0.69 3.05,-0.46 5.72,-1.43 8.04,-2.92 2.27,-1.49 3.94,-3.18 5,-5.08 1.04,-1.89 1.57,-4.35 1.57,-7.37"
   id="path2" />
	<polygon
   points="373.72,86.07 373.72,96.15 328.98,96.15 328.98,119.5 370.68,119.5 370.68,129.58 328.98,129.58 328.98,161.19 373.72,161.19 373.72,171.27 316.95,171.27 316.95,86.07 "
   id="polygon4" />
	<path
   d="m 412.16,172.8 c -6.57,0 -12.16,-0.64 -16.76,-1.91 -4.6,-1.28 -8.93,-2.85 -12.99,-4.72 v -14.18 h 0.85 c 3.97,3.5 8.47,6.22 13.5,8.14 5.03,1.92 9.88,2.88 14.54,2.88 6.65,0 11.68,-1.3 15.08,-3.92 3.41,-2.61 5.11,-6.05 5.11,-10.32 0,-3.4 -0.89,-6.16 -2.68,-8.29 -1.78,-2.14 -4.62,-3.72 -8.51,-4.75 -2.8,-0.76 -5.36,-1.39 -7.67,-1.89 -2.31,-0.49 -5.21,-1.16 -8.7,-2 -3.12,-0.76 -5.92,-1.74 -8.4,-2.92 -2.48,-1.18 -4.67,-2.73 -6.57,-4.63 -1.87,-1.87 -3.32,-4.07 -4.35,-6.61 -1.03,-2.53 -1.55,-5.46 -1.55,-8.78 0,-6.9 2.86,-12.69 8.58,-17.36 5.72,-4.67 13.02,-7.01 21.9,-7.01 5.07,0 9.87,0.48 14.39,1.43 4.52,0.96 8.71,2.31 12.56,4.07 v 13.57 h -0.91 c -2.88,-2.48 -6.57,-4.65 -11.07,-6.5 -4.5,-1.85 -9.22,-2.78 -14.17,-2.78 -5.6,0 -10.12,1.23 -13.56,3.69 -3.45,2.46 -5.17,5.69 -5.17,9.69 0,3.62 1.01,6.5 3.04,8.63 2.03,2.13 4.97,3.7 8.82,4.68 2.56,0.65 5.68,1.38 9.37,2.2 3.69,0.82 6.76,1.57 9.19,2.26 6.25,1.79 10.81,4.5 13.69,8.12 2.88,3.62 4.32,8.08 4.32,13.38 0,3.32 -0.72,6.6 -2.16,9.84 -1.44,3.24 -3.46,5.99 -6.05,8.23 -2.92,2.48 -6.22,4.39 -9.89,5.72 -3.67,1.37 -8.26,2.04 -13.78,2.04"
   id="path6" />
	<polygon
   points="447.09,96.15 447.09,86.07 520.04,86.07 520.04,96.15 489.58,96.15 489.58,171.27 477.55,171.27 477.55,96.15 "
   id="polygon8" />
	<g
   id="g28">
		<path
   d="m 321.5,204.62 7.72,-22.91 h 3.75 l 7.72,22.91 h -3.22 l -2.08,-6.4 h -8.75 l -2.08,6.4 z m 13.06,-9 -3.54,-10.8 -3.52,10.8 z"
   id="path10" />
		<path
   d="m 352.46,205.06 c -1.62,0 -3.1,-0.25 -4.45,-0.74 -1.34,-0.49 -2.5,-1.24 -3.46,-2.25 -0.96,-1.02 -1.7,-2.27 -2.22,-3.77 -0.51,-1.5 -0.77,-3.22 -0.77,-5.17 0,-1.85 0.26,-3.5 0.78,-4.96 0.52,-1.46 1.26,-2.71 2.22,-3.75 0.93,-1.01 2.08,-1.78 3.45,-2.32 1.36,-0.54 2.86,-0.82 4.48,-0.82 0.77,0 1.51,0.06 2.22,0.17 0.71,0.11 1.38,0.27 2.03,0.46 0.51,0.15 1.08,0.37 1.72,0.64 0.63,0.27 1.14,0.51 1.53,0.7 v 3.68 h -0.26 c -0.38,-0.34 -0.77,-0.66 -1.18,-0.96 -0.41,-0.3 -0.98,-0.63 -1.72,-0.98 -0.62,-0.31 -1.32,-0.56 -2.12,-0.77 -0.8,-0.21 -1.66,-0.31 -2.58,-0.31 -2.21,0 -3.99,0.83 -5.35,2.49 -1.36,1.66 -2.04,3.87 -2.04,6.63 0,1.54 0.18,2.88 0.54,4.03 0.36,1.15 0.88,2.12 1.55,2.92 0.66,0.79 1.45,1.39 2.38,1.81 0.93,0.42 1.97,0.62 3.13,0.62 0.86,0 1.72,-0.06 2.57,-0.18 0.85,-0.12 1.57,-0.31 2.15,-0.55 v -5.92 h -5.29 v -2.68 h 8.31 v 10 c -0.39,0.17 -0.91,0.4 -1.56,0.66 -0.65,0.27 -1.26,0.48 -1.82,0.63 -0.75,0.23 -1.43,0.39 -2.03,0.51 -0.62,0.13 -1.35,0.18 -2.21,0.18 z"
   id="path12" />
		<path
   d="m 380.54,204.62 h -3.05 V 193.4 h -10.54 v 11.22 h -3.05 v -22.91 h 3.05 v 8.99 h 10.54 v -8.99 h 3.05 z"
   id="path14" />
		<path
   d="m 411.73,204.62 h -3.95 l -8.36,-10.66 -1.34,1.51 v 9.16 h -3.05 v -22.91 h 3.05 v 10.54 l 9.39,-10.54 h 3.71 l -9.48,10.23 z"
   id="path16" />
		<path
   d="m 431.3,204.62 h -3.95 l -7.26,-9.11 h -3.48 v 9.11 h -3.05 v -22.91 h 5.91 c 1.31,0 2.41,0.07 3.3,0.21 0.89,0.14 1.73,0.48 2.53,1 0.8,0.51 1.43,1.17 1.9,1.99 0.47,0.82 0.7,1.82 0.7,3.02 0,1.68 -0.43,3.09 -1.28,4.22 -0.85,1.13 -2.01,1.96 -3.48,2.51 z m -6.58,-16.47 c 0,-0.67 -0.12,-1.26 -0.35,-1.78 -0.24,-0.52 -0.6,-0.94 -1.09,-1.27 -0.43,-0.29 -0.93,-0.49 -1.51,-0.61 -0.57,-0.12 -1.29,-0.18 -2.14,-0.18 h -3.02 v 8.65 h 2.68 c 0.87,0 1.66,-0.08 2.35,-0.23 0.7,-0.15 1.29,-0.47 1.79,-0.95 0.44,-0.43 0.77,-0.94 0.98,-1.54 0.2,-0.59 0.31,-1.29 0.31,-2.09 z"
   id="path18" />
		<path
   d="m 430.64,204.62 7.72,-22.91 h 3.75 l 7.72,22.91 h -3.22 l -2.08,-6.4 h -8.75 l -2.08,6.4 z m 13.06,-9 -3.54,-10.8 -3.52,10.8 z"
   id="path20" />
		<path
   d="m 468.71,204.62 h -3.95 l -8.36,-10.66 -1.34,1.51 v 9.16 h -3.05 v -22.91 h 3.05 v 10.54 l 9.39,-10.54 h 3.71 l -9.48,10.23 z"
   id="path22" />
		<path
   d="m 486.74,184.34 c 0.87,1.01 1.55,2.25 2.03,3.74 0.48,1.49 0.72,3.18 0.72,5.09 0,1.86 -0.24,3.53 -0.71,5.03 -0.47,1.5 -1.15,2.75 -2.05,3.77 -0.93,1.07 -2.02,1.85 -3.27,2.36 -1.25,0.51 -2.62,0.76 -4.12,0.76 -1.55,0 -2.94,-0.26 -4.19,-0.78 -1.25,-0.52 -2.31,-1.3 -3.2,-2.34 -0.88,-1.02 -1.56,-2.27 -2.03,-3.75 -0.47,-1.49 -0.71,-3.17 -0.71,-5.05 0,-1.93 0.24,-3.62 0.72,-5.08 0.48,-1.46 1.16,-2.71 2.04,-3.75 0.88,-1.02 1.95,-1.79 3.19,-2.32 1.24,-0.53 2.64,-0.79 4.18,-0.79 1.56,0 2.96,0.27 4.22,0.82 1.26,0.54 2.32,1.3 3.18,2.29 z m -0.41,8.83 c 0,-1.52 -0.16,-2.86 -0.49,-4.03 -0.33,-1.17 -0.79,-2.14 -1.38,-2.91 -0.61,-0.79 -1.34,-1.38 -2.19,-1.78 -0.86,-0.39 -1.82,-0.59 -2.89,-0.59 -1.11,0 -2.07,0.19 -2.9,0.58 -0.83,0.38 -1.56,0.98 -2.19,1.79 -0.61,0.78 -1.07,1.76 -1.39,2.94 -0.32,1.18 -0.48,2.51 -0.48,4 0,3.01 0.63,5.31 1.89,6.9 1.26,1.59 2.95,2.39 5.08,2.39 2.12,0 3.81,-0.8 5.07,-2.39 1.26,-1.59 1.87,-3.89 1.87,-6.9 z m -2.7,-20.08 -4.2,5.75 h -2.29 l 2.75,-5.75 z"
   id="path24" />
		<path
   d="m 518.53,181.71 -5.75,22.91 h -3.43 l -4.66,-19.02 -4.55,19.02 h -3.35 l -5.86,-22.91 h 3.12 l 4.62,19.05 4.59,-19.05 h 3.09 l 4.63,19.23 4.59,-19.23 z"
   id="path26" />
	</g>
	<path
   d="m 198.23,171.38 -19.97,-11.51 h -52.14 l -19.96,11.51 c 19.1,33.19 76.22,87.54 138.1,92.24 -21.56,-12.07 -55.88,-55.47 -46.03,-92.24"
   id="path30" />
	<path
   d="m 155.48,109.03 v 0 l -0.39,-0.68 z M 212.33,0 c 0.32,24.72 -20.09,76.13 -56.86,85.98 l 0.01,23.04 26.07,45.16 19.95,11.54 C 220.69,132.58 239.2,55.95 212.33,0"
   id="path32" />
	<path
   d="m 122.84,154.18 v 0 l -0.39,0.68 z m 26.09,-68.2 C 110.63,85.93 35.01,108.22 0,159.47 21.25,146.83 75.98,138.8 102.9,165.72 l 19.94,-11.54 26.07,-45.15 z"
   id="path34" />
	<path
   d="m 139.97,141.03 c 0,-6.74 5.47,-12.21 12.22,-12.21 6.75,0 12.22,5.47 12.22,12.21 0,6.77 -5.47,12.22 -12.22,12.22 -6.75,0 -12.22,-5.46 -12.22,-12.22"
   id="path36" />
</g>
<g
   id="g40">
</g>
<g
   id="g42">
</g>
<g
   id="g44">
</g>
<g
   id="g46">
</g>
<g
   id="g48">
</g>
<g
   id="g50">
</g>
</svg>
