<?xml version="1.0" encoding="utf-8"?>
<!-- Generator: Adobe Illustrator 23.0.1, SVG Export Plug-In . SVG Version: 6.00 Build 0)  -->
<svg version="1.1" id="Warstwa_1" xmlns="http://www.w3.org/2000/svg" xmlns:xlink="http://www.w3.org/1999/xlink" x="0px" y="0px"
	 viewBox="0 0 68.57 68.53" style="enable-background:new 0 0 68.57 68.53;" xml:space="preserve">
<style type="text/css">
	.st0{fill:#020203;}
</style>
<g>
	<path class="st0" d="M67.77,41.31c-2.12,10.49-8.24,18.22-17.63,23.33c-2,1.09-4.11,1.91-6.34,2.53V41.84h7.33
		c0.38-2.88,0.74-5.7,1.12-8.6h-8.44c-0.02-0.17-0.05-0.25-0.05-0.34c0.01-1.94-0.03-3.89,0.03-5.83c0.06-2.14,1.19-3.29,3.34-3.39
		c1.53-0.07,3.07-0.04,4.61-0.05h0.71v-7.68c-2.75-0.23-5.47-0.53-8.18-0.2c-1.32,0.17-2.69,0.52-3.89,1.1
		c-3.57,1.72-5.13,4.84-5.4,8.62c-0.17,2.31-0.07,4.64-0.1,6.96v0.86h-7.32v8.55h7.32V67.8c0,0.25-0.04,0.49-0.06,0.73h-2.68
		c-0.15-0.04-0.3-0.1-0.45-0.11c-4.13-0.3-8.1-1.27-11.82-3.09C9.28,60.17,2.81,51.8,0.54,40.22C0.29,38.96,0.18,37.67,0,36.39
		v-4.28c0.06-0.44,0.12-0.88,0.16-1.32c0.8-7.34,3.54-13.86,8.54-19.3C17.1,2.33,27.56-1.36,39.85,0.45
		c6.99,1.02,13.09,4.1,18.12,9.07C66.89,18.34,70.26,29.04,67.77,41.31z"/>
</g>
<g>
</g>
<g>
</g>
<g>
</g>
<g>
</g>
<g>
</g>
<g>
</g>
</svg>
