<?xml version="1.0" encoding="utf-8"?>
<!-- Generator: Adobe Illustrator 23.0.1, SVG Export Plug-In . SVG Version: 6.00 Build 0)  -->
<svg version="1.1" id="Warstwa_1" xmlns="http://www.w3.org/2000/svg" xmlns:xlink="http://www.w3.org/1999/xlink" x="0px" y="0px"
	 viewBox="0 0 68.48 68.57" style="enable-background:new 0 0 68.48 68.57;" xml:space="preserve">
<style type="text/css">
	.st0{fill:#020203;}
</style>
<g>
	<path class="st0" d="M51.46,4.67c-6.27-3.86-13.23-5.17-20.55-4.5C16.01,1.54,3.48,12.94,0.66,27.66C0.38,29.14,0.22,30.65,0,32.15
		v4.28c0.18,1.28,0.3,2.57,0.53,3.83c1.52,8.37,5.6,15.24,12.16,20.63c4.93,4.06,10.61,6.47,16.94,7.37
		c0.83,0.12,1.67,0.21,2.51,0.31h4.28c1.28-0.18,2.56-0.3,3.83-0.53c8.37-1.53,15.25-5.6,20.64-12.16
		c4.32-5.28,6.96-11.36,7.47-18.16C69.42,23.34,63.73,12.24,51.46,4.67z M53.82,42.66c-0.03,1.75-0.37,3.46-1.12,5.05
		c-1.73,3.66-4.73,5.67-8.67,5.95c-4.24,0.3-8.51,0.28-12.77,0.28c-2.51,0-5.05-0.04-7.54-0.39c-4.93-0.71-8.41-4.45-8.83-9.44
		c-0.27-3.26-0.27-6.54-0.4-9.8c0.13-3.28,0.13-6.54,0.4-9.79c0.44-5.31,4.31-9.24,9.63-9.61c4.27-0.29,8.56-0.27,12.84-0.27
		c2.49,0,5.01,0.04,7.47,0.4c4.96,0.71,8.34,4.42,8.85,9.42c0.15,1.44,0.25,2.89,0.25,4.34C53.93,33.42,53.89,38.04,53.82,42.66z"/>
	<path class="st0" d="M50.18,24.42c-0.11-4.23-2.8-6.92-7-7.03c-5.95-0.16-11.91-0.16-17.85,0c-4.12,0.11-6.73,2.83-6.97,6.95
		c-0.18,2.96-0.19,5.93-0.28,8.91c0.09,2.99,0.1,6.01,0.28,9.01c0.24,4.08,2.85,6.72,6.92,6.95c5.99,0.35,11.99,0.35,17.98,0
		c4.07-0.23,6.81-2.87,6.92-6.93C50.34,36.33,50.34,30.37,50.18,24.42z M34.29,43.39c-5.6,0.01-10.13-4.53-10.11-10.12
		c0.02-5.59,4.51-10.07,10.09-10.08c5.6-0.01,10.13,4.53,10.11,10.13C44.36,38.9,39.86,43.38,34.29,43.39z M44.76,25.13
		c-1.3-0.01-2.32-1.04-2.32-2.34c-0.01-1.33,1.05-2.37,2.37-2.36c1.3,0.01,2.33,1.06,2.33,2.35C47.14,24.1,46.08,25.14,44.76,25.13z
		"/>
	<path class="st0" d="M40.84,33.31c-0.01,3.6-2.95,6.54-6.56,6.54c-3.63,0-6.58-2.97-6.56-6.61c0.02-3.6,2.98-6.52,6.59-6.51
		C37.92,26.75,40.85,29.7,40.84,33.31z"/>
</g>
<g>
</g>
<g>
</g>
<g>
</g>
<g>
</g>
<g>
</g>
<g>
</g>
</svg>
