<?xml version="1.0" encoding="UTF-8" standalone="no"?>
<!-- Generator: Adobe Illustrator 23.0.1, SVG Export Plug-In . SVG Version: 6.00 Build 0)  -->

<svg
   version="1.1"
   id="Logo"
   x="0px"
   y="0px"
   viewBox="0 0 176.00128 40.199999"
   xml:space="preserve"
   sodipodi:docname="itp-01.svg"
   width="176.00128"
   height="40.200001"
   inkscape:version="1.1.2 (b8e25be833, 2022-02-05)"
   xmlns:inkscape="http://www.inkscape.org/namespaces/inkscape"
   xmlns:sodipodi="http://sodipodi.sourceforge.net/DTD/sodipodi-0.dtd"
   xmlns="http://www.w3.org/2000/svg"
   xmlns:svg="http://www.w3.org/2000/svg"><defs
   id="defs82" /><sodipodi:namedview
   id="namedview80"
   pagecolor="#ffffff"
   bordercolor="#cccccc"
   borderopacity="1"
   inkscape:pageshadow="0"
   inkscape:pageopacity="1"
   inkscape:pagecheckerboard="0"
   showgrid="false"
   inkscape:zoom="5.2315009"
   inkscape:cx="86.781979"
   inkscape:cy="16.725602"
   inkscape:window-width="1920"
   inkscape:window-height="992"
   inkscape:window-x="-8"
   inkscape:window-y="-8"
   inkscape:window-maximized="1"
   inkscape:current-layer="Logo" />
<style
   type="text/css"
   id="style2">
	.st0{fill:#231F20;}
	.st1{fill:#F78F28;}
	.st2{fill:url(#SVGID_1_);}
</style>
<g
   id="g77"
   transform="translate(-20.51872,-23.1)">
	<path
   class="st0"
   d="m 73.21,59.12 c -0.25,0.22 -0.57,0.38 -0.94,0.5 -0.37,0.11 -0.76,0.17 -1.16,0.17 -0.96,0 -1.71,-0.26 -2.24,-0.78 -0.53,-0.52 -0.8,-1.26 -0.8,-2.22 V 48 h 1.74 v 2.1 h 2.75 v 1.43 h -2.75 v 5.19 c 0,0.52 0.13,0.92 0.39,1.19 0.26,0.28 0.63,0.42 1.11,0.42 0.53,0 0.98,-0.15 1.36,-0.45 z"
   id="path4" />
	<path
   class="st0"
   d="m 85.51,53.89 v 5.79 h -1.65 v -1.27 c -0.58,0.87 -1.65,1.37 -3.15,1.37 -2.17,0 -3.54,-1.16 -3.54,-2.82 0,-1.54 0.99,-2.8 3.85,-2.8 h 2.75 v -0.34 c 0,-1.46 -0.85,-2.31 -2.57,-2.31 -1.14,0 -2.3,0.4 -3.04,1.03 l -0.72,-1.3 c 0.99,-0.8 2.42,-1.23 3.96,-1.23 2.63,0 4.11,1.26 4.11,3.88 z m -1.74,2.86 V 55.41 H 81.1 c -1.72,0 -2.21,0.67 -2.21,1.48 0,0.96 0.8,1.55 2.12,1.55 1.3,0.01 2.33,-0.59 2.76,-1.69 z"
   id="path6" />
	<path
   class="st0"
   d="m 95.51,50.01 v 1.68 c -0.14,-0.02 -0.27,-0.02 -0.4,-0.02 -1.86,0 -3.02,1.14 -3.02,3.24 v 4.77 H 90.35 V 50.1 h 1.66 v 1.61 c 0.63,-1.13 1.82,-1.7 3.5,-1.7 z"
   id="path8" />
	<path
   class="st0"
   d="m 108.96,50.1 v 8.28 c 0,3.38 -1.72,4.92 -4.97,4.92 -1.75,0 -3.53,-0.49 -4.57,-1.43 l 0.83,-1.34 c 0.89,0.76 2.28,1.25 3.69,1.25 2.26,0 3.29,-1.05 3.29,-3.22 V 57.8 c -0.83,0.99 -2.08,1.48 -3.45,1.48 -2.77,0 -4.86,-1.88 -4.86,-4.65 0,-2.77 2.1,-4.63 4.86,-4.63 1.43,0 2.73,0.52 3.54,1.57 V 50.1 Z m -1.7,4.53 c 0,-1.86 -1.37,-3.11 -3.29,-3.11 -1.93,0 -3.31,1.25 -3.31,3.11 0,1.84 1.37,3.13 3.31,3.13 1.91,0 3.29,-1.28 3.29,-3.13 z"
   id="path10" />
	<path
   class="st0"
   d="m 114.33,47.13 c 0,-0.63 0.51,-1.14 1.18,-1.14 0.67,0 1.17,0.49 1.17,1.1 0,0.65 -0.49,1.16 -1.17,1.16 -0.67,0 -1.18,-0.49 -1.18,-1.12 z m 0.31,2.97 h 1.74 v 9.58 h -1.74 z"
   id="path12" />
	<path
   class="st0"
   d="m 138.56,54.89 c 0,2.95 -2.04,4.9 -4.85,4.9 -1.36,0 -2.55,-0.52 -3.34,-1.55 v 4.95 h -1.74 V 50.1 h 1.66 v 1.52 c 0.78,-1.07 2.01,-1.61 3.42,-1.61 2.8,0 4.85,1.95 4.85,4.88 z m -1.76,0 c 0,-2.02 -1.39,-3.36 -3.24,-3.36 -1.83,0 -3.22,1.34 -3.22,3.36 0,2.04 1.39,3.38 3.22,3.38 1.85,0 3.24,-1.34 3.24,-3.38 z"
   id="path14" />
	<path
   class="st0"
   d="m 148.04,50.01 v 1.68 c -0.14,-0.02 -0.27,-0.02 -0.4,-0.02 -1.86,0 -3.02,1.14 -3.02,3.24 v 4.77 h -1.74 V 50.1 h 1.66 v 1.61 c 0.63,-1.13 1.82,-1.7 3.5,-1.7 z"
   id="path16" />
	<path
   class="st0"
   d="m 160.12,53.89 v 5.79 h -1.65 v -1.27 c -0.58,0.87 -1.65,1.37 -3.15,1.37 -2.17,0 -3.54,-1.16 -3.54,-2.82 0,-1.54 0.99,-2.8 3.85,-2.8 h 2.75 v -0.34 c 0,-1.46 -0.85,-2.31 -2.57,-2.31 -1.14,0 -2.3,0.4 -3.04,1.03 l -0.72,-1.3 c 0.99,-0.8 2.42,-1.23 3.96,-1.23 2.63,0 4.11,1.26 4.11,3.88 z m -1.74,2.86 v -1.34 h -2.68 c -1.72,0 -2.21,0.67 -2.21,1.48 0,0.96 0.8,1.55 2.12,1.55 1.31,0.01 2.34,-0.59 2.77,-1.69 z"
   id="path18" />
	<path
   class="st0"
   d="m 164.14,54.89 c 0,-2.86 2.12,-4.88 5.06,-4.88 1.72,0 3.15,0.71 3.9,2.04 l -1.32,0.85 c -0.61,-0.94 -1.55,-1.37 -2.6,-1.37 -1.88,0 -3.29,1.32 -3.29,3.36 0,2.08 1.41,3.38 3.29,3.38 1.05,0 1.99,-0.43 2.6,-1.37 l 1.32,0.83 c -0.76,1.34 -2.19,2.06 -3.9,2.06 -2.95,0 -5.06,-2.05 -5.06,-4.9 z"
   id="path20" />
	<path
   class="st0"
   d="m 186.31,50.1 -4.65,10.54 c -0.85,2.02 -1.95,2.66 -3.42,2.66 -0.92,0 -1.86,-0.31 -2.46,-0.89 l 0.74,-1.3 c 0.47,0.45 1.07,0.7 1.72,0.7 0.83,0 1.36,-0.38 1.83,-1.48 l 0.31,-0.67 -4.23,-9.56 h 1.81 l 3.34,7.67 3.31,-7.67 z"
   id="path22" />
	<g
   id="g58">
		<path
   class="st0"
   d="M 98.77,41.5 H 96.83 V 36.4 C 94.32,36.12 93.07,34.85 93.07,32.58 V 23.5 h 1.94 v 9.08 c 0,1.48 0.92,2.21 2.77,2.21 1.84,0 2.77,-0.74 2.77,-2.21 V 23.5 h 1.94 v 9.08 c 0,2.27 -1.24,3.54 -3.71,3.82 v 5.1 z"
   id="path24" />
		<path
   class="st0"
   d="m 108.98,41.5 h -1.94 V 23.51 h 0.83 l 0.69,1.8 c 0.89,-1.48 2.11,-2.21 3.68,-2.21 2.71,0 4.07,1.29 4.07,3.87 V 41.5 h -1.94 V 26.97 c 0,-0.7 -0.15,-1.25 -0.46,-1.63 -0.3,-0.39 -0.86,-0.58 -1.67,-0.58 -0.81,0 -1.56,0.31 -2.24,0.94 -0.68,0.63 -1.02,1.24 -1.02,1.83 z"
   id="path26" />
		<path
   class="st0"
   d="m 123.51,41.5 h -1.94 V 23.51 h 1.94 z"
   id="path28" />
		<path
   class="st0"
   d="m 135.83,38.04 v -1.52 h 1.94 v 1.52 c 0,1.24 -0.38,2.19 -1.13,2.86 -0.76,0.67 -1.89,1.01 -3.4,1.01 -1.51,0 -2.66,-0.34 -3.43,-1.01 -0.77,-0.67 -1.16,-1.63 -1.16,-2.86 V 26.97 c 0,-1.24 0.38,-2.19 1.13,-2.86 0.76,-0.67 1.89,-1.01 3.4,-1.01 1.51,0 2.66,0.34 3.43,1.01 0.77,0.67 1.16,1.63 1.16,2.86 v 6.09 h -7.2 v 4.98 c 0,1.48 0.88,2.21 2.63,2.21 1.75,0 2.63,-0.74 2.63,-2.21 z m -5.26,-11.07 v 4.43 h 5.26 v -4.43 c 0,-1.48 -0.88,-2.21 -2.63,-2.21 -1.75,-0.01 -2.63,0.73 -2.63,2.21 z"
   id="path30" />
		<path
   class="st0"
   d="m 144.82,41.5 h -1.94 V 23.51 h 0.83 l 0.8,2.05 c 0.59,-1.64 1.53,-2.46 2.82,-2.46 2.2,0 3.29,1.2 3.29,3.6 v 1.8 h -1.85 v -1.91 c 0,-1.22 -0.51,-1.83 -1.52,-1.83 -0.61,0 -1.17,0.35 -1.67,1.05 -0.51,0.7 -0.76,1.72 -0.76,3.04 z"
   id="path32" />
		<path
   class="st0"
   d="m 162.75,38.04 c 0,2.58 -1.56,3.87 -4.68,3.87 -3.12,0 -4.68,-1.29 -4.68,-3.87 v -2.35 h 1.94 v 2.46 c 0,0.66 0.23,1.18 0.69,1.55 0.46,0.37 1.14,0.55 2.05,0.55 0.9,0 1.59,-0.18 2.05,-0.55 0.46,-0.37 0.69,-0.87 0.69,-1.51 0,-0.64 -0.07,-1.14 -0.21,-1.52 -0.14,-0.38 -0.42,-0.78 -0.84,-1.2 l -4.87,-4.76 c -0.57,-0.57 -0.96,-1.13 -1.18,-1.67 -0.21,-0.54 -0.32,-1.23 -0.32,-2.06 0,-1.24 0.38,-2.19 1.15,-2.86 0.77,-0.67 1.92,-1.01 3.47,-1.01 2.97,0 4.46,1.29 4.46,3.87 v 2.35 h -1.94 v -2.46 c 0,-0.66 -0.22,-1.18 -0.65,-1.55 -0.43,-0.37 -1.08,-0.55 -1.95,-0.55 -0.87,0 -1.52,0.18 -1.95,0.55 -0.43,0.37 -0.65,0.88 -0.65,1.52 0,0.65 0.06,1.15 0.19,1.52 0.13,0.37 0.42,0.76 0.86,1.16 l 4.95,4.76 c 0.53,0.59 0.9,1.16 1.11,1.7 0.21,0.54 0.31,1.23 0.31,2.06 z"
   id="path34" />
		<path
   class="st0"
   d="m 169.7,41.5 h -1.94 V 23.51 h 1.94 v 7.64 l 4.82,-7.64 h 2.16 l -4.9,7.75 5.23,10.24 h -2.13 l -4.26,-8.38 -0.91,1.47 v 6.91 z"
   id="path36" />
		<path
   class="st0"
   d="m 182.26,41.5 h -1.94 V 23.51 h 1.94 z"
   id="path38" />
		<path
   class="st0"
   d="m 194.58,38.04 v -1.52 h 1.94 v 1.52 c 0,1.24 -0.38,2.19 -1.13,2.86 -0.76,0.67 -1.89,1.01 -3.4,1.01 -1.51,0 -2.66,-0.34 -3.43,-1.01 -0.77,-0.67 -1.16,-1.63 -1.16,-2.86 V 26.97 c 0,-1.24 0.38,-2.19 1.13,-2.86 0.76,-0.67 1.89,-1.01 3.4,-1.01 1.51,0 2.66,0.34 3.43,1.01 0.77,0.67 1.16,1.63 1.16,2.86 v 6.09 h -7.2 v 4.98 c 0,1.48 0.88,2.21 2.63,2.21 1.75,0 2.63,-0.74 2.63,-2.21 z m -5.26,-11.07 v 4.43 h 5.26 v -4.43 c 0,-1.48 -0.88,-2.21 -2.63,-2.21 -1.75,-0.01 -2.63,0.73 -2.63,2.21 z"
   id="path40" />
		<rect
   x="142.88"
   y="23.51"
   class="st0"
   width="1.67"
   height="2.4400001"
   id="rect42" />
		<rect
   x="107.05"
   y="23.51"
   class="st0"
   width="1.5"
   height="2.4400001"
   id="rect44" />
		<g
   id="g56">
			<g
   id="g52">
				<path
   class="st1"
   d="M 62.44,41.5 H 60.5 V 23.51 h 1.94 z"
   id="path46" />
				<path
   class="st1"
   d="M 69.91,41.5 H 67.97 V 23.51 h 0.83 l 0.69,1.8 c 0.89,-1.48 2.11,-2.21 3.68,-2.21 2.71,0 4.07,1.29 4.07,3.87 V 41.5 H 75.3 V 26.97 c 0,-0.7 -0.15,-1.25 -0.46,-1.63 -0.3,-0.39 -0.86,-0.58 -1.67,-0.58 -0.81,0 -1.56,0.31 -2.24,0.94 -0.68,0.63 -1.02,1.24 -1.02,1.83 V 41.5 Z"
   id="path48" />
				<path
   class="st1"
   d="m 81.12,25.17 v -1.66 h 9.05 v 1.66 l -7.44,14.67 h 7.31 V 41.5 H 80.7 v -1.66 l 7.44,-14.67 z m 7.39,7.92 H 82.36 V 31.5 h 6.15 z"
   id="path50" />
			</g>
			<rect
   x="67.970001"
   y="23.51"
   class="st1"
   width="1.49"
   height="3.3099999"
   id="rect54" />
		</g>
	</g>
	<path
   d="m 47.18,39.81 c 0.2,1.11 0.22,2.27 0.05,3.44 -0.77,6.23 -6.2,11.25 -13.15,12.3 l 0.51,2.05 c 1.3,0.16 2.59,0.16 3.84,0.01 l 0.7,-2.8 c 0.56,-0.11 1.11,-0.26 1.65,-0.44 l 2.01,2.07 c 1.18,-0.51 2.3,-1.15 3.33,-1.92 l -0.79,-2.77 c 0.43,-0.38 0.83,-0.78 1.21,-1.21 l 2.77,0.79 C 50.07,50.32 50.72,49.2 51.23,48 l -2.07,-2.01 c 0.13,-0.4 0.25,-0.8 0.35,-1.22 0.03,-0.14 0.06,-0.29 0.09,-0.43 l 2.8,-0.7 c 0.16,-1.3 0.16,-2.59 0.01,-3.84 l -2.8,-0.7 C 49.5,38.54 49.35,37.99 49.17,37.45 l 2.07,-2.01 c -0.51,-1.18 -1.15,-2.3 -1.92,-3.33 l -2.77,0.79 c -0.38,-0.43 -0.78,-0.83 -1.21,-1.21 l 0.79,-2.77 C 45.12,28.16 44,27.51 42.8,27 l -2,2.07 C 40.4,28.94 40,28.82 39.58,28.72 39.44,28.69 39.29,28.66 39.15,28.63 l -0.7,-2.8 c -1.3,-0.16 -2.59,-0.16 -3.84,-0.01 l -0.52,2.09 c 6.8,1 12.15,5.84 13.09,11.9 z"
   id="path60" />
	<linearGradient
   id="SVGID_1_"
   gradientUnits="userSpaceOnUse"
   x1="20.514999"
   y1="41.696899"
   x2="40.063499"
   y2="41.696899">
		<stop
   offset="0"
   style="stop-color:#F78F27"
   id="stop62" />
		<stop
   offset="0.5768"
   style="stop-color:#F78D33"
   id="stop64" />
		<stop
   offset="0.6061"
   style="stop-color:#F78D33"
   id="stop66" />
		<stop
   offset="0.8057"
   style="stop-color:#F79126;stop-opacity:0.5"
   id="stop68" />
		<stop
   offset="0.9198"
   style="stop-color:#F69320;stop-opacity:0.2"
   id="stop70" />
		<stop
   offset="1"
   style="stop-color:#F69320;stop-opacity:0"
   id="stop72" />
	</linearGradient>
	<path
   class="st2"
   d="m 23.44,39.07 -2.8,0.7 c -0.16,1.3 -0.16,2.59 -0.01,3.84 l 2.8,0.7 c 0.11,0.56 0.26,1.11 0.44,1.65 l -2.07,2 c 0.5,1.18 1.15,2.3 1.92,3.33 L 26.5,50.5 c 0.37,0.43 0.78,0.83 1.21,1.21 l -0.79,2.77 c 1.01,0.76 2.13,1.41 3.33,1.92 l 2,-2.07 c 0.03,0.01 0.05,0.02 0.08,0.03 2.88,-0.16 5.54,-1.04 7.74,-2.44 -1.87,0.65 -3.95,0.8 -6.02,0.31 -5.82,-1.37 -9.43,-7.2 -8.06,-13.02 1.37,-5.82 7.2,-9.43 13.02,-8.06 0.33,0.08 0.65,0.17 0.96,0.27 -2.19,-1.37 -4.83,-2.23 -7.7,-2.37 v -0.01 c 0,0 -0.01,0 -0.01,0 l -2,-2.07 c -1.18,0.51 -2.3,1.15 -3.33,1.92 l 0.79,2.77 c -0.43,0.38 -0.83,0.78 -1.21,1.21 l -2.77,-0.79 c -0.76,1.01 -1.41,2.13 -1.92,3.33 l 2.07,2.01 c -0.13,0.4 -0.25,0.8 -0.35,1.22 -0.05,0.15 -0.08,0.29 -0.1,0.43 z"
   id="path75"
   style="fill:url(#SVGID_1_)" />
</g>
</svg>
