<?xml version="1.0" encoding="utf-8"?>
<!-- Generator: Adobe Illustrator 23.0.1, SVG Export Plug-In . SVG Version: 6.00 Build 0)  -->
<svg version="1.1" id="Warstwa_1" xmlns="http://www.w3.org/2000/svg" xmlns:xlink="http://www.w3.org/1999/xlink" x="0px" y="0px"
	 viewBox="0 0 68.48 68.57" style="enable-background:new 0 0 68.48 68.57;" xml:space="preserve">
<style type="text/css">
	.st0{fill:#020203;}
</style>
<g>
	<path class="st0" d="M51.46,4.68C45.19,0.81,38.23-0.5,30.91,0.17C16.01,1.54,3.47,12.94,0.66,27.66C0.38,29.14,0.22,30.65,0,32.15
		v4.28c0.18,1.28,0.3,2.57,0.53,3.83c1.52,8.37,5.6,15.24,12.16,20.63c4.93,4.06,10.61,6.47,16.94,7.37
		c0.83,0.12,1.67,0.21,2.51,0.31h4.28c1.28-0.18,2.56-0.3,3.83-0.53c8.37-1.53,15.25-5.6,20.63-12.16
		c4.33-5.28,6.97-11.36,7.48-18.16C69.42,23.34,63.73,12.24,51.46,4.68z M24.33,28.46v23.33h-8.32V26.7h1.12
		c2.18,0,4.37,0.02,6.56-0.01c0.48,0,0.7,0.12,0.64,0.64C24.3,27.7,24.33,28.09,24.33,28.46z M24.63,20.37
		c-0.81,2.43-3.9,3.63-6.51,2.54c-2.32-0.97-3.33-3.65-2.19-5.91c0.89-1.75,2.46-2.34,3.97-2.39C23.5,14.62,25.63,17.41,24.63,20.37
		z M54.38,51.81h-8.31v-0.73c0-4.17,0.02-8.35-0.02-12.52c-0.01-0.97-0.1-1.97-0.36-2.9c-0.8-2.81-3.91-3.88-6.32-2.2
		c-1.2,0.85-1.97,2.01-2.03,3.52c-0.06,1.31-0.05,2.63-0.06,3.94v10.87h-8.3V26.75h8.29v3.43c0.22-0.26,0.32-0.36,0.4-0.48
		c2.05-2.88,4.92-3.89,8.3-3.5c4.72,0.55,7.65,3.62,8.25,8.51c0.12,0.95,0.18,1.91,0.18,2.87c0.02,4.52,0.01,9.05,0.01,13.58
		C54.41,51.36,54.39,51.56,54.38,51.81z"/>
</g>
</svg>
